<svg height="96" width="96" xmlns="http://www.w3.org/2000/svg" xmlns:xlink="http://www.w3.org/1999/xlink"><linearGradient id="a"><stop offset="0" stop-color="#fff"/><stop offset="1" stop-color="#fff" stop-opacity="0"/></linearGradient><linearGradient id="b" gradientUnits="userSpaceOnUse" x1="36.357143" x2="36.357143" xlink:href="#a" y1="6" y2="63.893143"/><filter id="c" color-interpolation-filters="sRGB" height="1.3839999" width="1.3839999" x="-.192" y="-.192"><feGaussianBlur stdDeviation="5.28"/></filter><linearGradient id="d" gradientUnits="userSpaceOnUse" x1="48" x2="48" xlink:href="#a" y1="20.220806" y2="138.66119"/><radialGradient id="e" cx="48" cy="90.171875" gradientTransform="matrix(1.1573129 0 0 .99590774 -7.5510206 .19713193)" gradientUnits="userSpaceOnUse" r="42" xlink:href="#a"/><clipPath id="f"><rect height="84" rx="6" width="84" x="6" y="6"/></clipPath><linearGradient id="g" gradientUnits="userSpaceOnUse" x1="48" x2="48" y1="90" y2="5.9877172"><stop offset="0" stop-color="#2a782a"/><stop offset="1" stop-color="#278f27"/></linearGradient><linearGradient id="h" gradientTransform="matrix(1.0058652 0 0 .994169 100 0)" gradientUnits="userSpaceOnUse" x1="45.447727" x2="45.447727" y1="92.539597" y2="7.0165396"><stop offset="0"/><stop offset="1" stop-opacity=".58823532"/></linearGradient><linearGradient id="i" gradientTransform="matrix(1.0238095 0 0 1.0119048 -1.1428571 -98.071429)" gradientUnits="userSpaceOnUse" x1="32.251034" x2="32.251034" xlink:href="#h" y1="6.1317081" y2="90.238609"/><linearGradient id="j" gradientTransform="translate(0 -97)" gradientUnits="userSpaceOnUse" x1="32.251034" x2="32.251034" xlink:href="#h" y1="6.1317081" y2="90.238609"/><path d="m12-95.03125c-5.5110903 0-10.03125 4.52016-10.03125 10.03125v71c0 5.5110902 4.5201598 10.03125 10.03125 10.03125h72c5.51109 0 10.03125-4.5201597 10.03125-10.03125v-71c0-5.51109-4.52016-10.03125-10.03125-10.03125z" fill="url(#i)" opacity=".07999998" transform="scale(1 -1)"/><path d="m12-94.03125c-4.971633 0-9.03125 4.059617-9.03125 9.03125v71c0 4.9716329 4.0596171 9.03125 9.03125 9.03125h72c4.971633 0 9.03125-4.059617 9.03125-9.03125v-71c0-4.971633-4.059617-9.03125-9.03125-9.03125z" fill="url(#i)" opacity=".1" transform="scale(1 -1)"/><path d="m12-93c-4.4091333 0-8 3.590867-8 8v71c0 4.4091333 3.5908667 8 8 8h72c4.409133 0 8-3.5908667 8-8v-71c0-4.409133-3.590867-8-8-8z" fill="url(#i)" opacity=".2" transform="scale(1 -1)"/><rect fill="url(#i)" height="85" opacity=".3" rx="7" transform="scale(1 -1)" width="86" x="5" y="-92"/><rect fill="url(#j)" height="84" opacity=".45" rx="6" transform="scale(1 -1)" width="84" x="6" y="-91"/><rect fill="url(#g)" height="84" rx="6" width="84" x="6" y="6"/><path d="m12 6c-3.324 0-6 2.676-6 6v2 68 2c0 .334721.04135.6507.09375.96875.0487.295596.09704.596915.1875.875.00988.03038.020892.0636.03125.09375.098865.287771.2348802.547452.375.8125.1445918.273507.3156161.535615.5.78125.1843839.245635.3737765.473472.59375.6875.439947.428056.94291.814526 1.5 1.09375.278545.139612.5734731.246947.875.34375-.2562018-.100222-.4867109-.236272-.71875-.375-.00741-.0044-.023866.0045-.03125 0-.031933-.0193-.062293-.04251-.09375-.0625-.120395-.0767-.2310226-.163513-.34375-.25-.1061728-.0808-.2132809-.161112-.3125-.25-.1779299-.161433-.3474596-.345388-.5-.53125-.1075789-.130255-.2183939-.265285-.3125-.40625-.025089-.03838-.038446-.08587-.0625-.125-.064763-.103032-.1302275-.204517-.1875-.3125-.1010083-.194706-.2056748-.415701-.28125-.625-.00796-.02181-.023589-.04055-.03125-.0625-.0318251-.09195-.0358045-.186831-.0625-.28125-.0303323-.106618-.0703894-.203031-.09375-.3125-.0728786-.341512-.125-.698205-.125-1.0625v-2-68-2c0-2.781848 2.2181517-5 5-5h2 68 2c2.781848 0 5 2.218152 5 5v2 68 2c0 .364295-.05212.720988-.125 1.0625-.04415.206893-.08838.397658-.15625.59375-.0077.02195-.0233.04069-.03125.0625-.06274.173739-.138383.367449-.21875.53125-.04158.0828-.07904.169954-.125.25-.0546.09721-.126774.18835-.1875.28125-.09411.140965-.204921.275995-.3125.40625-.143174.17445-.303141.346998-.46875.5-.01117.0102-.01998.02115-.03125.03125-.138386.125556-.285091.234436-.4375.34375-.102571.07315-.204318.153364-.3125.21875-.0074.0045-.02384-.0044-.03125 0-.232039.138728-.462548.274778-.71875.375.301527-.0968.596455-.204138.875-.34375.55709-.279224 1.060053-.665694 1.5-1.09375.219973-.214028.409366-.441865.59375-.6875.184384-.245635.355408-.507743.5-.78125.14012-.265048.276135-.524729.375-.8125.01041-.03078.02133-.06274.03125-.09375.09046-.278085.1388-.579404.1875-.875.0524-.31805.09375-.634029.09375-.96875v-2-68-2c0-3.324-2.676-6-6-6z" fill="url(#b)" opacity=".3"/><path d="m12 90c-3.324 0-6-2.676-6-6v-2-68-2c0-.334721.04135-.6507.09375-.96875.0487-.295596.09704-.596915.1875-.875.00988-.03038.020892-.0636.03125-.09375.098865-.287771.2348802-.547452.375-.8125.1445918-.273507.3156161-.535615.5-.78125.1843839-.245635.3737765-.473472.59375-.6875.439947-.428056.94291-.814526 1.5-1.09375.278545-.139612.5734731-.246947.875-.34375-.2562018.100222-.4867109.236272-.71875.375-.00741.0044-.023866-.0045-.03125 0-.031933.0193-.062293.04251-.09375.0625-.120395.0767-.2310226.163513-.34375.25-.1061728.0808-.2132809.161112-.3125.25-.1779299.161433-.3474596.345388-.5.53125-.1075789.130255-.2183939.265285-.3125.40625-.025089.03838-.038446.08587-.0625.125-.064763.103032-.1302275.204517-.1875.3125-.1010083.194706-.2056748.415701-.28125.625-.00796.02181-.023589.04055-.03125.0625-.0318251.09195-.0358045.186831-.0625.28125-.0303323.106618-.0703894.203031-.09375.3125-.0728786.341512-.125.698205-.125 1.0625v2 68 2c0 2.781848 2.2181517 5 5 5h2 68 2c2.781848 0 5-2.218152 5-5v-2-68-2c0-.364295-.05212-.720988-.125-1.0625-.04415-.206893-.08838-.397658-.15625-.59375-.0077-.02195-.0233-.04069-.03125-.0625-.06274-.173739-.138383-.367449-.21875-.53125-.04158-.0828-.07904-.169954-.125-.25-.0546-.09721-.126774-.18835-.1875-.28125-.09411-.140965-.204921-.275995-.3125-.40625-.143174-.17445-.303141-.346998-.46875-.5-.01117-.0102-.01998-.02115-.03125-.03125-.138386-.125556-.285091-.234436-.4375-.34375-.102571-.07315-.204318-.153364-.3125-.21875-.0074-.0045-.02384.0044-.03125 0-.232039-.138728-.462548-.274778-.71875-.375.301527.0968.596455.204138.875.34375.55709.279224 1.060053.665694 1.5 1.09375.219973.214028.409366.441865.59375.6875.184384.245635.355408.507743.5.78125.14012.265048.276135.524729.375.8125.01041.03078.02133.06274.03125.09375.09046.278085.1388.579404.1875.875.0524.31805.09375.634029.09375.96875v2 68 2c0 3.324-2.676 6-6 6z" fill="url(#e)" opacity=".15"/><rect height="66" rx="12" style="opacity:.1;stroke:#fff;stroke-width:.5;stroke-linecap:round;clip-path:url(#f);fill:url(#d);filter:url(#c)" width="66" x="15" y="15"/><path d="m48.09375 21.03125c-3.609461 0-7.471231.659966-10.78125 2.53125-3.323033 1.878642-6.018546 5.080765-6.90625 9.71875-.183213.965004.05656 1.915839.65625 2.59375.493749.558156 1.114934.794481 1.65625.9375v.03125c-.0016-.000632.06634.02121.09375.03125.0084.0031.03175.000166.03125 0 .01185.0027.0195.02865.03125.03125.02967.0089.06379.000351.0625 0a .98390642.98390642 0 0 0  .15625.03125l6.875.75a.98390642.98390642 0 0 0  .03125 0c-.0028-.000204.127827.03125.125.03125-.0028 0 .12782-.03145.125-.03125.912441-.04676 1.644271-.48711 2.125-1.03125.455286-.515342.718017-1.142078.84375-1.75.0051-.02452-.0034-.01036 0-.03125.215754-.980035.647054-1.602344 1.28125-2.03125.641223-.433658 1.536485-.6875 2.59375-.6875.964775 0 2.016866.451078 2.40625.96875a.98390642.98390642 0 0 0  .03125.03125.98390642.98390642 0 0 0  .03125.0625c.403742.586064.5066 1.869601.53125 3.28125-3.810364.37582-8.412158.76313-12.21875 2.40625-.0089.0038-.02241-.0038-.03125 0-4.99632 2.151036-8.65625 6.811611-8.65625 13.1875 0 4.049872 1.315152 7.357944 3.625 9.5625 2.307036 2.201872 5.475272 3.21875 8.84375 3.21875 4.621994 0 7.976753-1.259135 11.40625-4.21875.742979 1.02432 1.559149 2.035621 3.1875 3.375a.98390642.98390642 0 0 0  .03125.03125c-.0016-.0012.09546.06365.09375.0625-.0017-.0012.06427.06356.0625.0625-.0018-.0011.09557.03222.09375.03125-.000701-.000372.01506.02321.03125.03125.0097.0048.02154-.0048.03125 0 .01618.0081.03197.03158.03125.03125.914035.456526 1.927051.337259 2.78125-.03125v.03125c-.0023.000365.09601-.03175.09375-.03125-.0023.000499.127229-.000632.125 0-.0022.000632.09594-.03201.09375-.03125-.0022.000763.09589-.06339.09375-.0625-.0021.000891.127082-.03227.125-.03125-.0021.001.09577-.06364.09375-.0625-.002.0011.0957-.06376.09375-.0625-.0019.0013.09562-.06387.09375-.0625a.98390642.98390642 0 0 0  .03125-.03125c.03729-.02442.05313.004.09375-.03125.129283-.11379.14228-.12892.03125-.03125 1.394151-1.226457 3.954242-3.44457 5.375-4.625.158215-.128107.151819-.133976.03125-.03125.72301-.616003 1.074196-1.495204 1.03125-2.375-.03763-.770817-.314838-1.413637-.6875-1.9375a.98390642.98390642 0 0 0 -.125-.15625.98390642.98390642 0 0 0 -.09375-.0625c-1.286008-1.723942-2.15625-2.564597-2.15625-5.25v-10.9375c0-2.275075.103204-4.573063-.28125-6.875-.385374-2.307448-1.359066-4.63029-3.40625-6.53125l.03125-.03125c-.0063-.0059-.02498.0059-.03125 0-3.29397-3.118667-8.203453-4-11.96875-4zm2.03125 24.75c.000828 2.476516-.03023 4.203696-1.09375 6.0625-.879744 1.54402-2.056249 2.28125-3.3125 2.28125-.918145 0-1.363961-.250104-1.78125-.75-.397708-.476438-.71875-1.302327-.71875-2.5 0-2.468341.778653-3.353513 2.34375-4.15625 1.107797-.568189 2.793694-.822828 4.5625-.9375zm24.375 13.9375c-2.436818.03328-5.359323.539486-7.75 2.21875-.306148.216714-.632326.520937-.875.9375-.242674.416563-.375907.965193-.28125 1.53125.122119.730285.517494 1.245767 1.125 1.5625.17297.09018.351887.04899.53125.09375-6.195869 2.087976-12.639562 3.1875-18.59375 3.1875-10.83824 0-21.355451-2.984728-29.8125-7.90625-.53645-.313962-1.146558-.419257-1.71875-.34375-.956884.126283-1.785529.782931-2 1.78125-.204289.950923.191668 1.84714.84375 2.4375 8.439093 7.618959 19.613413 12.1875 31.96875 12.1875 8.445548 0 17.955222-2.54181 25.09375-7.375-.223561.576123-.452171 1.254944-.625 1.6875-.157343.393985-.284918.933787-.15625 1.5.155603.684743.561489 1.166998 1.1875 1.46875.526362.253718 1.123408.285827 1.59375.15625.470342-.129577.83097-.377975 1.125-.625 2.246421-1.877323 3.482263-4.542715 4.15625-6.875.335387-1.160581.540256-2.254207.59375-3.21875.02612-.471053.02962-.909361-.03125-1.34375-.05087-.363049-.142106-.978654-.5625-1.5a.98390642.98390642 0 0 0 -.03125 0c-.401589-.494726-.904674-.731593-1.25-.875-.385235-.15998-.805311-.303772-1.28125-.40625-.923053-.198752-2.02635-.297965-3.25-.28125z" fill-rule="evenodd" opacity=".05"/><path d="m48.09375 22c-3.487352 0-7.204663.649267-10.3125 2.40625-3.107837 1.756983-5.57029 4.694862-6.40625 9.0625-.126693.667307.06674 1.330871.4375 1.75.370765.419129.842635.621682 1.28125.71875a.8663372.8663372 0 0 0  .09375.03125l6.875.75a.8663372.8663372 0 0 0  .125 0c .599995-.03075 1.106105-.343642 1.4375-.71875.324963-.367828.530126-.822531.625-1.28125.0019-.0091-.0018-.02215 0-.03125.517145-2.426052 2.436603-3.5 4.84375-3.5 1.244294 0 2.640114.476569 3.28125 1.4375a.8663372.8663372 0 0 0 0 .03125c.76614 1.112113.71875 2.884885.71875 4.59375v.125c-3.984532.411108-8.98669.764993-12.84375 2.4375-4.70649 2.016631-8.09375 6.263937-8.09375 12.28125 0 3.836306 1.249184 6.844663 3.34375 8.84375 2.094566 1.999087 4.98854 2.96875 8.15625 2.96875 4.829789 0 7.945142-1.251061 11.5625-4.65625.908234 1.333828 1.64513 2.377029 3.65625 4.03125a.8663372.8663372 0 0 0  .15625.09375c.6493.343929 1.417019.287746 2.09375-.03125.03892-.01835.08688-.01054.125-.03125a.8663372.8663372 0 0 0  .375-.15625c.01915-.01555.04371-.01496.0625-.03125.0086-.0076.02254-.02359.03125-.03125 1.406169-1.237029 3.972065-3.433414 5.40625-4.625.01148-.0093.02003-.02169.03125-.03125.463241-.39468.713779-1.024143.6875-1.5625-.02692-.551394-.234967-1.021005-.53125-1.4375a.8663372.8663372 0 0 0 -.03125 0c-1.33672-1.828025-2.5-2.978235-2.5-6.03125v-10.9375c0-2.298208.08106-4.549406-.28125-6.71875-.362309-2.169344-1.213476-4.2626-3.09375-6-2.996153-2.84977-7.703649-3.75-11.3125-3.75zm2.96875 22.71875v.59375a.8663372.8663372 0 0 0  .03125.15625.8663372.8663372 0 0 0  0 .03125c.0014 2.647488.02349 4.672583-1.21875 6.84375-1.010215 1.773007-2.510616 2.75-4.15625 2.75-1.143478 0-1.946177-.392856-2.53125-1.09375-.585073-.700894-.9375-1.75821-.9375-3.125 0-2.731422 1.095618-4.118606 2.875-5.03125 1.568217-.804338 3.734479-1.059497 5.9375-1.125zm23.4375 15.96875c-2.300412.03142-5.030349.54727-7.1875 2.0625-.46243.327342-.865845.807239-.75 1.5.05792.34638.326369.688054.625.84375.298631.155696.587468.189331.875.15625 1.091924-.131843 2.856866-.340601 4.40625-.375.774692-.0172 1.502607.0087 2.03125.09375.528643.08504.798301.280628.75.21875-.05222-.06668.08666.253839.03125.78125-.05541.527411-.21638 1.227008-.4375 1.96875-.44224 1.483484-1.119632 3.126054-1.53125 4.15625-.109095.273172-.168221.578535-.09375.90625.07447.327715.342676.66135.65625.8125.627147.302299 1.213496.02822 1.65625-.34375 2.024513-1.691875 3.204469-4.194064 3.84375-6.40625.319641-1.106093.514809-2.140094.5625-3 .02384-.429953.01769-.806984-.03125-1.15625-.04894-.349266-.09986-.658795-.375-1-.264897-.326332-.552166-.459684-.875-.59375-.322834-.134066-.702695-.25282-1.125-.34375-.844609-.181861-1.881302-.296958-3.03125-.28125zm-57.25 1.28125c-.546884.07217-1.039549.488032-1.15625 1.03125-.116701.543218.119213 1.126964.53125 1.5 8.263957 7.460843 19.199558 11.9375 31.3125 11.9375 8.674905 0 18.651246-2.706038 25.65625-7.875.413185-.304605.712317-.723748.8125-1.1875.100183-.463752-.0018-.924058-.25-1.28125-.496329-.714384-1.505019-1.006112-2.40625-.625-7.511889 3.186863-15.674285 4.75-23.09375 4.75-11.017911 0-21.698286-3.018267-30.3125-8.03125-.342197-.200274-.72605-.267272-1.09375-.21875z" fill-rule="evenodd" opacity=".1"/><path d="m48.09375 22.875c-6.762794 0-14.292432 2.481564-15.875 10.75-.166851.878822.477189 1.339218 1.0625 1.46875l6.875.75c.644282-.03302 1.125503-.680097 1.25-1.3125.590406-2.848427 2.978012-4.21875 5.6875-4.21875 1.460631 0 3.134916.547167 4 1.84375.99471 1.4439.875 3.426346.875 5.09375v.90625c-4.117496.454626-9.518065.765047-13.375 2.4375-4.448639 1.906147-7.5625 5.798063-7.5625 11.5 0 7.305837 4.640004 10.9375 10.625 10.9375 5.050601 0 7.823308-1.16462 11.71875-5.09375 1.292491 1.852811 1.703412 2.747063 4.0625 4.6875.527524.279425 1.218974.23413 1.6875-.1875v.03125c1.418269-1.248326 4.017114-3.482347 5.46875-4.6875.580277-.469868.454396-1.204991 0-1.84375-1.296342-1.772806-2.6875-3.234539-2.6875-6.53125v-10.9375c0-4.641546.362731-8.899912-3.09375-12.09375-2.721037-2.588095-7.262257-3.5-10.71875-3.5zm3.84375 20.90625v1.53125h.03125c0 2.739208.0513 5.030509-1.34375 7.46875-1.12949 1.982344-2.91168 3.1875-4.90625 3.1875-2.722321 0-4.34375-2.052299-4.34375-5.09375 0-5.986398 5.427185-7.09375 10.5625-7.09375zm22.5625 17.78125c-2.174584.0297-4.740571.538685-6.6875 1.90625-.59835.423557-.509529.98285.15625.90625 2.19046-.264484 7.100029-.831653 7.96875.28125.871994 1.113562-.992223 5.697015-1.8125 7.75-.248112.62127.282714.877597.84375.40625 3.649675-3.050014 4.621956-9.448671 3.875-10.375-.371186-.457273-2.169166-.904705-4.34375-.875zm-57.125 1.25c-.452292.05969-.63349.599183-.15625 1.03125 8.11046 7.322263 18.819175 11.71875 30.71875 11.71875 8.493433 0 18.355089-2.668953 25.15625-7.6875 1.125998-.830099.150221-2.080155-1-1.59375-7.626019 3.235282-15.897238 4.8125-23.4375 4.8125-11.176187 0-21.997983-3.063073-30.75-8.15625-.190994-.111781-.380486-.144895-.53125-.125z" fill-rule="evenodd" opacity=".2"/><path d="m51.9534 44.309276c0 2.739208.06662 5.021252-1.328432 7.459493-1.12949 1.982344-2.925116 3.196388-4.919686 3.196388-2.722321 0-4.320288-2.057272-4.320288-5.098723 0-5.986398 5.431807-7.074716 10.567122-7.074716v1.517558zm7.160684 17.138814c-.468526.42163-1.150021.447043-1.677545.167618-2.359088-1.940437-2.781362-2.833188-4.073853-4.685999-3.895442 3.92913-6.658836 5.108882-11.709437 5.108882-5.984996 0-10.63257-3.652286-10.63257-10.958123 0-5.701937 3.122767-9.580261 7.571406-11.486408 3.856935-1.672453 9.243819-1.975967 13.361315-2.430593v-.918149c0-1.667404.133472-3.651015-.861238-5.094915-.865084-1.296583-2.525943-1.824872-3.986574-1.824872-2.709488 0-5.121197 1.368976-5.711603 4.217403-.124497.632403-.59045 1.258484-1.234732 1.291507l-6.884736-.737792c-.585311-.129532-1.229598-.587929-1.062747-1.466751 1.582568-8.268436 9.124454-10.762554 15.887248-10.762554 3.456493 0 7.977004.913066 10.698041 3.501161 3.456481 3.193838 3.121486 7.453147 3.121486 12.094693v10.950506c0 3.296711 1.387473 4.739336 2.683815 6.512142.454396.638759.557057 1.400719-.02322 1.870587-1.451636 1.205153-4.028917 3.419897-5.447186 4.668223l-.01741-.01684z" fill="#fff" fill-rule="evenodd"/><g fill="#ff9201" fill-rule="evenodd" transform="matrix(4.0940394 0 0 4.0940394 105.99043 -56.114346)"><path d="m-8.0352193 30.04091c-1.6612348 1.225818-4.0701767 1.877903-6.1447617 1.877903-2.906561 0-5.524657-1.07423-7.505698-2.862748-.155426-.140714-.01663-.332918.169977-.223704 2.137746 1.244047 4.780787 1.992714 7.510655 1.992714 1.841766 0 3.865821-.382009 5.7285337-1.172251.28095-.118808.5163275.185328.241294.388086z"/><path d="m-7.3439576 29.251627c-.2121916-.271835-1.4049099-.128882-1.9399461-.06428-.1626216.01871-.1875665-.122326-.041415-.225783.9511045-.668076 2.5095215-.474753 2.6908517-.251368.1824496.226263-.047811 1.788518-.9392716 2.533507-.1370371.11513-.2675181.05453-.2069148-.09722.2003588-.501457.6496869-1.622858.4366958-1.894854z"/></g></svg>