<svg height="96" width="96" xmlns="http://www.w3.org/2000/svg" xmlns:xlink="http://www.w3.org/1999/xlink"><linearGradient id="a"><stop offset="0" stop-color="#fff"/><stop offset="1" stop-color="#fff" stop-opacity="0"/></linearGradient><linearGradient id="b" gradientUnits="userSpaceOnUse" x1="36.357143" x2="36.357143" xlink:href="#a" y1="6" y2="63.893143"/><filter id="c" color-interpolation-filters="sRGB" height="1.3839999" width="1.3839999" x="-.192" y="-.192"><feGaussianBlur stdDeviation="5.28"/></filter><linearGradient id="d" gradientUnits="userSpaceOnUse" x1="48" x2="48" xlink:href="#a" y1="20.220806" y2="138.66119"/><radialGradient id="e" cx="48" cy="90.171875" gradientTransform="matrix(1.1573129 0 0 .99590774 -7.5510206 .19713193)" gradientUnits="userSpaceOnUse" r="42" xlink:href="#a"/><clipPath id="f"><rect height="84" rx="6" width="84" x="6" y="6"/></clipPath><linearGradient id="g" gradientUnits="userSpaceOnUse" x1="48" x2="48" y1="90" y2="5.9877172"><stop offset="0" stop-color="#1567b3"/><stop offset="1" stop-color="#67aeed"/></linearGradient><radialGradient id="h" cx="63.98003" cy="61.948856" gradientTransform="matrix(1.090012 0 0 .83885371 -21.739003 -5.4660245)" gradientUnits="userSpaceOnUse" r="58.01997" xlink:href="#a"/><radialGradient id="i" cx="69.75" cy="75.973572" gradientTransform="matrix(.70689703 0 0 .26397967 2.935342 34.087887)" gradientUnits="userSpaceOnUse" r="58.5" xlink:href="#a"/><radialGradient id="j" cx="49.233551" cy="70.608253" gradientTransform="matrix(.51921983 -.47906434 1.2026838 1.3000296 -72.74405 -19.887561)" gradientUnits="userSpaceOnUse" r="25.483549" xlink:href="#a"/><radialGradient id="k" cx="64.230392" cy="68.449158" gradientTransform="matrix(.9747377 0 0 .92610887 -14.268168 -12.6013)" gradientUnits="userSpaceOnUse" r="43.769611" xlink:href="#a"/><radialGradient id="l" cx="63.875" cy="2.2173476" gradientTransform="matrix(.84390682 0 0 .33117465 -5.8161585 32.792567)" gradientUnits="userSpaceOnUse" r="58.375" xlink:href="#a"/><radialGradient id="m" cx="74.375" cy="67.125" gradientUnits="userSpaceOnUse" r="3.125"><stop offset="0" stop-color="#fff"/><stop offset=".30645162" stop-color="#fff"/><stop offset=".51899064" stop-color="#fff" stop-opacity=".640625"/><stop offset="1" stop-color="#fff" stop-opacity="0"/></radialGradient><linearGradient id="n" gradientTransform="matrix(1.0058652 0 0 .994169 100 0)" gradientUnits="userSpaceOnUse" x1="45.447727" x2="45.447727" y1="92.539597" y2="7.0165396"><stop offset="0"/><stop offset="1" stop-opacity=".58823532"/></linearGradient><linearGradient id="o" gradientTransform="matrix(1.0238095 0 0 1.0119048 -1.1428571 -98.071429)" gradientUnits="userSpaceOnUse" x1="32.251034" x2="32.251034" xlink:href="#n" y1="6.1317081" y2="90.238609"/><linearGradient id="p" gradientTransform="translate(0 -97)" gradientUnits="userSpaceOnUse" x1="32.251034" x2="32.251034" xlink:href="#n" y1="6.1317081" y2="90.238609"/><linearGradient id="q"><stop offset="0"/><stop offset="1" stop-opacity="0"/></linearGradient><filter id="r" color-interpolation-filters="sRGB"><feGaussianBlur stdDeviation="1.9857422"/></filter><filter id="s" color-interpolation-filters="sRGB" height="1.3334616" width="1.1874593" x="-.09372972" y="-.16673079"><feGaussianBlur stdDeviation=".31930287"/></filter><linearGradient id="t" gradientTransform="matrix(.9963373 -.08551008 .08551008 .9963373 .49644666 16.053611)" gradientUnits="userSpaceOnUse" x1="22.221363" x2="83.446823" xlink:href="#q" y1="14.907595" y2="78.167587"/><radialGradient id="u" cx="63.937504" cy="95.865532" gradientTransform="matrix(.1433207 -.1433132 .8374475 .8374024 38.231607 -15.647539)" gradientUnits="userSpaceOnUse" r="20.6875"><stop offset="0" stop-color="#d0d0d0"/><stop offset="1" stop-color="#a1a1a1"/></radialGradient><linearGradient id="v" gradientUnits="userSpaceOnUse" x1="40.113346" x2="40.113346" y1="2.60251" y2="75.039833"><stop offset="0" stop-color="#5496b4" stop-opacity=".61832058"/><stop offset="1" stop-color="#dfecf2" stop-opacity=".30534351"/></linearGradient><linearGradient id="w" gradientUnits="userSpaceOnUse" x1="12.75" x2="63.25" y1="11.75" y2="64"><stop offset="0" stop-color="#404040"/><stop offset=".5" stop-color="#b7b7b7"/><stop offset="1" stop-color="#404040"/></linearGradient><linearGradient id="x" gradientUnits="userSpaceOnUse" x1="31.91674543" x2="25.22145285" xlink:href="#a" y1="-3.91234536" y2="48.49821038"/><linearGradient id="y" gradientUnits="userSpaceOnUse" x1="124.34372" x2="10.007462" xlink:href="#a" y1="42.893944" y2="21.098124"/><radialGradient id="z" cx="31.357048" cy="22.817865" gradientTransform="matrix(1.0000002 .00000005 -.00000003 .7208464 -.00000652 6.3696886)" gradientUnits="userSpaceOnUse" r="7.3570485" xlink:href="#a"/><linearGradient id="A" gradientTransform="matrix(.6875241 -.6874876 .6875241 .6874876 23.861388 39.569248)" gradientUnits="userSpaceOnUse" x1="53.797203" x2="61.486988" xlink:href="#q" y1="73.685364" y2="81.817085"/><linearGradient id="B" gradientUnits="userSpaceOnUse" x1="58.89583936" x2="43.28201706" y1="170.39819679" y2="170.39819679"><stop offset="0"/><stop offset=".2" stop-color="#646464"/><stop offset=".30000001" stop-color="#c8c8c8"/><stop offset=".40000001" stop-color="#646464"/><stop offset="1"/></linearGradient><linearGradient id="C" gradientTransform="matrix(.6875241 -.6874876 .6875241 .6874876 23.861388 39.569248)" gradientUnits="userSpaceOnUse" x1="64.414215" x2="64.414215" xlink:href="#a" y1="87.40625" y2="75.81768"/><linearGradient id="D" gradientTransform="matrix(.99037388 .13841809 -.13841809 .99037388 6.0372497 7.7970546)" gradientUnits="userSpaceOnUse" x1="22.221363" x2="83.446823" xlink:href="#q" y1="14.907595" y2="78.167587"/><path d="m12-95.03125c-5.5110903 0-10.03125 4.52016-10.03125 10.03125v71c0 5.5110902 4.5201598 10.03125 10.03125 10.03125h72c5.51109 0 10.03125-4.5201597 10.03125-10.03125v-71c0-5.51109-4.52016-10.03125-10.03125-10.03125z" fill="url(#o)" opacity=".07999998" transform="scale(1 -1)"/><path d="m12-94.03125c-4.971633 0-9.03125 4.059617-9.03125 9.03125v71c0 4.9716329 4.0596171 9.03125 9.03125 9.03125h72c4.971633 0 9.03125-4.059617 9.03125-9.03125v-71c0-4.971633-4.059617-9.03125-9.03125-9.03125z" fill="url(#o)" opacity=".1" transform="scale(1 -1)"/><path d="m12-93c-4.4091333 0-8 3.590867-8 8v71c0 4.4091333 3.5908667 8 8 8h72c4.409133 0 8-3.5908667 8-8v-71c0-4.409133-3.590867-8-8-8z" fill="url(#o)" opacity=".2" transform="scale(1 -1)"/><rect fill="url(#o)" height="85" opacity=".3" rx="7" transform="scale(1 -1)" width="86" x="5" y="-92"/><rect fill="url(#p)" height="84" opacity=".45" rx="6" transform="scale(1 -1)" width="84" x="6" y="-91"/><rect fill="url(#g)" height="84" rx="6" width="84" x="6" y="6"/><path d="m12 6c-3.324 0-6 2.676-6 6v2 68 2c0 .334721.04135.6507.09375.96875.0487.295596.09704.596915.1875.875.00988.03038.020892.0636.03125.09375.098865.287771.2348802.547452.375.8125.1445918.273507.3156161.535615.5.78125.1843839.245635.3737765.473472.59375.6875.439947.428056.94291.814526 1.5 1.09375.278545.139612.5734731.246947.875.34375-.2562018-.100222-.4867109-.236272-.71875-.375-.00741-.0044-.023866.0045-.03125 0-.031933-.0193-.062293-.04251-.09375-.0625-.120395-.0767-.2310226-.163513-.34375-.25-.1061728-.0808-.2132809-.161112-.3125-.25-.1779299-.161433-.3474596-.345388-.5-.53125-.1075789-.130255-.2183939-.265285-.3125-.40625-.025089-.03838-.038446-.08587-.0625-.125-.064763-.103032-.1302275-.204517-.1875-.3125-.1010083-.194706-.2056748-.415701-.28125-.625-.00796-.02181-.023589-.04055-.03125-.0625-.0318251-.09195-.0358045-.186831-.0625-.28125-.0303323-.106618-.0703894-.203031-.09375-.3125-.0728786-.341512-.125-.698205-.125-1.0625v-2-68-2c0-2.781848 2.2181517-5 5-5h2 68 2c2.781848 0 5 2.218152 5 5v2 68 2c0 .364295-.05212.720988-.125 1.0625-.04415.206893-.08838.397658-.15625.59375-.0077.02195-.0233.04069-.03125.0625-.06274.173739-.138383.367449-.21875.53125-.04158.0828-.07904.169954-.125.25-.0546.09721-.126774.18835-.1875.28125-.09411.140965-.204921.275995-.3125.40625-.143174.17445-.303141.346998-.46875.5-.01117.0102-.01998.02115-.03125.03125-.138386.125556-.285091.234436-.4375.34375-.102571.07315-.204318.153364-.3125.21875-.0074.0045-.02384-.0044-.03125 0-.232039.138728-.462548.274778-.71875.375.301527-.0968.596455-.204138.875-.34375.55709-.279224 1.060053-.665694 1.5-1.09375.219973-.214028.409366-.441865.59375-.6875.184384-.245635.355408-.507743.5-.78125.14012-.265048.276135-.524729.375-.8125.01041-.03078.02133-.06274.03125-.09375.09046-.278085.1388-.579404.1875-.875.0524-.31805.09375-.634029.09375-.96875v-2-68-2c0-3.324-2.676-6-6-6z" fill="url(#b)" opacity=".4"/><path d="m12 90c-3.324 0-6-2.676-6-6v-2-68-2c0-.334721.04135-.6507.09375-.96875.0487-.295596.09704-.596915.1875-.875.00988-.03038.020892-.0636.03125-.09375.098865-.287771.2348802-.547452.375-.8125.1445918-.273507.3156161-.535615.5-.78125.1843839-.245635.3737765-.473472.59375-.6875.439947-.428056.94291-.814526 1.5-1.09375.278545-.139612.5734731-.246947.875-.34375-.2562018.100222-.4867109.236272-.71875.375-.00741.0044-.023866-.0045-.03125 0-.031933.0193-.062293.04251-.09375.0625-.120395.0767-.2310226.163513-.34375.25-.1061728.0808-.2132809.161112-.3125.25-.1779299.161433-.3474596.345388-.5.53125-.1075789.130255-.2183939.265285-.3125.40625-.025089.03838-.038446.08587-.0625.125-.064763.103032-.1302275.204517-.1875.3125-.1010083.194706-.2056748.415701-.28125.625-.00796.02181-.023589.04055-.03125.0625-.0318251.09195-.0358045.186831-.0625.28125-.0303323.106618-.0703894.203031-.09375.3125-.0728786.341512-.125.698205-.125 1.0625v2 68 2c0 2.781848 2.2181517 5 5 5h2 68 2c2.781848 0 5-2.218152 5-5v-2-68-2c0-.364295-.05212-.720988-.125-1.0625-.04415-.206893-.08838-.397658-.15625-.59375-.0077-.02195-.0233-.04069-.03125-.0625-.06274-.173739-.138383-.367449-.21875-.53125-.04158-.0828-.07904-.169954-.125-.25-.0546-.09721-.126774-.18835-.1875-.28125-.09411-.140965-.204921-.275995-.3125-.40625-.143174-.17445-.303141-.346998-.46875-.5-.01117-.0102-.01998-.02115-.03125-.03125-.138386-.125556-.285091-.234436-.4375-.34375-.102571-.07315-.204318-.153364-.3125-.21875-.0074-.0045-.02384.0044-.03125 0-.232039-.138728-.462548-.274778-.71875-.375.301527.0968.596455.204138.875.34375.55709.279224 1.060053.665694 1.5 1.09375.219973.214028.409366.441865.59375.6875.184384.245635.355408.507743.5.78125.14012.265048.276135.524729.375.8125.01041.03078.02133.06274.03125.09375.09046.278085.1388.579404.1875.875.0524.31805.09375.634029.09375.96875v2 68 2c0 3.324-2.676 6-6 6z" fill="url(#e)" opacity=".2"/><path d="m36.273886 6.0961948c1.650117 2.2113875.112582 5.9041752 2.601475 5.8675182 1.211896 1.709913-2.415455.510072.203593 1.827957 1.506105 1.183738-1.593389 1.860078.271787 2.922365-2.149684 1.107009.348446 5.790098 1.945123 6.962147 2.627951 2.207864 1.162201-4.67451 4.094495-5.032526 1.593361-1.815344 4.391846-2.98066 6.379269-4.806851-1.942296-.157362-3.076461-1.363862-1.237023-2.11124 3.385455 3.462091.848905-1.639594-1.025129-2.4473701 1.813359-.5756653 3.576974-.1541111 3.325364-1.6474191 1.916319-1.3991597-1.842258-1.850905-3.183939-1.534581-4.458339 0-8.916676 0-13.375015 0zm-27.8018505 1.4443118c-2.4497606.6965248-2.6206433 6.5391944-.1583506 3.2948374.6043425-1.3321719 3.3970771-2.9376273.1583506-3.2948374zm11.4464905.2031067c-1.412257 2.21004.204916 3.9819487 1.379913 1.2863401.831708-1.1256428-.617926-1.2450983-1.379913-1.2863401zm3.528957.4964817c-2.728751 1.2621852-.672603 4.205478-.60506 4.860083 2.87456.992448 4.473228-.648881 5.560694 2.156315 2.735157 1.573161-.05382 4.306731-1.080545 5.018636 1.849343-1.607334 5.404159 4.369999 4.472253 1.212017-1.111784-.810133 2.985157 1.301441.859617-1.331475-1.956061-3.145114.155273-1.408037.979953-.673992 2.804886-2.510076-3.173596-2.813465-1.68122-5.396633-1.307757-1.057049-3.022888-4.2592779-5.338679-3.633348-1.550241 2.000765-.214153-4.3595042-2.488604-1.1767414-.117892 1.7791484-.04285 4.0367734-.705711.9545374-.444071-.5395809.764-1.793999.0273-1.989399zm-5.564894.022569c-1.831601.6093918-1.733228 3.079121.518957 3.343892.771434-.877529.30649-3.1777172-.518957-3.3438919zm-7.148401.7898584c-2.3790792.5625293-1.4079925 2.4769256-.679574 3.0160876-2.9449169.736158 4.495691.94087.792681 1.407118-3.08079 1.22789 2.966663 2.674528 3.958767 1.218638 3.80439.928509.136908-3.039255-.197041-5.1900826-1.612752-1.7273388-.06366 3.9819826-1.521868.1839667-.508787 1.1278389-2.126528.1662002-2.352965-.6357277zm75.601127.2482403c-3.192449 1.2468723 1.98418 5.9521573.697641 1.6714863-.128164-.516886.288199-1.8825902-.697641-1.6714863zm-66.665626 1.8956593c-2.294081 2.151546 2.915988 3.930772-.658895 5.533633-.536019-1.998146-1.458274.999707-3.503465-.613946-3.515899 1.460963-5.313868-.761001-8.2575345-2.28409-1.7680293-.219637-1.1037807 1.676511-1.2208833 3.451913 0 4.906537 0 9.813075 0 14.719613 1.7334888 1.820114.6763285.80305 0 .301029.9514666 3.233886-.4195721 7.961135 3.3308508 9.842222.6375631 1.180203 3.312882 6.208185 3.43622 4.703764-1.341214-1.401704-2.717353-5.603945-.447896-1.858566 2.032756 3.560254 4.77475 5.869428 8.780477 6.716648 2.190058.743444 3.99117 3.299052 5.917116 2.736761 1.089051 2.865096-3.227415 5.616415.144913 8.288718 1.760515 2.705308 4.716183 4.479653 3.11596 8.277713-1.119074 3.709365-.639926 7.751157-1.607787 11.20721-.300394 2.103688 2.938036 7.443159 2.657471 3.167516.945569-2.971276.920636-6.240651 3.147581-8.344813 3.047109.02407.582373-3.269905 3.607007-2.839605 1.845643-2.414288 2.380233-5.294422 5.49491-6.253089.372044-2.930576 5.178818-7.418801.21314-8.55979-1.34961-.663857-4.824508-.902566-4.558947-1.230126.538031-2.907903-4.493469-3.735741-6.634233-4.925455-2.810758-1.991072-7.034236 3.30766-8.024513-1.258007-.590876-1.436504-2.751326-1.4598-1.75843-3.676393-1.789387 1.776067-5.289343 1.236276-4.373033-2.193653 1.39157-2.888666 6.73564-3.025343 7.646261.449204-1.264352-3.832011 2.443938-6.815083 4.502527-9.54133.419165-1.303075 2.909744-2.422615 2.052679-.690765 1.460154-.05256 3.673289-2.682202 1.079409-1.468489-.03668-2.398143-2.272976-1.716156-2.997997-1.375635 1.343772-2.128469 8.244987-.964813 5.355099-4.443927-2.239304-.905507-2.053028-6.189603-4.317999-3.245811.190591-1.813796-4.610012-5.364278-4.505256-2.322748.585986 2.7216.107133 5.85682-1.139925 7.640785-.260245-3.988053-7.075679-3.106633-6.199423-7.356349 1.26944-2.025433 2.75285-4.826333 2.894179-4.574365 2.275047-.866862 4.10459-3.388384 1.467829-5.046018-.140917 1.444736-1.98303 4.425523-1.72366.820357-1.705794 2.018338-1.316199-3.211704-2.913752-3.754116zm54.450004 1.399178c-3.99594.975496-5.580066 4.784358-7.556816 7.939118-2.913854 1.311093-2.802935 6.941668.452413 5.143338.871278 1.518634-.609508 3.912288 1.928313 1.926594 2.046998-2.703416.357938-7.075784 3.841419-8.780454.253733 1.325472-3.213337 6.274821.836999 5.461306 3.661561.137878-2.66186.364095-.881003 2.698256-1.850268-1.095583-.888831 2.992156-3.303981 2.040892-2.09233 1.135809-3.464337-.527363-2.985035-2.349323-1.645958.958274.517698 3.661667-2.339578 3.824136-.640049 2.268218-5.903382 1.926341-2.910209 4.235999 1.328901 3.437113-4.951535.215469-3.168535 4.340119 1.525448 4.078655 4.722399-1.35148 6.019435-2.400589 2.502475-1.937225 6.210661 3.303165 3.958766 3.497944 2.525081-.338101 2.00619-2.73469-.01696-3.662515-1.092677-2.82815 3.459031 1.386996 3.2066 2.804954 1.605947 3.001147.944615-3.072718 2.578852-.383645-.190801 2.836574 6.574181.666957 3.344389 4.282144-2.776877.558175-5.510129-.714429-7.900826.100684-2.225116-.01964-2.113474-2.392226-2.923585-2.986378-2.830366.22949-6.327934.203539-8.222766 2.485442-2.049024 2.805613-5.003834 6.727658-2.770529 10.310077 2.234872 5.308729 7.777178.275367 10.962974 3.410586.946933 1.307246-.820595 2.861171 1.296709 4.277161.796708 3.016302-.904486 5.880227 1.052267 8.763626 1.011837 2.711692 1.639779 6.770392 5.405757 4.292514 3.985771-2.393715 2.924168-6.806375 6.212946-9.250462-2.60227-5.026009 3.183614-7.229763 4.627211-11.309974-3.153943.460803-5.963772-2.677338-6.725787-5.835942-1.324936-1.534204-.983669-3.796395.496326-.914275 2.034266 1.967187 2.078217 7.804341 5.841274 4.801502 1.720342-.718113 6.418604-3.45743 2.675109-4.704038-2.413043 1.744216-5.075245-5.21176-1.531819-1.177146 2.576041 1.090686 4.379977 1.74053 4.379977-1.875652 0-9.742755 0-19.617522 0-29.426283-.802399.818316-2.863802 2.329653-3.904284 1.32539-1.790368.248808-4.153886 3.725348-3.591242.364664-1.556236-.102846-.278581 3.013306-2.416645 3.100453-.215282 1.602045-2.159868.296667-1.429424 1.818009-1.500652-1.062327-2.770676-4.416447.186139-2.311184 4.391021-1.314691-2.895608-4.28014-3.458045-4.996921.945455-.226071-1.028609-1.209346-1.266806-.880127zm-36.239679.880127c-1.461503 1.215286 2.778535 1.444147 0 0zm-19.522373.654454c-1.634653 1.706411 2.60328 1.568685 0 0zm9.478417 1.692553c-1.237866 2.023723 1.829028.747151 0 0zm27.100584 2.392143c-1.449232 1.665083-3.362049-.438213-3.393229.992964.262645.432437 1.314673 3.518852 3.619444 1.241206 1.236984-.520462.749959-1.832484-.226215-2.23417zm-30.855756.992964c-2.748807 2.395732 4.668304 2.616464.582323.274768zm36.262299 6.63481c-1.979083 1.287951.949436 4.023157-.04308 5.307991-1.240102 2.156293 4.608325-.151892 1.484617-1.872269-.222569-1.478071-1.830024-3.281486-1.441541-3.435722zm-1.33467 2.595248c-2.757392.777992-.625961 4.794736.350661 1.01157.05497-.219332.12936-1.018906-.350661-1.01157zm-22.078605 2.911192c-2.565224 1.745645-.398428 3.488076 1.481561 2.702638-.385957-1.053236-1.464168-1.716838-1.481561-2.702638zm48.455301 2.933759c1.279946.644652-2.345536 1.745894-.04983 2.880449 1.335978 1.56791.832312 4.933623-1.339202 2.551522.403442-2.659611-2.943559-4.645833 1.389033-5.431971zm-6.582867.02257c-.173666 1.708694 3.693957 4.364669-.475048 3.497943-2.204744.258106-5.506967-.06723-2.729423-2.808943.87765-.525824 3.182055 1.814147 1.982912-.373057.42514-.02707.821079-.187223 1.221559-.315943zm-12.735914 3.701048c-1.608111 1.033934 1.111987 1.826739 0 0zm-40.379416 9.63627c-.271104.90264 5.08599 1.817396 1.389301.371258l-.551069-.193581zm4.16236 1.28634c-1.624916 1.646263 3.34781.491838 0 0zm54.336893 15.097576c-3.530712.09092-3.061323 9.179576-.60013 3.801721.233406-1.167001 1.168896-2.707282.60013-3.801721z" fill="url(#h)" opacity=".6"/><path d="m77.5 67.125a3.125 3.125 0 1 1 -6.25 0 3.125 3.125 0 1 1  6.25 0z" fill="url(#m)" fill-rule="evenodd" transform="matrix(1.3572422 0 0 1.3554377 -73.268157 -53.871603)"/><path d="m77.5 67.125a3.125 3.125 0 1 1 -6.25 0 3.125 3.125 0 1 1  6.25 0z" fill="url(#m)" fill-rule="evenodd" transform="matrix(1.0744835 0 0 1.0730548 -39.513825 -14.090919)"/><path d="m77.5 67.125a3.125 3.125 0 1 1 -6.25 0 3.125 3.125 0 1 1  6.25 0z" fill="url(#m)" fill-rule="evenodd" transform="matrix(1.5834493 0 0 1.581344 -53.333661 -72.388859)"/><path d="m77.5 67.125a3.125 3.125 0 1 1 -6.25 0 3.125 3.125 0 1 1  6.25 0z" fill="url(#m)" fill-rule="evenodd" opacity=".6" transform="matrix(1.0219348 0 0 1.020576 -15.635673 -16.92189)"/><path d="m77.5 67.125a3.125 3.125 0 1 1 -6.25 0 3.125 3.125 0 1 1  6.25 0z" fill="url(#m)" fill-rule="evenodd" opacity=".6" transform="matrix(.79408906 0 0 .79303321 -44.284507 -21.76786)"/><path d="m77.5 67.125a3.125 3.125 0 1 1 -6.25 0 3.125 3.125 0 1 1  6.25 0z" fill="url(#m)" fill-rule="evenodd" opacity=".6" transform="matrix(.56551763 0 0 .5647657 38.456917 3.2615074)"/><path d="m7.1767242 47.701508c28.0991578-19.413821 65.2112508-20.472757 81.8233318 1.588403" fill="none" stroke="url(#l)" stroke-width="2"/><path d="m27.676739 88.823511c-1.060346-15.531057 28.452604-60.182846 61.146593-67.948374" fill="none" stroke="url(#k)" stroke-width="2"/><path d="m7 29.523112c51.250036 8.824464 31.633643 59.476888 31.633643 59.476888" fill="none" stroke="url(#j)" stroke-width="2"/><path d="m7.1767242 67.821286c51.2500358-11.471803 82.0000558-30.179667 82.0000558-30.179667" fill="none" opacity=".6" stroke="url(#i)" stroke-width="1.5"/><rect height="66" rx="12" style="opacity:.1;stroke:#fff;stroke-width:.5;stroke-linecap:round;clip-path:url(#f);fill:url(#d);filter:url(#c)" width="66" x="15" y="15"/><g transform="translate(-.81355932 .40677966)"><path d="m57.811847 52.124764c-1.754892 3.678144-4.454945 6.618806-7.64825 8.668222 1.85396-.143688 3.93885.141276 5.839132 1.457818-.332752.790598-.276308 1.722298.408443 2.29622l25.974178 21.757231c.839897.70388 2.136827.58285 2.845386-.25478l3.554921-4.201386c.708592-.837746.585239-2.141499-.25478-2.84538l-25.932622-21.772276c-.708944-.594123-1.702891-.478817-2.431641.03446-1.515634-1.553432-2.142916-3.39933-2.354767-5.140127z" fill="url(#t)" opacity=".6"/><g transform="matrix(.50675811 -.13587226 .13587226 .50675811 -9.4190923 45.628641)"><path d="m101.03596 56.584567c0 0 14.86816-7.132238 24.66538 2.664461l5.84395-5.671773c-9.8966-9.896076-2.75054-24.750002-2.75054-24.75-2.1751 6.421196-2.96877 10.530978-10.05504 17.61687-7.12919 7.12881-17.70375 10.140442-17.70375 10.140442z" fill="url(#u)" fill-rule="evenodd" stroke="#404141" stroke-width="1.90600669"/><path d="m74.25 37.75c0 20.020322-16.229678 36.25-36.25 36.25-20.020322 0-36.25-16.229678-36.25-36.25 0-20.020322 16.229678-36.25 36.25-36.25 20.020322 0 36.25 16.229678 36.25 36.25z" fill="url(#v)" stroke="url(#w)" stroke-width="3.84621048" transform="matrix(.9911353 0 0 .9910827 55.641208 -16.409904)"/><path d="m56.375449 13.756925c5.137338 5.453482 8.3125 12.861855 8.3125 21.03125-.000002 16.735097-13.280226 30.34375-29.625 30.34375-6.317804 0-12.159384-2.043738-16.96875-5.5 5.380898 5.665106 12.897015 9.1875 21.21875 9.1875 16.344774 0 29.625001-13.577403 29.625-30.3125 0-10.231102-4.973959-19.25883-12.5625-24.75z" fill="#b0cedd" filter="url(#r)" opacity=".6" transform="matrix(.9980182 0 0 .9979653 55.503044 -16.792511)"/><g transform="matrix(.96592583 -.25881905 .25881905 .96592583 -2.4750277 25.129232)"><path d="m38.25 3.46875c-16.614748 0-30.388067 11.786531-33.6875 27.40625a.44506709.44506709 0 0 0  .21875.5c8.190652 4.350104 19.485294 7.15625 32.09375 7.15625 13.927809 0 26.283255-3.442975 34.5625-8.59375a.44506709.44506709 0 0 0  .1875-.5c-3.819215-14.900649-17.268662-25.96875-33.375-25.96875z" fill="url(#x)" stroke="url(#y)" stroke-width="1.90984225" transform="matrix(.9980182 0 0 .9979653 54.750298 -17.441387)"/><path d="m38.714097 22.817865c0 2.928933-3.293863 5.303301-7.357049 5.303301-4.063186 0-7.357048-2.374368-7.357048-5.303301 0-2.928932 3.293862-5.3033 7.357048-5.3033 4.063186 0 7.357049 2.374368 7.357049 5.3033z" fill="url(#z)" opacity=".6" transform="matrix(1.4329562 0 0 1.4328803 36.223175 -31.240403)"/></g><path d="m122.72062 43.549949c-9.33464 9.461891.48615 13.368497.48615 13.368497-4.25384-3.281359-15.31381-3.038294-15.31381-3.038294 0 0 3.64614-.972255 14.82766-10.330203z" fill="url(#A)" fill-rule="evenodd" opacity=".6"/><rect fill="url(#B)" height="69.031891" rx="1.9445603" stroke="#000" stroke-width="1.90600681" transform="matrix(.70712558 -.70708798 .70712558 .70708798 0 0)" width="14.584202" x="43.8255" y="130.89931"/><path d="m127.24782 56.326758l-5.38119-5.259368c0 0-1.39963-3.833156 2.45921-7.631024.3507 6.973953 5.09198 10.763478 5.09198 10.763478z" fill="url(#C)" fill-rule="evenodd"/><path d="m62.35798 89.064933l8.175922.04419c0 0-2.902651.516443-3.402951 4.551999-.353553-4.065864-4.772971-4.596193-4.772971-4.596193z" fill="#fff" fill-rule="evenodd" filter="url(#s)" opacity=".4" transform="matrix(.6875241 -.6874876 .6875241 .6874876 23.861388 39.569248)"/><path d="m62.35798 89.064933l8.175922.04419c0 0-2.902651.516443-3.402951 4.551999-.353553-4.065864-4.772971-4.596193-4.772971-4.596193z" fill="#fff" fill-rule="evenodd" filter="url(#s)" opacity=".4" transform="matrix(.6875241 -.6874876 -.6875241 -.6874876 194.52843 210.22725)"/></g><path d="m53.885256 55.721491c-2.52961 3.195223-5.816505 5.461078-9.385888 6.748252 1.83943.272604 3.808579 1.014511 5.368123 2.721021-.50039.696693-.652757 1.61758-.112939 2.329528l20.479376 26.993153c.662143.87318 1.953474 1.04388 2.830712.38499l4.400948-3.30466c.877293-.659 1.047249-1.95749.384989-2.8307l-20.435514-26.998571c-.558907-.737026-1.553583-.845864-2.378303-.507683-1.131817-1.851835-1.332467-3.791053-1.151504-5.535329z" fill="url(#D)" opacity=".2"/></g></svg>