<?xml version="1.0" encoding="UTF-8" standalone="no"?>
<!-- Generator: Adobe Illustrator 16.0.0, SVG Export Plug-In . SVG Version: 6.00 Build 0)  -->

<svg
   xmlns:dc="http://purl.org/dc/elements/1.1/"
   xmlns:cc="http://creativecommons.org/ns#"
   xmlns:rdf="http://www.w3.org/1999/02/22-rdf-syntax-ns#"
   xmlns:svg="http://www.w3.org/2000/svg"
   xmlns="http://www.w3.org/2000/svg"
   xmlns:xlink="http://www.w3.org/1999/xlink"
   xmlns:sodipodi="http://sodipodi.sourceforge.net/DTD/sodipodi-0.dtd"
   xmlns:inkscape="http://www.inkscape.org/namespaces/inkscape"
   version="1.1"
   id="Layer_1"
   x="0px"
   y="0px"
   width="208"
   height="165"
   viewBox="0 0 208 165"
   enable-background="new 0 0 250 200"
   xml:space="preserve"
   inkscape:version="0.91 r13725"
   sodipodi:docname="DuckDuckGo_LogoCR.svg"><metadata
   id="metadata3619"><rdf:RDF><cc:Work
       rdf:about=""><dc:format>image/svg+xml</dc:format><dc:type
         rdf:resource="http://purl.org/dc/dcmitype/StillImage" /><dc:title></dc:title></cc:Work></rdf:RDF></metadata><defs
   id="defs3617" /><sodipodi:namedview
   pagecolor="#ffffff"
   bordercolor="#666666"
   borderopacity="1"
   objecttolerance="10"
   gridtolerance="10"
   guidetolerance="10"
   inkscape:pageopacity="0"
   inkscape:pageshadow="2"
   inkscape:window-width="1280"
   inkscape:window-height="744"
   id="namedview3615"
   showgrid="false"
   inkscape:zoom="1.18"
   inkscape:cx="20.338983"
   inkscape:cy="100"
   inkscape:window-x="-4"
   inkscape:window-y="-4"
   inkscape:window-maximized="1"
   inkscape:current-layer="Layer_1" />
<g
   id="g3497"
   transform="translate(-20.9995,-17.499998)">
	<circle
   cx="127.332"
   cy="78.966003"
   r="51.150002"
   id="circle3499"
   style="fill:#de5833" />
	<g
   id="g3501">
		<g
   id="g3503">
			<path
   d="m 22.564,180.574 0,-24.598 8.914,0 c 8.487,0 12.352,6.234 12.352,12.031 0,6.256 -3.819,12.562 -12.352,12.562 l -8.914,0.005 0,0 z m 2.834,-2.834 6.08,0 c 6.575,0 9.518,-4.904 9.518,-9.766 0,-4.467 -2.979,-9.271 -9.518,-9.271 l -6.08,0 0,19.037 0,0 z"
   id="path3505"
   inkscape:connector-curvature="0"
   style="fill:#4c4c4c" />
		</g>
		<g
   id="g3507">
			<path
   d="m 55.055,180.857 c -4.554,0 -7.497,-3.137 -7.497,-7.992 l 0,-9.551 2.657,0 0,9.516 c 0,3.496 2.034,5.584 5.442,5.584 3.195,-0.035 5.513,-2.488 5.513,-5.832 l 0,-9.268 2.657,0 0,17.26 -2.414,0 -0.152,-3.002 -0.412,0.518 c -1.432,1.801 -3.381,2.732 -5.794,2.767 z"
   id="path3509"
   inkscape:connector-curvature="0"
   style="fill:#4c4c4c" />
		</g>
		<g
   id="g3511">
			<path
   d="m 76.786,180.893 c -4.49,0 -9.02,-2.771 -9.02,-8.949 0,-5.354 3.625,-8.947 9.02,-8.947 2.361,0 4.436,0.842 6.168,2.502 l -1.67,1.732 c -1.175,-1.096 -2.781,-1.721 -4.427,-1.721 -3.768,0 -6.399,2.646 -6.399,6.434 0,4.445 3.196,6.438 6.364,6.438 1.782,0 3.4,-0.636 4.573,-1.791 l 1.736,1.736 c -1.747,1.702 -3.881,2.566 -6.345,2.566 z"
   id="path3513"
   inkscape:connector-curvature="0"
   style="fill:#4c4c4c" />
		</g>
		<g
   id="g3515">
			<polygon
   points="100.058,163.314 91.924,171.448 101.051,180.539 101.051,180.574 97.683,180.574 89.248,172.139 89.248,180.574 86.626,180.574 86.626,156.012 89.248,156.012 89.248,170.869 96.621,163.314 "
   id="polygon3517"
   style="fill:#4c4c4c" />
		</g>
		<g
   id="g3519">
			<path
   d="m 104.317,180.574 0,-24.598 8.913,0 c 8.487,0 12.354,6.234 12.354,12.031 0,6.256 -3.815,12.562 -12.354,12.562 l -8.913,0.005 0,0 z m 2.833,-2.834 6.08,0 c 6.575,0 9.519,-4.904 9.519,-9.766 0,-4.467 -2.979,-9.271 -9.519,-9.271 l -6.08,0 0,19.037 z"
   id="path3521"
   inkscape:connector-curvature="0"
   style="fill:#4c4c4c" />
		</g>
		<g
   id="g3523">
			<path
   d="m 136.807,180.857 c -4.556,0 -7.496,-3.137 -7.496,-7.992 l 0,-9.551 2.656,0 0,9.516 c 0,3.496 2.034,5.584 5.441,5.584 3.189,-0.035 5.514,-2.488 5.514,-5.832 l 0,-9.268 2.656,0 0,17.26 -2.416,0 -0.15,-3.002 -0.412,0.518 c -1.432,1.801 -3.381,2.732 -5.793,2.767 z"
   id="path3525"
   inkscape:connector-curvature="0"
   style="fill:#4c4c4c" />
		</g>
		<g
   id="g3527">
			<path
   d="m 158.539,180.893 c -4.49,0 -9.021,-2.771 -9.021,-8.949 0,-5.354 3.625,-8.947 9.021,-8.947 2.359,0 4.438,0.842 6.168,2.502 l -1.67,1.732 c -1.176,-1.096 -2.781,-1.721 -4.428,-1.721 -3.77,0 -6.398,2.646 -6.398,6.434 0,4.445 3.197,6.438 6.363,6.438 1.781,0 3.4,-0.636 4.572,-1.791 l 1.686,1.688 -0.088,0.091 0.049,0.049 c -1.731,1.64 -3.832,2.474 -6.254,2.474 z"
   id="path3529"
   inkscape:connector-curvature="0"
   style="fill:#4c4c4c" />
		</g>
		<g
   id="g3531">
			<polygon
   points="181.811,163.314 173.678,171.448 182.803,180.539 182.803,180.574 179.436,180.574 171,172.139 171,180.574 168.379,180.574 168.379,156.012 171,156.012 171,170.869 178.373,163.314 "
   id="polygon3533"
   style="fill:#4c4c4c" />
		</g>
		<g
   id="g3535">
			<path
   d="m 196.719,181.035 c -9.457,0 -12.812,-6.75 -12.812,-12.529 -0.021,-3.765 1.256,-7.125 3.584,-9.467 2.293,-2.305 5.473,-3.523 9.192,-3.523 3.366,0 6.537,1.279 8.938,3.604 l -1.604,1.869 c -1.89,-1.763 -4.685,-2.853 -7.33,-2.853 -6.854,0 -9.979,5.375 -9.979,10.367 0,4.908 3.104,9.873 10.051,9.873 2.527,0 4.886,-0.865 6.812,-2.518 l 0.091,-0.072 0,-6.062 -7.729,0 0,-2.479 10.276,0 0,9.646 c -2.654,2.8 -5.746,4.144 -9.49,4.144 z"
   id="path3537"
   inkscape:connector-curvature="0"
   style="fill:#4c4c4c" />
		</g>
		<g
   id="g3539">
			<path
   d="m 218.453,180.893 c -5.188,0 -8.949,-3.748 -8.949,-8.914 0,-5.246 3.77,-9.055 8.949,-9.055 5.289,0 8.982,3.723 8.982,9.055 0.001,5.166 -3.777,8.914 -8.982,8.914 z m 0.033,-15.561 c -3.727,0 -6.326,2.734 -6.326,6.646 0,3.729 2.646,6.436 6.293,6.436 3.709,0 6.326,-2.646 6.361,-6.434 0,-3.853 -2.66,-6.648 -6.328,-6.648 z"
   id="path3541"
   inkscape:connector-curvature="0"
   style="fill:#4c4c4c" />
		</g>
	</g>
	<g
   id="g3543">
		<g
   id="g3545">
			<g
   id="g3547">
				<g
   id="g3549">
					<g
   id="g3551">
						<g
   id="g3553">
							<g
   id="g3555">
								<g
   id="g3557">
									<g
   id="g3559">
										<g
   id="g3561">
											<g
   id="g3563">
												<g
   id="g3565">
													<defs
   id="defs3567">
														<path
   id="SVGID_1_"
   d="m 178.684,78.824 c 0,28.316 -23.035,51.354 -51.354,51.354 -28.313,0 -51.348,-23.039 -51.348,-51.354 0,-28.313 23.036,-51.349 51.348,-51.349 28.318,0 51.354,23.036 51.354,51.349 z"
   inkscape:connector-curvature="0" />
													</defs>
													<clipPath
   id="SVGID_2_">
														<use
   xlink:href="#SVGID_1_"
   overflow="visible"
   id="use3571"
   style="overflow:visible"
   x="0"
   y="0"
   width="100%"
   height="100%" />
													</clipPath>
													<g
   clip-path="url(#SVGID_2_)"
   id="g3573">
														<path
   d="m 148.293,155.158 c -1.801,-8.285 -12.262,-27.039 -16.23,-34.969 -3.965,-7.932 -7.938,-19.11 -6.129,-26.322 0.328,-1.312 -3.436,-11.308 -2.354,-12.015 8.416,-5.489 10.632,0.599 14.002,-1.862 1.734,-1.273 4.09,1.047 4.689,-1.06 2.158,-7.567 -3.006,-20.76 -8.771,-26.526 -1.885,-1.879 -4.771,-3.06 -8.03,-3.687 -1.254,-1.713 -3.275,-3.36 -6.138,-4.879 -3.188,-1.697 -10.121,-3.938 -13.717,-4.535 -2.492,-0.41 -3.055,0.287 -4.119,0.461 0.992,0.088 5.699,2.414 6.615,2.549 -0.916,0.619 -3.607,-0.028 -5.324,0.742 -0.865,0.392 -1.512,1.877 -1.506,2.58 4.91,-0.496 12.574,-0.016 17.1,2 -3.602,0.41 -9.08,0.867 -11.436,2.105 -6.848,3.608 -9.873,12.035 -8.07,22.133 1.804,10.075 9.738,46.85 12.262,59.129 2.525,12.264 -5.408,20.189 -10.455,22.354 l 5.408,0.363 -1.801,3.967 c 6.484,0.719 13.695,-1.439 13.695,-1.439 -1.438,3.965 -11.176,5.412 -11.176,5.412 0,0 4.691,1.438 12.258,-1.447 7.578,-2.883 12.263,-4.688 12.263,-4.688 l 3.604,9.373 6.854,-6.847 2.885,7.211 c 0.014,-0.001 5.424,-1.808 3.621,-10.103 z"
   id="path3575"
   inkscape:connector-curvature="0"
   style="fill:#d5d7d8" />
														<path
   d="m 150.471,153.477 c -1.795,-8.289 -12.256,-27.043 -16.228,-34.979 -3.97,-7.936 -7.935,-19.112 -6.13,-26.321 0.335,-1.309 0.341,-6.668 1.429,-7.379 8.411,-5.494 7.812,-0.184 11.187,-2.645 1.74,-1.271 3.133,-2.806 3.738,-4.912 2.164,-7.572 -3.006,-20.76 -8.773,-26.529 -1.879,-1.879 -4.768,-3.062 -8.023,-3.686 -1.252,-1.718 -3.271,-3.361 -6.13,-4.882 -5.391,-2.862 -12.074,-4.006 -18.266,-2.883 0.99,0.09 3.256,2.138 4.168,2.273 -1.381,0.936 -5.053,0.815 -5.029,2.896 4.916,-0.492 10.303,0.285 14.834,2.297 -3.602,0.41 -6.955,1.3 -9.311,2.543 -6.854,3.603 -8.656,10.812 -6.854,20.914 1.807,10.097 9.742,46.873 12.256,59.126 2.527,12.26 -5.402,20.188 -10.449,22.354 l 5.408,0.359 -1.801,3.973 c 6.484,0.721 13.695,-1.439 13.695,-1.439 -1.438,3.974 -11.176,5.406 -11.176,5.406 0,0 4.686,1.439 12.258,-1.445 7.581,-2.883 12.269,-4.688 12.269,-4.688 l 3.604,9.373 6.853,-6.853 2.891,7.215 c -0.016,0.007 5.388,-1.797 3.58,-10.088 z"
   id="path3577"
   inkscape:connector-curvature="0"
   style="fill:#ffffff" />
														<path
   d="m 109.021,70.691 c 0,-2.093 1.693,-3.787 3.789,-3.787 2.09,0 3.785,1.694 3.785,3.787 0,2.094 -1.695,3.786 -3.785,3.786 -2.096,10e-4 -3.789,-1.692 -3.789,-3.786 z"
   id="path3579"
   inkscape:connector-curvature="0"
   style="fill:#2d4f8e" />
														<path
   d="m 113.507,69.429 c 0,-0.545 0.441,-0.983 0.98,-0.983 0.543,0 0.984,0.438 0.984,0.983 0,0.543 -0.441,0.984 -0.984,0.984 -0.538,0.001 -0.98,-0.441 -0.98,-0.984 z"
   id="path3581"
   inkscape:connector-curvature="0"
   style="fill:#ffffff" />
														<path
   d="m 134.867,68.445 c 0,-1.793 1.461,-3.25 3.252,-3.25 1.801,0 3.256,1.457 3.256,3.25 0,1.801 -1.455,3.258 -3.256,3.258 -1.791,0 -3.252,-1.457 -3.252,-3.258 z"
   id="path3583"
   inkscape:connector-curvature="0"
   style="fill:#2d4f8e" />
														<path
   d="m 138.725,67.363 c 0,-0.463 0.379,-0.843 0.838,-0.843 0.479,0 0.846,0.38 0.846,0.843 0,0.469 -0.367,0.842 -0.846,0.842 -0.459,0 -0.838,-0.373 -0.838,-0.842 z"
   id="path3585"
   inkscape:connector-curvature="0"
   style="fill:#ffffff" />
														
															<linearGradient
   id="SVGID_3_"
   gradientUnits="userSpaceOnUse"
   x1="1893.3184"
   y1="-2381.9795"
   x2="1901.8867"
   y2="-2381.9795"
   gradientTransform="matrix(1,0,0,-1,-1788,-2321)">
															<stop
   offset="0.0056"
   style="stop-color:#6176B9"
   id="stop3588" />
															<stop
   offset="0.691"
   style="stop-color:#394A9F"
   id="stop3590" />
														</linearGradient>
														<path
   d="m 113.886,59.718 c 0,0 -2.854,-1.291 -5.629,0.453 -2.77,1.742 -2.668,3.523 -2.668,3.523 0,0 -1.473,-3.283 2.453,-4.892 3.93,-1.609 5.844,0.916 5.844,0.916 z"
   id="path3592"
   inkscape:connector-curvature="0"
   style="fill:url(#SVGID_3_)" />
														
															<linearGradient
   id="SVGID_4_"
   gradientUnits="userSpaceOnUse"
   x1="1920.2734"
   y1="-2379.3711"
   x2="1928.0781"
   y2="-2379.3711"
   gradientTransform="matrix(1,0,0,-1,-1788,-2321)">
															<stop
   offset="0.0056"
   style="stop-color:#6176B9"
   id="stop3595" />
															<stop
   offset="0.691"
   style="stop-color:#394A9F"
   id="stop3597" />
														</linearGradient>
														<path
   d="m 140.078,59.458 c 0,0 -2.051,-1.172 -3.643,-1.152 -3.271,0.043 -4.162,1.488 -4.162,1.488 0,0 0.549,-3.445 4.732,-2.754 2.268,0.377 3.073,2.418 3.073,2.418 z"
   id="path3599"
   inkscape:connector-curvature="0"
   style="fill:url(#SVGID_4_)" />
													</g>
												</g>
											</g>
										</g>
									</g>
								</g>
							</g>
						</g>
					</g>
				</g>
			</g>
			<path
   d="m 124.4,85.295 c 0.379,-2.291 6.299,-6.625 10.491,-6.887 4.201,-0.265 5.51,-0.205 9.01,-1.043 3.51,-0.838 12.535,-3.088 15.033,-4.242 2.504,-1.156 13.104,0.572 5.631,4.738 -3.232,1.809 -11.943,5.131 -18.172,6.987 -6.219,1.861 -9.99,-1.776 -12.06,1.281 -1.646,2.432 -0.334,5.762 7.099,6.453 10.037,0.93 19.66,-4.521 20.719,-1.625 1.064,2.895 -8.625,6.508 -14.525,6.623 -5.893,0.111 -17.771,-3.896 -19.555,-5.137 -1.786,-1.238 -4.165,-4.13 -3.671,-7.148 z"
   id="path3601"
   inkscape:connector-curvature="0"
   style="fill:#fdd20a" />
		</g>
		<g
   id="g3603">
			<path
   d="m 128.943,115.592 c 0,0 -14.102,-7.521 -14.332,-4.47 -0.238,3.056 0,15.509 1.643,16.451 1.646,0.938 13.396,-6.108 13.396,-6.108 l -0.707,-5.873 z"
   id="path3605"
   inkscape:connector-curvature="0"
   style="fill:#65bc46" />
			<path
   d="m 134.346,115.118 c 0,0 9.635,-7.285 11.754,-6.815 2.111,0.479 2.582,15.51 0.701,16.229 -1.881,0.69 -12.908,-3.813 -12.908,-3.813 l 0.453,-5.601 z"
   id="path3607"
   inkscape:connector-curvature="0"
   style="fill:#65bc46" />
			<path
   d="m 125.529,116.389 c 0,4.932 -0.709,7.049 1.41,7.519 2.109,0.473 6.104,0 7.518,-0.938 1.41,-0.938 0.232,-7.279 -0.232,-8.465 -0.477,-1.174 -8.696,-0.232 -8.696,1.884 z"
   id="path3609"
   inkscape:connector-curvature="0"
   style="fill:#43a244" />
			<path
   d="m 126.426,115.292 c 0,4.933 -0.707,7.05 1.409,7.519 2.106,0.479 6.104,0 7.519,-0.938 1.41,-0.941 0.231,-7.279 -0.236,-8.466 -0.473,-1.173 -8.692,-0.227 -8.692,1.885 z"
   id="path3611"
   inkscape:connector-curvature="0"
   style="fill:#65bc46" />
		</g>
	</g>
	<circle
   stroke-miterlimit="10"
   cx="127.331"
   cy="78.964996"
   r="57.5"
   id="circle3613"
   style="fill:none;stroke:#de5833;stroke-width:5;stroke-miterlimit:10" />
</g>
</svg>