<?xml version="1.0" ?><!DOCTYPE svg  PUBLIC '-//W3C//DTD SVG 1.1//EN'  'http://www.w3.org/Graphics/SVG/1.1/DTD/svg11.dtd'><svg height="2048px" style="shape-rendering:geometricPrecision; text-rendering:geometricPrecision; image-rendering:optimizeQuality; fill-rule:evenodd; clip-rule:evenodd" viewBox="0 0 2048 2048" width="2048px" xml:space="preserve" xmlns="http://www.w3.org/2000/svg" xmlns:xlink="http://www.w3.org/1999/xlink"><defs><style type="text/css">
   <![CDATA[
    .fil9 {fill:none}
    .fil2 {fill:#FEFEFE}
    .fil7 {fill:#2C4F8E}
    .fil6 {fill:#43A144}
    .fil5 {fill:#64BB46}
    .fil1 {fill:#B5B5B5}
    .fil0 {fill:#DA4A26}
    .fil4 {fill:#FFCA28}
    .fil8 {fill:#FFFFFE}
    .fil3 {fill:#212121;fill-rule:nonzero}
   ]]>
  </style></defs><g id="Layer_x0020_1"><circle class="fil0" cx="1024" cy="1024" r="832.001"/><path class="fil1" d="M1087.19 991.642l0 0zm-68.0127 -376.128c-8.08701,-10.1398 -18.0284,-19.9654 -29.889,-29.4083 -13.2921,-10.5815 -29.0008,-20.7591 -47.2241,-30.4429 -35.0693,-18.6236 -74.4827,-31.6099 -115.265,-38.0457 -39.7772,-6.27874 -80.8335,-6.2563 -120.389,0.916536l1.3748 31.5626c1.80354,0.164173 7.70434,3.9 14.3587,8.32087 -20.6776,5.93977 -39.7677,14.4461 -39.4807,39.6815l0.200788 17.4827 17.2996 -1.73268c29.3823,-2.94095 60.1678,-2.0504 90.3225,2.61732 9.21024,1.42559 18.3591,3.20197 27.3862,5.32441l-4.32402 1.15276c-20.4484,5.58426 -38.9292,12.5209 -54.2493,20.6103 -46.2792,24.3189 -75.5127,60.8493 -90.1406,108.371 -14.1461,45.9555 -14.2748,101.815 -2.72835,166.512l0.0625985 0.0625985c15.1453,84.5741 64.1575,316.392 104.117,505.394 19.7858,93.5894 37.3866,176.831 47.1414,224.407 3.26575,15.8445 5.03622,31.0264 5.52048,45.5197 0.303544,9.07914 0.0921261,17.9599 -0.581103,26.6268 -0.451181,5.80276 -1.10906,11.511 -1.95709,17.1189l31.6252 11.6256 338.654 -1.6441 28.6252 -21.0012c-2.10827,-4.26851 -4.23307,-8.54883 -6.37087,-12.8362 -23.002,-46.1233 -47.4957,-93.0083 -68.6682,-133.534 -15.3921,-29.4626 -29.0091,-55.526 -39.0449,-75.5764 -26.824,-53.6174 -53.6351,-119.469 -68.2808,-182.367 -8.77914,-37.7044 -13.1256,-74.0977 -10.3051,-105.626 -15.3106,-6.27874 -26.6894,-11.8016 -31.9642,-15.5906l-0.00944883 0.0153543c-14.2193,-10.1988 -31.1114,-28.1185 -41.8217,-49.7174 -8.61615,-17.3764 -13.3973,-37.2461 -10.1445,-57.841 3.17126,-19.8402 27.3343,-46.7138 57.8434,-67.4575l0 -0.0649607c26.5536,-18.0532 58.7516,-32.5051 86.3186,-34.3134 7.83544,-0.509056 16.3122,-1.00512 23.9918,-1.45158 33.4488,-1.95 50.2418,-2.93032 84.4737,-11.4213 10.8803,-2.69055 26.1886,-6.5563 43.5284,-11.0835 2.36457,-40.7008 -5.94685,-87.5965 -21.0402,-133.234 -22.0028,-66.5339 -58.6819,-131.254 -97.6265,-170.211 -12.548,-12.5528 -28.1693,-22.7894 -45.9048,-30.9378 -16.878,-7.75394 -35.641,-13.6158 -55.4351,-17.7827z"/><path class="fil2" d="M1105.19 991.642l0 0zm-68.0127 -376.128c-8.08701,-10.1398 -18.0284,-19.9654 -29.889,-29.4083 -13.2921,-10.5815 -29.0008,-20.7591 -47.2241,-30.4429 -35.0693,-18.6236 -74.4827,-31.6099 -115.265,-38.0457 -39.7772,-6.27874 -80.8335,-6.2563 -120.389,0.916536l1.3748 31.5626c1.80354,0.164173 7.70434,3.9 14.3587,8.32087 -20.6776,5.93977 -39.7677,14.4461 -39.4807,39.6815l0.200788 17.4827 17.2996 -1.73268c29.3823,-2.94095 60.1678,-2.0504 90.3225,2.61732 9.21024,1.42559 18.3591,3.20197 27.3862,5.32441l-4.32402 1.15276c-20.4484,5.58426 -38.9292,12.5209 -54.2493,20.6103 -46.2792,24.3189 -75.5127,60.8493 -90.1406,108.371 -14.1461,45.9555 -14.2748,101.815 -2.72835,166.512l0.0625985 0.0625985c15.1453,84.5741 64.1575,316.392 104.117,505.394 19.7858,93.5894 37.3866,176.831 47.1414,224.407 3.26575,15.8445 5.03622,31.0264 5.52048,45.5197 0.303544,9.07914 0.0921261,17.9599 -0.581103,26.6268 -0.451181,5.80276 -1.10906,11.511 -1.95709,17.1189l31.6252 11.6256 338.654 -1.6441 28.6252 -21.0012c-2.10827,-4.26851 -4.23307,-8.54883 -6.37087,-12.8362 -23.002,-46.1233 -47.4957,-93.0083 -68.6682,-133.534 -15.3921,-29.4626 -29.0091,-55.526 -39.0449,-75.5764 -26.824,-53.6174 -53.6351,-119.469 -68.2808,-182.367 -8.77914,-37.7044 -13.1256,-74.0977 -10.3051,-105.626 -15.3106,-6.27874 -26.6894,-11.8016 -31.9642,-15.5906l-0.00944883 0.0153543c-14.2193,-10.1988 -31.1114,-28.1185 -41.8217,-49.7174 -8.61615,-17.3764 -13.3973,-37.2461 -10.1445,-57.841 3.17126,-19.8402 27.3343,-46.7138 57.8434,-67.4575l0 -0.0649607c26.5536,-18.0532 58.7516,-32.5051 86.3186,-34.3134 7.83544,-0.509056 16.3122,-1.00512 23.9918,-1.45158 33.4488,-1.95 50.2418,-2.93032 84.4737,-11.4213 10.8803,-2.69055 26.1886,-6.5563 43.5284,-11.0835 2.36457,-40.7008 -5.94685,-87.5965 -21.0402,-133.234 -22.0028,-66.5339 -58.6819,-131.254 -97.6265,-170.211 -12.548,-12.5528 -28.1693,-22.7894 -45.9048,-30.9378 -16.878,-7.75394 -35.641,-13.6158 -55.4351,-17.7827z"/><path class="fil2" d="M1776 1024c0,-200.093 -78.7808,-390.248 -220.265,-531.734 -141.486,-141.484 -331.642,-220.266 -531.735,-220.266 -200.093,0 -390.248,78.7843 -531.733,220.267 -141.483,141.484 -220.267,331.64 -220.267,531.733 0,200.092 78.7855,390.245 220.269,531.726 141.484,141.482 331.64,220.265 531.732,220.265 200.092,0 390.247,-78.7831 531.732,-220.265 141.483,-141.481 220.269,-331.634 220.269,-531.726zm-242.894 509.1c-135.464,135.462 -317.528,210.89 -509.106,210.89 -191.578,0 -373.642,-75.4276 -509.106,-210.89 -135.463,-135.462 -210.893,-317.524 -210.893,-509.1 0,-191.578 75.4276,-373.644 210.892,-509.107 135.463,-135.464 317.529,-210.892 509.107,-210.892 191.58,0 373.646,75.4264 509.11,210.89 135.465,135.464 210.89,317.53 210.89,509.11 0,191.576 -75.43,373.638 -210.893,509.1z"/><path class="fil3" d="M1438.64 1177.41c-0.0011811,-0.0307087 -0.00472441,-0.0165354 -0.0106299,0.00354331l0.0106299 -0.00354331z"/><path class="fil3" d="M1499.8 976.878c0.0307087,-0.155906 -0.0236221,-0.0484252 -0.111024,0.10748l0.111024 -0.10748z"/><path class="fil4" d="M1102.48 986.339l0 0zm390.074 -64.3465c-28.917,-11.341 -74.8914,-12.6791 -93.319,-3.77717 -11.5016,5.56654 -35.7437,13.4823 -63.5658,21.7063 -25.741,7.60631 -53.8937,15.2965 -78.1477,21.7028 -17.6882,4.67008 -33.3024,8.65867 -44.4012,11.4343 -34.9181,8.76024 -52.0477,9.77127 -86.1674,11.7827 -7.83308,0.46063 -16.4799,0.972048 -24.4725,1.49764 -28.1197,1.86614 -60.9638,16.7752 -88.0501,35.4l0 0.0673229c-31.1209,21.4004 -55.7682,49.1244 -59.0032,69.593 -3.31772,21.248 1.55906,41.7461 10.3488,59.6729 10.924,22.2827 28.1551,40.7705 42.6603,51.2918l0.00944883 -0.0153543c5.37993,3.90827 16.9866,9.60591 32.6044,16.0843 26.0327,10.7976 63.2032,23.765 101.25,34.2331 43.6063,11.9976 89.1178,21.0532 121.689,20.4106 34.2626,-0.690945 77.7331,-10.5165 114.543,-24.6721 22.1469,-8.51694 42.2091,-18.7063 56.8796,-29.5748 17.8477,-13.2189 28.6996,-28.4173 28.3984,-44.7378 -0.068504,-3.88465 -0.714567,-7.62993 -1.9689,-11.2087l-0.0212599 0.00826772c-11.5961,-33.0567 -50.3658,-23.5878 -105.528,-10.1114 -46.8579,11.4461 -107.937,26.3658 -169.011,20.4343 -32.5559,-3.16536 -54.4441,-10.611 -67.8756,-20.1319 -5.96221,-4.22481 -9.9319,-8.66812 -12.1807,-13.1091 -1.95827,-3.86693 -2.67402,-7.84253 -2.33032,-11.7154 0.389764,-4.41969 2.17795,-9.04843 5.10119,-13.5721l-0.0437008 -0.0307087c7.86142,-12.1169 23.0835,-9.72048 43.9276,-6.43347 25.9099,4.08426 58.2012,9.17599 99.0178,-3.60827 39.6296,-12.3756 87.7607,-29.8984 131.186,-47.3882 42.4052,-17.0799 80.0788,-34.0772 100.741,-46.1811 25.461,-14.8713 37.5709,-29.426 40.5874,-42.8646 2.72599,-12.1536 -0.889371,-22.4823 -8.90198,-31.0689 -5.87126,-6.2941 -14.2547,-11.3126 -23.9563,-15.1181z"/><g id="_337885008"><path class="fil5" d="M856.504 1667.76l-17.5973 -239.332c11.0504,-22.6973 158.374,47.4024 192.376,58.6111l10.7398 124.539c-31.5142,16.8414 -166.036,112.193 -185.518,56.1815z" id="_337884768"/><path class="fil6" d="M1005.87 1507.43c0,0 70.7493,-53.1615 130.817,-23.1272 0,0 17.0173,95.1308 0,120.135 0,0 -46.7079,26.5418 -128.471,13.2709l-2.34567 -110.278z" id="_337884576"/><path class="fil5" d="M1013.43 1498.23c0,0 70.7493,-53.1615 130.817,-23.1272 0,0 17.0185,95.132 0,120.136 0,0 -46.7067,26.5418 -128.471,13.2709l-2.34567 -110.28z" id="_337884384"/><path class="fil5" d="M1129.86 1494.71c51.2079,-31.0134 213.743,-171.369 196.511,-36.3697l-3.85748 163.065c0.311811,6.46654 -2.81575,9.06142 -8.76142,8.48859l-197.969 -48.3685 14.0776 -86.8158z" id="_337885080"/></g><g id="_337884048"><circle class="fil7" cx="839.42" cy="918.1" id="_337884456" r="48.0213"/><circle class="fil8" cx="861.179" cy="901.842" id="_337884216" r="12.2554"/></g><g id="_337883784"><circle class="fil7" cx="1090.04" cy="871.849" id="_337883664" r="41.1449"/><circle class="fil8" cx="1108.69" cy="857.919" id="_337883880" r="10.5005"/></g><path class="fil7" d="M788.728 792.154c34.2461,-21.5185 69.4548,-5.59016 69.4548,-5.59016 0,0 -23.6126,-31.1516 -72.1087,-11.2984 -48.4311,19.8402 -30.2599,60.3402 -30.2599,60.3402 0,0 -1.27323,-21.9756 32.9138,-43.4516z"/><path class="fil7" d="M1084.91 760.091c-51.6166,-8.50867 -58.3914,33.9768 -58.3914,33.9768 0,0 11.0185,-17.811 51.3461,-18.3425 19.6382,-0.261024 44.9433,14.198 44.9433,14.198 0,0 -9.9319,-25.1788 -37.8981,-29.8323z"/></g><rect class="fil9" height="2048" width="2048"/></svg>