<svg width="95.776" height="95.776" xmlns="http://www.w3.org/2000/svg">

 <g>
  <title>background</title>
  <rect fill="none" id="canvas_background" height="402" width="582" y="-1" x="-1"/>
 </g>
 <g>
  <title>Layer 1</title>
  <path id="svg_1" d="m7.579034,31.247996l14.204,0c4.169,0.035 7.19,1.237 9.063,3.604c1.873,2.367 2.491,5.6 1.855,9.699c-0.247,1.873 -0.795,3.71 -1.643,5.512c-0.813,1.802 -1.943,3.427 -3.392,4.876c-1.767,1.837 -3.657,3.003 -5.671,3.498c-2.014,0.495 -4.099,0.742 -6.254,0.742l-6.36,0l-2.014,10.07l-7.367,0l7.579,-38.001l0,0m6.201,6.042l-3.18,15.9c0.212,0.035 0.424,0.053 0.636,0.053c0.247,0 0.495,0 0.742,0c3.392,0.035 6.219,-0.3 8.48,-1.007c2.261,-0.742 3.781,-3.321 4.558,-7.738c0.636,-3.71 0,-5.848 -1.908,-6.413c-1.873,-0.565 -4.222,-0.83 -7.049,-0.795c-0.424,0.035 -0.83,0.053 -1.219,0.053c-0.353,0 -0.724,0 -1.113,0l0.053,-0.053"/>
  <path id="svg_2" d="m41.093034,21.124996l7.314,0l-2.067,10.123l6.572,0c3.604,0.071 6.289,0.813 8.056,2.226c1.802,1.413 2.332,4.099 1.59,8.056l-3.551,17.649l-7.42,0l3.392,-16.854c0.353,-1.767 0.247,-3.021 -0.318,-3.763c-0.565,-0.742 -1.784,-1.113 -3.657,-1.113l-5.883,-0.053l-4.346,21.783l-7.314,0l7.632,-38.054l0,0"/>
  <path id="svg_3" d="m70.412034,31.247996l14.204,0c4.169,0.035 7.19,1.237 9.063,3.604c1.873,2.367 2.491,5.6 1.855,9.699c-0.247,1.873 -0.795,3.71 -1.643,5.512c-0.813,1.802 -1.943,3.427 -3.392,4.876c-1.767,1.837 -3.657,3.003 -5.671,3.498c-2.014,0.495 -4.099,0.742 -6.254,0.742l-6.36,0l-2.014,10.07l-7.367,0l7.579,-38.001l0,0m6.201,6.042l-3.18,15.9c0.212,0.035 0.424,0.053 0.636,0.053c0.247,0 0.495,0 0.742,0c3.392,0.035 6.219,-0.3 8.48,-1.007c2.261,-0.742 3.781,-3.321 4.558,-7.738c0.636,-3.71 0,-5.848 -1.908,-6.413c-1.873,-0.565 -4.222,-0.83 -7.049,-0.795c-0.424,0.035 -0.83,0.053 -1.219,0.053c-0.353,0 -0.724,0 -1.113,0l0.053,-0.053"/>
 </g>
</svg>