<?xml version="1.0" encoding="UTF-8" standalone="no"?>
<!-- Created with Inkscape (http://www.inkscape.org/) -->

<svg
   xmlns:dc="http://purl.org/dc/elements/1.1/"
   xmlns:cc="http://creativecommons.org/ns#"
   xmlns:rdf="http://www.w3.org/1999/02/22-rdf-syntax-ns#"
   xmlns:svg="http://www.w3.org/2000/svg"
   xmlns="http://www.w3.org/2000/svg"
   xmlns:xlink="http://www.w3.org/1999/xlink"
   xmlns:inkscape="http://www.inkscape.org/namespaces/inkscape"
   version="1.0"
   width="96"
   height="96"
   id="svg2408">
  <defs
     id="defs2410">
    <linearGradient
       x1="45.447727"
       y1="92.539597"
       x2="45.447727"
       y2="7.0165396"
       id="ButtonShadow"
       gradientUnits="userSpaceOnUse"
       gradientTransform="scale(1.0058652,0.994169)">
      <stop
         id="stop3750"
         style="stop-color:#000000;stop-opacity:1"
         offset="0" />
      <stop
         id="stop3752"
         style="stop-color:#000000;stop-opacity:0.58823532"
         offset="1" />
    </linearGradient>
    <linearGradient
       id="linearGradient3737">
      <stop
         id="stop3739"
         style="stop-color:#ffffff;stop-opacity:1"
         offset="0" />
      <stop
         id="stop3741"
         style="stop-color:#ffffff;stop-opacity:0"
         offset="1" />
    </linearGradient>
    <linearGradient
       id="linearGradient3700">
      <stop
         id="stop3702"
         style="stop-color:#2295c5;stop-opacity:1"
         offset="0" />
      <stop
         id="stop3704"
         style="stop-color:#68d8f4;stop-opacity:1"
         offset="1" />
    </linearGradient>
    <filter
       color-interpolation-filters="sRGB"
       id="filter3174">
      <feGaussianBlur
         id="feGaussianBlur3176"
         stdDeviation="1.71" />
    </filter>
    <linearGradient
       x1="36.357143"
       y1="6"
       x2="36.357143"
       y2="63.893143"
       id="linearGradient3188"
       xlink:href="#linearGradient3737"
       gradientUnits="userSpaceOnUse" />
    <filter
       x="-0.192"
       y="-0.192"
       width="1.3839999"
       height="1.3839999"
       color-interpolation-filters="sRGB"
       id="filter3794">
      <feGaussianBlur
         id="feGaussianBlur3796"
         stdDeviation="5.28" />
    </filter>
    <linearGradient
       x1="48"
       y1="20.220806"
       x2="48"
       y2="138.66119"
       id="linearGradient3613"
       xlink:href="#linearGradient3737"
       gradientUnits="userSpaceOnUse" />
    <radialGradient
       cx="48"
       cy="90.171875"
       r="42"
       fx="48"
       fy="90.171875"
       id="radialGradient3619"
       xlink:href="#linearGradient3737"
       gradientUnits="userSpaceOnUse"
       gradientTransform="matrix(1.1573129,0,0,0.99590774,-7.5510206,0.19713193)" />
    <clipPath
       id="clipPath3613">
      <rect
         width="84"
         height="84"
         rx="6"
         ry="6"
         x="6"
         y="6"
         id="rect3615"
         style="fill:#ffffff;fill-opacity:1;fill-rule:nonzero;stroke:none" />
    </clipPath>
    <linearGradient
       x1="48"
       y1="90"
       x2="48"
       y2="5.9877172"
       id="linearGradient3617"
       xlink:href="#linearGradient3700"
       gradientUnits="userSpaceOnUse" />
    <linearGradient
       x1="45.447727"
       y1="92.539597"
       x2="45.447727"
       y2="7.0165396"
       id="ButtonShadow-0"
       gradientUnits="userSpaceOnUse"
       gradientTransform="matrix(1.0058652,0,0,0.994169,100,0)">
      <stop
         id="stop3750-8"
         style="stop-color:#000000;stop-opacity:1"
         offset="0" />
      <stop
         id="stop3752-5"
         style="stop-color:#000000;stop-opacity:0.58823532"
         offset="1" />
    </linearGradient>
    <linearGradient
       x1="32.251034"
       y1="6.1317081"
       x2="32.251034"
       y2="90.238609"
       id="linearGradient3780"
       xlink:href="#ButtonShadow-0"
       gradientUnits="userSpaceOnUse"
       gradientTransform="matrix(1.0238095,0,0,1.0119048,-1.1428571,-98.071429)" />
    <linearGradient
       x1="32.251034"
       y1="6.1317081"
       x2="32.251034"
       y2="90.238609"
       id="linearGradient3772"
       xlink:href="#ButtonShadow-0"
       gradientUnits="userSpaceOnUse"
       gradientTransform="matrix(1.0238095,0,0,1.0119048,-1.1428571,-98.071429)" />
    <linearGradient
       x1="32.251034"
       y1="6.1317081"
       x2="32.251034"
       y2="90.238609"
       id="linearGradient3725"
       xlink:href="#ButtonShadow-0"
       gradientUnits="userSpaceOnUse"
       gradientTransform="matrix(1.0238095,0,0,1.0119048,-1.1428571,-98.071429)" />
    <linearGradient
       x1="32.251034"
       y1="6.1317081"
       x2="32.251034"
       y2="90.238609"
       id="linearGradient3721"
       xlink:href="#ButtonShadow-0"
       gradientUnits="userSpaceOnUse"
       gradientTransform="translate(0,-97)" />
    <linearGradient
       x1="32.251034"
       y1="6.1317081"
       x2="32.251034"
       y2="90.238609"
       id="linearGradient3122"
       xlink:href="#ButtonShadow-0"
       gradientUnits="userSpaceOnUse"
       gradientTransform="matrix(1.0238095,0,0,1.0119048,-1.1428571,-98.071429)" />
  </defs>
  <metadata
     id="metadata2413">
    <rdf:RDF>
      <cc:Work
         rdf:about="">
        <dc:format>image/svg+xml</dc:format>
        <dc:type
           rdf:resource="http://purl.org/dc/dcmitype/StillImage" />
      </cc:Work>
    </rdf:RDF>
  </metadata>
  <g
     id="layer2"
     style="display:none">
    <rect
       width="86"
       height="85"
       rx="6"
       ry="6"
       x="5"
       y="7"
       id="rect3745"
       style="opacity:0.9;fill:url(#ButtonShadow);fill-opacity:1;fill-rule:nonzero;stroke:none;filter:url(#filter3174)" />
  </g>
  <g
     id="layer3"
     style="display:inline">
    <path
       d="m 12,-95.03125 c -5.5110903,0 -10.03125,4.52016 -10.03125,10.03125 l 0,71 c 0,5.5110902 4.5201598,10.03125 10.03125,10.03125 l 72,0 c 5.51109,0 10.03125,-4.5201597 10.03125,-10.03125 l 0,-71 c 0,-5.51109 -4.52016,-10.03125 -10.03125,-10.03125 l -72,0 z"
       transform="scale(1,-1)"
       id="path3786"
       style="opacity:0.07999998;fill:url(#linearGradient3122);fill-opacity:1;fill-rule:nonzero;stroke:none;display:inline" />
    <path
       d="m 12,-94.03125 c -4.971633,0 -9.03125,4.059617 -9.03125,9.03125 l 0,71 c 0,4.9716329 4.0596171,9.03125 9.03125,9.03125 l 72,0 c 4.971633,0 9.03125,-4.059617 9.03125,-9.03125 l 0,-71 c 0,-4.971633 -4.059617,-9.03125 -9.03125,-9.03125 l -72,0 z"
       transform="scale(1,-1)"
       id="path3778"
       style="opacity:0.1;fill:url(#linearGradient3780);fill-opacity:1;fill-rule:nonzero;stroke:none;display:inline" />
    <path
       d="m 12,-93 c -4.4091333,0 -8,3.590867 -8,8 l 0,71 c 0,4.4091333 3.5908667,8 8,8 l 72,0 c 4.409133,0 8,-3.5908667 8,-8 l 0,-71 c 0,-4.409133 -3.590867,-8 -8,-8 l -72,0 z"
       transform="scale(1,-1)"
       id="path3770"
       style="opacity:0.2;fill:url(#linearGradient3772);fill-opacity:1;fill-rule:nonzero;stroke:none;display:inline" />
    <rect
       width="86"
       height="85"
       rx="7"
       ry="7"
       x="5"
       y="-92"
       transform="scale(1,-1)"
       id="rect3723"
       style="opacity:0.3;fill:url(#linearGradient3725);fill-opacity:1;fill-rule:nonzero;stroke:none;display:inline" />
    <rect
       width="84"
       height="84"
       rx="6"
       ry="6"
       x="6"
       y="-91"
       transform="scale(1,-1)"
       id="rect3716"
       style="opacity:0.45;fill:url(#linearGradient3721);fill-opacity:1;fill-rule:nonzero;stroke:none;display:inline" />
  </g>
  <g
     id="layer1">
    <rect
       width="84"
       height="84"
       rx="6"
       ry="6"
       x="6"
       y="6"
       id="rect2419"
       style="fill:url(#linearGradient3617);fill-opacity:1;fill-rule:nonzero;stroke:none" />
    <path
       d="M 12,6 C 8.676,6 6,8.676 6,12 l 0,2 0,68 0,2 c 0,0.334721 0.04135,0.6507 0.09375,0.96875 0.0487,0.295596 0.09704,0.596915 0.1875,0.875 0.00988,0.03038 0.020892,0.0636 0.03125,0.09375 0.098865,0.287771 0.2348802,0.547452 0.375,0.8125 0.1445918,0.273507 0.3156161,0.535615 0.5,0.78125 0.1843839,0.245635 0.3737765,0.473472 0.59375,0.6875 0.439947,0.428056 0.94291,0.814526 1.5,1.09375 0.278545,0.139612 0.5734731,0.246947 0.875,0.34375 -0.2562018,-0.100222 -0.4867109,-0.236272 -0.71875,-0.375 -0.00741,-0.0044 -0.023866,0.0045 -0.03125,0 -0.031933,-0.0193 -0.062293,-0.04251 -0.09375,-0.0625 -0.120395,-0.0767 -0.2310226,-0.163513 -0.34375,-0.25 -0.1061728,-0.0808 -0.2132809,-0.161112 -0.3125,-0.25 C 8.4783201,88.557317 8.3087904,88.373362 8.15625,88.1875 8.0486711,88.057245 7.9378561,87.922215 7.84375,87.78125 7.818661,87.74287 7.805304,87.69538 7.78125,87.65625 7.716487,87.553218 7.6510225,87.451733 7.59375,87.34375 7.4927417,87.149044 7.3880752,86.928049 7.3125,86.71875 7.30454,86.69694 7.288911,86.6782 7.28125,86.65625 7.2494249,86.5643 7.2454455,86.469419 7.21875,86.375 7.1884177,86.268382 7.1483606,86.171969 7.125,86.0625 7.0521214,85.720988 7,85.364295 7,85 L 7,83 7,15 7,13 C 7,10.218152 9.2181517,8 12,8 l 2,0 68,0 2,0 c 2.781848,0 5,2.218152 5,5 l 0,2 0,68 0,2 c 0,0.364295 -0.05212,0.720988 -0.125,1.0625 -0.04415,0.206893 -0.08838,0.397658 -0.15625,0.59375 -0.0077,0.02195 -0.0233,0.04069 -0.03125,0.0625 -0.06274,0.173739 -0.138383,0.367449 -0.21875,0.53125 -0.04158,0.0828 -0.07904,0.169954 -0.125,0.25 -0.0546,0.09721 -0.126774,0.18835 -0.1875,0.28125 -0.09411,0.140965 -0.204921,0.275995 -0.3125,0.40625 -0.143174,0.17445 -0.303141,0.346998 -0.46875,0.5 -0.01117,0.0102 -0.01998,0.02115 -0.03125,0.03125 -0.138386,0.125556 -0.285091,0.234436 -0.4375,0.34375 -0.102571,0.07315 -0.204318,0.153364 -0.3125,0.21875 -0.0074,0.0045 -0.02384,-0.0044 -0.03125,0 -0.232039,0.138728 -0.462548,0.274778 -0.71875,0.375 0.301527,-0.0968 0.596455,-0.204138 0.875,-0.34375 0.55709,-0.279224 1.060053,-0.665694 1.5,-1.09375 0.219973,-0.214028 0.409366,-0.441865 0.59375,-0.6875 0.184384,-0.245635 0.355408,-0.507743 0.5,-0.78125 0.14012,-0.265048 0.276135,-0.524729 0.375,-0.8125 0.01041,-0.03078 0.02133,-0.06274 0.03125,-0.09375 0.09046,-0.278085 0.1388,-0.579404 0.1875,-0.875 C 89.95865,84.6507 90,84.334721 90,84 l 0,-2 0,-68 0,-2 C 90,8.676 87.324,6 84,6 L 12,6 z"
       inkscape:connector-curvature="0"
       id="rect3728"
       style="opacity:0.5;fill:url(#linearGradient3188);fill-opacity:1;fill-rule:nonzero;stroke:none" />
    <path
       d="M 12,90 C 8.676,90 6,87.324 6,84 L 6,82 6,14 6,12 c 0,-0.334721 0.04135,-0.6507 0.09375,-0.96875 0.0487,-0.295596 0.09704,-0.596915 0.1875,-0.875 C 6.29113,10.12587 6.302142,10.09265 6.3125,10.0625 6.411365,9.774729 6.5473802,9.515048 6.6875,9.25 6.8320918,8.976493 7.0031161,8.714385 7.1875,8.46875 7.3718839,8.223115 7.5612765,7.995278 7.78125,7.78125 8.221197,7.353194 8.72416,6.966724 9.28125,6.6875 9.559795,6.547888 9.8547231,6.440553 10.15625,6.34375 9.9000482,6.443972 9.6695391,6.580022 9.4375,6.71875 c -0.00741,0.0044 -0.023866,-0.0045 -0.03125,0 -0.031933,0.0193 -0.062293,0.04251 -0.09375,0.0625 -0.120395,0.0767 -0.2310226,0.163513 -0.34375,0.25 -0.1061728,0.0808 -0.2132809,0.161112 -0.3125,0.25 C 8.4783201,7.442683 8.3087904,7.626638 8.15625,7.8125 8.0486711,7.942755 7.9378561,8.077785 7.84375,8.21875 7.818661,8.25713 7.805304,8.30462 7.78125,8.34375 7.716487,8.446782 7.6510225,8.548267 7.59375,8.65625 7.4927417,8.850956 7.3880752,9.071951 7.3125,9.28125 7.30454,9.30306 7.288911,9.3218 7.28125,9.34375 7.2494249,9.4357 7.2454455,9.530581 7.21875,9.625 7.1884177,9.731618 7.1483606,9.828031 7.125,9.9375 7.0521214,10.279012 7,10.635705 7,11 l 0,2 0,68 0,2 c 0,2.781848 2.2181517,5 5,5 l 2,0 68,0 2,0 c 2.781848,0 5,-2.218152 5,-5 l 0,-2 0,-68 0,-2 C 89,10.635705 88.94788,10.279012 88.875,9.9375 88.83085,9.730607 88.78662,9.539842 88.71875,9.34375 88.71105,9.3218 88.69545,9.30306 88.6875,9.28125 88.62476,9.107511 88.549117,8.913801 88.46875,8.75 88.42717,8.6672 88.38971,8.580046 88.34375,8.5 88.28915,8.40279 88.216976,8.31165 88.15625,8.21875 88.06214,8.077785 87.951329,7.942755 87.84375,7.8125 87.700576,7.63805 87.540609,7.465502 87.375,7.3125 87.36383,7.3023 87.35502,7.29135 87.34375,7.28125 87.205364,7.155694 87.058659,7.046814 86.90625,6.9375 86.803679,6.86435 86.701932,6.784136 86.59375,6.71875 c -0.0074,-0.0045 -0.02384,0.0044 -0.03125,0 -0.232039,-0.138728 -0.462548,-0.274778 -0.71875,-0.375 0.301527,0.0968 0.596455,0.204138 0.875,0.34375 0.55709,0.279224 1.060053,0.665694 1.5,1.09375 0.219973,0.214028 0.409366,0.441865 0.59375,0.6875 0.184384,0.245635 0.355408,0.507743 0.5,0.78125 0.14012,0.265048 0.276135,0.524729 0.375,0.8125 0.01041,0.03078 0.02133,0.06274 0.03125,0.09375 0.09046,0.278085 0.1388,0.579404 0.1875,0.875 C 89.95865,11.3493 90,11.665279 90,12 l 0,2 0,68 0,2 c 0,3.324 -2.676,6 -6,6 l -72,0 z"
       inkscape:connector-curvature="0"
       id="path3615"
       style="opacity:0.2;fill:url(#radialGradient3619);fill-opacity:1;fill-rule:nonzero;stroke:none" />
    <path
       d="M 11.625,9 C 10.942945,9.0766125 10.3617,9.3547182 9.9375,9.78125 9.5132999,10.207782 9.2603006,10.743325 9.125,11.25 8.8604675,12.240624 8.9490934,13.218893 9,13.96875 c 1.85e-5,0.02083 -1.84e-5,0.04167 0,0.0625 0.020683,23.455706 -0.041638,46.916913 0.03125,70.375 a 0.98129583,0.98129583 0 0 0 0.03125,0.25 c 0.1931205,0.760046 0.6053781,1.369967 1.15625,1.75 0.550872,0.380033 1.17373,0.531161 1.75,0.59375 1.15254,0.125178 2.294558,-0.05058 2.96875,0 A 0.98129583,0.98129583 0 0 0 15,87 c 23.128342,-0.02085 46.275417,0.0417 69.40625,-0.03125 a 0.98129583,0.98129583 0 0 0 0.25,-0.03125 c 0.760046,-0.19312 1.369967,-0.605378 1.75,-1.15625 0.380033,-0.550872 0.531161,-1.17373 0.59375,-1.75 0.125178,-1.15254 -0.05058,-2.294558 0,-2.96875 A 0.98129583,0.98129583 0 0 0 87,81 c -0.02084,-23.128343 0.0417,-46.275418 -0.03125,-69.40625 a 0.98129583,0.98129583 0 0 0 -0.03125,-0.25 C 86.74438,10.583704 86.332122,9.9737832 85.78125,9.59375 85.230378,9.2137168 84.60752,9.062589 84.03125,9 82.87871,8.8748219 81.736692,9.0505767 81.0625,9 A 0.98129583,0.98129583 0 0 0 81,9 L 11.75,9 A 0.98129583,0.98129583 0 0 0 11.625,9 z M 21,21 41.90625,21 c -0.151571,0.371763 -0.292857,0.735753 -0.375,1.09375 -0.226111,0.985442 -0.337308,1.915698 -0.59375,2.53125 A 0.98129583,0.98129583 0 0 0 40.90625,24.75 C 39.094307,31.709069 37.263862,38.666524 35.4375,45.625 34.502414,42.459134 33.61841,39.251647 32.5,36.125 a 0.98129583,0.98129583 0 0 0 -0.125,-0.21875 c -0.807796,-1.191872 -2.167891,-1.467898 -3.25,-1.46875 -1.082109,-8.52e-4 -2.065485,0.156677 -2.6875,0.0625 a 0.98129583,0.98129583 0 0 0 -0.15625,0 L 21,34.5 21,21 z m 26.5625,0 9.34375,0 c -0.151918,0.277089 -0.319395,0.542014 -0.375,0.875 l -0.0625,-0.03125 c -1.456609,4.164646 -2.920055,8.333316 -4.375,12.5 C 50.61067,29.909073 49.177517,25.421379 47.5625,21 z M 62.21875,21 75,21 l 0,29.5 -3.03125,0 C 68.71655,40.675524 65.562571,30.811826 62.21875,21 z M 21,45.5 l 2.90625,0 c 2.967462,9.823952 5.958154,19.737096 8.90625,29.5 L 21,75 21,45.5 z m 38.3125,1.65625 c 1.387865,4.231204 2.734905,8.479639 4.21875,12.6875 a 0.98129583,0.98129583 0 0 0 0.125,0.25 c 0.802476,1.189023 2.141615,1.466623 3.21875,1.46875 1.077135,0.0021 2.069008,-0.155436 2.6875,-0.0625 a 0.98129583,0.98129583 0 0 0 0.15625,0 L 75,61.5 75,75 39.125,75 c 2.234718,-8.367762 4.429586,-16.748438 6.625,-25.125 1.175322,3.581117 2.299033,7.197045 3.65625,10.75 A 0.98129583,0.98129583 0 0 0 49.5,60.84375 c 1.53251,2.202797 5.004041,1.130802 5.4375,-1.375 L 55,59.5 c 1.457254,-4.1081 2.879944,-8.227788 4.3125,-12.34375 z"
       id="path3695"
       style="opacity:0.05;fill:#005a80;fill-opacity:1;fill-rule:nonzero;stroke:none" />
    <path
       d="M 11.75,9.96875 C 9.7668073,10.191514 9.8683321,12.480503 9.96875,13.967486 9.9896016,37.446333 9.9270589,60.931106 10,84.40625 c 0.580543,2.284787 3.290087,1.495831 5.011923,1.625 C 38.142624,86.0104 61.279251,86.07294 84.40625,86 c 2.284787,-0.580543 1.495831,-3.290087 1.625,-5.011923 C 86.010403,57.857376 86.072935,34.720749 86,11.59375 c -0.580543,-2.2847875 -3.290087,-1.495831 -5.011923,-1.625 -23.079359,0 -46.158718,0 -69.238077,0 z m 8.28125,10.0625 c 7.916667,0 15.833333,0 23.75,0 -1.544122,1.099185 -1.270792,3.347599 -1.945078,4.966126 C 39.735897,33.063831 37.611336,41.123937 35.5,49.1875 34.172021,44.954212 33.046677,40.617943 31.5625,36.46875 c -1.173219,-1.73104 -3.546966,-0.737063 -5.283599,-1 -2.08255,0 -4.165101,0 -6.247651,0 0,-5.145833 0,-10.291667 0,-15.4375 z m 25.71875,0 c 10.072917,0 20.145833,0 30.21875,0 0,10.479167 0,20.958333 0,31.4375 -1.572917,0 -3.145833,0 -4.71875,0 C 67.904522,41.379755 64.679432,31.245105 61.25,21.1875 60.250393,19.511581 57.580686,20.298972 57.41191,22.17172 55.639405,27.239556 53.86658,32.307279 52.09375,37.375 50.158471,31.798163 48.457779,26.114236 46.40625,20.59375 46.246181,20.350059 45.988995,20.186798 45.75,20.03125 z m 13.59375,24.0625 c 1.723786,5.136624 3.328602,10.343306 5.125,15.4375 1.164484,1.725406 3.524912,0.740431 5.252349,1 2.08255,0 4.165101,0 6.247651,0 0,5.145833 0,10.291667 0,15.4375 -12.697917,0 -25.395833,0 -38.09375,0 2.629292,-9.812978 5.16223,-19.669216 7.75,-29.5 1.583448,4.593569 2.95808,9.285182 4.6875,13.8125 1.07216,1.5411 3.574375,0.684141 3.746056,-1.108617 1.780621,-5.019695 3.53308,-10.049188 5.285194,-15.078883 z m -39.3125,0.4375 c 1.53125,0 3.0625,0 4.59375,0 3.160741,10.464653 6.362931,21.046964 9.5,31.4375 -4.697917,0 -9.395833,0 -14.09375,0 0,-10.479167 0,-20.958333 0,-31.4375 z"
       inkscape:connector-curvature="0"
       id="path3685"
       style="opacity:0.1;fill:#005a80;fill-opacity:1;fill-rule:nonzero;stroke:none" />
    <path
       d="M 11.90625,11.0625 A 0.93232674,0.93232674 0 0 0 11.0625,12 l 0,72 A 0.93232674,0.93232674 0 0 0 12,84.9375 l 72,0 A 0.93232674,0.93232674 0 0 0 84.9375,84 l 0,-72 A 0.93232674,0.93232674 0 0 0 84,11.0625 l -72,0 a 0.93232674,0.93232674 0 0 0 -0.09375,0 z m 7.03125,7.875 58.125,0 0,33.625 -6.59375,0 -7.75,-23.59375 -2.3125,-7 a 0.93232674,0.93232674 0 0 0 -1.75,-0.03125 L 56.21875,28.90625 52.0625,40.75 48.3125,29.5 45.65625,21.5 A 0.93232674,0.93232674 0 0 0 43.875,21.53125 L 41.75,29.6875 35.59375,53.21875 31.3125,39 a 0.93232674,0.93232674 0 0 0 -0.03125,0 l -0.5625,-1.78125 a 0.93232674,0.93232674 0 0 0 -0.875,-0.65625 l -1.84375,0 -9.0625,0 0,-17.625 z m 40.4375,21.75 5.375,16.375 0.5625,1.71875 a 0.93232674,0.93232674 0 0 0 0.875,0.65625 l 1.8125,0 9.0625,0 0,17.625 -58.125,0 0,-33.625 6.46875,0 7.125,23.53125 2.5625,8.5 a 0.93232674,0.93232674 0 0 0 1.8125,-0.03125 l 2.25,-8.59375 L 45.5,42.625 l 3.25,9.8125 2.3125,6.9375 a 0.93232674,0.93232674 0 0 0 1.75,0.03125 L 55.25,52.5 59.375,40.6875 z"
       id="path3681"
       style="opacity:0.3;fill:#005a80;fill-opacity:1;fill-rule:nonzero;stroke:none" />
    <path
       d="m 12,12 0,72 72,0 0,-72 -72,0 z m 6,6 60,0 0,35.5 -8.1875,0 -7.96875,-24.25 -2.3125,-7 -2.4375,6.96875 -5.03125,14.375 -4.625,-13.8125 -2.65625,-8 -2.125,8.15625 -7,26.78125 -5.25,-17.4375 L 29.84375,37.5 28,37.5 18,37.5 18,18 z M 59.40625,37.8125 65.625,56.78125 66.1875,58.5 68,58.5 l 10,0 0,19.5 -60,0 0,-35.5 8.125,0 7.3125,24.1875 2.5625,8.5 2.25,-8.59375 7.125,-27.21875 4.25,12.78125 2.3125,6.9375 2.4375,-6.90625 5.03125,-14.375 z"
       inkscape:connector-curvature="0"
       id="path3618"
       style="fill:#ffffff;fill-opacity:1;fill-rule:nonzero;stroke:none" />
  </g>
  <g
     id="layer5">
    <rect
       width="66"
       height="66"
       rx="12"
       ry="12"
       x="15"
       y="15"
       clip-path="url(#clipPath3613)"
       id="rect3171"
       style="opacity:0.1;fill:url(#linearGradient3613);fill-opacity:1;fill-rule:nonzero;stroke:#ffffff;stroke-width:0.5;stroke-linecap:round;stroke-linejoin:miter;stroke-miterlimit:4;stroke-opacity:1;stroke-dasharray:none;stroke-dashoffset:0;filter:url(#filter3794)" />
  </g>
</svg>
