<svg height="96" width="96" xmlns="http://www.w3.org/2000/svg" xmlns:xlink="http://www.w3.org/1999/xlink"><linearGradient id="a" gradientUnits="userSpaceOnUse" x1="48" x2="48" xlink:href="#b" y1="92" y2="6.3387823"/><linearGradient id="b"><stop offset="0"/><stop offset="1" stop-opacity=".58823532"/></linearGradient><radialGradient id="c" cx="48" cy="4.3132138" gradientTransform="matrix(0 -1.5003163 2.0034783 0 39.35857 134.2291)" gradientUnits="userSpaceOnUse" r="35.9375"><stop offset="0" stop-color="#dc8984"/><stop offset=".5" stop-color="#b5528e"/><stop offset="1" stop-color="#532e63"/></radialGradient><linearGradient id="d" gradientUnits="userSpaceOnUse" x1="48" x2="48" y1="72" y2="5.9877172"><stop offset="0"/><stop offset="1" stop-color="#1f1f1f"/></linearGradient><linearGradient id="e"><stop offset="0" stop-color="#fff"/><stop offset="1" stop-color="#fff" stop-opacity="0"/></linearGradient><linearGradient id="f" gradientUnits="userSpaceOnUse" x1="64.47113" x2="64.47113" xlink:href="#e" y1="14.125" y2="53"/><linearGradient id="g" gradientUnits="userSpaceOnUse" x1="67.15625" x2="67.15625" xlink:href="#e" y1="14.125" y2="61"/><linearGradient id="h" gradientUnits="userSpaceOnUse" x1="70.517296" x2="70.517296" xlink:href="#e" y1="7.0625" y2="88"/><linearGradient id="i" gradientTransform="matrix(1 0 0 -1 0 92)" gradientUnits="userSpaceOnUse" x1="48" x2="48" xlink:href="#e" y1="88" y2="-40"/><linearGradient id="j"><stop offset="0" stop-opacity=".58823532"/><stop offset=".11780351" stop-opacity=".47058824"/><stop offset=".23809524" stop-opacity=".39215687"/><stop offset="1" stop-opacity=".3137255"/></linearGradient><linearGradient id="k" gradientUnits="userSpaceOnUse" spreadMethod="reflect" x1="90" x2="48" xlink:href="#j" y1="72" y2="72"/><linearGradient id="l" gradientUnits="userSpaceOnUse" spreadMethod="reflect" x1="26" x2="48" xlink:href="#j" y1="86" y2="86"/><linearGradient id="m" gradientUnits="userSpaceOnUse" x1="48" x2="48" y1="70" y2="86"><stop offset="0" stop-color="#b3b3b3"/><stop offset=".3125" stop-color="#a4a4a4"/><stop offset=".5625" stop-color="#949494"/><stop offset=".75" stop-color="#a2a2a2"/><stop offset="1" stop-color="#e2e2e2"/></linearGradient><linearGradient id="n" gradientUnits="userSpaceOnUse" x1="44" x2="44" xlink:href="#e" y1="86" y2="73"/><linearGradient id="o" gradientUnits="userSpaceOnUse" x1="49" x2="49" xlink:href="#b" y1="91" y2="6"/><linearGradient id="p" gradientUnits="userSpaceOnUse" spreadMethod="reflect" x1="48" x2="60" xlink:href="#q" y1="51" y2="51"/><linearGradient id="q"><stop offset="0" stop-color="#e6c94c"/><stop offset=".57832253" stop-color="#e7ce5f"/><stop offset=".83333331" stop-color="#f0de93"/><stop offset=".91666669" stop-color="#d0b64c"/><stop offset="1" stop-color="#907d2e"/></linearGradient><linearGradient id="r" gradientUnits="userSpaceOnUse" spreadMethod="reflect" x1="48" x2="60" xlink:href="#q" y1="45" y2="45"/><linearGradient id="s" gradientUnits="userSpaceOnUse" spreadMethod="reflect" x1="48" x2="60" xlink:href="#q" y1="39" y2="39"/><linearGradient id="t" gradientUnits="userSpaceOnUse" x1="56.727566" x2="48.758419" xlink:href="#u" y1="35.282234" y2="21.479269"/><linearGradient id="u"><stop offset="0"/><stop offset="1" stop-opacity="0"/></linearGradient><linearGradient id="v" gradientUnits="userSpaceOnUse" x1="39.03125" x2="47.230457" xlink:href="#u" y1="33.984375" y2="22.974846"/><linearGradient id="w" gradientUnits="userSpaceOnUse" spreadMethod="reflect" x1="48" x2="56.96875" y1="34" y2="34"><stop offset="0" stop-color="#cbcbcb"/><stop offset="1" stop-color="#efefef"/></linearGradient><path d="m12 3.9375c-5.5405787 0-10.0625 4.5219213-10.0625 10.0625v55c0 5.540578 4.5219211 10.0625 10.0625 10.0625h17.40625c-2.190792.554393-4.34375.875-4.34375.875-.0044.000301-.504874.06253-.3125.03125-.0044.000714-.245695.06138-.25.0625-.0043.0011-.277068.09223-.28125.09375-.0042.0015-.277229.09185-.28125.09375-.004.0019-.434036.265488-.25.15625-.0348.02065-.0236.008-.0625.03125-.0389.02328-.154452.12369-.15625.125-.0036.0026-.246664.184556-.25.1875-.0033.0029-.215704.184257-.21875.1875-.0015.0016-.000075.0002-.03125.03125-.01559.01552-.018.04923-.03125.0625-.0066.0066-.02469-.0066-.03125 0-.0066.0066-.09341.124561-.09375.125-.000341.000439-.05771.08588-.0625.09375-.0048.0079-.02632.02306-.03125.03125-.0099.01638-.01962.04304-.03125.0625-.02325.03892-.03006.02937-.03125.03125-.0024.0038-.122972.24604-.125.25-.002.004-.141224.290654-.125.25-.0016.0041-.09249.308232-.09375.3125-.0047.01158-.02697.02055-.03125.03125-.0036.0089.0042.02046 0 .03125-.0022.006-.02587.01551-.03125.03125-.0054.01574-.03122.156114-.03125.15625-.000027.000136.000782.140057 0 .15625-.000782.01619.000148.02514 0 .03125-.000295.01223.000051.02545 0 .03125-.000103.0116.000003.02089 0 .03125-.000007.02071-.000082.03919 0 .0625-.0039.0233-.02791.04238-.03125.0625-.0017.01006.0017.02083 0 .03125-.000828.0052.0015.02101 0 .03125-.0017.01333.000001.156111 0 .15625v4c0 4.477461 3.735878 8.0625 8.21875 8.0625h35.1875c4.482872 0 8.21875-3.585039 8.21875-8.0625v-4c-.000001-.000139.0017-.142918 0-.15625-.0015-.01024.000828-.02604 0-.03125-.0017-.01042.0017-.02119 0-.03125-.0033-.02012-.0273-.0392-.03125-.0625.000082-.02331.000007-.04179 0-.0625-.000003-.01036.000103-.01965 0-.03125-.000051-.0058.000295-.01902 0-.03125-.000148-.0061.000782-.01506 0-.03125-.000782-.01619.000027-.156114 0-.15625-.000027-.000136-.02587-.140506-.03125-.15625-.0054-.01574-.02904-.02528-.03125-.03125-.0042-.01079.0036-.02233 0-.03125-.0043-.0107-.02658-.01967-.03125-.03125-.0013-.0043-.0921-.308368-.09375-.3125.01622.04065-.122972-.24604-.125-.25-.002-.004-.122611-.246247-.125-.25-.0012-.0019-.008.0077-.03125-.03125-.01163-.01946-.0214-.04612-.03125-.0625-.0049-.0082-.02646-.02338-.03125-.03125-.0048-.0079-.06216-.09331-.0625-.09375-.000341-.000439-.08719-.118354-.09375-.125-.0066-.0066-.02463.0066-.03125 0-.01325-.01327-.01566-.04698-.03125-.0625-.03118-.03105-.02973-.02963-.03125-.03125-.003-.0032-.215414-.184556-.21875-.1875-.0033-.0029-.246403-.184881-.25-.1875-.0018-.0013-.117352-.101717-.15625-.125-.0389-.02328-.0277-.0106-.0625-.03125.184036.109238-.245979-.154346-.25-.15625-.004-.0019-.277068-.09223-.28125-.09375-.0042-.0015-.276945-.09263-.28125-.09375-.0043-.0011-.245609-.06179-.25-.0625.192374.03128-.308061-.03095-.3125-.03125 0 0-2.152958-.320607-4.34375-.875h17.40625c5.540578 0 10.0625-4.521922 10.0625-10.0625v-55c0-5.5405789-4.521922-10.0625-10.0625-10.0625z" fill="url(#a)" opacity=".1"/><path d="m12 5.0625c-4.9200475 0-8.9375 4.0174525-8.9375 8.9375v55c0 4.920047 4.0174524 8.9375 8.9375 8.9375h22.65625c-1.231537.856906-2.645657 1.600627-4.125 2.0625-2.875161.897669-5.40625 1.0625-5.40625 1.0625-.0044.000301-.183109.03054-.1875.03125-.0044.000714-.151945.03013-.15625.03125-.0043.0011-.183318.06098-.1875.0625-.0042.0015-.152229.0606-.15625.0625-.004.0019-.152424.09148-.15625.09375-.0038.0023-.152653.09113-.15625.09375-.0036.0026-.152914.122056-.15625.125-.0033.0029-.121954.121757-.125.125-.003.0032-.12227.121487-.125.125-.0027.0035-.09136.152497-.09375.15625-.0024.0038-.09172.15229-.09375.15625-.002.004-.06085.152118-.0625.15625-.0016.0041-.06124.183232-.0625.1875-.0013.0043-.06165.151883-.0625.15625-.000851.0044.000439.183073 0 .1875-.000439.0044-.03123.183051-.03125.1875v4c0 3.840708 3.218104 6.9375 7.09375 6.9375h35.1875c3.875646 0 7.09375-3.096792 7.09375-6.9375v-4c-.000023-.0044-.03081-.183073-.03125-.1875-.000439-.0044.000851-.183133 0-.1875-.000851-.0044-.06124-.151982-.0625-.15625-.0013-.0043-.06085-.183368-.0625-.1875-.0016-.0041-.06047-.15229-.0625-.15625-.002-.004-.09136-.152497-.09375-.15625-.0024-.0038-.09102-.152737-.09375-.15625-.0027-.0035-.121954-.121757-.125-.125-.003-.0032-.121664-.122056-.125-.125-.0033-.0029-.152653-.122381-.15625-.125-.0036-.0026-.152424-.09148-.15625-.09375-.0038-.0023-.152229-.09185-.15625-.09375-.004-.0019-.152068-.06098-.15625-.0625-.0042-.0015-.183195-.06138-.1875-.0625-.0043-.0011-.151859-.03054-.15625-.03125-.0044-.000714-.183061-.03095-.1875-.03125 0 0-2.531089-.164831-5.40625-1.0625-1.479343-.461873-2.893463-1.205594-4.125-2.0625h22.65625c4.920047 0 8.9375-4.017453 8.9375-8.9375v-55c0-4.9200476-4.017453-8.9375-8.9375-8.9375z" fill="url(#a)" opacity=".1"/><path d="m12 5.96875c-4.4355833 0-8.03125 3.5956667-8.03125 8.03125v55c0 4.435583 3.5956667 8.03125 8.03125 8.03125h25.15625c-1.509482 1.811921-3.960921 3.068545-6.34375 3.8125-2.985076.931986-5.625 1.125-5.625 1.125a1.039009 1.039009 0 0 0 -.96875 1.03125v4c0 3.34304 2.783867 6.03125 6.1875 6.03125h35.1875c3.403633 0 6.1875-2.68821 6.1875-6.03125v-4a1.039009 1.039009 0 0 0 -.96875-1.03125c0 0-2.639924-.193014-5.625-1.125-2.382829-.743955-4.834268-2.000579-6.34375-3.8125h25.15625c4.435583 0 8.03125-3.595667 8.03125-8.03125v-55c0-4.4355833-3.595667-8.03125-8.03125-8.03125z" fill="url(#a)" opacity=".2"/><path d="m12 7c-3.878 0-7 3.122-7 7v55c0 3.878 3.122 7 7 7h27.09375c-2.771041 6.220703-13.84375 7-13.84375 7v4c0 2.77 2.291818 5 5.15625 5h35.1875c2.864432 0 5.15625-2.23 5.15625-5v-4c0 0-11.072709-.779297-13.84375-7h27.09375c3.878 0 7-3.122 7-7v-55c0-3.878-3.122-7-7-7z" fill="url(#a)" opacity=".3"/><path d="m12 7c-3.324 0-6 2.676-6 6v56c0 3.324 2.676 6 6 6h27.40625c-2.679688 6.2207-13.40625 7-13.40625 7v5c0 2.216 1.784 4 4 4h36c2.216 0 4-1.784 4-4v-5c0 0-10.726562-.7793-13.40625-7h27.40625c3.324 0 6-2.676 6-6v-56c0-3.324-2.676-6-6-6z" fill="url(#o)" opacity=".45"/><rect fill="url(#d)" height="62" rx="6" width="84" x="6" y="6"/><path d="m6 62v2 4c0 3.324 2.676 6 6 6h72c3.324 0 6-2.676 6-6v-4-2c0 3.324-2.676 6-6 6h-72c-3.324 0-6-2.676-6-6z" fill="#b3b3b3"/><path d="m84 62v-50.000001h-71.999998v50.000001z" fill="url(#c)" stroke-width=".96420342"/><path d="m6 63v1c0 3.324 2.676 6 6 6h72c3.324 0 6-2.676 6-6v-1c0 3.324-2.676 6-6 6h-72c-3.324 0-6-2.676-6-6z" fill="#b3b3b3"/><path d="m12 12v50h72v-50zm2 2h68v46h-68z" opacity=".07999998"/><path d="m12.500507 12.500506v48.998987h70.998988v-48.998987z" fill="none" opacity=".15" stroke="#000" stroke-linecap="square" stroke-width="1.00100005"/><path d="m12 62.064079h72v1h-72z" fill="#fff" opacity=".4"/><path d="m12 12v1h72v-1z" opacity=".3"/><path d="m49.65625 14.125l17.03125 46.75h1l-17.03125-46.75z" fill="url(#g)" fill-rule="evenodd" opacity=".5"/><path d="m49.65625 14.125l17.03125 46.75h14.3125c.538805 0 .875-.336196.875-.875v-45c0-.538805-.336194-.875-.875-.875z" fill="url(#f)" fill-rule="evenodd" opacity=".7"/><path d="m47 7l1.40625 3.9375h35.59375c.58434.0059 1.0566.478159 1.0625 1.0625v50c-.0059.584341-.47816 1.056599-1.0625 1.0625h-14.25l1.375 3.875h14.40625c1.279113-.163533 2.314719-.91678 2.90625-1.96875-.07832.08832-.132583.197412-.21875.28125-.439947.428056-.94291.814526-1.5 1.09375-.278545.139612-.573473.24695-.875.34375.256202-.100222.486711-.236272.71875-.375.0074-.0044.02385.0045.03125 0 .108182-.06539.209929-.1456.3125-.21875.152409-.109314.299114-.218194.4375-.34375.01127-.01009.02008-.02105.03125-.03125.165609-.153002.325576-.32555.46875-.5.107579-.130255.21839-.265285.3125-.40625.06073-.0929.1329-.18404.1875-.28125.04596-.08005.08342-.1672.125-.25.08037-.163801.15601-.357511.21875-.53125.0079-.02181.02355-.04055.03125-.0625.06787-.196092.1121-.386857.15625-.59375.0236-.11059.04432-.230233.0625-.34375v-51.5c-.363735-2.4120876-2.41645-4.25-4.9375-4.25h-2z" fill="url(#h)" fill-rule="evenodd" opacity=".25"/><path d="m12 70c-3.324 0-6-2.676-6-6v-52c0-3.324 2.676-6 6-6h72c3.324 0 6 2.676 6 6v52c0 3.324-2.676 6-6 6zm0-.96875h72c2.80489 0 5.03125-2.22636 5.03125-5.03125v-52c0-2.80489-2.22636-5.03125-5.03125-5.03125h-72c-2.80489 0-5.03125 2.22636-5.03125 5.03125v52c0 2.80489 2.22636 5.03125 5.03125 5.03125z" fill="url(#i)" opacity=".35"/><path d="m6 64v4c0 3.324 2.676 6 6 6h72c3.324 0 6-2.676 6-6v-4c0 3.324-2.676 6-6 6h-72c-3.324 0-6-2.676-6-6z" fill="url(#k)"/><path d="m6 66v2c0 3.324 2.676 6 6 6h72c3.324 0 6-2.676 6-6v-2c0 3.324-2.676 6-6 6h-72c-3.324 0-6-2.676-6-6z" opacity=".1" overflow="visible"/><path d="m6 67v1c0 3.324 2.676 6 6 6h72c3.324 0 6-2.676 6-6v-1c0 3.324-2.676 6-6 6h-72c-3.324 0-6-2.676-6-6z" opacity=".15" overflow="visible"/><g transform="matrix(1 0 0 1.5 4 -41)"><g transform="translate(0 2)"><path d="m56 70h6v2h-6z" fill="#b3b3b3"/><path d="m56 70h1v2h-1z" fill="#fff" opacity=".4"/><path d="m61 70h1v2h-1z" opacity=".4"/></g><g transform="translate(6 2)"><path d="m56 70h6v2h-6z" fill="#b3b3b3"/><path d="m56 70h1v2h-1z" fill="#fff" opacity=".4"/><path d="m61 70h1v2h-1z" opacity=".4"/></g><g transform="translate(12 2)"><path d="m56 70h6v2h-6z" fill="#b3b3b3"/><path d="m56 70h1v2h-1z" fill="#fff" opacity=".4"/><path d="m61 70h1v2h-1z" opacity=".4"/></g><g transform="translate(18 2)"><path d="m56 70h6v2h-6z" fill="#b3b3b3"/><path d="m56 70h1v2h-1z" fill="#fff" opacity=".4"/><path d="m61 70h1v2h-1z" opacity=".4"/></g></g><path d="m40 71c0 9-14 10-14 10v5c0 2.216 1.784 4 4 4h36c2.216 0 4-1.784 4-4v-5c0 0-14-1-14-10z" fill="url(#m)" overflow="visible"/><path d="m26 82v4c0 2.216 1.784 4 4 4h36c2.216 0 4-1.784 4-4v-4c0 2.216-1.784 4-4 4h-36c-2.216 0-4-1.784-4-4z" fill="url(#l)" overflow="visible"/><path d="m26 84v2c0 2.216 1.784 4 4 4h36c2.216 0 4-1.784 4-4v-2c0 2.216-1.784 4-4 4h-36c-2.216 0-4-1.784-4-4z" opacity=".1" overflow="visible"/><path d="m26 85v1c0 2.216 1.784 4 4 4h36c2.216 0 4-1.784 4-4v-1c0 2.216-1.784 4-4 4h-36c-2.216 0-4-1.784-4-4z" opacity=".15" overflow="visible"/><path d="m40 71c0 9-14 10-14 10v1c0 2.216 1.784 4 4 4h36c2.216 0 4-1.784 4-4v-1c0 0-14-1-14-10zm .78125.96875h14.4375c.237358 2.025389 1.037762 3.774602 2.28125 5.0625 1.451373 1.503208 3.322716 2.529683 5.15625 3.25 2.938586 1.154444 5.336057 1.453446 6.375 1.5625v.15625c0 1.69704-1.33421 3.03125-3.03125 3.03125h-36c-1.69704 0-3.03125-1.33421-3.03125-3.03125v-.15625c1.038943-.109054 3.436414-.408056 6.375-1.5625 1.833534-.720317 3.704877-1.746792 5.15625-3.25 1.243488-1.287898 2.043892-3.037111 2.28125-5.0625z" fill="url(#n)" opacity=".4" overflow="visible"/><path d="m48 21.03125c-6.579909 0-11.96875 5.388841-11.96875 11.96875v3.1875c-1.724804.444243-3.03125 1.957649-3.03125 3.8125v4c0 .536999.181979.734018.34375 1-.161771.265982-.34375.463001-.34375 1v4c0 .536999.181979.734018.34375 1-.161771.265982-.34375.463001-.34375 1v4c0 2.194591 1.805409 4 4 4h22c2.194591 0 4-1.805409 4-4v-4c0-.536999-.181979-.734018-.34375-1 .161771-.265982.34375-.463001.34375-1v-4c0-.536999-.181979-.734018-.34375-1 .161771-.265982.34375-.463001.34375-1v-4c0-1.854851-1.306446-3.368257-3.03125-3.8125v-3.1875c0-6.579909-5.388841-11.96875-11.96875-11.96875zm0 9c1.85377 0 2.96875 1.11498 2.96875 2.96875v3h-5.9375v-3c0-1.85377 1.11498-2.96875 2.96875-2.96875z" opacity=".05" overflow="visible" transform="translate(0 -2)"/><path d="m48 20c-6.050387 0-11 4.949613-11 11v3.96875c-1.659643 0-3.03125 1.371607-3.03125 3.03125v4c0 .512118.234212.716009.40625 1-.172038.283991-.40625.487882-.40625 1v4c0 .512118.234212.716009.40625 1-.172038.283991-.40625.487882-.40625 1v4c0 1.659643 1.371607 3.03125 3.03125 3.03125h22c1.659643 0 3.03125-1.371607 3.03125-3.03125v-4c0-.512118-.234212-.716009-.40625-1 .172038-.283991.40625-.487882.40625-1v-4c0-.512118-.234212-.716009-.40625-1 .172038-.283991.40625-.487882.40625-1v-4c0-1.659643-1.371607-3.03125-3.03125-3.03125v-3.96875c0-6.050387-4.949613-11-11-11zm0 7.0625c2.309873 0 3.9375 1.627627 3.9375 3.9375v3.96875h-7.875v-3.96875c0-2.309873 1.627627-3.9375 3.9375-3.9375z" opacity=".07999998" overflow="visible"/><path d="m48 23.0625c-5.477877 0-9.9375 4.459623-9.9375 9.9375v5.03125h-1.0625c-1.0751 0-1.96875.89365-1.96875 1.96875v4c0 .391754.234275.690522.4375 1-.203225.309478-.4375.608246-.4375 1v4c0 .391754.234275.690522.4375 1-.203225.309478-.4375.608246-.4375 1v4c0 1.0751.89365 1.96875 1.96875 1.96875h22c1.0751 0 1.96875-.89365 1.96875-1.96875v-4c0-.391754-.234275-.690522-.4375-1 .203225-.309478.4375-.608246.4375-1v-4c0-.391754-.234275-.690522-.4375-1 .203225-.309478.4375-.608246.4375-1v-4c0-1.0751-.89365-1.96875-1.96875-1.96875h-1.0625v-5.03125c0-5.477877-4.459623-9.9375-9.9375-9.9375zm0 4.9375c2.843291 0 5 2.156709 5 5v5.03125h-10v-5.03125c0-2.843291 2.156709-5 5-5z" opacity=".12000002" overflow="visible" transform="translate(0 -2)"/><path d="m48 22.03125c-4.9531 0-8.96875 4.01565-8.96875 8.96875v6h-2.03125c-.554 0-1 .446-1 1v4c0 .554.446 1 1 1-.554 0-1 .446-1 1v4c0 .554.446 1 1 1-.554 0-1 .446-1 1v4c0 .554.446 1 1 1h22c .554 0 1-.446 1-1v-4c0-.554-.446-1-1-1 .554 0 1-.446 1-1v-4c0-.554-.446-1-1-1 .554 0 1-.446 1-1v-4c0-.554-.446-1-1-1h-2.03125v-6c0-4.9531-4.01565-8.96875-8.96875-8.96875zm0 3c3.349468 0 5.96875 2.619282 5.96875 5.96875v6h-11.9375v-6c0-3.349468 2.619282-5.96875 5.96875-5.96875z" opacity=".3" overflow="visible"/><path d="m48 21.03125c-4.9531 0-8.96875 4.01565-8.96875 8.96875v8c0 4.9531 4.01565 8.96875 8.96875 8.96875 4.9531 0 8.96875-4.01565 8.96875-8.96875v-8c0-4.9531-4.01565-8.96875-8.96875-8.96875zm0 3c3.349468 0 5.96875 2.619282 5.96875 5.96875v8c0 3.349468-2.619282 5.96875-5.96875 5.96875-3.349468 0-5.96875-2.619282-5.96875-5.96875v-8c0-3.349468 2.619282-5.96875 5.96875-5.96875z" fill="url(#w)" overflow="visible"/><path d="m48 23c-3.878 0-7 3.122-7 7v12c0 .661889.11112 1.300171.28125 1.90625 1.643856 1.874098 4.03012 3.0625 6.71875 3.0625 2.68863 0 5.074894-1.188402 6.71875-3.0625.17013-.606079.28125-1.244361.28125-1.90625v-12c0-3.878-3.122-7-7-7zm0 1.03125c3.349468 0 5.96875 2.619282 5.96875 5.96875v8c0 3.349468-2.619282 5.96875-5.96875 5.96875-3.349468 0-5.96875-2.619282-5.96875-5.96875v-8c0-3.349468 2.619282-5.96875 5.96875-5.96875z" opacity=".1" overflow="visible"/><path d="m48 25.3125c-3.70276 0-6.6875 2.98474-6.6875 6.6875v12c0 .59376.131289 1.161696.28125 1.71875 1.583964 1.778496 3.838102 2.9375 6.40625 2.9375 2.568148 0 4.822286-1.159004 6.40625-2.9375.149961-.557054.28125-1.12499.28125-1.71875v-12c0-3.70276-2.98474-6.6875-6.6875-6.6875zm0 .40625c3.51969 0 6.28125 2.76156 6.28125 6.28125v8c0 3.51969-2.76156 6.28125-6.28125 6.28125-3.51969 0-6.28125-2.76156-6.28125-6.28125v-8c0-3.51969 2.76156-6.28125 6.28125-6.28125z" opacity=".2" overflow="visible" transform="matrix(.95522388 0 0 .9875956 2.149254 -1.396448)"/><path d="m48 21.03125c-4.9531 0-8.96875 4.01565-8.96875 8.96875v8c0 4.803463 3.785443 8.704923 8.53125 8.9375-4.522401-.452265-8.0625-4.24021-8.0625-8.8125v-7.875c0-4.87711 4.01565-8.8125 8.96875-8.8125 1.961522 0 3.773702.604265 5.25 1.65625-1.550344-1.279472-3.551769-2.0625-5.71875-2.0625zm3.84375 4.34375c1.310757 1.085979 2.125 2.749544 2.125 4.625v8c0 3.349468-2.619282 5.96875-5.96875 5.96875-.178019 0-.35764-.01674-.53125-.03125.324528.05172.658264.0625 1 .0625 3.349468 0 5.96875-2.57692 5.96875-5.875v-7.875c0-2.061301-1.008641-3.829535-2.59375-4.875z" fill="url(#v)" opacity=".2" overflow="visible"/><path d="m48 21.03125c-4.9531 0-8.96875 4.01565-8.96875 8.96875v8h .78125v-8c0-4.814493 3.801349-8.752635 8.5625-8.96875-.126641-.0053-.247055 0-.375 0z" opacity=".1" overflow="visible"/><path d="m48 21.03125c-.170961 0-.331399.02181-.5.03125 4.716118.2641 8.46875 4.155361 8.46875 8.9375v8c0 4.782139-3.752632 8.6734-8.46875 8.9375.168601.0094.329039.03125.5.03125 4.9531 0 8.96875-4.01565 8.96875-8.96875v-8c0-4.9531-4.01565-8.96875-8.96875-8.96875zm-1 3c-3.349468 0-5.96875 2.619282-5.96875 5.96875v8c0 3.349468 2.619282 5.96875 5.96875 5.96875.125814 0 .251347-.02396.375-.03125-3.04764-.300029-5.34375-2.797374-5.34375-5.9375v-8c0-3.140126 2.29611-5.637471 5.34375-5.9375-.123653-.0073-.249186-.03125-.375-.03125z" fill="url(#t)" opacity=".15" overflow="visible"/><path d="m47.75 21.03125c4.820388.151447 8.6875 4.111609 8.6875 8.96875v8c0 4.857141-3.867112 8.817303-8.6875 8.96875.08472.0024.164703 0 .25 0 4.9531 0 8.96875-4.01565 8.96875-8.96875v-8c0-4.9531-4.01565-8.96875-8.96875-8.96875-.0853 0-.165275-.0024-.25 0zm-.28125 3c-3.349468 0-5.96875 2.619282-5.96875 5.96875v8c0 3.349468 2.619282 5.96875 5.96875 5.96875.09397 0 .188472.0041.28125 0-3.229285-.126234-5.71875-2.70281-5.71875-5.96875v-8c0-3.26594 2.489465-5.842516 5.71875-5.96875-.09278-.0041-.187281 0-.28125 0z" opacity=".2" overflow="visible"/><path d="m47.96875 22.5l.78125.03125h.03125l.71875.125h.03125l.6875.1875h.03125l.65625.21875.03125.03125.625.28125.03125.03125.59375.34375.03125.03125.15625.125.46875.09375.3125-.34375-.09375-.46875-.09375-.0625-.1875-.15625-.03125-.03125-.65625-.40625-.0625-.03125-.6875-.3125-.0625-.03125-.71875-.28125h-.0625l-.75-.1875-.0625-.03125-.78125-.125h-.0625l-.8125-.03125c-.956312-.06672-1.152251 1.088959-.0625 1zm-4 0l-.0625.03125-.65625.40625-.03125.03125-.625.4375-.03125.03125-.5625.53125-.03125.03125-.53125.5625-.03125.03125-.4375.625-.03125.03125-.40625.65625-.03125.0625-.28125.625v.46875l.40625.25.4375-.1875.0625-.125.25-.5625.03125-.03125.34375-.59375.03125-.03125.40625-.53125.03125-.03125.46875-.5h.03125v-.03125l.5-.46875.03125-.03125.53125-.40625.03125-.03125.59375-.34375.03125-.03125.59375-.25c.711674-.467036-.03125-1.125-.4375-.90625z" fill="#fff" opacity=".3" overflow="visible"/><path d="m48.03125 23.6875c-.399301-.02786-.575897.194836-.59375.34375-.0089.07446-.0071.132508.0625.1875.06958.05499.198694.113244.4375.09375a.19490146.19490146 0 0 1  .03125 0l .78125.03125h.03125a.19490146.19490146 0 0 1  .03125 0l .6875.125h.03125a.19490146.19490146 0 0 1  .03125 0 .19490146.19490146 0 0 1  .03125 0l .625.1875h.0625a.19490146.19490146 0 0 1  .03125 0l .65625.21875a.19490146.19490146 0 0 1  .0625.03125l.625.28125a.19490146.19490146 0 0 1  .03125.03125.19490146.19490146 0 0 1  0 .03125l.03125.03125.5625.3125a.19490146.19490146 0 0 1  .03125 0 .19490146.19490146 0 0 1  0 .03125h.03125l.125.09375.03125.03125.25.03125.1875-.1875-.0625-.3125a.19490146.19490146 0 0 1 -.03125 0l-.1875-.15625a.19490146.19490146 0 0 1 0-.03125l-.03125-.03125-.625-.375v.03125l-.0625-.03125-.6875-.3125-.03125-.03125h-.03125l-.6875-.28125a.19490146.19490146 0 0 1 -.03125 0 .19490146.19490146 0 0 1 -.03125 0l-.75-.1875a.19490146.19490146 0 0 1 -.03125 0l-.0625-.03125-.6875-.125h-.03125-.03125zm-3.34375.6875a.19490146.19490146 0 0 1 0 .03125l-.625.28125-.0625.03125v-.03125l-.625.375-.03125.03125a.19490146.19490146 0 0 1 0 .03125l-.625.4375h-.03125a.19490146.19490146 0 0 1 0 .03125l-.5625.53125-.53125.5625a.19490146.19490146 0 0 1 -.03125 0v .03125l-.4375.625a.19490146.19490146 0 0 1 -.03125 0l-.03125.03125-.375.625h.03125l-.03125.0625-.28125.625v.28125l.21875.125.28125-.125.03125-.0625.25-.5625a.19490146.19490146 0 0 1  .03125-.03125.19490146.19490146 0 0 1  .03125 0l .03125-.03125.3125-.5625a.19490146.19490146 0 0 1 0-.03125.19490146.19490146 0 0 1  .03125 0v-.03125l.40625-.53125a.19490146.19490146 0 0 1  .03125 0v-.03125l.46875-.46875a.19490146.19490146 0 0 1 0-.03125.19490146.19490146 0 0 1  .03125-.03125.19490146.19490146 0 0 1  .03125 0 .19490146.19490146 0 0 1  0-.03125h.03125l.46875-.46875h.03125a.19490146.19490146 0 0 1 0-.03125l.53125-.40625h.03125a.19490146.19490146 0 0 1  .03125-.03125l.5625-.3125.03125-.03125a.19490146.19490146 0 0 1  .0625-.0625l.5625-.21875c.02063-.01354.01444-.01822.03125-.03125.103282-.08006.145812-.16503.15625-.21875.01214-.06247-.01479-.124279-.0625-.1875-.04771-.06322-.110698-.13087-.1875-.15625-.0768-.02538-.143675-.0236-.1875 0z" fill="#fff" opacity=".6" overflow="visible" transform="translate(0 -2)"/><rect fill="url(#s)" height="6" overflow="visible" rx="1" width="24" x="36" y="36"/><path d="m37 36c-.554 0-1 .446-1 1v1c0-.554.446-1 1-1h22c .554 0 1 .446 1 1v-1c0-.554-.446-1-1-1z" fill="#fff" opacity=".3" overflow="visible"/><path d="m36 40v1c0 .554.446 1 1 1h22c .554 0 1-.446 1-1v-1c0 .554-.446 1-1 1h-22c-.554 0-1-.446-1-1z" fill="#a05a2c" opacity=".15" overflow="visible"/><rect fill="url(#r)" height="6" overflow="visible" rx="1" width="24" x="36" y="42"/><path d="m37 42c-.554 0-1 .446-1 1v1c0-.554.446-1 1-1h22c .554 0 1 .446 1 1v-1c0-.554-.446-1-1-1z" fill="#fff" opacity=".3" overflow="visible"/><path d="m36 46v1c0 .554.446 1 1 1h22c .554 0 1-.446 1-1v-1c0 .554-.446 1-1 1h-22c-.554 0-1-.446-1-1z" fill="#a05a2c" opacity=".15" overflow="visible"/><rect fill="url(#p)" height="6" overflow="visible" rx="1" width="24" x="36" y="48"/><path d="m37 48c-.554 0-1 .446-1 1v1c0-.554.446-1 1-1h22c .554 0 1 .446 1 1v-1c0-.554-.446-1-1-1z" fill="#fff" opacity=".3" overflow="visible"/><path d="m36 52v1c0 .554.446 1 1 1h22c .554 0 1-.446 1-1v-1c0 .554-.446 1-1 1h-22c-.554 0-1-.446-1-1z" fill="#a05a2c" opacity=".15" overflow="visible"/></svg>