<?xml version="1.0" encoding="UTF-8" standalone="no"?>
<!-- Created with Inkscape (http://www.inkscape.org/) -->

<svg
   xmlns:dc="http://purl.org/dc/elements/1.1/"
   xmlns:cc="http://creativecommons.org/ns#"
   xmlns:rdf="http://www.w3.org/1999/02/22-rdf-syntax-ns#"
   xmlns:svg="http://www.w3.org/2000/svg"
   xmlns="http://www.w3.org/2000/svg"
   xmlns:xlink="http://www.w3.org/1999/xlink"
   xmlns:inkscape="http://www.inkscape.org/namespaces/inkscape"
   version="1.0"
   width="96"
   height="96"
   id="svg2408">
  <defs
     id="defs2410">
    <linearGradient
       x1="45.447727"
       y1="92.539597"
       x2="45.447727"
       y2="7.0165396"
       id="ButtonShadow"
       gradientUnits="userSpaceOnUse"
       gradientTransform="scale(1.0058652,0.994169)">
      <stop
         id="stop3750"
         style="stop-color:#000000;stop-opacity:1"
         offset="0" />
      <stop
         id="stop3752"
         style="stop-color:#000000;stop-opacity:0.58823532"
         offset="1" />
    </linearGradient>
    <linearGradient
       id="linearGradient3737">
      <stop
         id="stop3739"
         style="stop-color:#ffffff;stop-opacity:1"
         offset="0" />
      <stop
         id="stop3741"
         style="stop-color:#ffffff;stop-opacity:0"
         offset="1" />
    </linearGradient>
    <filter
       color-interpolation-filters="sRGB"
       id="filter3174">
      <feGaussianBlur
         id="feGaussianBlur3176"
         stdDeviation="1.71" />
    </filter>
    <linearGradient
       x1="36.357143"
       y1="6"
       x2="36.357143"
       y2="63.893143"
       id="linearGradient3188"
       xlink:href="#linearGradient3737"
       gradientUnits="userSpaceOnUse" />
    <filter
       x="-0.192"
       y="-0.192"
       width="1.3839999"
       height="1.3839999"
       color-interpolation-filters="sRGB"
       id="filter3794">
      <feGaussianBlur
         id="feGaussianBlur3796"
         stdDeviation="5.28" />
    </filter>
    <linearGradient
       x1="48"
       y1="20.220806"
       x2="48"
       y2="138.66119"
       id="linearGradient3613"
       xlink:href="#linearGradient3737"
       gradientUnits="userSpaceOnUse" />
    <radialGradient
       cx="48"
       cy="90.171875"
       r="42"
       fx="48"
       fy="90.171875"
       id="radialGradient3619"
       xlink:href="#linearGradient3737"
       gradientUnits="userSpaceOnUse"
       gradientTransform="matrix(1.1573129,0,0,0.99590774,-7.5510206,0.19713193)" />
    <clipPath
       id="clipPath3613">
      <rect
         width="84"
         height="84"
         rx="6"
         ry="6"
         x="6"
         y="6"
         id="rect3615"
         style="fill:#ffffff;fill-opacity:1;fill-rule:nonzero;stroke:none" />
    </clipPath>
    <linearGradient
       x1="48"
       y1="90"
       x2="48"
       y2="5.9877172"
       id="linearGradient3617"
       xlink:href="#linearGradient3640"
       gradientUnits="userSpaceOnUse" />
    <linearGradient
       x1="45.447727"
       y1="92.539597"
       x2="45.447727"
       y2="7.0165396"
       id="ButtonShadow-0"
       gradientUnits="userSpaceOnUse"
       gradientTransform="matrix(1.0058652,0,0,0.994169,100,0)">
      <stop
         id="stop3750-8"
         style="stop-color:#000000;stop-opacity:1"
         offset="0" />
      <stop
         id="stop3752-5"
         style="stop-color:#000000;stop-opacity:0.58823532"
         offset="1" />
    </linearGradient>
    <linearGradient
       x1="32.251034"
       y1="6.1317081"
       x2="32.251034"
       y2="90.238609"
       id="linearGradient3780"
       xlink:href="#ButtonShadow-0"
       gradientUnits="userSpaceOnUse"
       gradientTransform="matrix(1.0238095,0,0,1.0119048,-1.1428571,-98.071429)" />
    <linearGradient
       x1="32.251034"
       y1="6.1317081"
       x2="32.251034"
       y2="90.238609"
       id="linearGradient3772"
       xlink:href="#ButtonShadow-0"
       gradientUnits="userSpaceOnUse"
       gradientTransform="matrix(1.0238095,0,0,1.0119048,-1.1428571,-98.071429)" />
    <linearGradient
       x1="32.251034"
       y1="6.1317081"
       x2="32.251034"
       y2="90.238609"
       id="linearGradient3725"
       xlink:href="#ButtonShadow-0"
       gradientUnits="userSpaceOnUse"
       gradientTransform="matrix(1.0238095,0,0,1.0119048,-1.1428571,-98.071429)" />
    <linearGradient
       x1="32.251034"
       y1="6.1317081"
       x2="32.251034"
       y2="90.238609"
       id="linearGradient3721"
       xlink:href="#ButtonShadow-0"
       gradientUnits="userSpaceOnUse"
       gradientTransform="translate(0,-97)" />
    <linearGradient
       x1="32.251034"
       y1="6.1317081"
       x2="32.251034"
       y2="90.238609"
       id="linearGradient3026"
       xlink:href="#ButtonShadow-0"
       gradientUnits="userSpaceOnUse"
       gradientTransform="matrix(1.0238095,0,0,1.0119048,-1.1428571,-98.071429)" />
    <linearGradient
       id="linearGradient3640">
      <stop
         id="stop3642"
         style="stop-color:#2a782a;stop-opacity:1"
         offset="0" />
      <stop
         id="stop3644"
         style="stop-color:#278f27;stop-opacity:1"
         offset="1" />
    </linearGradient>
  </defs>
  <metadata
     id="metadata2413">
    <rdf:RDF>
      <cc:Work
         rdf:about="">
        <dc:format>image/svg+xml</dc:format>
        <dc:type
           rdf:resource="http://purl.org/dc/dcmitype/StillImage" />
        <dc:title />
      </cc:Work>
    </rdf:RDF>
  </metadata>
  <g
     id="layer2"
     style="display:none">
    <rect
       width="86"
       height="85"
       rx="6"
       ry="6"
       x="5"
       y="7"
       id="rect3745"
       style="opacity:0.9;fill:url(#ButtonShadow);fill-opacity:1;fill-rule:nonzero;stroke:none;filter:url(#filter3174)" />
  </g>
  <g
     id="layer3">
    <path
       d="m 12,-95.03125 c -5.5110903,0 -10.03125,4.52016 -10.03125,10.03125 l 0,71 c 0,5.5110902 4.5201598,10.03125 10.03125,10.03125 l 72,0 c 5.51109,0 10.03125,-4.5201597 10.03125,-10.03125 l 0,-71 c 0,-5.51109 -4.52016,-10.03125 -10.03125,-10.03125 l -72,0 z"
       transform="scale(1,-1)"
       id="path3786"
       style="opacity:0.07999998;fill:url(#linearGradient3026);fill-opacity:1;fill-rule:nonzero;stroke:none;display:inline" />
    <path
       d="m 12,-94.03125 c -4.971633,0 -9.03125,4.059617 -9.03125,9.03125 l 0,71 c 0,4.9716329 4.0596171,9.03125 9.03125,9.03125 l 72,0 c 4.971633,0 9.03125,-4.059617 9.03125,-9.03125 l 0,-71 c 0,-4.971633 -4.059617,-9.03125 -9.03125,-9.03125 l -72,0 z"
       transform="scale(1,-1)"
       id="path3778"
       style="opacity:0.1;fill:url(#linearGradient3780);fill-opacity:1;fill-rule:nonzero;stroke:none;display:inline" />
    <path
       d="m 12,-93 c -4.4091333,0 -8,3.590867 -8,8 l 0,71 c 0,4.4091333 3.5908667,8 8,8 l 72,0 c 4.409133,0 8,-3.5908667 8,-8 l 0,-71 c 0,-4.409133 -3.590867,-8 -8,-8 l -72,0 z"
       transform="scale(1,-1)"
       id="path3770"
       style="opacity:0.2;fill:url(#linearGradient3772);fill-opacity:1;fill-rule:nonzero;stroke:none;display:inline" />
    <rect
       width="86"
       height="85"
       rx="7"
       ry="7"
       x="5"
       y="-92"
       transform="scale(1,-1)"
       id="rect3723"
       style="opacity:0.3;fill:url(#linearGradient3725);fill-opacity:1;fill-rule:nonzero;stroke:none;display:inline" />
    <rect
       width="84"
       height="84"
       rx="6"
       ry="6"
       x="6"
       y="-91"
       transform="scale(1,-1)"
       id="rect3716"
       style="opacity:0.45;fill:url(#linearGradient3721);fill-opacity:1;fill-rule:nonzero;stroke:none;display:inline" />
  </g>
  <g
     id="layer1">
    <rect
       width="84"
       height="84"
       rx="6"
       ry="6"
       x="6"
       y="6"
       id="rect2419"
       style="fill:url(#linearGradient3617);fill-opacity:1;fill-rule:nonzero;stroke:none" />
    <path
       d="M 12,6 C 8.676,6 6,8.676 6,12 l 0,2 0,68 0,2 c 0,0.334721 0.04135,0.6507 0.09375,0.96875 0.0487,0.295596 0.09704,0.596915 0.1875,0.875 0.00988,0.03038 0.020892,0.0636 0.03125,0.09375 0.098865,0.287771 0.2348802,0.547452 0.375,0.8125 0.1445918,0.273507 0.3156161,0.535615 0.5,0.78125 0.1843839,0.245635 0.3737765,0.473472 0.59375,0.6875 0.439947,0.428056 0.94291,0.814526 1.5,1.09375 0.278545,0.139612 0.5734731,0.246947 0.875,0.34375 -0.2562018,-0.100222 -0.4867109,-0.236272 -0.71875,-0.375 -0.00741,-0.0044 -0.023866,0.0045 -0.03125,0 -0.031933,-0.0193 -0.062293,-0.04251 -0.09375,-0.0625 -0.120395,-0.0767 -0.2310226,-0.163513 -0.34375,-0.25 -0.1061728,-0.0808 -0.2132809,-0.161112 -0.3125,-0.25 C 8.4783201,88.557317 8.3087904,88.373362 8.15625,88.1875 8.0486711,88.057245 7.9378561,87.922215 7.84375,87.78125 7.818661,87.74287 7.805304,87.69538 7.78125,87.65625 7.716487,87.553218 7.6510225,87.451733 7.59375,87.34375 7.4927417,87.149044 7.3880752,86.928049 7.3125,86.71875 7.30454,86.69694 7.288911,86.6782 7.28125,86.65625 7.2494249,86.5643 7.2454455,86.469419 7.21875,86.375 7.1884177,86.268382 7.1483606,86.171969 7.125,86.0625 7.0521214,85.720988 7,85.364295 7,85 L 7,83 7,15 7,13 C 7,10.218152 9.2181517,8 12,8 l 2,0 68,0 2,0 c 2.781848,0 5,2.218152 5,5 l 0,2 0,68 0,2 c 0,0.364295 -0.05212,0.720988 -0.125,1.0625 -0.04415,0.206893 -0.08838,0.397658 -0.15625,0.59375 -0.0077,0.02195 -0.0233,0.04069 -0.03125,0.0625 -0.06274,0.173739 -0.138383,0.367449 -0.21875,0.53125 -0.04158,0.0828 -0.07904,0.169954 -0.125,0.25 -0.0546,0.09721 -0.126774,0.18835 -0.1875,0.28125 -0.09411,0.140965 -0.204921,0.275995 -0.3125,0.40625 -0.143174,0.17445 -0.303141,0.346998 -0.46875,0.5 -0.01117,0.0102 -0.01998,0.02115 -0.03125,0.03125 -0.138386,0.125556 -0.285091,0.234436 -0.4375,0.34375 -0.102571,0.07315 -0.204318,0.153364 -0.3125,0.21875 -0.0074,0.0045 -0.02384,-0.0044 -0.03125,0 -0.232039,0.138728 -0.462548,0.274778 -0.71875,0.375 0.301527,-0.0968 0.596455,-0.204138 0.875,-0.34375 0.55709,-0.279224 1.060053,-0.665694 1.5,-1.09375 0.219973,-0.214028 0.409366,-0.441865 0.59375,-0.6875 0.184384,-0.245635 0.355408,-0.507743 0.5,-0.78125 0.14012,-0.265048 0.276135,-0.524729 0.375,-0.8125 0.01041,-0.03078 0.02133,-0.06274 0.03125,-0.09375 0.09046,-0.278085 0.1388,-0.579404 0.1875,-0.875 C 89.95865,84.6507 90,84.334721 90,84 l 0,-2 0,-68 0,-2 C 90,8.676 87.324,6 84,6 L 12,6 z"
       inkscape:connector-curvature="0"
       id="rect3728"
       style="opacity:0.3;fill:url(#linearGradient3188);fill-opacity:1;fill-rule:nonzero;stroke:none" />
    <path
       d="M 12,90 C 8.676,90 6,87.324 6,84 L 6,82 6,14 6,12 c 0,-0.334721 0.04135,-0.6507 0.09375,-0.96875 0.0487,-0.295596 0.09704,-0.596915 0.1875,-0.875 C 6.29113,10.12587 6.302142,10.09265 6.3125,10.0625 6.411365,9.774729 6.5473802,9.515048 6.6875,9.25 6.8320918,8.976493 7.0031161,8.714385 7.1875,8.46875 7.3718839,8.223115 7.5612765,7.995278 7.78125,7.78125 8.221197,7.353194 8.72416,6.966724 9.28125,6.6875 9.559795,6.547888 9.8547231,6.440553 10.15625,6.34375 9.9000482,6.443972 9.6695391,6.580022 9.4375,6.71875 c -0.00741,0.0044 -0.023866,-0.0045 -0.03125,0 -0.031933,0.0193 -0.062293,0.04251 -0.09375,0.0625 -0.120395,0.0767 -0.2310226,0.163513 -0.34375,0.25 -0.1061728,0.0808 -0.2132809,0.161112 -0.3125,0.25 C 8.4783201,7.442683 8.3087904,7.626638 8.15625,7.8125 8.0486711,7.942755 7.9378561,8.077785 7.84375,8.21875 7.818661,8.25713 7.805304,8.30462 7.78125,8.34375 7.716487,8.446782 7.6510225,8.548267 7.59375,8.65625 7.4927417,8.850956 7.3880752,9.071951 7.3125,9.28125 7.30454,9.30306 7.288911,9.3218 7.28125,9.34375 7.2494249,9.4357 7.2454455,9.530581 7.21875,9.625 7.1884177,9.731618 7.1483606,9.828031 7.125,9.9375 7.0521214,10.279012 7,10.635705 7,11 l 0,2 0,68 0,2 c 0,2.781848 2.2181517,5 5,5 l 2,0 68,0 2,0 c 2.781848,0 5,-2.218152 5,-5 l 0,-2 0,-68 0,-2 C 89,10.635705 88.94788,10.279012 88.875,9.9375 88.83085,9.730607 88.78662,9.539842 88.71875,9.34375 88.71105,9.3218 88.69545,9.30306 88.6875,9.28125 88.62476,9.107511 88.549117,8.913801 88.46875,8.75 88.42717,8.6672 88.38971,8.580046 88.34375,8.5 88.28915,8.40279 88.216976,8.31165 88.15625,8.21875 88.06214,8.077785 87.951329,7.942755 87.84375,7.8125 87.700576,7.63805 87.540609,7.465502 87.375,7.3125 87.36383,7.3023 87.35502,7.29135 87.34375,7.28125 87.205364,7.155694 87.058659,7.046814 86.90625,6.9375 86.803679,6.86435 86.701932,6.784136 86.59375,6.71875 c -0.0074,-0.0045 -0.02384,0.0044 -0.03125,0 -0.232039,-0.138728 -0.462548,-0.274778 -0.71875,-0.375 0.301527,0.0968 0.596455,0.204138 0.875,0.34375 0.55709,0.279224 1.060053,0.665694 1.5,1.09375 0.219973,0.214028 0.409366,0.441865 0.59375,0.6875 0.184384,0.245635 0.355408,0.507743 0.5,0.78125 0.14012,0.265048 0.276135,0.524729 0.375,0.8125 0.01041,0.03078 0.02133,0.06274 0.03125,0.09375 0.09046,0.278085 0.1388,0.579404 0.1875,0.875 C 89.95865,11.3493 90,11.665279 90,12 l 0,2 0,68 0,2 c 0,3.324 -2.676,6 -6,6 l -72,0 z"
       inkscape:connector-curvature="0"
       id="path3615"
       style="opacity:0.15;fill:url(#radialGradient3619);fill-opacity:1;fill-rule:nonzero;stroke:none" />
  </g>
  <g
     id="layer5">
    <rect
       width="66"
       height="66"
       rx="12"
       ry="12"
       x="15"
       y="15"
       clip-path="url(#clipPath3613)"
       id="rect3171"
       style="opacity:0.1;fill:url(#linearGradient3613);fill-opacity:1;fill-rule:nonzero;stroke:#ffffff;stroke-width:0.5;stroke-linecap:round;stroke-linejoin:miter;stroke-miterlimit:4;stroke-opacity:1;stroke-dasharray:none;stroke-dashoffset:0;filter:url(#filter3794)" />
  </g>
  <g
     id="layer4">
    <path
       d="m 48.09375,21.03125 c -3.609461,0 -7.471231,0.659966 -10.78125,2.53125 -3.323033,1.878642 -6.018546,5.080765 -6.90625,9.71875 -0.183213,0.965004 0.05656,1.915839 0.65625,2.59375 0.493749,0.558156 1.114934,0.794481 1.65625,0.9375 l 0,0.03125 c -0.0016,-6.32e-4 0.06634,0.02121 0.09375,0.03125 0.0084,0.0031 0.03175,1.66e-4 0.03125,0 0.01185,0.0027 0.0195,0.02865 0.03125,0.03125 0.02967,0.0089 0.06379,3.51e-4 0.0625,0 a 0.98390642,0.98390642 0 0 0 0.15625,0.03125 l 6.875,0.75 a 0.98390642,0.98390642 0 0 0 0.03125,0 c -0.0028,-2.04e-4 0.127827,0.03125 0.125,0.03125 -0.0028,0 0.12782,-0.03145 0.125,-0.03125 0.912441,-0.04676 1.644271,-0.48711 2.125,-1.03125 0.455286,-0.515342 0.718017,-1.142078 0.84375,-1.75 0.0051,-0.02452 -0.0034,-0.01036 0,-0.03125 0.215754,-0.980035 0.647054,-1.602344 1.28125,-2.03125 0.641223,-0.433658 1.536485,-0.6875 2.59375,-0.6875 0.964775,0 2.016866,0.451078 2.40625,0.96875 a 0.98390642,0.98390642 0 0 0 0.03125,0.03125 0.98390642,0.98390642 0 0 0 0.03125,0.0625 c 0.403742,0.586064 0.5066,1.869601 0.53125,3.28125 -3.810364,0.37582 -8.412158,0.76313 -12.21875,2.40625 -0.0089,0.0038 -0.02241,-0.0038 -0.03125,0 -4.99632,2.151036 -8.65625,6.811611 -8.65625,13.1875 0,4.049872 1.315152,7.357944 3.625,9.5625 2.307036,2.201872 5.475272,3.21875 8.84375,3.21875 4.621994,0 7.976753,-1.259135 11.40625,-4.21875 0.742979,1.02432 1.559149,2.035621 3.1875,3.375 a 0.98390642,0.98390642 0 0 0 0.03125,0.03125 c -0.0016,-0.0012 0.09546,0.06365 0.09375,0.0625 -0.0017,-0.0012 0.06427,0.06356 0.0625,0.0625 -0.0018,-0.0011 0.09557,0.03222 0.09375,0.03125 -7.01e-4,-3.72e-4 0.01506,0.02321 0.03125,0.03125 0.0097,0.0048 0.02154,-0.0048 0.03125,0 0.01618,0.0081 0.03197,0.03158 0.03125,0.03125 0.914035,0.456526 1.927051,0.337259 2.78125,-0.03125 l 0,0.03125 C 59.40395,64.281615 59.50226,64.2495 59.5,64.25 c -0.0023,4.99e-4 0.127229,-6.32e-4 0.125,0 -0.0022,6.32e-4 0.09594,-0.03201 0.09375,-0.03125 -0.0022,7.63e-4 0.09589,-0.06339 0.09375,-0.0625 -0.0021,8.91e-4 0.127082,-0.03227 0.125,-0.03125 -0.0021,0.001 0.09577,-0.06364 0.09375,-0.0625 -0.002,0.0011 0.0957,-0.06376 0.09375,-0.0625 -0.0019,0.0013 0.09562,-0.06387 0.09375,-0.0625 A 0.98390642,0.98390642 0 0 0 60.25,63.90625 c 0.03729,-0.02442 0.05313,0.004 0.09375,-0.03125 0.129283,-0.11379 0.14228,-0.12892 0.03125,-0.03125 1.394151,-1.226457 3.954242,-3.44457 5.375,-4.625 0.158215,-0.128107 0.151819,-0.133976 0.03125,-0.03125 0.72301,-0.616003 1.074196,-1.495204 1.03125,-2.375 C 66.77487,56.041683 66.497662,55.398863 66.125,54.875 A 0.98390642,0.98390642 0 0 0 66,54.71875 0.98390642,0.98390642 0 0 0 65.90625,54.65625 C 64.620242,52.932308 63.75,52.091653 63.75,49.40625 l 0,-10.9375 c 0,-2.275075 0.103204,-4.573063 -0.28125,-6.875 -0.385374,-2.307448 -1.359066,-4.63029 -3.40625,-6.53125 l 0.03125,-0.03125 c -0.0063,-0.0059 -0.02498,0.0059 -0.03125,0 -3.29397,-3.118667 -8.203453,-4 -11.96875,-4 z m 2.03125,24.75 c 8.28e-4,2.476516 -0.03023,4.203696 -1.09375,6.0625 -0.879744,1.54402 -2.056249,2.28125 -3.3125,2.28125 -0.918145,0 -1.363961,-0.250104 -1.78125,-0.75 -0.397708,-0.476438 -0.71875,-1.302327 -0.71875,-2.5 0,-2.468341 0.778653,-3.353513 2.34375,-4.15625 1.107797,-0.568189 2.793694,-0.822828 4.5625,-0.9375 z M 74.5,59.71875 c -2.436818,0.03328 -5.359323,0.539486 -7.75,2.21875 -0.306148,0.216714 -0.632326,0.520937 -0.875,0.9375 -0.242674,0.416563 -0.375907,0.965193 -0.28125,1.53125 0.122119,0.730285 0.517494,1.245767 1.125,1.5625 0.17297,0.09018 0.351887,0.04899 0.53125,0.09375 C 61.054131,68.150476 54.610438,69.25 48.65625,69.25 37.81801,69.25 27.300799,66.265272 18.84375,61.34375 18.3073,61.029788 17.697192,60.924493 17.125,61 c -0.956884,0.126283 -1.785529,0.782931 -2,1.78125 -0.204289,0.950923 0.191668,1.84714 0.84375,2.4375 8.439093,7.618959 19.613413,12.1875 31.96875,12.1875 8.445548,0 17.955222,-2.54181 25.09375,-7.375 -0.223561,0.576123 -0.452171,1.254944 -0.625,1.6875 -0.157343,0.393985 -0.284918,0.933787 -0.15625,1.5 0.155603,0.684743 0.561489,1.166998 1.1875,1.46875 0.526362,0.253718 1.123408,0.285827 1.59375,0.15625 0.470342,-0.129577 0.83097,-0.377975 1.125,-0.625 2.246421,-1.877323 3.482263,-4.542715 4.15625,-6.875 0.335387,-1.160581 0.540256,-2.254207 0.59375,-3.21875 0.02612,-0.471053 0.02962,-0.909361 -0.03125,-1.34375 -0.05087,-0.363049 -0.142106,-0.978654 -0.5625,-1.5 a 0.98390642,0.98390642 0 0 0 -0.03125,0 c -0.401589,-0.494726 -0.904674,-0.731593 -1.25,-0.875 C 78.646015,60.24627 78.225939,60.102478 77.75,60 76.826947,59.801248 75.72365,59.702035 74.5,59.71875 z"
       inkscape:connector-curvature="0"
       id="path3911"
       style="opacity:0.05;fill:#000000;fill-rule:evenodd;display:inline" />
    <path
       d="m 48.09375,22 c -3.487352,0 -7.204663,0.649267 -10.3125,2.40625 -3.107837,1.756983 -5.57029,4.694862 -6.40625,9.0625 -0.126693,0.667307 0.06674,1.330871 0.4375,1.75 0.370765,0.419129 0.842635,0.621682 1.28125,0.71875 a 0.8663372,0.8663372 0 0 0 0.09375,0.03125 l 6.875,0.75 a 0.8663372,0.8663372 0 0 0 0.125,0 C 40.787495,36.688 41.293605,36.375108 41.625,36 c 0.324963,-0.367828 0.530126,-0.822531 0.625,-1.28125 0.0019,-0.0091 -0.0018,-0.02215 0,-0.03125 0.517145,-2.426052 2.436603,-3.5 4.84375,-3.5 1.244294,0 2.640114,0.476569 3.28125,1.4375 a 0.8663372,0.8663372 0 0 0 0,0.03125 c 0.76614,1.112113 0.71875,2.884885 0.71875,4.59375 l 0,0.125 c -3.984532,0.411108 -8.98669,0.764993 -12.84375,2.4375 -4.70649,2.016631 -8.09375,6.263937 -8.09375,12.28125 0,3.836306 1.249184,6.844663 3.34375,8.84375 2.094566,1.999087 4.98854,2.96875 8.15625,2.96875 4.829789,0 7.945142,-1.251061 11.5625,-4.65625 0.908234,1.333828 1.64513,2.377029 3.65625,4.03125 a 0.8663372,0.8663372 0 0 0 0.15625,0.09375 c 0.6493,0.343929 1.417019,0.287746 2.09375,-0.03125 0.03892,-0.01835 0.08688,-0.01054 0.125,-0.03125 a 0.8663372,0.8663372 0 0 0 0.375,-0.15625 c 0.01915,-0.01555 0.04371,-0.01496 0.0625,-0.03125 0.0086,-0.0076 0.02254,-0.02359 0.03125,-0.03125 1.406169,-1.237029 3.972065,-3.433414 5.40625,-4.625 0.01148,-0.0093 0.02003,-0.02169 0.03125,-0.03125 0.463241,-0.39468 0.713779,-1.024143 0.6875,-1.5625 -0.02692,-0.551394 -0.234967,-1.021005 -0.53125,-1.4375 a 0.8663372,0.8663372 0 0 0 -0.03125,0 c -1.33672,-1.828025 -2.5,-2.978235 -2.5,-6.03125 l 0,-10.9375 c 0,-2.298208 0.08106,-4.549406 -0.28125,-6.71875 -0.362309,-2.169344 -1.213476,-4.2626 -3.09375,-6 C 56.410097,22.90023 51.702601,22 48.09375,22 z m 2.96875,22.71875 0,0.59375 a 0.8663372,0.8663372 0 0 0 0.03125,0.15625 0.8663372,0.8663372 0 0 0 0,0.03125 c 0.0014,2.647488 0.02349,4.672583 -1.21875,6.84375 -1.010215,1.773007 -2.510616,2.75 -4.15625,2.75 -1.143478,0 -1.946177,-0.392856 -2.53125,-1.09375 -0.585073,-0.700894 -0.9375,-1.75821 -0.9375,-3.125 0,-2.731422 1.095618,-4.118606 2.875,-5.03125 1.568217,-0.804338 3.734479,-1.059497 5.9375,-1.125 z M 74.5,60.6875 c -2.300412,0.03142 -5.030349,0.54727 -7.1875,2.0625 -0.46243,0.327342 -0.865845,0.807239 -0.75,1.5 0.05792,0.34638 0.326369,0.688054 0.625,0.84375 0.298631,0.155696 0.587468,0.189331 0.875,0.15625 1.091924,-0.131843 2.856866,-0.340601 4.40625,-0.375 0.774692,-0.0172 1.502607,0.0087 2.03125,0.09375 0.528643,0.08504 0.798301,0.280628 0.75,0.21875 -0.05222,-0.06668 0.08666,0.253839 0.03125,0.78125 -0.05541,0.527411 -0.21638,1.227008 -0.4375,1.96875 -0.44224,1.483484 -1.119632,3.126054 -1.53125,4.15625 -0.109095,0.273172 -0.168221,0.578535 -0.09375,0.90625 0.07447,0.327715 0.342676,0.66135 0.65625,0.8125 0.627147,0.302299 1.213496,0.02822 1.65625,-0.34375 2.024513,-1.691875 3.204469,-4.194064 3.84375,-6.40625 0.319641,-1.106093 0.514809,-2.140094 0.5625,-3 0.02384,-0.429953 0.01769,-0.806984 -0.03125,-1.15625 -0.04894,-0.349266 -0.09986,-0.658795 -0.375,-1 -0.264897,-0.326332 -0.552166,-0.459684 -0.875,-0.59375 -0.322834,-0.134066 -0.702695,-0.25282 -1.125,-0.34375 C 76.686641,60.786889 75.649948,60.671792 74.5,60.6875 z m -57.25,1.28125 c -0.546884,0.07217 -1.039549,0.488032 -1.15625,1.03125 -0.116701,0.543218 0.119213,1.126964 0.53125,1.5 8.263957,7.460843 19.199558,11.9375 31.3125,11.9375 8.674905,0 18.651246,-2.706038 25.65625,-7.875 0.413185,-0.304605 0.712317,-0.723748 0.8125,-1.1875 0.100183,-0.463752 -0.0018,-0.924058 -0.25,-1.28125 -0.496329,-0.714384 -1.505019,-1.006112 -2.40625,-0.625 -7.511889,3.186863 -15.674285,4.75 -23.09375,4.75 -11.017911,0 -21.698286,-3.018267 -30.3125,-8.03125 C 18.001553,61.987226 17.6177,61.920228 17.25,61.96875 z"
       id="path3907"
       style="opacity:0.1;fill:#000000;fill-rule:evenodd;display:inline" />
    <path
       d="m 48.09375,22.875 c -6.762794,0 -14.292432,2.481564 -15.875,10.75 -0.166851,0.878822 0.477189,1.339218 1.0625,1.46875 l 6.875,0.75 c 0.644282,-0.03302 1.125503,-0.680097 1.25,-1.3125 0.590406,-2.848427 2.978012,-4.21875 5.6875,-4.21875 1.460631,0 3.134916,0.547167 4,1.84375 0.99471,1.4439 0.875,3.426346 0.875,5.09375 l 0,0.90625 c -4.117496,0.454626 -9.518065,0.765047 -13.375,2.4375 -4.448639,1.906147 -7.5625,5.798063 -7.5625,11.5 0,7.305837 4.640004,10.9375 10.625,10.9375 5.050601,0 7.823308,-1.16462 11.71875,-5.09375 1.292491,1.852811 1.703412,2.747063 4.0625,4.6875 0.527524,0.279425 1.218974,0.23413 1.6875,-0.1875 l 0,0.03125 c 1.418269,-1.248326 4.017114,-3.482347 5.46875,-4.6875 0.580277,-0.469868 0.454396,-1.204991 0,-1.84375 -1.296342,-1.772806 -2.6875,-3.234539 -2.6875,-6.53125 l 0,-10.9375 c 0,-4.641546 0.362731,-8.899912 -3.09375,-12.09375 -2.721037,-2.588095 -7.262257,-3.5 -10.71875,-3.5 z m 3.84375,20.90625 0,1.53125 0.03125,0 c 0,2.739208 0.0513,5.030509 -1.34375,7.46875 -1.12949,1.982344 -2.91168,3.1875 -4.90625,3.1875 -2.722321,0 -4.34375,-2.052299 -4.34375,-5.09375 0,-5.986398 5.427185,-7.09375 10.5625,-7.09375 z M 74.5,61.5625 c -2.174584,0.0297 -4.740571,0.538685 -6.6875,1.90625 -0.59835,0.423557 -0.509529,0.98285 0.15625,0.90625 2.19046,-0.264484 7.100029,-0.831653 7.96875,0.28125 0.871994,1.113562 -0.992223,5.697015 -1.8125,7.75 -0.248112,0.62127 0.282714,0.877597 0.84375,0.40625 3.649675,-3.050014 4.621956,-9.448671 3.875,-10.375 C 78.472564,61.980227 76.674584,61.532795 74.5,61.5625 z m -57.125,1.25 c -0.452292,0.05969 -0.63349,0.599183 -0.15625,1.03125 8.11046,7.322263 18.819175,11.71875 30.71875,11.71875 8.493433,0 18.355089,-2.668953 25.15625,-7.6875 1.125998,-0.830099 0.150221,-2.080155 -1,-1.59375 -7.626019,3.235282 -15.897238,4.8125 -23.4375,4.8125 -11.176187,0 -21.997983,-3.063073 -30.75,-8.15625 -0.190994,-0.111781 -0.380486,-0.144895 -0.53125,-0.125 z"
       inkscape:connector-curvature="0"
       id="path3894"
       style="opacity:0.2;fill:#000000;fill-rule:evenodd;display:inline" />
    <path
       d="m 51.9534,44.309276 c 0,2.739208 0.06662,5.021252 -1.328432,7.459493 -1.12949,1.982344 -2.925116,3.196388 -4.919686,3.196388 -2.722321,0 -4.320288,-2.057272 -4.320288,-5.098723 0,-5.986398 5.431807,-7.074716 10.567122,-7.074716 v 1.517558 z m 7.160684,17.138814 c -0.468526,0.42163 -1.150021,0.447043 -1.677545,0.167618 -2.359088,-1.940437 -2.781362,-2.833188 -4.073853,-4.685999 -3.895442,3.92913 -6.658836,5.108882 -11.709437,5.108882 -5.984996,0 -10.63257,-3.652286 -10.63257,-10.958123 0,-5.701937 3.122767,-9.580261 7.571406,-11.486408 3.856935,-1.672453 9.243819,-1.975967 13.361315,-2.430593 v -0.918149 c 0,-1.667404 0.133472,-3.651015 -0.861238,-5.094915 -0.865084,-1.296583 -2.525943,-1.824872 -3.986574,-1.824872 -2.709488,0 -5.121197,1.368976 -5.711603,4.217403 -0.124497,0.632403 -0.59045,1.258484 -1.234732,1.291507 l -6.884736,-0.737792 c -0.585311,-0.129532 -1.229598,-0.587929 -1.062747,-1.466751 1.582568,-8.268436 9.124454,-10.762554 15.887248,-10.762554 3.456493,0 7.977004,0.913066 10.698041,3.501161 3.456481,3.193838 3.121486,7.453147 3.121486,12.094693 v 10.950506 c 0,3.296711 1.387473,4.739336 2.683815,6.512142 0.454396,0.638759 0.557057,1.400719 -0.02322,1.870587 -1.451636,1.205153 -4.028917,3.419897 -5.447186,4.668223 l -0.01741,-0.01684 z"
       inkscape:connector-curvature="0"
       id="path3673"
       style="fill:#ffffff;fill-rule:evenodd;display:inline" />
    <g
       transform="matrix(4.0940394,0,0,4.0940394,105.99043,-56.114346)"
       id="g3717"
       style="display:inline">
      <path
         d="m -8.0352193,30.04091 c -1.6612348,1.225818 -4.0701767,1.877903 -6.1447617,1.877903 -2.906561,0 -5.524657,-1.07423 -7.505698,-2.862748 -0.155426,-0.140714 -0.01663,-0.332918 0.169977,-0.223704 2.137746,1.244047 4.780787,1.992714 7.510655,1.992714 1.841766,0 3.865821,-0.382009 5.7285337,-1.172251 0.28095,-0.118808 0.5163275,0.185328 0.241294,0.388086 z"
         inkscape:connector-curvature="0"
         id="path3719"
         style="fill:#ff9201;fill-rule:evenodd" />
      <path
         d="m -7.3439576,29.251627 c -0.2121916,-0.271835 -1.4049099,-0.128882 -1.9399461,-0.06428 -0.1626216,0.01871 -0.1875665,-0.122326 -0.041415,-0.225783 0.9511045,-0.668076 2.5095215,-0.474753 2.6908517,-0.251368 0.1824496,0.226263 -0.047811,1.788518 -0.9392716,2.533507 -0.1370371,0.11513 -0.2675181,0.05453 -0.2069148,-0.09722 0.2003588,-0.501457 0.6496869,-1.622858 0.4366958,-1.894854 z"
         inkscape:connector-curvature="0"
         id="path3721"
         style="fill:#ff9201;fill-rule:evenodd" />
    </g>
  </g>
</svg>
