<?xml version="1.0" encoding="UTF-8" standalone="no"?>
<!-- Created with Inkscape (http://www.inkscape.org/) -->

<svg
   xmlns:dc="http://purl.org/dc/elements/1.1/"
   xmlns:cc="http://creativecommons.org/ns#"
   xmlns:rdf="http://www.w3.org/1999/02/22-rdf-syntax-ns#"
   xmlns:svg="http://www.w3.org/2000/svg"
   xmlns="http://www.w3.org/2000/svg"
   xmlns:xlink="http://www.w3.org/1999/xlink"
   xmlns:inkscape="http://www.inkscape.org/namespaces/inkscape"
   version="1.0"
   width="96"
   height="96"
   id="svg2408">
  <defs
     id="defs2410">
    <linearGradient
       id="linearGradient4034">
      <stop
         id="stop4036"
         style="stop-color:#ffffff;stop-opacity:1"
         offset="0" />
      <stop
         id="stop4038"
         style="stop-color:#f0f0f0;stop-opacity:1"
         offset="1" />
    </linearGradient>
    <linearGradient
       id="linearGradient3944">
      <stop
         id="stop3946"
         style="stop-color:#df1a1a;stop-opacity:1"
         offset="0" />
      <stop
         id="stop3948"
         style="stop-color:#e44848;stop-opacity:1"
         offset="1" />
    </linearGradient>
    <linearGradient
       id="linearGradient3934">
      <stop
         id="stop3936"
         style="stop-color:#e8ac0c;stop-opacity:1"
         offset="0" />
      <stop
         id="stop3938"
         style="stop-color:#e8db0c;stop-opacity:1"
         offset="1" />
    </linearGradient>
    <linearGradient
       id="linearGradient3924">
      <stop
         id="stop3926"
         style="stop-color:#005ec0;stop-opacity:1"
         offset="0" />
      <stop
         id="stop3928"
         style="stop-color:#0072ea;stop-opacity:1"
         offset="1" />
    </linearGradient>
    <linearGradient
       id="linearGradient3914">
      <stop
         id="stop3916"
         style="stop-color:#028537;stop-opacity:1"
         offset="0" />
      <stop
         id="stop3918"
         style="stop-color:#03b035;stop-opacity:1"
         offset="1" />
    </linearGradient>
    <linearGradient
       x1="45.447727"
       y1="92.539597"
       x2="45.447727"
       y2="7.0165396"
       id="ButtonShadow"
       gradientUnits="userSpaceOnUse"
       gradientTransform="scale(1.0058652,0.994169)">
      <stop
         id="stop3750"
         style="stop-color:#000000;stop-opacity:1"
         offset="0" />
      <stop
         id="stop3752"
         style="stop-color:#000000;stop-opacity:0.58823532"
         offset="1" />
    </linearGradient>
    <linearGradient
       id="linearGradient3737">
      <stop
         id="stop3739"
         style="stop-color:#ffffff;stop-opacity:1"
         offset="0" />
      <stop
         id="stop3741"
         style="stop-color:#ffffff;stop-opacity:0"
         offset="1" />
    </linearGradient>
    <filter
       color-interpolation-filters="sRGB"
       id="filter3174">
      <feGaussianBlur
         id="feGaussianBlur3176"
         stdDeviation="1.71" />
    </filter>
    <linearGradient
       x1="36.357143"
       y1="6"
       x2="36.357143"
       y2="63.893143"
       id="linearGradient3188"
       xlink:href="#linearGradient3737"
       gradientUnits="userSpaceOnUse" />
    <filter
       x="-0.192"
       y="-0.192"
       width="1.3839999"
       height="1.3839999"
       color-interpolation-filters="sRGB"
       id="filter3794">
      <feGaussianBlur
         id="feGaussianBlur3796"
         stdDeviation="5.28" />
    </filter>
    <linearGradient
       x1="48"
       y1="20.220806"
       x2="48"
       y2="138.66119"
       id="linearGradient3613"
       xlink:href="#linearGradient3737"
       gradientUnits="userSpaceOnUse" />
    <radialGradient
       cx="48"
       cy="90.171875"
       r="42"
       fx="48"
       fy="90.171875"
       id="radialGradient3619"
       xlink:href="#linearGradient3737"
       gradientUnits="userSpaceOnUse"
       gradientTransform="matrix(1.1573129,0,0,0.99590774,-7.5510206,0.19713193)" />
    <clipPath
       id="clipPath3613">
      <rect
         width="84"
         height="84"
         rx="6"
         ry="6"
         x="6"
         y="6"
         id="rect3615"
         style="fill:#ffffff;fill-opacity:1;fill-rule:nonzero;stroke:none" />
    </clipPath>
    <linearGradient
       x1="45.447727"
       y1="92.539597"
       x2="45.447727"
       y2="7.0165396"
       id="ButtonShadow-0"
       gradientUnits="userSpaceOnUse"
       gradientTransform="matrix(1.0058652,0,0,0.994169,100,0)">
      <stop
         id="stop3750-8"
         style="stop-color:#000000;stop-opacity:1"
         offset="0" />
      <stop
         id="stop3752-5"
         style="stop-color:#000000;stop-opacity:0.58823532"
         offset="1" />
    </linearGradient>
    <linearGradient
       x1="32.251034"
       y1="6.1317081"
       x2="32.251034"
       y2="90.238609"
       id="linearGradient3780"
       xlink:href="#ButtonShadow-0"
       gradientUnits="userSpaceOnUse"
       gradientTransform="matrix(1.0238095,0,0,1.0119048,-1.1428571,-98.071429)" />
    <linearGradient
       x1="32.251034"
       y1="6.1317081"
       x2="32.251034"
       y2="90.238609"
       id="linearGradient3772"
       xlink:href="#ButtonShadow-0"
       gradientUnits="userSpaceOnUse"
       gradientTransform="matrix(1.0238095,0,0,1.0119048,-1.1428571,-98.071429)" />
    <linearGradient
       x1="32.251034"
       y1="6.1317081"
       x2="32.251034"
       y2="90.238609"
       id="linearGradient3725"
       xlink:href="#ButtonShadow-0"
       gradientUnits="userSpaceOnUse"
       gradientTransform="matrix(1.0238095,0,0,1.0119048,-1.1428571,-98.071429)" />
    <linearGradient
       x1="32.251034"
       y1="6.1317081"
       x2="32.251034"
       y2="90.238609"
       id="linearGradient3721"
       xlink:href="#ButtonShadow-0"
       gradientUnits="userSpaceOnUse"
       gradientTransform="translate(0,-97)" />
    <linearGradient
       x1="32.251034"
       y1="6.1317081"
       x2="32.251034"
       y2="90.238609"
       id="linearGradient3026"
       xlink:href="#ButtonShadow-0"
       gradientUnits="userSpaceOnUse"
       gradientTransform="matrix(1.0238095,0,0,1.0119048,-1.1428571,-98.071429)" />
    <linearGradient
       x1="6"
       y1="48"
       x2="90"
       y2="48"
       id="linearGradient3920"
       xlink:href="#linearGradient3914"
       gradientUnits="userSpaceOnUse"
       gradientTransform="translate(-96,0)" />
    <linearGradient
       x1="18.07872"
       y1="59.01622"
       x2="18.215158"
       y2="6.6697359"
       id="linearGradient3930"
       xlink:href="#linearGradient3924"
       gradientUnits="userSpaceOnUse" />
    <linearGradient
       x1="23.362806"
       y1="90.200294"
       x2="27.000059"
       y2="62.572609"
       id="linearGradient3940"
       xlink:href="#linearGradient3934"
       gradientUnits="userSpaceOnUse" />
    <linearGradient
       x1="69.788139"
       y1="35.460526"
       x2="69.788139"
       y2="5.5467491"
       id="linearGradient3950"
       xlink:href="#linearGradient3944"
       gradientUnits="userSpaceOnUse" />
    <linearGradient
       x1="24.065893"
       y1="5.1119947"
       x2="24.065893"
       y2="90.059601"
       id="linearGradient4040"
       xlink:href="#linearGradient4034"
       gradientUnits="userSpaceOnUse" />
    <clipPath
       id="clipPath4049">
      <rect
         width="84"
         height="84"
         rx="6.0999999"
         ry="6.0999999"
         x="-90"
         y="6"
         transform="matrix(0,-1,1,0,0,0)"
         id="rect4051"
         style="fill:#ff00ff;fill-opacity:1;fill-rule:nonzero;stroke:none" />
    </clipPath>
  </defs>
  <metadata
     id="metadata2413">
    <rdf:RDF>
      <cc:Work
         rdf:about="">
        <dc:format>image/svg+xml</dc:format>
        <dc:type
           rdf:resource="http://purl.org/dc/dcmitype/StillImage" />
        <dc:title />
      </cc:Work>
    </rdf:RDF>
  </metadata>
  <g
     id="layer2"
     style="display:none">
    <rect
       width="86"
       height="85"
       rx="6"
       ry="6"
       x="5"
       y="7"
       id="rect3745"
       style="opacity:0.9;fill:url(#ButtonShadow);fill-opacity:1;fill-rule:nonzero;stroke:none;filter:url(#filter3174)" />
  </g>
  <g
     id="layer3">
    <path
       d="m 12,-95.03125 c -5.5110903,0 -10.03125,4.52016 -10.03125,10.03125 l 0,71 c 0,5.5110902 4.5201598,10.03125 10.03125,10.03125 l 72,0 c 5.51109,0 10.03125,-4.5201597 10.03125,-10.03125 l 0,-71 c 0,-5.51109 -4.52016,-10.03125 -10.03125,-10.03125 l -72,0 z"
       transform="scale(1,-1)"
       id="path3786"
       style="opacity:0.07999998;fill:url(#linearGradient3026);fill-opacity:1;fill-rule:nonzero;stroke:none;display:inline" />
    <path
       d="m 12,-94.03125 c -4.971633,0 -9.03125,4.059617 -9.03125,9.03125 l 0,71 c 0,4.9716329 4.0596171,9.03125 9.03125,9.03125 l 72,0 c 4.971633,0 9.03125,-4.059617 9.03125,-9.03125 l 0,-71 c 0,-4.971633 -4.059617,-9.03125 -9.03125,-9.03125 l -72,0 z"
       transform="scale(1,-1)"
       id="path3778"
       style="opacity:0.1;fill:url(#linearGradient3780);fill-opacity:1;fill-rule:nonzero;stroke:none;display:inline" />
    <path
       d="m 12,-93 c -4.4091333,0 -8,3.590867 -8,8 l 0,71 c 0,4.4091333 3.5908667,8 8,8 l 72,0 c 4.409133,0 8,-3.5908667 8,-8 l 0,-71 c 0,-4.409133 -3.590867,-8 -8,-8 l -72,0 z"
       transform="scale(1,-1)"
       id="path3770"
       style="opacity:0.2;fill:url(#linearGradient3772);fill-opacity:1;fill-rule:nonzero;stroke:none;display:inline" />
    <rect
       width="86"
       height="85"
       rx="7"
       ry="7"
       x="5"
       y="-92"
       transform="scale(1,-1)"
       id="rect3723"
       style="opacity:0.3;fill:url(#linearGradient3725);fill-opacity:1;fill-rule:nonzero;stroke:none;display:inline" />
    <rect
       width="84"
       height="84"
       rx="6"
       ry="6"
       x="6"
       y="-91"
       transform="scale(1,-1)"
       id="rect3716"
       style="opacity:0.45;fill:url(#linearGradient3721);fill-opacity:1;fill-rule:nonzero;stroke:none;display:inline" />
  </g>
  <g
     id="layer1">
    <path
       d="m 147.78125,6 c 3.01021,3.8486299 5.90579,7.663588 6.6875,12.125 1.56656,8.940754 -2.16116,16.137032 -8.21875,21.28125 -3.49488,2.951231 -4.86387,4.708586 -5.125,6.65625 -0.3879,2.893149 0.26581,3.810728 6.15625,8.5625 7.34929,5.928608 10.45847,9.913941 11.625,14.875 0.71126,3.024857 0.48592,7.32963 -0.53125,10.34375 C 156.981,83.648298 154.35046,87.153412 152,90 l 32,0 c 3.324,0 6,-2.676 6,-6 l 0,-72 c 0,-3.324 -2.676,-6 -6,-6 l -36.21875,0 z"
       inkscape:connector-curvature="0"
       id="rect3904"
       style="fill:#1c9651;fill-opacity:1;fill-rule:nonzero;stroke:none" />
    <path
       d="M 138,5.9375 C 126.2934,5.957585 112,6 112,6 c -3.324,0 -6,2.676 -6,6 l 0,28.75 0.0313,-8.09375 c 5.46615,9.664237 12.24137,12.478805 23.5,12.125 -1.47389,6.453933 0.35228,9.996302 2.59375,13.34375 C 122.36897,58.767648 113.82048,60.943947 106,65 l 0,19 c 0,3.324 2.676,6 6,6 l 7,0 c -6.6669,-1.890908 -9.27328,-8.466049 -9.09375,-13.40625 0.47323,-13.022166 15.1716,-14.129979 26.53125,-14.875 5.50583,4.307798 14.32067,8.009564 13.9375,17.09375 C 150.1289,84.647183 149.12156,86.315353 145,90 l 4,0 3,0 c 2.35046,-2.846588 4.981,-6.351702 6.375,-10.15625 1.01717,-3.01412 1.24251,-7.318893 0.53125,-10.34375 -1.16653,-4.961059 -4.27571,-8.946392 -11.625,-14.875 -5.89044,-4.751772 -6.54415,-5.669351 -6.15625,-8.5625 0.26113,-1.947664 1.63012,-3.705019 5.125,-6.65625 6.05759,-5.144218 9.78531,-12.340496 8.21875,-21.28125 C 153.68704,13.663588 150.79146,9.84863 147.78125,6 L 138,6 138,5.9375 z M 127.59375,6 c 5.56824,-0.0011 7.62983,0.73317 11.21875,6.125 4.74012,7.121345 6.22045,17.56925 3.40625,23.125 -1.39589,2.755754 -4.55379,4.969594 -8.25,5.75 -6.0479,1.276933 -11.2769,-2.914217 -14.71875,-9.3125 -2.6616,-4.947815 -3.98655,-12.222751 -2.4375,-18.4375 0.70616,-2.833114 2.47462,-4.818929 4.96875,-6.25 1.66448,-0.955042 1.91746,-0.999255 5.8125,-1 z"
       inkscape:connector-curvature="0"
       id="rect3064"
       style="fill:#ff00ff;fill-opacity:1;fill-rule:nonzero;stroke:none" />
    <rect
       width="84"
       height="84"
       rx="6.0999999"
       ry="6.0999999"
       x="-90"
       y="6"
       transform="matrix(0,-1,1,0,0,0)"
       id="rect2419"
       style="fill:url(#linearGradient3920);fill-opacity:1;fill-rule:nonzero;stroke:none" />
    <path
       d="M 19,90 C 12.3331,88.10909 9.7314,81.5423 9.91093,76.6021 10.38416,63.57993 25.07759,62.46215 36.43724,61.71713 41.94307,66.02493 50.76106,69.72931 50.37789,78.8135 50.13179,84.64818 49.12156,86.31535 45,90 c -0.29479,0.11316 -5.32846,0.0123 -12,0 -9.46954,-0.0175 -12,0 -14,0 z"
       inkscape:connector-curvature="0"
       id="path3932"
       style="fill:url(#linearGradient3940);fill-opacity:1" />
    <path
       d="m 47.78125,6 c 3.01021,3.8486299 5.90579,7.663588 6.6875,12.125 1.27283,7.264363 -0.93527,13.391372 -5.0625,18.1875 6.81086,-6.719785 13.61684,-7.208144 20.9375,-6.90625 C 80.83024,29.8387 85.64848,34.026874 90,38 L 90,12 C 90,8.676 87.324,6 84,6 L 47.78125,6 z"
       inkscape:connector-curvature="0"
       id="path3942"
       style="fill:url(#linearGradient3950);fill-opacity:1;fill-rule:nonzero;stroke:none" />
    <path
       d="m 27.59375,6 c -3.89504,7.46e-4 -4.14802,0.04496 -5.8125,1 -2.49413,1.431071 -4.26259,3.416886 -4.96875,6.25 -1.54905,6.214749 -0.2241,13.489685 2.4375,18.4375 3.44185,6.398283 8.67085,10.589433 14.71875,9.3125 3.69621,-0.780406 6.85411,-2.994246 8.25,-5.75 C 45.03295,29.69425 43.55262,19.246345 38.8125,12.125 35.22358,6.73317 33.16199,5.998934 27.59375,6 z M 6.02134,32.64787 5.90015,65.027438 C 13.74432,60.942006 22.32266,58.777132 32.11501,58.132088 29.87354,54.78464 28.05736,51.235183 29.53125,44.78125 18.27262,45.135055 11.48749,42.312107 6.02134,32.64787 z"
       inkscape:connector-curvature="0"
       id="path3922"
       style="fill:url(#linearGradient3930);fill-opacity:1" />
    <path
       d="M 12,6 C 8.676,6 6,8.676 6,12 l 0,2 0,68 0,2 c 0,0.334721 0.04135,0.6507 0.09375,0.96875 0.0487,0.295596 0.09704,0.596915 0.1875,0.875 0.00988,0.03038 0.020892,0.0636 0.03125,0.09375 0.098865,0.287771 0.2348802,0.547452 0.375,0.8125 0.1445918,0.273507 0.3156161,0.535615 0.5,0.78125 0.1843839,0.245635 0.3737765,0.473472 0.59375,0.6875 0.439947,0.428056 0.94291,0.814526 1.5,1.09375 0.278545,0.139612 0.5734731,0.246947 0.875,0.34375 -0.2562018,-0.100222 -0.4867109,-0.236272 -0.71875,-0.375 -0.00741,-0.0044 -0.023866,0.0045 -0.03125,0 -0.031933,-0.0193 -0.062293,-0.04251 -0.09375,-0.0625 -0.120395,-0.0767 -0.2310226,-0.163513 -0.34375,-0.25 -0.1061728,-0.0808 -0.2132809,-0.161112 -0.3125,-0.25 C 8.4783201,88.557317 8.3087904,88.373362 8.15625,88.1875 8.0486711,88.057245 7.9378561,87.922215 7.84375,87.78125 7.818661,87.74287 7.805304,87.69538 7.78125,87.65625 7.716487,87.553218 7.6510225,87.451733 7.59375,87.34375 7.4927417,87.149044 7.3880752,86.928049 7.3125,86.71875 7.30454,86.69694 7.288911,86.6782 7.28125,86.65625 7.2494249,86.5643 7.2454455,86.469419 7.21875,86.375 7.1884177,86.268382 7.1483606,86.171969 7.125,86.0625 7.0521214,85.720988 7,85.364295 7,85 L 7,83 7,15 7,13 C 7,10.218152 9.2181517,8 12,8 l 2,0 68,0 2,0 c 2.781848,0 5,2.218152 5,5 l 0,2 0,68 0,2 c 0,0.364295 -0.05212,0.720988 -0.125,1.0625 -0.04415,0.206893 -0.08838,0.397658 -0.15625,0.59375 -0.0077,0.02195 -0.0233,0.04069 -0.03125,0.0625 -0.06274,0.173739 -0.138383,0.367449 -0.21875,0.53125 -0.04158,0.0828 -0.07904,0.169954 -0.125,0.25 -0.0546,0.09721 -0.126774,0.18835 -0.1875,0.28125 -0.09411,0.140965 -0.204921,0.275995 -0.3125,0.40625 -0.143174,0.17445 -0.303141,0.346998 -0.46875,0.5 -0.01117,0.0102 -0.01998,0.02115 -0.03125,0.03125 -0.138386,0.125556 -0.285091,0.234436 -0.4375,0.34375 -0.102571,0.07315 -0.204318,0.153364 -0.3125,0.21875 -0.0074,0.0045 -0.02384,-0.0044 -0.03125,0 -0.232039,0.138728 -0.462548,0.274778 -0.71875,0.375 0.301527,-0.0968 0.596455,-0.204138 0.875,-0.34375 0.55709,-0.279224 1.060053,-0.665694 1.5,-1.09375 0.219973,-0.214028 0.409366,-0.441865 0.59375,-0.6875 0.184384,-0.245635 0.355408,-0.507743 0.5,-0.78125 0.14012,-0.265048 0.276135,-0.524729 0.375,-0.8125 0.01041,-0.03078 0.02133,-0.06274 0.03125,-0.09375 0.09046,-0.278085 0.1388,-0.579404 0.1875,-0.875 C 89.95865,84.6507 90,84.334721 90,84 l 0,-2 0,-68 0,-2 C 90,8.676 87.324,6 84,6 L 12,6 z"
       inkscape:connector-curvature="0"
       id="rect3728"
       style="opacity:0.3;fill:url(#linearGradient3188);fill-opacity:1;fill-rule:nonzero;stroke:none" />
    <path
       d="M 12,90 C 8.676,90 6,87.324 6,84 L 6,82 6,14 6,12 c 0,-0.334721 0.04135,-0.6507 0.09375,-0.96875 0.0487,-0.295596 0.09704,-0.596915 0.1875,-0.875 C 6.29113,10.12587 6.302142,10.09265 6.3125,10.0625 6.411365,9.774729 6.5473802,9.515048 6.6875,9.25 6.8320918,8.976493 7.0031161,8.714385 7.1875,8.46875 7.3718839,8.223115 7.5612765,7.995278 7.78125,7.78125 8.221197,7.353194 8.72416,6.966724 9.28125,6.6875 9.559795,6.547888 9.8547231,6.440553 10.15625,6.34375 9.9000482,6.443972 9.6695391,6.580022 9.4375,6.71875 c -0.00741,0.0044 -0.023866,-0.0045 -0.03125,0 -0.031933,0.0193 -0.062293,0.04251 -0.09375,0.0625 -0.120395,0.0767 -0.2310226,0.163513 -0.34375,0.25 -0.1061728,0.0808 -0.2132809,0.161112 -0.3125,0.25 C 8.4783201,7.442683 8.3087904,7.626638 8.15625,7.8125 8.0486711,7.942755 7.9378561,8.077785 7.84375,8.21875 7.818661,8.25713 7.805304,8.30462 7.78125,8.34375 7.716487,8.446782 7.6510225,8.548267 7.59375,8.65625 7.4927417,8.850956 7.3880752,9.071951 7.3125,9.28125 7.30454,9.30306 7.288911,9.3218 7.28125,9.34375 7.2494249,9.4357 7.2454455,9.530581 7.21875,9.625 7.1884177,9.731618 7.1483606,9.828031 7.125,9.9375 7.0521214,10.279012 7,10.635705 7,11 l 0,2 0,68 0,2 c 0,2.781848 2.2181517,5 5,5 l 2,0 68,0 2,0 c 2.781848,0 5,-2.218152 5,-5 l 0,-2 0,-68 0,-2 C 89,10.635705 88.94788,10.279012 88.875,9.9375 88.83085,9.730607 88.78662,9.539842 88.71875,9.34375 88.71105,9.3218 88.69545,9.30306 88.6875,9.28125 88.62476,9.107511 88.549117,8.913801 88.46875,8.75 88.42717,8.6672 88.38971,8.580046 88.34375,8.5 88.28915,8.40279 88.216976,8.31165 88.15625,8.21875 88.06214,8.077785 87.951329,7.942755 87.84375,7.8125 87.700576,7.63805 87.540609,7.465502 87.375,7.3125 87.36383,7.3023 87.35502,7.29135 87.34375,7.28125 87.205364,7.155694 87.058659,7.046814 86.90625,6.9375 86.803679,6.86435 86.701932,6.784136 86.59375,6.71875 c -0.0074,-0.0045 -0.02384,0.0044 -0.03125,0 -0.232039,-0.138728 -0.462548,-0.274778 -0.71875,-0.375 0.301527,0.0968 0.596455,0.204138 0.875,0.34375 0.55709,0.279224 1.060053,0.665694 1.5,1.09375 0.219973,0.214028 0.409366,0.441865 0.59375,0.6875 0.184384,0.245635 0.355408,0.507743 0.5,0.78125 0.14012,0.265048 0.276135,0.524729 0.375,0.8125 0.01041,0.03078 0.02133,0.06274 0.03125,0.09375 0.09046,0.278085 0.1388,0.579404 0.1875,0.875 C 89.95865,11.3493 90,11.665279 90,12 l 0,2 0,68 0,2 c 0,3.324 -2.676,6 -6,6 l -72,0 z"
       inkscape:connector-curvature="0"
       id="path3615"
       style="opacity:0.15;fill:url(#radialGradient3619);fill-opacity:1;fill-rule:nonzero;stroke:none" />
    <path
       d="m 119,90 c -6.6669,-1.89091 -9.2686,-8.4577 -9.08907,-13.3979 0.47323,-13.02217 15.16666,-14.13995 26.52631,-14.88497 5.50583,4.3078 14.32382,8.01218 13.94065,17.09637 C 150.13179,84.64818 149.12156,86.31535 145,90 c -0.29479,0.11316 -5.32846,0.0123 -12,0 -9.46954,-0.0175 -12,0 -14,0 z"
       inkscape:connector-curvature="0"
       id="path3869"
       style="fill:#dda80c;fill-opacity:1" />
    <path
       d="m 127.59375,6 c -3.89504,7.46e-4 -4.14802,0.04496 -5.8125,1 -2.49413,1.431071 -4.26259,3.416886 -4.96875,6.25 -1.54905,6.214749 -0.2241,13.489685 2.4375,18.4375 3.44185,6.398283 8.67085,10.589433 14.71875,9.3125 3.69621,-0.780406 6.85411,-2.994246 8.25,-5.75 2.8142,-5.55575 1.33387,-16.003655 -3.40625,-23.125 C 135.22358,6.73317 133.16199,5.998934 127.59375,6 z m -21.57241,26.64787 -0.12119,32.379568 c 7.84417,-4.085432 16.42251,-6.250306 26.21486,-6.89535 -2.24147,-3.347448 -4.05765,-6.896905 -2.58376,-13.350838 -11.25863,0.353805 -18.04376,-2.469143 -23.50991,-12.13338 z"
       inkscape:connector-curvature="0"
       id="path3874"
       style="fill:#448cd2;fill-opacity:1" />
    <path
       d="m 241.28125,6 c -6.83477,-0.038873 -13.4375,0.020948 -13.4375,0.1875 0,0.098474 0.9149,1.3672454 2.0625,2.8125 2.47424,3.115984 3.88144,5.9089 4.5625,9.125 0.9768,4.612694 0.39285,9.271051 -1.71875,13.84375 -0.68975,1.493664 -2.3066,3.489021 -4.78125,5.875 1.16586,-1.093799 2.29511,-2.217602 2.875,-2.9375 1.29707,-1.610215 2.01637,-2.166829 3.96875,-3 9.83234,-4.195911 22.63975,-3.317582 30.6875,2.09375 1.42723,0.959675 2.27944,1.417853 2.8125,2.75 -0.0439,-0.189297 0.10511,-0.08821 0.5625,0.3125 0.37377,0.327457 0.7807,0.59375 0.90625,0.59375 C 269.90681,37.65625 270,34.014033 270,29.5625 270,20.631058 269.7687,19.078389 267.90625,15.25 265.84917,11.021555 260.8229,7.2209992 256.09375,6.34375 255.16749,6.1719298 248.11602,6.0388729 241.28125,6 z"
       inkscape:connector-curvature="0"
       id="path3877"
       style="fill:#e15557" />
    <path
       d="m 232.82555,89.481333 c -0.12044,-0.120488 0.21062,-0.70854 0.73568,-1.306789 1.63505,-1.862956 4.04596,-6.029796 4.82572,-8.340398 1.01717,-3.01412 1.23512,-7.316668 0.52386,-10.341525 -1.16653,-4.961059 -4.26792,-8.926988 -11.61721,-14.855596 -5.89044,-4.751772 -6.54994,-5.668045 -6.16204,-8.561194 0.26113,-1.947664 1.6259,-3.72771 5.12078,-6.678941 1.6531,-1.395953 3.71733,-3.42161 4.58717,-4.501457 1.29707,-1.610215 2.00973,-2.146086 3.96211,-2.979257 9.83234,-4.195911 22.64638,-3.324861 30.69413,2.086471 3.72533,2.504924 3.55303,1.547749 3.92888,21.825619 0.35993,19.418803 0.29076,20.402139 -1.71758,24.418161 -2.52634,5.051852 -7.4301,8.474429 -13.07163,9.123325 -3.14954,0.362269 -21.46561,0.455974 -21.80987,0.111581 z"
       inkscape:connector-curvature="0"
       id="path3879"
       style="fill:#1c9651" />
    <path
       d="m 147.78125,6 c 3.01021,3.8486299 5.90579,7.663588 6.6875,12.125 1.27283,7.264363 -0.93527,13.391372 -5.0625,18.1875 6.81086,-6.719785 13.61684,-7.208144 20.9375,-6.90625 C 180.83024,29.8387 185.64848,34.026874 190,38 l 0,-26 c 0,-3.324 -2.676,-6 -6,-6 l -36.21875,0 z"
       inkscape:connector-curvature="0"
       id="path3911"
       style="fill:#e15557;fill-opacity:1;fill-rule:nonzero;stroke:none" />
  </g>
  <g
     id="layer5"
     style="display:inline">
    <rect
       width="66"
       height="66"
       rx="12"
       ry="12"
       x="15"
       y="15"
       clip-path="url(#clipPath3613)"
       id="rect3171"
       style="opacity:0.1;fill:url(#linearGradient3613);fill-opacity:1;fill-rule:nonzero;stroke:#ffffff;stroke-width:0.5;stroke-linecap:round;stroke-linejoin:miter;stroke-miterlimit:4;stroke-opacity:1;stroke-dasharray:none;stroke-dashoffset:0;filter:url(#filter3794)" />
  </g>
  <g
     id="layer4">
    <g
       clip-path="url(#clipPath4049)"
       id="g4042">
      <path
         d="M 38,3.03125 C 28.926116,3.1283955 19.777557,2.9022347 10.65625,3.21875 A 0.96877063,0.96877063 0 0 0 10.46875,3.25 C 7.804031,3.8379185 5.7959194,5.6037338 4.5625,7.78125 c -1.2179116,2.1501381 -1.7113092,4.69069 -1.46875,7.125 2.5e-4,0.03111 -2.423e-4,0.06264 0,0.09375 0.04968,6.377937 -0.060874,12.810706 0.09375,19.21875 A 0.96877063,0.96877063 0 0 0 3.28125,34.625 c 3.4174509,6.862028 9.882695,12.645504 17.875,13.5 0.0411,0.0044 0.08382,-0.0041 0.125,0 0.02163,0.0062 0.04081,0.02533 0.0625,0.03125 1.617593,0.441432 3.400001,0.16665 4.4375,0.3125 0.53881,0.07574 0.702291,0.199836 0.75,0.28125 0.04671,0.07971 0.136099,0.511039 -0.1875,1.4375 -0.0069,0.01981 0.0073,0.01093 0,0.03125 -0.36143,1.01344 -0.155389,2.040568 0.125,2.96875 0.283237,0.937608 0.682113,1.813806 0.9375,2.53125 0.248793,0.69892 0.22133,1.164338 0.25,1.125 -0.116864,0.03426 -0.425769,0.0595 -0.9375,0 a 0.96877063,0.96877063 0 0 0 -0.25,0 C 18.804971,57.881256 11.053521,59.863231 4.21875,63.75 A 0.96877063,0.96877063 0 0 0 4,63.9375 c -0.8559369,0.890332 -0.9972889,2.034838 -0.96875,2.96875 0.028539,0.933912 0.1495516,1.757075 0.0625,2.3125 a 0.96877063,0.96877063 0 0 0 0,0.15625 C 3.1836777,75.067025 2.8918468,80.865833 3.25,86.65625 a 0.96877063,0.96877063 0 0 0 0,0.09375 c 0.848573,4.799952 5.7014749,7.689246 10.28125,7.15625 0.02083,-0.0024 0.04168,0.0026 0.0625,0 2.008143,-0.09393 4.232487,0.252141 6.53125,-0.15625 a 0.96877063,0.96877063 0 0 0 0.21875,-0.09375 c 2.464433,-1.06622 2.014266,-4.977081 -0.59375,-5.4375 l 0,-0.03125 c -7.789763,-2.04745 -9.555005,-14.743508 -2.34375,-18.625 5.369609,-3.054395 11.905265,-3.333479 18.25,-3.84375 2.258384,1.716354 4.800506,3.236811 6.9375,4.96875 2.216301,1.796214 3.955784,3.783354 4.65625,6.5 0.0025,0.0096 -0.0024,0.02167 0,0.03125 0.557503,3.872675 0.101559,8.237675 -3.03125,10.5625 -0.810828,0.48723 -1.530667,1.246497 -1.90625,2.1875 -0.39006,0.977276 -0.273913,2.307295 0.6875,3.1875 A 0.96877063,0.96877063 0 0 0 43.125,93.25 c 1.002396,0.684472 2.12552,0.720546 3.09375,0.6875 0.96823,-0.03305 1.8367,-0.12003 2.5,-0.03125 a 0.96877063,0.96877063 0 0 0 0.21875,0 c 0.673626,-0.06745 1.701445,0.09318 2.78125,0.03125 1.030165,-0.05908 2.223587,-0.517599 2.9375,-1.65625 l 0.03125,0.03125 c 0.0386,-0.04543 0.05525,-0.110615 0.09375,-0.15625 4.462598,-5.289419 8.261891,-11.972957 7.40625,-19.375 -0.0013,-0.02106 0.0013,-0.04147 0,-0.0625 -0.558455,-8.763878 -7.490624,-14.925384 -13.59375,-19.78125 -0.0056,-0.0047 -0.02559,0.0047 -0.03125,0 -1.282004,-1.06039 -2.984547,-2.307131 -3.90625,-3.53125 -0.462888,-0.614764 -0.703507,-1.160436 -0.71875,-1.6875 -0.01524,-0.527064 0.161432,-1.104043 0.84375,-1.84375 3.257259,-3.533448 7.67058,-6.473542 10.03125,-11.375 0.01038,-0.02156 0.02094,-0.04086 0.03125,-0.0625 4.321765,-7.807545 3.834671,-17.998136 -1.6875,-25.125 A 0.96877063,0.96877063 0 0 0 53.09375,9.25 C 52.504444,8.6263084 51.942355,7.6550331 51.28125,6.6875 50.620145,5.7199669 49.80447,4.7049538 48.5,4.21875 a 0.96877063,0.96877063 0 0 0 -0.21875,-0.0625 c -3.41943,-0.4228531 -6.853949,-0.616681 -10.125,-1.125 a 0.96877063,0.96877063 0 0 0 -0.15625,0 z m -10.4375,6.875 a 0.96877063,0.96877063 0 0 0 0.125,0 c 3.260719,-0.3570854 6.474706,0.956219 8.03125,3.84375 A 0.96877063,0.96877063 0 0 0 35.75,13.84375 c 4.060075,5.929136 6.330415,13.805265 4.03125,20.65625 -2.235908,4.613446 -9.348957,6.428846 -13.21875,2.8125 A 0.96877063,0.96877063 0 0 0 26.53125,37.28125 C 19.968793,31.682789 17.536818,21.704546 20.0625,13.5625 c 0.436542,-1.527773 1.427628,-2.407496 2.8125,-2.96875 1.384872,-0.561254 3.128941,-0.728965 4.6875,-0.6875 z"
         id="path4032"
         style="opacity:0.05;fill:#000000;fill-opacity:1;fill-rule:nonzero;stroke:none" />
      <path
         d="M 38,4 C 28.903201,4.0973908 19.784497,3.8781311 10.701655,4.1933116 5.9604069,5.2393759 3.5796948,10.391586 4.0653804,14.903968 4.1170212,21.32915 4.0015225,27.775175 4.15625,34.1875 c 3.3236877,6.673757 9.615012,12.263013 17.283095,13.004051 2.610353,0.811951 7.398753,-1.049903 5.820664,3.336535 -1.012814,2.751686 4.031086,7.829885 -0.667337,7.283594 -7.587596,1.027193 -15.222007,2.981516 -21.905172,6.78207 -1.2108294,1.259485 -0.379892,3.227197 -0.625,4.791086 0.090602,5.734702 -0.1918945,11.493188 0.161781,17.211213 0.7519107,4.253182 5.1395417,6.848767 9.256585,6.341451 2.155382,-0.110331 4.378483,0.2185 6.487884,-0.15625 C 21.607579,92.072222 21.295502,89.339732 19.5,89.125 10.815338,86.842336 8.917247,73.035655 16.943102,68.715701 22.680824,65.451912 29.487855,65.244762 35.90625,64.71875 c 4.52573,3.532767 10.824394,6.251765 12.324903,12.333019 0.590606,4.060148 0.100688,8.871781 -3.458523,11.513035 -1.306177,0.744546 -2.472937,2.630724 -1.11638,3.872696 1.490159,1.017535 3.482058,0.272345 5.182941,0.5 1.734878,-0.173714 4.074025,0.66075 5.113836,-1.240376 C 58.39209,86.472993 62.049326,79.929906 61.204084,72.836485 60.703732,64.516912 54.055282,58.535881 47.968481,53.694268 45.513965,51.660797 40.824434,48.731715 44.05303,45.231567 47.431805,41.5663 51.759747,38.657319 53.968845,34.018554 58.135538,26.546992 57.654122,16.702281 52.376695,9.8912811 50.948528,8.3797806 50.179759,5.8792051 48.15625,5.125 44.78111,4.7076239 41.335709,4.5183669 38,4 z M 27.59375,8.9375 c 3.590191,-0.3931662 7.210512,1.075546 8.972294,4.343812 4.215699,6.156402 6.607121,14.391326 4.104398,21.662167 -2.534896,5.23036 -10.350148,7.205096 -14.750969,3.092501 C 19.019528,32.149606 16.489364,21.791743 19.132477,13.271136 20.180595,9.6030181 24.30536,8.8500133 27.59375,8.9375 z"
         inkscape:connector-curvature="0"
         id="path4023"
         style="opacity:0.1;fill:#000000;fill-opacity:1;fill-rule:nonzero;stroke:none" />
      <path
         d="M 38,5.0625 C 26.292522,5.0825865 12,5.125 12,5.125 10.020402,5.125 8.3013749,6.2327422 7.09375,7.71875 5.8861251,9.2047578 5.125,11.1068 5.125,13 l 0.03125,20.65625 a 0.86164406,0.86164406 0 0 0 0.125,0.4375 c 2.7905261,4.933693 5.976928,8.201872 9.9375,10.15625 3.706957,1.82923 8.126444,2.413814 13.34375,2.34375 -0.957138,5.31624 0.316954,8.854131 2.125,11.8125 C 21.416499,59.167027 13.148973,61.331521 5.59375,65.25 A 0.86164406,0.86164406 0 0 0 5.125,66 l 0,19 c 0,3.786401 3.0885995,6.875 6.875,6.875 l 7,0 a 0.86841833,0.86841833 0 0 0 0.25,-1.71875 C 16.140393,89.274284 13.99415,87.338224 12.625,85 c -1.36915,-2.338224 -1.927516,-5.069978 -1.84375,-7.375 0.224891,-6.188458 3.657589,-9.355615 8.625,-11.28125 4.887987,-1.894846 11.203283,-2.348725 16.8125,-2.71875 2.783538,2.128378 6.164496,4.079738 8.8125,6.5 2.740904,2.505171 4.648404,5.397009 4.46875,9.65625 -0.12111,2.871346 -0.405992,4.614232 -1.125,6.0625 -0.719008,1.448268 -1.898882,2.67749 -3.9375,4.5 A 0.86164406,0.86164406 0 0 0 45,91.875 l 4,0 3,0 a 0.86164406,0.86164406 0 0 0 0.65625,-0.3125 c 2.370602,-2.870981 5.075603,-6.464703 6.53125,-10.4375 1.084311,-3.213074 1.324731,-7.570875 0.5625,-10.8125 -1.221075,-5.193032 -4.533777,-9.371232 -11.9375,-15.34375 -2.936249,-2.36865 -4.514012,-3.787938 -5.25,-4.8125 -0.735988,-1.024562 -0.777635,-1.597244 -0.59375,-2.96875 0.2175,-1.622242 1.392946,-3.210988 4.84375,-6.125 6.22684,-5.287949 10.120223,-12.846729 8.5,-22.09375 -0.829721,-4.735424 -3.828503,-8.64493 -6.84375,-12.5 A 0.86164406,0.86164406 0 0 0 47.875,6.15625 L 38.4375,5.1875 A 0.86164406,0.86164406 0 0 0 38,5.0625 z M 27.59375,7.875 c 2.746228,-5.425e-4 4.503311,0.1806035 5.96875,0.9375 1.465439,0.7568965 2.768957,2.133662 4.53125,4.78125 2.285296,3.433327 3.813106,7.737349 4.40625,11.8125 0.593144,4.075151 0.218707,7.939411 -1.0625,10.46875 -1.243251,2.454416 -4.185226,4.548389 -7.65625,5.28125 C 30.99282,41.74499 28.464125,41.083473 26.125,39.5 23.785875,37.916527 21.671872,35.389204 20,32.28125 17.448805,27.538673 16.173244,20.418531 17.65625,14.46875 a 0.86164406,0.86164406 0 0 0 0,-0.03125 C 18.363428,11.409403 19.71045,9.8689171 21.4375,8.96875 23.16455,8.0685829 25.353404,7.877069 27.59375,7.875 z"
         id="path4019"
         style="opacity:0.15;fill:#000000;fill-opacity:1;fill-rule:nonzero;stroke:none" />
      <path
         d="M 38,5.9375 C 26.2934,5.957585 12,6 12,6 8.676,6 6,9.676 6,13 l 0.0313,20.65625 c 5.46615,9.664237 12.24137,12.478805 23.5,12.125 -1.47389,6.453933 0.35228,9.996302 2.59375,13.34375 C 22.36897,59.767648 13.82048,61.943947 6,66 l 0,19 c 0,3.324 2.676,6 6,6 l 7,0 C 12.3331,89.109092 9.72672,82.533951 9.90625,77.59375 10.37948,64.571584 25.07785,63.463771 36.4375,62.71875 41.94333,67.026548 50.75817,70.728314 50.375,79.8125 50.1289,85.647183 49.12156,87.315353 45,91 l 4,0 3,0 C 54.35046,88.153412 56.981,84.648298 58.375,80.84375 59.39217,77.82963 59.61751,73.524857 58.90625,70.5 57.73972,65.538941 54.63054,61.553608 47.28125,55.625 41.39081,50.873228 40.7371,49.955649 41.125,47.0625 41.38613,45.114836 42.75512,43.357481 46.25,40.40625 52.30759,35.262032 56.03531,28.065754 54.46875,19.125 53.68704,14.663588 50.79146,10.84863 47.78125,7 L 38,6 z M 27.59375,7 c 5.56824,-0.0011 7.62983,0.73317 11.21875,6.125 4.74012,7.121345 6.22045,17.56925 3.40625,23.125 -1.39589,2.755754 -4.55379,4.969594 -8.25,5.75 C 27.92085,43.276933 22.69185,39.085783 19.25,32.6875 16.5884,27.739685 15.26345,20.464749 16.8125,14.25 18.313695,7.8219681 23.01111,7.0042321 27.59375,7 z"
         inkscape:connector-curvature="0"
         id="path4015"
         style="opacity:0.3;fill:#000000;fill-opacity:1;fill-rule:nonzero;stroke:none" />
      <path
         d="M 38,5.9375 C 26.2934,5.957585 12,6 12,6 8.676,6 6,8.676 6,12 l 0.0313,20.65625 c 5.46615,9.664237 12.24137,12.478805 23.5,12.125 -1.47389,6.453933 0.35228,9.996302 2.59375,13.34375 C 22.36897,58.767648 13.82048,60.943947 6,65 l 0,19 c 0,3.324 2.676,6 6,6 l 7,0 C 12.3331,88.109092 9.72672,81.533951 9.90625,76.59375 10.37948,63.571584 25.07785,62.463771 36.4375,61.71875 41.94333,66.026548 50.75817,69.728314 50.375,78.8125 50.1289,84.647183 49.12156,86.315353 45,90 l 4,0 3,0 C 54.35046,87.153412 56.981,83.648298 58.375,79.84375 59.39217,76.82963 59.61751,72.524857 58.90625,69.5 57.73972,64.538941 54.63054,60.553608 47.28125,54.625 41.39081,49.873228 40.7371,48.955649 41.125,46.0625 41.38613,44.114836 42.75512,42.357481 46.25,39.40625 52.30759,34.262032 56.03531,27.065754 54.46875,18.125 53.68704,13.663588 50.79146,9.84863 47.78125,6 L 38,6 z M 27.59375,6 c 5.56824,-0.0011 7.62983,0.73317 11.21875,6.125 4.74012,7.121345 6.22045,17.56925 3.40625,23.125 -1.39589,2.755754 -4.55379,4.969594 -8.25,5.75 C 27.92085,42.276933 22.69185,38.085783 19.25,31.6875 16.5884,26.739685 15.26345,19.464749 16.8125,13.25 17.51866,10.416886 19.28712,8.431071 21.78125,7 23.44573,6.044958 23.69871,6.000745 27.59375,6 z"
         inkscape:connector-curvature="0"
         id="rect3064-7"
         style="fill:url(#linearGradient4040);fill-opacity:1;fill-rule:nonzero;stroke:none" />
    </g>
  </g>
</svg>
