<?xml version="1.0" encoding="utf-8"?>
<!-- Generator: Adobe Illustrator 15.0.2, SVG Export Plug-In . SVG Version: 6.00 Build 0)  -->
<!DOCTYPE svg PUBLIC "-//W3C//DTD SVG 1.1//EN" "http://www.w3.org/Graphics/SVG/1.1/DTD/svg11.dtd">
<svg version="1.1" id="_x30_1_8_" xmlns="http://www.w3.org/2000/svg" xmlns:xlink="http://www.w3.org/1999/xlink" x="0px" y="0px"
	 width="64px" height="64px" viewBox="0 0 64 64" enable-background="new 0 0 64 64" xml:space="preserve">
<path fill="#9CDAF1" d="M49.608,52.727c0,3.356-7.777,6.078-17.366,6.078c-9.592,0-17.366-2.722-17.366-6.078
	s7.774-6.077,17.366-6.077C41.831,46.649,49.608,49.37,49.608,52.727L49.608,52.727z M49.608,52.727"/>
<g>
	<defs>
		<path id="SVGID_1_" d="M49.608,52.727c0,3.356-7.777,6.078-17.366,6.078c-9.592,0-17.366-2.722-17.366-6.078
			s7.774-6.077,17.366-6.077C41.831,46.649,49.608,49.37,49.608,52.727L49.608,52.727z M49.608,52.727"/>
	</defs>
	<clipPath id="SVGID_2_">
		<use xlink:href="#SVGID_1_"  overflow="visible"/>
	</clipPath>
	<path clip-path="url(#SVGID_2_)" fill="#7DBBE6" d="M36.977,69.599c1.389-0.428,2.431-2.361,2.431-5.279v-9.937
		c0,0,0.153-1.852,1.852-2.468c0,0,1.003-0.695-0.077-1.081c0,0-4.706-0.387-4.706,3.473v8.16c0,0,0.187,2.104-0.927,2.97
		c0,0,0.618-1.889,0-9.297c0.015-0.831,0.076-2.238,1.234-3.087c0,0,0.772-1.39-0.925-1.004c0,0-3.241,0.464-3.396,4.244
		c0,0,0.204,6.838-0.074,9.492c-0.123,0.151-0.64,0.137-0.778,0c-0.693-1.737-0.074-9.492-0.074-9.492
		c-0.154-3.78-3.395-4.244-3.395-4.244c-1.698-0.386-0.926,1.004-0.926,1.004c1.157,0.849,1.234,3.087,1.234,3.087
		s-0.2,7.574,0,9.379c-0.95-0.305-0.926-3.052-0.926-3.052v-8.16c0-3.859-4.707-3.473-4.707-3.473
		c-1.081,0.386-0.078,1.081-0.078,1.081c1.698,0.616,1.853,2.468,1.853,2.468s0.05,10.729,0.179,11.733
		c0.234,1.829,1.195,3.167,2.27,3.494C29.417,70.334,34.603,70.329,36.977,69.599z"/>
</g>
<g id="_x30_1_5_">
	<g>
		<g>
			<path d="M11.517,45.118c1.384-2.725,4.084-5.415,7.401-4.786c2.792,0.53,4.635,1.626,7.335,0.135
				c1.57-0.867,0.465-3.671-1.244-2.952c-2.244,0.943-4.328,0.114-6.633-0.079c-1.424-0.12-2.884,0.555-4.087,1.225
				c-2.21,1.231-3.988,3.985-2.929,6.458C11.385,45.181,11.488,45.175,11.517,45.118L11.517,45.118z"/>
		</g>
	</g>
</g>
<g id="_x30_1_7_">
	<path d="M27.04,34.438c-1.074,0.327-2.036,1.665-2.27,3.494c-0.128,1.005-0.179,9.283-0.179,9.283s-0.154,1.852-1.853,2.468
		c0,0-1.003,0.695,0.078,1.081c0,0,4.707,0.387,4.707-3.473v-5.71c0,0-0.024-2.747,0.926-3.052c-0.2,1.805,0,9.379,0,9.379
		s-0.077,2.238-1.234,3.087c0,0-0.772,1.39,0.926,1.004c0,0,3.24-0.464,3.395-4.244c0,0-0.619-7.755,0.074-9.492
		c0.138-0.137,0.655-0.151,0.778,0c0.278,2.654,0.074,9.492,0.074,9.492c0.154,3.78,3.396,4.244,3.396,4.244
		c1.697,0.386,0.925-1.004,0.925-1.004c-1.158-0.849-1.22-2.256-1.234-3.087c0.618-7.408,0-9.297,0-9.297
		c1.113,0.865,0.927,2.97,0.927,2.97v5.71c0,3.859,4.706,3.473,4.706,3.473c1.08-0.386,0.077-1.081,0.077-1.081
		c-1.698-0.616-1.852-2.468-1.852-2.468v-7.486c0-2.918-1.042-4.852-2.431-5.279C34.603,33.719,29.417,33.714,27.04,34.438z"/>
	<g>
		<path fill="#C3E4D8" d="M12.422,41.132c0.153,0.115,0.143,0.389-0.024,0.61c-0.166,0.222-0.427,0.308-0.58,0.192
			c-0.154-0.116-0.142-0.39,0.024-0.61C12.009,41.103,12.269,41.017,12.422,41.132L12.422,41.132z M12.422,41.132"/>
		<path fill="#C3E4D8" d="M13.511,40.026c0.117,0.152,0.035,0.413-0.186,0.582c-0.219,0.169-0.493,0.183-0.609,0.031
			s-0.035-0.413,0.185-0.582S13.395,39.875,13.511,40.026L13.511,40.026z M13.511,40.026"/>
		<path fill="#C3E4D8" d="M14.733,39.081c0.093,0.167-0.026,0.413-0.268,0.549c-0.241,0.135-0.514,0.108-0.607-0.059
			s0.025-0.413,0.267-0.548C14.367,38.888,14.639,38.914,14.733,39.081L14.733,39.081z M14.733,39.081"/>
		<path fill="#C3E4D8" d="M16.104,38.428c0.058,0.182-0.109,0.398-0.372,0.481c-0.265,0.084-0.526,0.004-0.584-0.179
			c-0.058-0.185,0.109-0.4,0.373-0.484C15.785,38.163,16.046,38.243,16.104,38.428L16.104,38.428z M16.104,38.428"/>
		<path fill="#C3E4D8" d="M17.729,38.144c0,0.191-0.224,0.348-0.501,0.348c-0.276,0-0.502-0.156-0.502-0.348
			c0-0.192,0.226-0.348,0.502-0.348C17.505,37.796,17.729,37.951,17.729,38.144L17.729,38.144z M17.729,38.144"/>
		<path fill="#C3E4D8" d="M19.325,38.195c0,0.192-0.226,0.348-0.502,0.348c-0.277,0-0.502-0.155-0.502-0.348
			c0-0.191,0.225-0.347,0.502-0.347C19.1,37.849,19.325,38.004,19.325,38.195L19.325,38.195z M19.325,38.195"/>
		<path fill="#C3E4D8" d="M20.924,38.5c0,0.191-0.225,0.347-0.501,0.347c-0.278,0-0.503-0.155-0.503-0.347
			c0-0.192,0.225-0.348,0.503-0.348C20.7,38.152,20.924,38.308,20.924,38.5L20.924,38.5z M20.924,38.5"/>
		<path fill="#C3E4D8" d="M22.454,38.709c0,0.191-0.225,0.347-0.501,0.347c-0.278,0-0.503-0.155-0.503-0.347
			c0-0.192,0.225-0.348,0.503-0.348C22.229,38.361,22.454,38.517,22.454,38.709L22.454,38.709z M22.454,38.709"/>
		<path fill="#C3E4D8" d="M24.112,38.564c0,0.192-0.225,0.349-0.501,0.349c-0.278,0-0.502-0.156-0.502-0.349
			c0-0.191,0.224-0.348,0.502-0.348C23.887,38.217,24.112,38.373,24.112,38.564L24.112,38.564z M24.112,38.564"/>
	</g>
</g>
<g>
	<path d="M36.977,34.449c7.006-0.695,10.369-2.958,11.919-6.473c3.068,0.084,8.592,0.458,13.875,1.948l0.062-0.222
		c-5.253-1.481-10.74-1.865-13.839-1.955c0.146-0.355,0.274-0.724,0.389-1.104c3.141-0.134,8.394-0.133,13.508,0.89l0,0l0.046-0.228
		c-5.095-1.019-10.322-1.028-13.485-0.897c0.52-1.872,0.675-4.026,0.675-6.428c0-3.445-1.293-6.201-3.395-8.299
		c0.367-1.185,0.857-3.817-0.49-7.187c0,0-2.377-0.755-7.754,2.844c-2.107-0.527-4.349-0.786-6.593-0.786
		c-2.47,0-4.966,0.314-7.294,0.953c-5.549-3.787-7.999-3.011-7.999-3.011c-1.599,3.998-0.61,6.958-0.31,7.693
		c-1.879,2.028-3.026,4.618-3.026,7.792c0,2.396,0.272,4.546,0.938,6.414c-3.189-0.116-8.227-0.072-13.139,0.911l0.046,0.228
		c4.941-0.989,10.011-1.023,13.18-0.903c0.147,0.387,0.311,0.763,0.494,1.125c-3.135,0.101-8.487,0.5-13.618,1.948l0.063,0.222
		c5.17-1.458,10.57-1.848,13.675-1.942c1.873,3.492,5.565,5.746,12.136,6.455 M62.89,27.533"/>
	<path fill="#F4CBB2" d="M43.271,19.818c1.509,1.367,2.392,3.018,2.392,4.797c0,8.306-6.19,8.53-13.827,8.53
		c-7.638,0-13.828-1.15-13.828-8.53c0-1.767,0.87-3.408,2.361-4.77c2.486-2.269,6.693-1.067,11.467-1.067
		C36.591,18.778,40.782,17.564,43.271,19.818L43.271,19.818z M43.271,19.818"/>
	<path fill="#FFFFFF" d="M27.237,25.039c0,2.288-1.288,4.142-2.876,4.142c-1.59,0-2.879-1.854-2.879-4.142
		c0-2.287,1.289-4.141,2.879-4.141C25.949,20.898,27.237,22.751,27.237,25.039L27.237,25.039z M27.237,25.039"/>
	<path fill="#AD5B50" d="M26.314,25.09c0,1.525-0.859,2.761-1.918,2.761c-1.06,0-1.918-1.236-1.918-2.761
		c0-1.525,0.858-2.762,1.918-2.762C25.455,22.329,26.314,23.565,26.314,25.09L26.314,25.09z M26.314,25.09"/>
	<path fill="#FFFFFF" d="M42.674,25.039c0,2.288-1.288,4.142-2.878,4.142c-1.589,0-2.877-1.854-2.877-4.142
		c0-2.287,1.288-4.141,2.877-4.141C41.386,20.898,42.674,22.751,42.674,25.039L42.674,25.039z M42.674,25.039"/>
	<path fill="#AD5B50" d="M41.751,25.09c0,1.525-0.859,2.761-1.919,2.761s-1.919-1.236-1.919-2.761c0-1.525,0.859-2.762,1.919-2.762
		S41.751,23.565,41.751,25.09L41.751,25.09z M41.751,25.09"/>
	<path fill="#AD5B50" d="M32.597,28.717c0,0.397-0.322,0.72-0.72,0.72s-0.72-0.322-0.72-0.72s0.322-0.719,0.72-0.719
		S32.597,28.319,32.597,28.717L32.597,28.717z M32.597,28.717"/>
	<path fill="#AD5B50" d="M30.2,30.536c-0.042-0.121,0.021-0.253,0.141-0.295c0.121-0.043,0.253,0.021,0.295,0.141
		c0.186,0.523,0.682,0.874,1.234,0.874c0.554,0,1.05-0.351,1.235-0.874c0.042-0.121,0.175-0.184,0.295-0.141
		c0.12,0.042,0.184,0.174,0.141,0.295c-0.25,0.707-0.922,1.182-1.671,1.182C31.122,31.718,30.451,31.243,30.2,30.536L30.2,30.536z
		 M30.2,30.536"/>
</g>
</svg>
