<svg height="200" width="200" xmlns="http://www.w3.org/2000/svg"><g transform="matrix(1.06305 0 0 1.0583213 -5.0314226 -5.3671576)"><path d="m62.034765 31.654913c-21.145729 0-38.766451 8.97108-38.766451 36.036419 0 21.441707 11.84866 34.944408 39.312457 34.944408 32.326175 0 34.3984-21.29425 34.3984-21.29425h-15.663557c0 0-3.358398 11.466134-19.690354 11.466134-13.301932 0-22.869203-8.985845-22.869203-21.580814h59.861133v-7.903529c0-12.460384-7.91007-31.668368-36.582425-31.668368zm-.546007 10.101117c12.662062 0 21.294248 7.757047 21.294248 19.383225h-43.680508c0-12.34261 11.267202-19.383225 22.38626-19.383225z" fill="#e53238"/><path d="m98.606079 5.4466074v83.5970236c0 4.745232-.338677 11.408079-.338677 11.408079h14.939728c0 0 .53624-4.78535.53624-9.158697 0 0 7.3812 11.547477 27.45121 11.547477 21.13453 0 35.49041-14.673014 35.49041-35.695165 0-19.556604-13.18634-35.28566-35.45629-35.28566-20.85424 0-27.33444 11.261381-27.33444 11.261381v-37.6744386zm38.766451 36.7530526c14.35199 0 23.47828 10.651661 23.47828 24.945665 0 15.327725-10.54056 25.35517-23.3759 25.35517-15.31786 0-23.58065-11.960116-23.58065-25.218668 0-12.354387 7.41445-25.082167 23.47827-25.082167z" fill="#0064d2"/><path d="m62.328268 99.971745c-31.81215 0-33.85239 17.418775-33.85239 20.202225h15.83418c0 0 .83034-10.16936 16.9262-10.16936 10.45935 0 18.56422 4.78741 18.56422 13.99141v3.27604h-18.56422c-24.64532 0-37.67444 7.20973-37.67444 21.84025 0 14.39854 12.03849 22.2327 28.30702 22.2327 22.17148 0 29.31371-12.25102 29.31371-12.25102 0 4.87278.37568 9.67455.37568 9.67455h14.07643c0 0-.54601-5.95194-.54601-9.75986v-32.91395c0-21.58122-17.40751-26.122985-32.76038-26.122985zm17.47221 37.128425v4.36805c0 5.69713-3.51553 19.86098-24.21197 19.86098-11.3333 0-16.1925-5.65615-16.1925-12.21689 0-11.93527 16.36378-12.01214 40.40447-12.01214z" fill="#f5af02"/><path d="m86.562178 102.70453h17.813462l25.56479 51.21734 25.5063-51.21734h16.13644l-46.45929 91.18302h-16.9262l13.40641-25.41851z" fill="#86b817"/></g></svg>