<svg height="96" width="96" xmlns="http://www.w3.org/2000/svg" xmlns:xlink="http://www.w3.org/1999/xlink"><linearGradient id="a"><stop offset="0" stop-color="#fff"/><stop offset="1" stop-color="#fff" stop-opacity="0"/></linearGradient><linearGradient id="b" gradientUnits="userSpaceOnUse" x1="36.357143" x2="36.357143" xlink:href="#a" y1="6" y2="63.893143"/><filter id="c" color-interpolation-filters="sRGB" height="1.3839999" width="1.3839999" x="-.192" y="-.192"><feGaussianBlur stdDeviation="5.28"/></filter><linearGradient id="d" gradientUnits="userSpaceOnUse" x1="48" x2="48" xlink:href="#a" y1="20.220806" y2="138.66119"/><radialGradient id="e" cx="48" cy="90.171875" gradientTransform="matrix(1.1573129 0 0 .99590774 -7.5510206 .19713193)" gradientUnits="userSpaceOnUse" r="42" xlink:href="#a"/><clipPath id="f"><rect height="84" rx="6" width="84" x="6" y="6"/></clipPath><linearGradient id="g" gradientTransform="matrix(1.0058652 0 0 .994169 100 0)" gradientUnits="userSpaceOnUse" x1="45.447727" x2="45.447727" y1="92.539597" y2="7.0165396"><stop offset="0"/><stop offset="1" stop-opacity=".58823532"/></linearGradient><linearGradient id="h" gradientTransform="matrix(1.0238095 0 0 1.0119048 -1.1428571 -98.071429)" gradientUnits="userSpaceOnUse" x1="32.251034" x2="32.251034" xlink:href="#g" y1="6.1317081" y2="90.238609"/><linearGradient id="i" gradientTransform="translate(0 -97)" gradientUnits="userSpaceOnUse" x1="32.251034" x2="32.251034" xlink:href="#g" y1="6.1317081" y2="90.238609"/><linearGradient id="j" gradientUnits="userSpaceOnUse" x1="-90" x2="-6" y1="48" y2="48"><stop offset="0" stop-color="#028537"/><stop offset="1" stop-color="#03b035"/></linearGradient><linearGradient id="k" gradientUnits="userSpaceOnUse" x1="18.07872" x2="18.215158" y1="59.01622" y2="6.6697359"><stop offset="0" stop-color="#005ec0"/><stop offset="1" stop-color="#0072ea"/></linearGradient><linearGradient id="l" gradientUnits="userSpaceOnUse" x1="23.362806" x2="27.000059" y1="90.200294" y2="62.572609"><stop offset="0" stop-color="#e8ac0c"/><stop offset="1" stop-color="#e8db0c"/></linearGradient><linearGradient id="m" gradientUnits="userSpaceOnUse" x1="69.788139" x2="69.788139" y1="35.460526" y2="5.5467491"><stop offset="0" stop-color="#df1a1a"/><stop offset="1" stop-color="#e44848"/></linearGradient><linearGradient id="n" gradientUnits="userSpaceOnUse" x1="24.065893" x2="24.065893" y1="5.1119947" y2="90.059601"><stop offset="0" stop-color="#fff"/><stop offset="1" stop-color="#f0f0f0"/></linearGradient><clipPath id="o"><rect height="84" rx="6.0999999" transform="rotate(-90)" width="84" x="-90" y="6"/></clipPath><path d="m12-95.03125c-5.5110903 0-10.03125 4.52016-10.03125 10.03125v71c0 5.5110902 4.5201598 10.03125 10.03125 10.03125h72c5.51109 0 10.03125-4.5201597 10.03125-10.03125v-71c0-5.51109-4.52016-10.03125-10.03125-10.03125z" fill="url(#h)" opacity=".07999998" transform="scale(1 -1)"/><path d="m12-94.03125c-4.971633 0-9.03125 4.059617-9.03125 9.03125v71c0 4.9716329 4.0596171 9.03125 9.03125 9.03125h72c4.971633 0 9.03125-4.059617 9.03125-9.03125v-71c0-4.971633-4.059617-9.03125-9.03125-9.03125z" fill="url(#h)" opacity=".1" transform="scale(1 -1)"/><path d="m12-93c-4.4091333 0-8 3.590867-8 8v71c0 4.4091333 3.5908667 8 8 8h72c4.409133 0 8-3.5908667 8-8v-71c0-4.409133-3.590867-8-8-8z" fill="url(#h)" opacity=".2" transform="scale(1 -1)"/><rect fill="url(#h)" height="85" opacity=".3" rx="7" transform="scale(1 -1)" width="86" x="5" y="-92"/><rect fill="url(#i)" height="84" opacity=".45" rx="6" transform="scale(1 -1)" width="84" x="6" y="-91"/><rect fill="url(#j)" height="84" rx="6.0999999" transform="rotate(-90)" width="84" x="-90" y="6"/><path d="m19 90c-6.6669-1.89091-9.2686-8.4577-9.08907-13.3979.47323-13.02217 15.16666-14.13995 26.52631-14.88497 5.50583 4.3078 14.32382 8.01218 13.94065 17.09637-.2461 5.83468-1.25633 7.50185-5.37789 11.1865-.29479.11316-5.32846.0123-12 0-9.46954-.0175-12 0-14 0z" fill="url(#l)"/><path d="m47.78125 6c3.01021 3.8486299 5.90579 7.663588 6.6875 12.125 1.27283 7.264363-.93527 13.391372-5.0625 18.1875 6.81086-6.719785 13.61684-7.208144 20.9375-6.90625 10.48649.43245 15.30473 4.620624 19.65625 8.59375v-26c0-3.324-2.676-6-6-6z" fill="url(#m)"/><path d="m27.59375 6c-3.89504.000746-4.14802.04496-5.8125 1-2.49413 1.431071-4.26259 3.416886-4.96875 6.25-1.54905 6.214749-.2241 13.489685 2.4375 18.4375 3.44185 6.398283 8.67085 10.589433 14.71875 9.3125 3.69621-.780406 6.85411-2.994246 8.25-5.75 2.8142-5.55575 1.33387-16.003655-3.40625-23.125-3.58892-5.39183-5.65051-6.126066-11.21875-6.125zm-21.57241 26.64787l-.12119 32.379568c7.84417-4.085432 16.42251-6.250306 26.21486-6.89535-2.24147-3.347448-4.05765-6.896905-2.58376-13.350838-11.25863.353805-18.04376-2.469143-23.50991-12.13338z" fill="url(#k)"/><path d="m12 6c-3.324 0-6 2.676-6 6v2 68 2c0 .334721.04135.6507.09375.96875.0487.295596.09704.596915.1875.875.00988.03038.020892.0636.03125.09375.098865.287771.2348802.547452.375.8125.1445918.273507.3156161.535615.5.78125.1843839.245635.3737765.473472.59375.6875.439947.428056.94291.814526 1.5 1.09375.278545.139612.5734731.246947.875.34375-.2562018-.100222-.4867109-.236272-.71875-.375-.00741-.0044-.023866.0045-.03125 0-.031933-.0193-.062293-.04251-.09375-.0625-.120395-.0767-.2310226-.163513-.34375-.25-.1061728-.0808-.2132809-.161112-.3125-.25-.1779299-.161433-.3474596-.345388-.5-.53125-.1075789-.130255-.2183939-.265285-.3125-.40625-.025089-.03838-.038446-.08587-.0625-.125-.064763-.103032-.1302275-.204517-.1875-.3125-.1010083-.194706-.2056748-.415701-.28125-.625-.00796-.02181-.023589-.04055-.03125-.0625-.0318251-.09195-.0358045-.186831-.0625-.28125-.0303323-.106618-.0703894-.203031-.09375-.3125-.0728786-.341512-.125-.698205-.125-1.0625v-2-68-2c0-2.781848 2.2181517-5 5-5h2 68 2c2.781848 0 5 2.218152 5 5v2 68 2c0 .364295-.05212.720988-.125 1.0625-.04415.206893-.08838.397658-.15625.59375-.0077.02195-.0233.04069-.03125.0625-.06274.173739-.138383.367449-.21875.53125-.04158.0828-.07904.169954-.125.25-.0546.09721-.126774.18835-.1875.28125-.09411.140965-.204921.275995-.3125.40625-.143174.17445-.303141.346998-.46875.5-.01117.0102-.01998.02115-.03125.03125-.138386.125556-.285091.234436-.4375.34375-.102571.07315-.204318.153364-.3125.21875-.0074.0045-.02384-.0044-.03125 0-.232039.138728-.462548.274778-.71875.375.301527-.0968.596455-.204138.875-.34375.55709-.279224 1.060053-.665694 1.5-1.09375.219973-.214028.409366-.441865.59375-.6875.184384-.245635.355408-.507743.5-.78125.14012-.265048.276135-.524729.375-.8125.01041-.03078.02133-.06274.03125-.09375.09046-.278085.1388-.579404.1875-.875.0524-.31805.09375-.634029.09375-.96875v-2-68-2c0-3.324-2.676-6-6-6z" fill="url(#b)" opacity=".3"/><path d="m12 90c-3.324 0-6-2.676-6-6v-2-68-2c0-.334721.04135-.6507.09375-.96875.0487-.295596.09704-.596915.1875-.875.00988-.03038.020892-.0636.03125-.09375.098865-.287771.2348802-.547452.375-.8125.1445918-.273507.3156161-.535615.5-.78125.1843839-.245635.3737765-.473472.59375-.6875.439947-.428056.94291-.814526 1.5-1.09375.278545-.139612.5734731-.246947.875-.34375-.2562018.100222-.4867109.236272-.71875.375-.00741.0044-.023866-.0045-.03125 0-.031933.0193-.062293.04251-.09375.0625-.120395.0767-.2310226.163513-.34375.25-.1061728.0808-.2132809.161112-.3125.25-.1779299.161433-.3474596.345388-.5.53125-.1075789.130255-.2183939.265285-.3125.40625-.025089.03838-.038446.08587-.0625.125-.064763.103032-.1302275.204517-.1875.3125-.1010083.194706-.2056748.415701-.28125.625-.00796.02181-.023589.04055-.03125.0625-.0318251.09195-.0358045.186831-.0625.28125-.0303323.106618-.0703894.203031-.09375.3125-.0728786.341512-.125.698205-.125 1.0625v2 68 2c0 2.781848 2.2181517 5 5 5h2 68 2c2.781848 0 5-2.218152 5-5v-2-68-2c0-.364295-.05212-.720988-.125-1.0625-.04415-.206893-.08838-.397658-.15625-.59375-.0077-.02195-.0233-.04069-.03125-.0625-.06274-.173739-.138383-.367449-.21875-.53125-.04158-.0828-.07904-.169954-.125-.25-.0546-.09721-.126774-.18835-.1875-.28125-.09411-.140965-.204921-.275995-.3125-.40625-.143174-.17445-.303141-.346998-.46875-.5-.01117-.0102-.01998-.02115-.03125-.03125-.138386-.125556-.285091-.234436-.4375-.34375-.102571-.07315-.204318-.153364-.3125-.21875-.0074-.0045-.02384.0044-.03125 0-.232039-.138728-.462548-.274778-.71875-.375.301527.0968.596455.204138.875.34375.55709.279224 1.060053.665694 1.5 1.09375.219973.214028.409366.441865.59375.6875.184384.245635.355408.507743.5.78125.14012.265048.276135.524729.375.8125.01041.03078.02133.06274.03125.09375.09046.278085.1388.579404.1875.875.0524.31805.09375.634029.09375.96875v2 68 2c0 3.324-2.676 6-6 6z" fill="url(#e)" opacity=".15"/><rect height="66" rx="12" style="opacity:.1;stroke:#fff;stroke-width:.5;stroke-linecap:round;clip-path:url(#f);fill:url(#d);filter:url(#c)" width="66" x="15" y="15"/><g clip-path="url(#o)"><path d="m38 3.03125c-9.073884.0971455-18.222443-.1290153-27.34375.1875a.96877063.96877063 0 0 0 -.1875.03125c-2.664719.5879185-4.6728306 2.3537338-5.90625 4.53125-1.2179116 2.1501381-1.7113092 4.69069-1.46875 7.125.00025.03111-.0002423.06264 0 .09375.04968 6.377937-.060874 12.810706.09375 19.21875a.96877063.96877063 0 0 0  .09375.40625c3.4174509 6.862028 9.882695 12.645504 17.875 13.5.0411.0044.08382-.0041.125 0 .02163.0062.04081.02533.0625.03125 1.617593.441432 3.400001.16665 4.4375.3125.53881.07574.702291.199836.75.28125.04671.07971.136099.511039-.1875 1.4375-.0069.01981.0073.01093 0 .03125-.36143 1.01344-.155389 2.040568.125 2.96875.283237.937608.682113 1.813806.9375 2.53125.248793.69892.22133 1.164338.25 1.125-.116864.03426-.425769.0595-.9375 0a .96877063.96877063 0 0 0 -.25 0c-7.663779 1.037506-15.415229 3.019481-22.25 6.90625a.96877063.96877063 0 0 0 -.21875.1875c-.8559369.890332-.9972889 2.034838-.96875 2.96875.028539.933912.1495516 1.757075.0625 2.3125a.96877063.96877063 0 0 0 0 .15625c.0899277 5.692025-.2019032 11.490833.15625 17.28125a.96877063.96877063 0 0 0 0 .09375c.848573 4.799952 5.7014749 7.689246 10.28125 7.15625.02083-.0024.04168.0026.0625 0 2.008143-.09393 4.232487.252141 6.53125-.15625a.96877063.96877063 0 0 0  .21875-.09375c2.464433-1.06622 2.014266-4.977081-.59375-5.4375v-.03125c-7.789763-2.04745-9.555005-14.743508-2.34375-18.625 5.369609-3.054395 11.905265-3.333479 18.25-3.84375 2.258384 1.716354 4.800506 3.236811 6.9375 4.96875 2.216301 1.796214 3.955784 3.783354 4.65625 6.5.0025.0096-.0024.02167 0 .03125.557503 3.872675.101559 8.237675-3.03125 10.5625-.810828.48723-1.530667 1.246497-1.90625 2.1875-.39006.977276-.273913 2.307295.6875 3.1875a.96877063.96877063 0 0 0  .125.09375c1.002396.684472 2.12552.720546 3.09375.6875.96823-.03305 1.8367-.12003 2.5-.03125a.96877063.96877063 0 0 0  .21875 0c .673626-.06745 1.701445.09318 2.78125.03125 1.030165-.05908 2.223587-.517599 2.9375-1.65625l.03125.03125c.0386-.04543.05525-.110615.09375-.15625 4.462598-5.289419 8.261891-11.972957 7.40625-19.375-.0013-.02106.0013-.04147 0-.0625-.558455-8.763878-7.490624-14.925384-13.59375-19.78125-.0056-.0047-.02559.0047-.03125 0-1.282004-1.06039-2.984547-2.307131-3.90625-3.53125-.462888-.614764-.703507-1.160436-.71875-1.6875-.01524-.527064.161432-1.104043.84375-1.84375 3.257259-3.533448 7.67058-6.473542 10.03125-11.375.01038-.02156.02094-.04086.03125-.0625 4.321765-7.807545 3.834671-17.998136-1.6875-25.125a.96877063.96877063 0 0 0 -.0625-.0625c-.589306-.6236916-1.151395-1.5949669-1.8125-2.5625-.661105-.9675331-1.47678-1.9825462-2.78125-2.46875a.96877063.96877063 0 0 0 -.21875-.0625c-3.41943-.4228531-6.853949-.616681-10.125-1.125a.96877063.96877063 0 0 0 -.15625 0zm-10.4375 6.875a.96877063.96877063 0 0 0  .125 0c3.260719-.3570854 6.474706.956219 8.03125 3.84375a.96877063.96877063 0 0 0  .03125.09375c4.060075 5.929136 6.330415 13.805265 4.03125 20.65625-2.235908 4.613446-9.348957 6.428846-13.21875 2.8125a.96877063.96877063 0 0 0 -.03125-.03125c-6.562457-5.598461-8.994432-15.576704-6.46875-23.71875.436542-1.527773 1.427628-2.407496 2.8125-2.96875 1.384872-.561254 3.128941-.728965 4.6875-.6875z" opacity=".05"/><path d="m38 4c-9.096799.0973908-18.215503-.1218689-27.298345.1933116-4.7412481 1.0460643-7.1219602 6.1982744-6.6362746 10.7106564.0516408 6.425182-.0638579 12.871207.0908696 19.283532 3.3236877 6.673757 9.615012 12.263013 17.283095 13.004051 2.610353.811951 7.398753-1.049903 5.820664 3.336535-1.012814 2.751686 4.031086 7.829885-.667337 7.283594-7.587596 1.027193-15.222007 2.981516-21.905172 6.78207-1.2108294 1.259485-.379892 3.227197-.625 4.791086.090602 5.734702-.1918945 11.493188.161781 17.211213.7519107 4.253182 5.1395417 6.848767 9.256585 6.341451 2.155382-.110331 4.378483.2185 6.487884-.15625 1.638829-.709028 1.326752-3.441518-.46875-3.65625-8.684662-2.282664-10.582753-16.089345-2.556898-20.409299 5.737722-3.263789 12.544753-3.470939 18.963148-3.996951 4.52573 3.532767 10.824394 6.251765 12.324903 12.333019.590606 4.060148.100688 8.871781-3.458523 11.513035-1.306177.744546-2.472937 2.630724-1.11638 3.872696 1.490159 1.017535 3.482058.272345 5.182941.5 1.734878-.173714 4.074025.66075 5.113836-1.240376 4.439063-5.224131 8.096299-11.767218 7.251057-18.860639-.500352-8.319573-7.148802-14.300604-13.235603-19.142217-2.454516-2.033471-7.144047-4.962553-3.915451-8.462701 3.378775-3.665267 7.706717-6.574248 9.915815-11.213013 4.166693-7.471562 3.685277-17.316273-1.59215-24.1272729-1.428167-1.5115005-2.196936-4.012076-4.220445-4.7662811-3.37514-.4173761-6.820541-.6066331-10.15625-1.125zm-10.40625 4.9375c3.590191-.3931662 7.210512 1.075546 8.972294 4.343812 4.215699 6.156402 6.607121 14.391326 4.104398 21.662167-2.534896 5.23036-10.350148 7.205096-14.750969 3.092501-6.899945-5.886374-9.430109-16.244237-6.786996-24.764844 1.048118-3.6681179 5.172883-4.4211227 8.461273-4.333636z" opacity=".1"/><path d="m38 5.0625c-11.707478.0200865-26 .0625-26 .0625-1.979598 0-3.6986251 1.1077422-4.90625 2.59375-1.2076249 1.4860078-1.96875 3.38805-1.96875 5.28125l.03125 20.65625a.86164406.86164406 0 0 0  .125.4375c2.7905261 4.933693 5.976928 8.201872 9.9375 10.15625 3.706957 1.82923 8.126444 2.413814 13.34375 2.34375-.957138 5.31624.316954 8.854131 2.125 11.8125-9.271001.760777-17.538527 2.925271-25.09375 6.84375a.86164406.86164406 0 0 0 -.46875.75v19c0 3.786401 3.0885995 6.875 6.875 6.875h7a .86841833.86841833 0 0 0  .25-1.71875c-3.109607-.881966-5.25585-2.818026-6.625-5.15625-1.36915-2.338224-1.927516-5.069978-1.84375-7.375.224891-6.188458 3.657589-9.355615 8.625-11.28125 4.887987-1.894846 11.203283-2.348725 16.8125-2.71875 2.783538 2.128378 6.164496 4.079738 8.8125 6.5 2.740904 2.505171 4.648404 5.397009 4.46875 9.65625-.12111 2.871346-.405992 4.614232-1.125 6.0625-.719008 1.448268-1.898882 2.67749-3.9375 4.5a.86164406.86164406 0 0 0  .5625 1.53125h4 3a .86164406.86164406 0 0 0  .65625-.3125c2.370602-2.870981 5.075603-6.464703 6.53125-10.4375 1.084311-3.213074 1.324731-7.570875.5625-10.8125-1.221075-5.193032-4.533777-9.371232-11.9375-15.34375-2.936249-2.36865-4.514012-3.787938-5.25-4.8125-.735988-1.024562-.777635-1.597244-.59375-2.96875.2175-1.622242 1.392946-3.210988 4.84375-6.125 6.22684-5.287949 10.120223-12.846729 8.5-22.09375-.829721-4.735424-3.828503-8.64493-6.84375-12.5a.86164406.86164406 0 0 0 -.59375-.3125l-9.4375-.96875a.86164406.86164406 0 0 0 -.4375-.125zm-10.40625 2.8125c2.746228-.0005425 4.503311.1806035 5.96875.9375 1.465439.7568965 2.768957 2.133662 4.53125 4.78125 2.285296 3.433327 3.813106 7.737349 4.40625 11.8125.593144 4.075151.218707 7.939411-1.0625 10.46875-1.243251 2.454416-4.185226 4.548389-7.65625 5.28125-2.78843.58874-5.317125-.072777-7.65625-1.65625-2.339125-1.583473-4.453128-4.110796-6.125-7.21875-2.551195-4.742577-3.826756-11.862719-2.34375-17.8125a.86164406.86164406 0 0 0 0-.03125c.707178-3.028097 2.0542-4.5685829 3.78125-5.46875 1.72705-.9001671 3.915904-1.091681 6.15625-1.09375z" opacity=".15"/><path d="m38 5.9375c-11.7066.020085-26 .0625-26 .0625-3.324 0-6 3.676-6 7l .0313 20.65625c5.46615 9.664237 12.24137 12.478805 23.5 12.125-1.47389 6.453933.35228 9.996302 2.59375 13.34375-9.75608.642648-18.30457 2.818947-26.12505 6.875v19c0 3.324 2.676 6 6 6h7c-6.6669-1.890908-9.27328-8.466049-9.09375-13.40625.47323-13.022166 15.1716-14.129979 26.53125-14.875 5.50583 4.307798 14.32067 8.009564 13.9375 17.09375-.2461 5.834683-1.25344 7.502853-5.375 11.1875h4 3c2.35046-2.846588 4.981-6.351702 6.375-10.15625 1.01717-3.01412 1.24251-7.318893.53125-10.34375-1.16653-4.961059-4.27571-8.946392-11.625-14.875-5.89044-4.751772-6.54415-5.669351-6.15625-8.5625.26113-1.947664 1.63012-3.705019 5.125-6.65625 6.05759-5.144218 9.78531-12.340496 8.21875-21.28125-.78171-4.461412-3.67729-8.27637-6.6875-12.125l-9.78125-1zm-10.40625 1.0625c5.56824-.0011 7.62983.73317 11.21875 6.125 4.74012 7.121345 6.22045 17.56925 3.40625 23.125-1.39589 2.755754-4.55379 4.969594-8.25 5.75-6.0479 1.276933-11.2769-2.914217-14.71875-9.3125-2.6616-4.947815-3.98655-12.222751-2.4375-18.4375 1.501195-6.4280319 6.19861-7.2457679 10.78125-7.25z" opacity=".3"/><path d="m38 5.9375c-11.7066.020085-26 .0625-26 .0625-3.324 0-6 2.676-6 6l .0313 20.65625c5.46615 9.664237 12.24137 12.478805 23.5 12.125-1.47389 6.453933.35228 9.996302 2.59375 13.34375-9.75608.642648-18.30457 2.818947-26.12505 6.875v19c0 3.324 2.676 6 6 6h7c-6.6669-1.890908-9.27328-8.466049-9.09375-13.40625.47323-13.022166 15.1716-14.129979 26.53125-14.875 5.50583 4.307798 14.32067 8.009564 13.9375 17.09375-.2461 5.834683-1.25344 7.502853-5.375 11.1875h4 3c2.35046-2.846588 4.981-6.351702 6.375-10.15625 1.01717-3.01412 1.24251-7.318893.53125-10.34375-1.16653-4.961059-4.27571-8.946392-11.625-14.875-5.89044-4.751772-6.54415-5.669351-6.15625-8.5625.26113-1.947664 1.63012-3.705019 5.125-6.65625 6.05759-5.144218 9.78531-12.340496 8.21875-21.28125-.78171-4.461412-3.67729-8.27637-6.6875-12.125h-9.78125zm-10.40625.0625c5.56824-.0011 7.62983.73317 11.21875 6.125 4.74012 7.121345 6.22045 17.56925 3.40625 23.125-1.39589 2.755754-4.55379 4.969594-8.25 5.75-6.0479 1.276933-11.2769-2.914217-14.71875-9.3125-2.6616-4.947815-3.98655-12.222751-2.4375-18.4375.70616-2.833114 2.47462-4.818929 4.96875-6.25 1.66448-.955042 1.91746-.999255 5.8125-1z" fill="url(#n)"/></g></svg>