<svg enable-background="new 0 0 64 64" height="64" viewBox="0 0 64 64" width="64" xmlns="http://www.w3.org/2000/svg" xmlns:xlink="http://www.w3.org/1999/xlink"><path d="m49.608 52.727c0 3.356-7.777 6.078-17.366 6.078-9.592 0-17.366-2.722-17.366-6.078s7.774-6.077 17.366-6.077c9.589-.001 17.366 2.72 17.366 6.077zm0 0" fill="#9cdaf1"/><defs><path id="a" d="m49.608 52.727c0 3.356-7.777 6.078-17.366 6.078-9.592 0-17.366-2.722-17.366-6.078s7.774-6.077 17.366-6.077c9.589-.001 17.366 2.72 17.366 6.077zm0 0"/><clipPath id="b"><use overflow="visible" xlink:href="#a"/></clipPath></defs><path clip-path="url(#b)" d="m36.977 69.599c1.389-.428 2.431-2.361 2.431-5.279v-9.937c0 0 .153-1.852 1.852-2.468 0 0 1.003-.695-.077-1.081 0 0-4.706-.387-4.706 3.473v8.16c0 0 .187 2.104-.927 2.97 0 0 .618-1.889 0-9.297.015-.831.076-2.238 1.234-3.087 0 0 .772-1.39-.925-1.004 0 0-3.241.464-3.396 4.244 0 0 .204 6.838-.074 9.492-.123.151-.64.137-.778 0-.693-1.737-.074-9.492-.074-9.492-.154-3.78-3.395-4.244-3.395-4.244-1.698-.386-.926 1.004-.926 1.004 1.157.849 1.234 3.087 1.234 3.087s-.2 7.574 0 9.379c-.95-.305-.926-3.052-.926-3.052v-8.16c0-3.859-4.707-3.473-4.707-3.473-1.081.386-.078 1.081-.078 1.081 1.698.616 1.853 2.468 1.853 2.468s.05 10.729.179 11.733c.234 1.829 1.195 3.167 2.27 3.494 2.376.724 7.562.719 9.936-.011z" fill="#7dbbe6"/><path d="m11.517 45.118c1.384-2.725 4.084-5.415 7.401-4.786 2.792.53 4.635 1.626 7.335.135 1.57-.867.465-3.671-1.244-2.952-2.244.943-4.328.114-6.633-.079-1.424-.12-2.884.555-4.087 1.225-2.21 1.231-3.988 3.985-2.929 6.458.025.062.128.056.157-.001z"/><path d="m27.04 34.438c-1.074.327-2.036 1.665-2.27 3.494-.128 1.005-.179 9.283-.179 9.283s-.154 1.852-1.853 2.468c0 0-1.003.695.078 1.081 0 0 4.707.387 4.707-3.473v-5.71c0 0-.024-2.747.926-3.052-.2 1.805 0 9.379 0 9.379s-.077 2.238-1.234 3.087c0 0-.772 1.39.926 1.004 0 0 3.24-.464 3.395-4.244 0 0-.619-7.755.074-9.492.138-.137.655-.151.778 0 .278 2.654.074 9.492.074 9.492.154 3.78 3.396 4.244 3.396 4.244 1.697.386.925-1.004.925-1.004-1.158-.849-1.22-2.256-1.234-3.087.618-7.408 0-9.297 0-9.297 1.113.865.927 2.97.927 2.97v5.71c0 3.859 4.706 3.473 4.706 3.473 1.08-.386.077-1.081.077-1.081-1.698-.616-1.852-2.468-1.852-2.468v-7.486c0-2.918-1.042-4.852-2.431-5.279-2.373-.731-7.559-.736-9.936-.012z"/><path d="m12.422 41.132c.153.115.143.389-.024.61-.166.222-.427.308-.58.192-.154-.116-.142-.39.024-.61.167-.221.427-.307.58-.192zm0 0" fill="#c3e4d8"/><path d="m13.511 40.026c.117.152.035.413-.186.582-.219.169-.493.183-.609.031s-.035-.413.185-.582.494-.182.61-.031zm0 0" fill="#c3e4d8"/><path d="m14.733 39.081c.093.167-.026.413-.268.549-.241.135-.514.108-.607-.059s.025-.413.267-.548c.242-.135.514-.109.608.058zm0 0" fill="#c3e4d8"/><path d="m16.104 38.428c.058.182-.109.398-.372.481-.265.084-.526.004-.584-.179-.058-.185.109-.4.373-.484.264-.083.525-.003.583.182zm0 0" fill="#c3e4d8"/><path d="m17.729 38.144c0 .191-.224.348-.501.348-.276 0-.502-.156-.502-.348 0-.192.226-.348.502-.348.277 0 .501.155.501.348zm0 0" fill="#c3e4d8"/><path d="m19.325 38.195c0 .192-.226.348-.502.348-.277 0-.502-.155-.502-.348 0-.191.225-.347.502-.347.277.001.502.156.502.347zm0 0" fill="#c3e4d8"/><path d="m20.924 38.5c0 .191-.225.347-.501.347-.278 0-.503-.155-.503-.347 0-.192.225-.348.503-.348.277 0 .501.156.501.348zm0 0" fill="#c3e4d8"/><path d="m22.454 38.709c0 .191-.225.347-.501.347-.278 0-.503-.155-.503-.347 0-.192.225-.348.503-.348.276 0 .501.156.501.348zm0 0" fill="#c3e4d8"/><path d="m24.112 38.564c0 .192-.225.349-.501.349-.278 0-.502-.156-.502-.349 0-.191.224-.348.502-.348.276.001.501.157.501.348zm0 0" fill="#c3e4d8"/><path d="m36.977 34.449c7.006-.695 10.369-2.958 11.919-6.473 3.068.084 8.592.458 13.875 1.948l.062-.222c-5.253-1.481-10.74-1.865-13.839-1.955.146-.355.274-.724.389-1.104 3.141-.134 8.394-.133 13.508.89l0 0 .046-.228c-5.095-1.019-10.322-1.028-13.485-.897.52-1.872.675-4.026.675-6.428 0-3.445-1.293-6.201-3.395-8.299.367-1.185.857-3.817-.49-7.187 0 0-2.377-.755-7.754 2.844-2.107-.527-4.349-.786-6.593-.786-2.47 0-4.966.314-7.294.953-5.549-3.787-7.999-3.011-7.999-3.011-1.599 3.998-.61 6.958-.31 7.693-1.879 2.028-3.026 4.618-3.026 7.792 0 2.396.272 4.546.938 6.414-3.189-.116-8.227-.072-13.139.911l.046.228c4.941-.989 10.011-1.023 13.18-.903.147.387.311.763.494 1.125-3.135.101-8.487.5-13.618 1.948l.063.222c5.17-1.458 10.57-1.848 13.675-1.942 1.873 3.492 5.565 5.746 12.136 6.455m35.849-6.904"/><path d="m43.271 19.818c1.509 1.367 2.392 3.018 2.392 4.797 0 8.306-6.19 8.53-13.827 8.53-7.638 0-13.828-1.15-13.828-8.53 0-1.767.87-3.408 2.361-4.77 2.486-2.269 6.693-1.067 11.467-1.067 4.755 0 8.946-1.214 11.435 1.04zm0 0" fill="#f4cbb2"/><path d="m27.237 25.039c0 2.288-1.288 4.142-2.876 4.142-1.59 0-2.879-1.854-2.879-4.142 0-2.287 1.289-4.141 2.879-4.141 1.588 0 2.876 1.853 2.876 4.141zm0 0" fill="#fff"/><path d="m26.314 25.09c0 1.525-.859 2.761-1.918 2.761-1.06 0-1.918-1.236-1.918-2.761 0-1.525.858-2.762 1.918-2.762 1.059.001 1.918 1.237 1.918 2.762zm0 0" fill="#ad5b50"/><path d="m42.674 25.039c0 2.288-1.288 4.142-2.878 4.142-1.589 0-2.877-1.854-2.877-4.142 0-2.287 1.288-4.141 2.877-4.141 1.59 0 2.878 1.853 2.878 4.141zm0 0" fill="#fff"/><path d="m41.751 25.09c0 1.525-.859 2.761-1.919 2.761s-1.919-1.236-1.919-2.761c0-1.525.859-2.762 1.919-2.762s1.919 1.237 1.919 2.762zm0 0" fill="#ad5b50"/><path d="m32.597 28.717c0 .397-.322.72-.72.72s-.72-.322-.72-.72.322-.719.72-.719.72.321.72.719zm0 0" fill="#ad5b50"/><path d="m30.2 30.536c-.042-.121.021-.253.141-.295.121-.043.253.021.295.141.186.523.682.874 1.234.874.554 0 1.05-.351 1.235-.874.042-.121.175-.184.295-.141.12.042.184.174.141.295-.25.707-.922 1.182-1.671 1.182-.748 0-1.419-.475-1.67-1.182zm0 0" fill="#ad5b50"/></svg>