<svg height="96" width="96" xmlns="http://www.w3.org/2000/svg" xmlns:xlink="http://www.w3.org/1999/xlink"><linearGradient id="a"><stop offset="0" stop-color="#fff"/><stop offset="1" stop-color="#fff" stop-opacity="0"/></linearGradient><linearGradient id="b" gradientUnits="userSpaceOnUse" x1="36.357143" x2="36.357143" xlink:href="#a" y1="6" y2="63.893143"/><filter id="c" color-interpolation-filters="sRGB" height="1.3839999" width="1.3839999" x="-.192" y="-.192"><feGaussianBlur stdDeviation="5.28"/></filter><linearGradient id="d" gradientUnits="userSpaceOnUse" x1="48" x2="48" xlink:href="#a" y1="20.220806" y2="138.66119"/><radialGradient id="e" cx="48" cy="90.171875" gradientTransform="matrix(1.1573129 0 0 .99590774 -7.5510206 .19713193)" gradientUnits="userSpaceOnUse" r="42" xlink:href="#a"/><clipPath id="f"><rect height="84" rx="6" width="84" x="6" y="6"/></clipPath><linearGradient id="g" gradientUnits="userSpaceOnUse" x1="48" x2="48" y1="90" y2="5.9877172"><stop offset="0" stop-color="#d7d7d7"/><stop offset="1" stop-color="#f5f5f5"/></linearGradient><linearGradient id="h" gradientTransform="matrix(1.0058652 0 0 .994169 100 0)" gradientUnits="userSpaceOnUse" x1="45.447727" x2="45.447727" y1="92.539597" y2="7.0165396"><stop offset="0"/><stop offset="1" stop-opacity=".58823532"/></linearGradient><linearGradient id="i" gradientTransform="matrix(1.0238095 0 0 1.0119048 -1.1428571 -98.071429)" gradientUnits="userSpaceOnUse" x1="32.251034" x2="32.251034" xlink:href="#h" y1="6.1317081" y2="90.238609"/><linearGradient id="j" gradientTransform="translate(0 -97)" gradientUnits="userSpaceOnUse" x1="32.251034" x2="32.251034" xlink:href="#h" y1="6.1317081" y2="90.238609"/><linearGradient id="k" gradientUnits="userSpaceOnUse" x1="58.53456055" x2="58.53456055" y1="32.786405" y2="53.61167501"><stop offset=".005618" stop-color="#ed2828"/><stop offset=".5" stop-color="#ef3b39"/><stop offset=".99438202" stop-color="#c02126"/></linearGradient><linearGradient id="l" gradientTransform="matrix(.17847007 0 0 .18436439 29.849123 5.8822925)" gradientUnits="userSpaceOnUse" x1="175.30762" x2="175.30762" y1="73.254395" y2="180.6748"><stop offset="0"/><stop offset=".99438202" stop-opacity=".4728682"/></linearGradient><path d="m12-95.03125c-5.5110903 0-10.03125 4.52016-10.03125 10.03125v71c0 5.5110902 4.5201598 10.03125 10.03125 10.03125h72c5.51109 0 10.03125-4.5201597 10.03125-10.03125v-71c0-5.51109-4.52016-10.03125-10.03125-10.03125z" fill="url(#i)" opacity=".07999998" transform="scale(1 -1)"/><path d="m12-94.03125c-4.971633 0-9.03125 4.059617-9.03125 9.03125v71c0 4.9716329 4.0596171 9.03125 9.03125 9.03125h72c4.971633 0 9.03125-4.059617 9.03125-9.03125v-71c0-4.971633-4.059617-9.03125-9.03125-9.03125z" fill="url(#i)" opacity=".1" transform="scale(1 -1)"/><path d="m12-93c-4.4091333 0-8 3.590867-8 8v71c0 4.4091333 3.5908667 8 8 8h72c4.409133 0 8-3.5908667 8-8v-71c0-4.409133-3.590867-8-8-8z" fill="url(#i)" opacity=".2" transform="scale(1 -1)"/><rect fill="url(#i)" height="85" opacity=".3" rx="7" transform="scale(1 -1)" width="86" x="5" y="-92"/><rect fill="url(#j)" height="84" opacity=".45" rx="6" transform="scale(1 -1)" width="84" x="6" y="-91"/><rect fill="url(#g)" height="84" rx="6" width="84" x="6" y="6"/><path d="m12 6c-3.324 0-6 2.676-6 6v2 68 2c0 .334721.04135.6507.09375.96875.0487.295596.09704.596915.1875.875.00988.03038.020892.0636.03125.09375.098865.287771.2348802.547452.375.8125.1445918.273507.3156161.535615.5.78125.1843839.245635.3737765.473472.59375.6875.439947.428056.94291.814526 1.5 1.09375.278545.139612.5734731.246947.875.34375-.2562018-.100222-.4867109-.236272-.71875-.375-.00741-.0044-.023866.0045-.03125 0-.031933-.0193-.062293-.04251-.09375-.0625-.120395-.0767-.2310226-.163513-.34375-.25-.1061728-.0808-.2132809-.161112-.3125-.25-.1779299-.161433-.3474596-.345388-.5-.53125-.1075789-.130255-.2183939-.265285-.3125-.40625-.025089-.03838-.038446-.08587-.0625-.125-.064763-.103032-.1302275-.204517-.1875-.3125-.1010083-.194706-.2056748-.415701-.28125-.625-.00796-.02181-.023589-.04055-.03125-.0625-.0318251-.09195-.0358045-.186831-.0625-.28125-.0303323-.106618-.0703894-.203031-.09375-.3125-.0728786-.341512-.125-.698205-.125-1.0625v-2-68-2c0-2.781848 2.2181517-5 5-5h2 68 2c2.781848 0 5 2.218152 5 5v2 68 2c0 .364295-.05212.720988-.125 1.0625-.04415.206893-.08838.397658-.15625.59375-.0077.02195-.0233.04069-.03125.0625-.06274.173739-.138383.367449-.21875.53125-.04158.0828-.07904.169954-.125.25-.0546.09721-.126774.18835-.1875.28125-.09411.140965-.204921.275995-.3125.40625-.143174.17445-.303141.346998-.46875.5-.01117.0102-.01998.02115-.03125.03125-.138386.125556-.285091.234436-.4375.34375-.102571.07315-.204318.153364-.3125.21875-.0074.0045-.02384-.0044-.03125 0-.232039.138728-.462548.274778-.71875.375.301527-.0968.596455-.204138.875-.34375.55709-.279224 1.060053-.665694 1.5-1.09375.219973-.214028.409366-.441865.59375-.6875.184384-.245635.355408-.507743.5-.78125.14012-.265048.276135-.524729.375-.8125.01041-.03078.02133-.06274.03125-.09375.09046-.278085.1388-.579404.1875-.875.0524-.31805.09375-.634029.09375-.96875v-2-68-2c0-3.324-2.676-6-6-6z" fill="url(#b)" opacity=".5"/><path d="m12 90c-3.324 0-6-2.676-6-6v-2-68-2c0-.334721.04135-.6507.09375-.96875.0487-.295596.09704-.596915.1875-.875.00988-.03038.020892-.0636.03125-.09375.098865-.287771.2348802-.547452.375-.8125.1445918-.273507.3156161-.535615.5-.78125.1843839-.245635.3737765-.473472.59375-.6875.439947-.428056.94291-.814526 1.5-1.09375.278545-.139612.5734731-.246947.875-.34375-.2562018.100222-.4867109.236272-.71875.375-.00741.0044-.023866-.0045-.03125 0-.031933.0193-.062293.04251-.09375.0625-.120395.0767-.2310226.163513-.34375.25-.1061728.0808-.2132809.161112-.3125.25-.1779299.161433-.3474596.345388-.5.53125-.1075789.130255-.2183939.265285-.3125.40625-.025089.03838-.038446.08587-.0625.125-.064763.103032-.1302275.204517-.1875.3125-.1010083.194706-.2056748.415701-.28125.625-.00796.02181-.023589.04055-.03125.0625-.0318251.09195-.0358045.186831-.0625.28125-.0303323.106618-.0703894.203031-.09375.3125-.0728786.341512-.125.698205-.125 1.0625v2 68 2c0 2.781848 2.2181517 5 5 5h2 68 2c2.781848 0 5-2.218152 5-5v-2-68-2c0-.364295-.05212-.720988-.125-1.0625-.04415-.206893-.08838-.397658-.15625-.59375-.0077-.02195-.0233-.04069-.03125-.0625-.06274-.173739-.138383-.367449-.21875-.53125-.04158-.0828-.07904-.169954-.125-.25-.0546-.09721-.126774-.18835-.1875-.28125-.09411-.140965-.204921-.275995-.3125-.40625-.143174-.17445-.303141-.346998-.46875-.5-.01117-.0102-.01998-.02115-.03125-.03125-.138386-.125556-.285091-.234436-.4375-.34375-.102571-.07315-.204318-.153364-.3125-.21875-.0074-.0045-.02384.0044-.03125 0-.232039-.138728-.462548-.274778-.71875-.375.301527.0968.596455.204138.875.34375.55709.279224 1.060053.665694 1.5 1.09375.219973.214028.409366.441865.59375.6875.184384.245635.355408.507743.5.78125.14012.265048.276135.524729.375.8125.01041.03078.02133.06274.03125.09375.09046.278085.1388.579404.1875.875.0524.31805.09375.634029.09375.96875v2 68 2c0 3.324-2.676 6-6 6z" fill="url(#e)" opacity=".2"/><rect height="66" rx="12" style="opacity:.1;stroke:#fff;stroke-width:.5;stroke-linecap:round;clip-path:url(#f);fill:url(#d);filter:url(#c)" width="66" x="15" y="15"/><path d="m48 43c-7.141241-.0129-14.122644.123756-20.96875.40625.07393-.0031.06306-.0039-.03125 0-5.769946.03538-10.502692 4.669873-10.5625 10.375-.000983.01875.000148.01138 0 .03125-.004.03979-.03125.01763-.03125.0625a.99891452.99891452 0 0 0  .03125.15625.99891452.99891452 0 0 0  0 .125c-.27133 3.621036-.448456 7.215058-.4375 10.84375-.01082 3.628483.166102 7.222471.4375 10.84375a.99891452.99891452 0 0 0 0 .125c.000789.01042-.000791.02083 0 .03125a.99891452.99891452 0 0 0 -.03125.125c0 .04487.02727.02271.03125.0625.0017.01671-.0023.01541 0 .03125.06004 5.715495 4.809263 10.356519 10.59375 10.375.0102.000421.02105-.00042.03125 0 6.836099.281636 13.806764.419492 20.9375.40625 7.130749.01326 14.101671-.124631 20.9375-.40625.0085 0 .01649.000047.03125 0 5.784705-.01848 10.533715-4.659568 10.59375-10.375.000983-.01875-.000148-.01138 0-.03125.004-.03979.03125-.01763.03125-.0625a.99891452.99891452 0 0 0 -.03125-.15625.99891452.99891452 0 0 0  0-.125c.271331-3.621185.448454-7.215146.4375-10.84375.010823-3.628593-.166161-7.22266-.4375-10.84375a.99891452.99891452 0 0 0 0-.15625.99891452.99891452 0 0 0  .03125-.125c0-.04487-.02727-.02271-.03125-.0625-.000148-.01987.000983-.0125 0-.03125-.059925-5.704919-4.792269-10.339624-10.5625-10.375-.01063-.000065-.02061.000034-.03125 0-6.845666-.282487-13.827505-.419152-20.96875-.40625z" opacity=".05"/><path d="m48 44c-7.127242-.01288-14.106049.124361-20.9375.40625-.01019.000421-.02106-.000421-.03125 0-5.26484.01682-9.555146 4.223163-9.59375 9.40625-.000174.0234-.03125.03906-.03125.0625h.03125c-.285869 3.714691-.448709 7.412669-.4375 11.125-.01107 3.712178.151546 7.410085.4375 11.125h-.03125c0 .02344.03108.0391.03125.0625.0386 5.183061 4.328751 9.389429 9.59375 9.40625.01062.000034.02063 0 .03125 0 6.831238.281884 13.810192.419486 20.9375.40625 7.127316.01326 14.106531-.124383 20.9375-.40625.01062 0 .02063.000034.03125 0 5.265237-.01682 9.555149-4.223226 9.59375-9.40625.000174-.0234.03125-.03906.03125-.0625h-.03125c.285871-3.714864.448706-7.41276.4375-11.125.011073-3.71228-.151614-7.41028-.4375-11.125h.03125c0-.02344-.03108-.0391-.03125-.0625-.0386-5.183025-4.328513-9.389429-9.59375-9.40625-.01019-.000421-.02106.000421-.03125 0-6.831008-.281882-13.810255-.419127-20.9375-.40625z" opacity=".1"/><path d="m77.598811 53.876036c0-4.681844-3.881092-8.480635-8.663938-8.480635-6.826134-.282133-13.810805-.407375-20.934874-.394504-7.124067-.01287-14.108379.112364-20.934963.394504-4.782394 0-8.663849 3.798791-8.663849 8.480635-.287101 3.707964-.411693 7.416017-.400497 11.124071-.01106 3.707963.113402 7.415928.400587 11.124072 0 4.681842 3.881365 8.480811 8.66394 8.480811 6.826403.282136 13.810715.40729 20.934782.39406 7.124069.01325 14.10874-.111941 20.934874-.39406 4.782846 0 8.663938-3.798969 8.663938-8.480811.287103-3.708144.411692-7.416109.400499-11.124072.01106-3.708054-.113382-7.416107-.400499-11.124071z" opacity=".2"/><path d="m29.625 10.5c.0025-.000288-.09618.03167-.09375.03125.0024-.000422-.127407.000555-.125 0 .0024-.000555-.09612.03194-.09375.03125.0024-.000686-.09608.03206-.09375.03125.0023-.000815-.09603.06344-.09375.0625.0023-.000942-.09598.03232-.09375.03125.0022-.0011-.09592.03244-.09375.03125.0022-.0012-.09585.0638-.09375.0625.0021-.0013-.09577.06392-.09375.0625.002-.0014-.09569.06403-.09375.0625.0019-.0015-.06436.06413-.0625.0625.0019-.0016-.09551.06423-.09375.0625.0018-.0017-.06417.09557-.0625.09375.0017-.0018-.06406.06441-.0625.0625.0016-.0019-.06396.09575-.0625.09375.0015-.002-.06384.09582-.0625.09375.0013-.0021-.06373.09589-.0625.09375.0012-.0021-.06361.09596-.0625.09375.0011-.0022-.03224.09601-.03125.09375.000986-.0023-.03211.09606-.03125.09375.00086-.0023-.06323.09611-.0625.09375.000732-.0024-.000601.09615 0 .09375.000601-.0024-.03172.127425-.03125.125.000469-.0024-.03158.0962-.03125.09375.000335-.0024-.0002.09621 0 .09375.0002-.0025-.000065.127469 0 .125.000065-.0025.000071.09622 0 .09375-.000071-.0025.000206.127462 0 .125-.000206-.0025.000341.0962 0 .09375-.000341-.0024.03173.09617.03125.09375-.000475-.0024.03186.127394.03125.125-.000364-.0014-.0085.03258 0 .0625l4.625 15.65625v10.28125c.000056-.0045.000391.19197 0 .1875-.000391-.0045.03208.191908.03125.1875-.000834-.0044.06377.191804.0625.1875-.0013-.0043.06419.191656.0625.1875-.0017-.0042.0646.160217.0625.15625-.0021-.004.09623.159988.09375.15625-.0025-.0037.127841.159723.125.15625-.0028-.0035.128173.159423.125.15625-.0032-.0032.159723.127841.15625.125-.0035-.0028.159988.127481.15625.125-.0037-.0025.160217.09585.15625.09375-.004-.0021.160406.06419.15625.0625-.0042-.0017.191804.06377.1875.0625-.0043-.0013.191908.06333.1875.0625-.0044-.000834.19197.03164.1875.03125-.0045-.000391.191986-.000056.1875 0h3.9375c-.0045-.000056.19197-.000391.1875 0-.0045.000391.191908-.03208.1875-.03125-.0044.000834.191804-.06377.1875-.0625-.0043.0013.191656-.06419.1875-.0625-.0042.0017.160217-.0646.15625-.0625-.004.0021.159988-.09623.15625-.09375-.0037.0025.159723-.127841.15625-.125-.0035.0028.159423-.128173.15625-.125-.0032.0032.127841-.159723.125-.15625-.0028.0035.127481-.159988.125-.15625-.0025.0037.09585-.160217.09375-.15625-.0021.004.06419-.160406.0625-.15625-.0017.0042.06377-.191804.0625-.1875-.0013.0043.06333-.191908.0625-.1875-.000834.0044.03164-.19197.03125-.1875-.000391.0045-.000056-.191986 0-.1875v-10.78125l.5625-1.90625v7.75c0 2.019697.5977 3.920769 1.90625 5.3125 1.301371 1.384752 3.133597 2.0625 5.09375 2.0625 2.000851 0 3.87408-.659263 5.1875-2.03125.541-.56518.888015-1.259338 1.1875-1.96875.149179.762448.378066 1.480951.8125 2.09375.767976 1.083953 2.04219 1.6875 3.375 1.6875.948252 0 1.860858-.361666 2.71875-.8125.0382.03444.12771.09597.125.09375-.0035-.0028.159988.127481.15625.125-.0037-.0025.160217.09585.15625.09375-.004-.0021.160406.06419.15625.0625-.0042-.0017.191804.06377.1875.0625-.0043-.0013.191908.06333.1875.0625-.0044-.000834.19197.03164.1875.03125-.0045-.000391.191986-.000056.1875 0h3.53125c-.0045-.000056.19197-.000391.1875 0-.0045.000391.191908-.03208.1875-.03125-.0044.000834.191804-.06377.1875-.0625-.0043.0013.191656-.06419.1875-.0625-.0042.0017.160217-.0646.15625-.0625-.004.0021.159988-.09623.15625-.09375-.0037.0025.159723-.127841.15625-.125-.0035.0028.159423-.128173.15625-.125-.0032.0032.127841-.159723.125-.15625-.0028.0035.127481-.159988.125-.15625-.0025.0037.09585-.160217.09375-.15625-.0021.004.06419-.160406.0625-.15625-.0017.0042.06377-.191804.0625-.1875-.0013.0043.06333-.191908.0625-.1875-.000834.0044.03164-.19197.03125-.1875-.000391.0045-.000056-.191986 0-.1875v-19.53125c-.000056.0045-.000391-.19197 0-.1875.000391.0045-.03208-.191908-.03125-.1875.000834.0044-.06377-.191804-.0625-.1875.0013.0043-.06419-.191656-.0625-.1875.0017.0042-.0646-.160217-.0625-.15625.0021.004-.09623-.159988-.09375-.15625.0025.0037-.127841-.159723-.125-.15625.0028.0035-.128173-.159423-.125-.15625.0032.0032-.159723-.127841-.15625-.125.0035.0028-.159988-.127481-.15625-.125.0037.0025-.160217-.09585-.15625-.09375.004.0021-.160406-.06419-.15625-.0625.0042.0017-.191804-.06377-.1875-.0625.0043.0013-.191908-.06333-.1875-.0625.0044.000834-.19197-.03164-.1875-.03125.0045.000391-.191986.000056-.1875 0h-3.53125c.0045.000056-.19197.000391-.1875 0 .0045-.000391-.191908.03208-.1875.03125.0044-.000834-.191804.06377-.1875.0625.0043-.0013-.191656.06419-.1875.0625.0042-.0017-.160217.0646-.15625.0625.004-.0021-.159988.09623-.15625.09375.0037-.0025-.159723.127841-.15625.125.0035-.0028-.159423.128173-.15625.125.0032-.0032-.127841.159723-.125.15625.0028.0035-.128173-.159423-.125-.15625.0032.0032-.159723-.127841-.15625-.125.0035.0028-.159988-.127481-.15625-.125.0037.0025-.160217-.09585-.15625-.09375.004.0021-.160406-.06419-.15625-.0625.0042.0017-.191804-.06377-.1875-.0625.0043.0013-.191908-.06333-.1875-.0625.0044.000834-.19197-.03164-.1875-.03125.0045.000391-.191986.000056-.1875 0h-3.40625c.0023.000247-.09611-.000124-.09375 0 .0024.000124-.09611 0-.09375 0 .0024 0-.09611.000124-.09375 0 .0024-.000124-.0961.000247-.09375 0a1.0301315 1.0301315 0 0 0 -.09375.03125c.0039-.000776-.19129.03236-.1875.03125.0038-.0011-.159928.06394-.15625.0625.0037-.0014-.159787.06426-.15625.0625.0035-.0018-.159619.09581-.15625.09375.0034-.0021-.128176.0961-.125.09375.0032-.0023-.127957.09637-.125.09375.003-.0026-.127716.127868-.125.125.0027-.0029-.127454.128095-.125.125.0025-.0031-.09592.128298-.09375.125.0022-.0033-.09563.159726-.09375.15625.0019-.0035-.06406.159877-.0625.15625.0016-.0036-.06374.16-.0625.15625.0012-.0038-.03216.160095-.03125.15625.000906-.0038-.03182.160159-.03125.15625.000565-.0039-.03147.191444-.03125.1875.000176-.0032.000598.08187 0 .125-.000149.01078.000025.03204 0 .03125v1.25c-.303267-.59765-.582289-1.198831-1.0625-1.6875-1.287264-1.309932-3.053352-2-4.9375-2-1.860683 0-3.601711.56978-4.9375 1.71875l1.71875-5.6875v-.03125c.0083-.03048.000461-.09565 0-.09375-.000615.0025.03172-.09631.03125-.09375-.000467.0026.03157-.127585.03125-.125-.000318.0026.000168-.09635 0-.09375-.000168.0026.000017-.127605 0-.125-.000017.0026-.000134-.127602 0-.125.000134.0026-.000284-.09634 0-.09375.000284.0026-.03168-.127569-.03125-.125.000433.0026-.000581-.09629 0-.09375.000581.0025-.03198-.127501-.03125-.125.000727.0025-.03212-.0962-.03125-.09375.000871.0025-.06351-.09615-.0625-.09375.001.0024-.0324-.127338-.03125-.125.0011.0023-.06378-.09602-.0625-.09375.0013.0023-.06391-.09594-.0625-.09375.0014.0022-.06404-.09585-.0625-.09375.0015.0021-.06415-.06451-.0625-.0625.0017.002-.06427-.09566-.0625-.09375.0018.0019-.09563-.09556-.09375-.09375.0019.0018-.06448-.0642-.0625-.0625.002.0017-.09582-.06408-.09375-.0625.0021.0016-.09591-.06396-.09375-.0625.0022.0015-.09599-.06383-.09375-.0625.0022.0013-.09606-.0637-.09375-.0625.0023.0012-.09613-.06356-.09375-.0625.0024.0011-.127437-.03217-.125-.03125.0024.000921-.09624-.03203-.09375-.03125.0025.000778-.09628-.03188-.09375-.03125.0025.000633-.127559-.03174-.125-.03125.0026.000486-.09633-.000337-.09375 0 .0026.000337-.127598-.03144-.125-.03125.0026.000187-.127605-.000036-.125 0h-4.03125c.0039-.000011-.160086.00034-.15625 0 .0038-.00034-.191292.03192-.1875.03125.0038-.000667-.159972.03224-.15625.03125.0037-.000989-.159873.0638-.15625.0625.0036-.0013-.159749.06411-.15625.0625.0035-.0016-.128348.0644-.125.0625.0033-.0019-.159424.09593-.15625.09375.0032-.0022-.127975.09619-.125.09375.003-.0024-.127756.12769-.125.125.0028-.0027-.127516.09666-.125.09375.0025-.0029-.09601.15937-.09375.15625.0023-.0031-.09573.128301-.09375.125.002-.0033-.06419.159709-.0625.15625.0017-.0035-.06389.128591-.0625.125.0014-.0036-.06358.159946-.0625.15625.000904-.0031-.02235.120428-.03125.15625-.0017.0069-.000123.03186 0 .03125l-.71875 3.125-.78125-3.21875c.000875.0037-.03243-.159833-.03125-.15625.0012.0036-.06397-.128471-.0625-.125.0015.0035-.06426-.159586-.0625-.15625.0018.0033-.09578-.159427-.09375-.15625.002.0032-.09604-.127995-.09375-.125.0023.003-.09629-.127793-.09375-.125.0025.0028-.12776-.09632-.125-.09375.0028.0026-.127966-.12733-.125-.125.003.0023-.12815-.09582-.125-.09375.0031.0021-.128313-.0643-.125-.0625.0033.0018-.159702-.09527-.15625-.09375.0035.0015-.159817-.06372-.15625-.0625.0036.0012-.159907-.03217-.15625-.03125.0037.000921-.159972-.03186-.15625-.03125.0037.000612-.16001-.03155-.15625-.03125.0038.000298-.160022.000018-.15625 0h-3.9375c.0016.000082-.03211.00081-.0625 0-.0152-.000405-.03204 0-.03125 0 .0024 0-.127354.000123-.125 0a1.0301315 1.0301315 0 0 0 -.0625 0z" fill="#fff" opacity=".3"/><path d="m29.84375 11.53125a.89508334.89508334 0 0 0 -.84375 1.15625l4.65625 15.75v.03125 10.4375a.89508334.89508334 0 0 0  .90625.90625h3.9375a.89508334.89508334 0 0 0  .90625-.90625v-10.9375-.03125l4.5625-15.25a.89508334.89508334 0 0 0 -.84375-1.15625h-4.03125a.89508334.89508334 0 0 0 -.875.71875l-1.6875 7.40625-1.8125-7.4375a.89508334.89508334 0 0 0 -.875-.6875zm18.34375 6.46875c-1.764039 0-3.333241.517869-4.46875 1.59375-1.126958 1.067674-1.6875 2.556498-1.6875 4.25v10.125c0 1.821312.526181 3.425082 1.625 4.59375 1.092415 1.162407 2.61731 1.75 4.34375 1.75 1.778224 0 3.344019-.576509 4.4375-1.71875 1.097302-1.146346 1.59375-2.736907 1.59375-4.5625v-10.0625c0-1.666845-.557526-3.163173-1.65625-4.28125-1.092102-1.111333-2.5441-1.6875-4.1875-1.6875zm7.9375.46875a.89508334.89508334 0 0 0 -.90625.90625v16.34375c0 1.271689.246467 2.326572.8125 3.125.5622.793512 1.503414 1.25 2.53125 1.25.849484 0 1.719197-.269449 2.53125-.75.228633-.135533.40945-.396814.625-.5625v.125a.89508334.89508334 0 0 0  .90625.90625h3.53125a.89508334.89508334 0 0 0  .90625-.90625v-19.53125a.89508334.89508334 0 0 0 -.90625-.90625h-3.53125a.89508334.89508334 0 0 0 -.90625.90625v14.46875c-.217777.25095-.4113.485843-.65625.65625-.303476.210848-.545435.25-.5.25.0045-.0065-.03125-.0847-.03125-.40625v-14.96875a.89508334.89508334 0 0 0 -.90625-.90625zm-8.125 4.71875c.319956 0 .438427.03982.53125.125.08971.0823.125.191892.125.40625v10.625c0 .345798-.06117.458654-.1875.59375-.128618.137126-.204948.1875-.46875.1875-.279024 0-.296661-.03324-.375-.125-.07176-.08396-.15625-.25678-.15625-.65625v-10.625c0-.233581.05122-.365393.125-.4375.09366-.0916.1348-.09375.40625-.09375z" fill="#fff" opacity=".3"/><path d="m66.150876 19.387794v19.522457h-3.513544v-2.155117c-.647648.79399-1.321355 1.399293-2.021728 1.814474-.700373.414462-1.380528.62259-2.039333.62259-.81227 0-1.42471-.290232-1.836727-.87177-.412019-.581181-.617761-1.452949-.617761-2.615311v-16.317323h3.513629v14.965199c0 .463073.07354.79759.22065 1.004641.147088.207052.385347.310758.715273.310758.259078 0 .585257-.136834.979667-.410861.394411-.274384.756321-.624391 1.08633-1.051091v-14.818646zm-23.211219 4.463184c0-1.511915.472758-2.715594 1.418874-3.611939.946118-.896435 2.217282-1.344657 3.814188-1.344657 1.454077 0 2.645331.472977 3.573848 1.417844.928513.944868 1.392727 2.161153 1.392727 3.648938v10.083234c0 1.670803-.455762 2.981522-1.366062 3.932508-.910391.950986-2.164037 1.426663-3.760422 1.426663-1.537214 0-2.767331-.491158-3.689485-1.472395-.92259-.981236-1.383668-2.301313-1.383668-3.959872zm3.615938 10.485812c0 .537607.124705.952069.37524 1.245179.249929.292752.60704.438587 1.071866.438587.476501 0 .854443-.149064 1.134784-.44795.279819-.299229.420032-.710814.420032-1.235816v-10.632279c0-.4267-.14345-.771395-.429095-1.033447-.285659-.262142-.660897-.393666-1.125721-.393666-.428572 0-.777146.131524-1.0452.393666-.268142.262052-.401906.606747-.401906 1.033447zm-16.706472-21.891109h3.985338l2.567424 10.578269h.248446l2.448037-10.578269h4.020546l-4.605191 15.483187v10.981383h-3.957105v-10.486983z" fill="url(#l)"/><g transform="matrix(1.9398091 0 0 1.9207448 -65.545873 -18.974313)"><path d="m73.793181 37.407546c0-2.437515-2.00076-4.415285-4.466387-4.415285-3.518972-.146887-7.119672-.212092-10.792234-.205391-3.672561-.0067-7.273076.0585-10.79228.205391-2.465394 0-4.466341 1.97777-4.466341 4.415285-.148005 1.930482-.212234 3.861011-.206462 5.79154-.0057 1.930482.05846 3.860965.206508 5.791541 0 2.437514 2.000901 4.415376 4.466388 4.415376 3.519111.146889 7.119626.212048 10.792187.20516 3.672562.0069 7.273262-.05828 10.792234-.20516 2.465627 0 4.466387-1.977862 4.466387-4.415376.148006-1.930576.212233-3.861059.206463-5.791541.0057-1.930529-.05845-3.861058-.206463-5.79154z" fill="url(#k)"/><path d="m314.23193 35.408691h-68.04541v20.833985h22.93653v122.710934h22.17138v-122.710934h22.9375zm36.23828 118.031249c-1.84765 2.31445-3.87695 4.21485-6.08593 5.70117-2.21094 1.48828-4.03907 2.22852-5.49024 2.22852-1.84765 0-3.18359-.5625-4.00781-1.68555-.82422-1.12304-1.23633-2.9375-1.23633-5.44922v-81.171872h-19.6875v88.505862c0 6.30469 1.1543 11.0332 3.46289 14.1875 2.3086 3.15234 5.74024 4.72656 10.29102 4.72656 3.6914 0 7.50195-1.12891 11.42578-3.37695 3.92578-2.25196 7.69922-5.53516 11.32812-9.8418v11.68945h19.6875v-105.890622h-19.6875zm76.27735-81.714842c-3.05274 0-6.06836.842285-9.05274 2.523437-2.98242 1.684571-5.79882 4.139649-8.45117 7.371094v-46.210938h-19.8789v143.544919h19.8789v-8.14062c2.58594 3.22461 5.38867 5.61133 8.4043 7.1582 3.01562 1.54688 6.44726 2.32031 10.29492 2.32031 5.83203 0 10.29102-1.99414 13.37305-5.99023 3.08203-3.99609 4.62695-9.75781 4.62695-17.28711v-58.744629c0-8.648926-1.64258-15.237304-4.92578-19.759277-3.28125-4.521484-8.03906-6.785156-14.26953-6.785156zm-1.06641 82.410152c0 3.375-.57031 5.8086-1.70508 7.29688-1.13476 1.48633-2.90625 2.23047-5.31054 2.23047-1.67188 0-3.25782-.37891-4.76172-1.14063-1.50586-.75781-3.0586-2-4.66016-3.7207v-65.988282c1.33594-1.454589 2.6875-2.529785 4.0586-3.225586 1.36914-.692871 2.75781-1.041992 4.16015-1.041992 2.66992 0 4.71094.928711 6.11328 2.780274 1.4043 1.851562 2.10547 4.563476 2.10547 8.135253zm93.02735-25.64257v-26.95899c0-10.049803-2.41993-17.751952-7.25196-23.109862-4.83593-5.35791-11.75586-8.036621-20.76172-8.036621-8.81054 0-15.99609 2.894043-21.55664 8.678711-5.56445 5.788086-8.3457 13.27539-8.3457 22.467772v47.52735c0 10.19335 2.5332 18.20117 7.59766 24.02539 5.0664 5.82226 12.0039 8.73437 20.81445 8.73437 9.80078 0 17.16992-2.74805 22.10352-8.24023 4.93359-5.49219 7.40039-13.66602 7.40039-24.51953v-7.95313h-20.26172v7.35938c0 6.23046-.65039 10.25976-1.94922 12.08007-1.29883 1.82227-3.58203 2.73243-6.8457 2.73243-3.13672 0-5.35157-1.07422-6.6504-3.23047-1.29882-2.1543-1.94726-6.01563-1.94726-11.58203v-19.97461zm-37.6543-27.15625c0-4.431645.67969-7.609379 2.04883-9.529789 1.36523-1.917481 3.61328-2.878907 6.74609-2.878907 2.99805 0 5.18164.961426 6.54883 2.878907 1.36523 1.92041 2.04883 5.098144 2.04883 9.529789v10.71875h-17.39258z" fill="#fff" transform="matrix(.09531868 0 0 .09531868 22 32.786405)"/></g><path d="m48 44c-7.124067-.01287-14.110916.12411-20.9375.40625-4.782394 0-8.65625 3.786906-8.65625 8.46875-.241129 3.114231-.347305 6.229446-.375 9.34375.04378-2.781036.159674-5.562777.375-8.34375 0-4.681844 3.873856-8.46875 8.65625-8.46875 6.826584-.28214 13.813433-.41912 20.9375-.40625 7.124069-.01287 14.111366.124117 20.9375.40625 4.782846 0 8.65625 3.786906 8.65625 8.46875.215338 2.780973.331208 5.562714.375 8.34375-.02774-3.114304-.133857-6.229519-.375-9.34375 0-4.681844-3.873404-8.46875-8.65625-8.46875-6.826134-.282133-13.813431-.419121-20.9375-.40625z" fill="#fff" opacity=".2"/></svg>