<?xml version="1.0" encoding="UTF-8" standalone="no"?>
<!-- Created with Inkscape (http://www.inkscape.org/) -->

<svg
   xmlns:dc="http://purl.org/dc/elements/1.1/"
   xmlns:cc="http://creativecommons.org/ns#"
   xmlns:rdf="http://www.w3.org/1999/02/22-rdf-syntax-ns#"
   xmlns:svg="http://www.w3.org/2000/svg"
   xmlns="http://www.w3.org/2000/svg"
   xmlns:xlink="http://www.w3.org/1999/xlink"
   xmlns:inkscape="http://www.inkscape.org/namespaces/inkscape"
   version="1.0"
   width="96"
   height="96"
   id="svg2408">
  <defs
     id="defs2410">
    <linearGradient
       x1="58.650177"
       y1="122"
       x2="58.650177"
       y2="5.4252338"
       id="linearGradient3848"
       gradientUnits="userSpaceOnUse"
       gradientTransform="matrix(1.0172414,0,0,1.0172414,-1.1034483,-1.1034483)">
      <stop
         id="stop3850"
         style="stop-color:#969696;stop-opacity:1"
         offset="0" />
      <stop
         id="stop3852"
         style="stop-color:#d2d2d2;stop-opacity:1"
         offset="1" />
    </linearGradient>
    <linearGradient
       x1="45.447727"
       y1="92.539597"
       x2="45.447727"
       y2="7.0165396"
       id="ButtonShadow"
       gradientUnits="userSpaceOnUse"
       gradientTransform="scale(1.0058652,0.994169)">
      <stop
         id="stop3750"
         style="stop-color:#000000;stop-opacity:1"
         offset="0" />
      <stop
         id="stop3752"
         style="stop-color:#000000;stop-opacity:0.58823532"
         offset="1" />
    </linearGradient>
    <linearGradient
       id="linearGradient3737">
      <stop
         id="stop3739"
         style="stop-color:#ffffff;stop-opacity:1"
         offset="0" />
      <stop
         id="stop3741"
         style="stop-color:#ffffff;stop-opacity:0"
         offset="1" />
    </linearGradient>
    <filter
       color-interpolation-filters="sRGB"
       id="filter3174">
      <feGaussianBlur
         id="feGaussianBlur3176"
         stdDeviation="1.71" />
    </filter>
    <linearGradient
       x1="36.357143"
       y1="6"
       x2="36.357143"
       y2="63.893143"
       id="linearGradient3188"
       xlink:href="#linearGradient3737"
       gradientUnits="userSpaceOnUse" />
    <filter
       x="-0.192"
       y="-0.192"
       width="1.3839999"
       height="1.3839999"
       color-interpolation-filters="sRGB"
       id="filter3794">
      <feGaussianBlur
         id="feGaussianBlur3796"
         stdDeviation="5.28" />
    </filter>
    <linearGradient
       x1="48"
       y1="20.220806"
       x2="48"
       y2="138.66119"
       id="linearGradient3613"
       xlink:href="#linearGradient3737"
       gradientUnits="userSpaceOnUse" />
    <radialGradient
       cx="48"
       cy="90.171875"
       r="42"
       fx="48"
       fy="90.171875"
       id="radialGradient3619"
       xlink:href="#linearGradient3737"
       gradientUnits="userSpaceOnUse"
       gradientTransform="matrix(1.1573129,0,0,0.99590774,-7.5510206,0.19713193)" />
    <clipPath
       id="clipPath3613">
      <rect
         width="84"
         height="84"
         rx="6"
         ry="6"
         x="6"
         y="6"
         id="rect3615"
         style="fill:#ffffff;fill-opacity:1;fill-rule:nonzero;stroke:none" />
    </clipPath>
    <linearGradient
       x1="48"
       y1="90"
       x2="48"
       y2="5.9877172"
       id="linearGradient3617"
       xlink:href="#ButtonColor-7"
       gradientUnits="userSpaceOnUse" />
    <clipPath
       id="clipPath3836">
      <path
         d="m 112,6 c -3.324,0 -6,2.676 -6,6 l 0,23.71875 c 4.16476,5.590927 10.83896,9.218751 18.34375,9.21875 12.61273,0 22.84375,-10.231021 22.84375,-22.84375 0,-6.274884 -2.52698,-11.964405 -6.625,-16.09375 l -7.34375,0 c 5.78119,3.1123067 9.71875,9.225149 9.71875,16.25 0,10.181526 -8.25597,18.4375 -18.4375,18.4375 -10.18153,0 -18.4375,-8.255974 -18.4375,-18.4375 0,-7.024851 3.93756,-13.1376933 9.71875,-16.25 L 112,6 z m 34.375,0 0.46875,0.59375 0.5625,-0.40625 0.5,-0.1875 -1.53125,0 z m 5.96875,0 0.40625,0.75 -1.65625,2.15625 -1.4375,1.1875 -0.625,0.28125 1.0625,2.5625 0.65625,-0.25 1.84375,-0.15625 2.71875,0.34375 0.4375,1.71875 -2.15625,1.6875 -1.6875,0.75 -0.6875,0.125 0.375,2.75 0.6875,-0.0625 1.8125,0.3125 2.53125,1.0625 0,1.78125 -2.53125,1.03125 -1.8125,0.3125 -0.6875,-0.0625 -0.375,2.75 0.6875,0.125 1.6875,0.75 2.15625,1.6875 -0.4375,1.71875 -2.71875,0.375 L 150.75,31.5 l -0.65625,-0.21875 -1.0625,2.5625 0.625,0.25 1.4375,1.1875 1.65625,2.1875 L 151.875,39 149.15625,38.65625 147.40625,38 l -0.5625,-0.375 -1.6875,2.1875 0.53125,0.4375 1.0625,1.5 1.0625,2.53125 -1.25,1.28125 L 144,44.5 l -1.5,-1.0625 -0.4375,-0.53125 -2.1875,1.6875 0.375,0.5625 0.65625,1.75 0.34375,2.71875 -1.53125,0.875 -2.1875,-1.65625 -1.15625,-1.4375 -0.3125,-0.625 -2.53125,1.0625 0.21875,0.65625 0.1875,1.84375 -0.375,2.71875 -1.71875,0.46875 -1.65625,-2.1875 -0.78125,-1.6875 -0.125,-0.6875 -2.71875,0.375 0.0625,0.65625 -0.3125,1.84375 -1.0625,2.53125 -1.78125,0 -1.0625,-2.53125 L 122.125,50 l 0.0625,-0.65625 -2.75,-0.375 -0.125,0.6875 -0.75,1.6875 -1.6875,2.1875 -1.71875,-0.46875 -0.375,-2.71875 0.15625,-1.84375 0.25,-0.65625 -2.53125,-1.0625 -0.3125,0.625 -1.1875,1.4375 L 109,50.5 l -1.5625,-0.875 0.375,-2.71875 0.625,-1.75 0.40625,-0.5625 -2.1875,-1.6875 -0.4375,0.53125 L 106,43.59375 106,84 c 0,3.324 2.676,6 6,6 l 25.875,0 -0.25,-0.40625 1.84375,-2.4375 1.59375,-1.28125 0.65625,-0.34375 -1.15625,-2.8125 -0.71875,0.25 -2.03125,0.21875 -3,-0.40625 -0.53125,-1.90625 2.40625,-1.875 1.875,-0.8125 0.75,-0.15625 L 138.90625,75 l -0.75,0.0625 -2.03125,-0.34375 -2.8125,-1.15625 0,-1.96875 2.8125,-1.1875 2.03125,-0.3125 0.75,0.0625 0.40625,-3.03125 -0.75,-0.15625 -1.875,-0.84375 -2.40625,-1.84375 0.53125,-1.90625 3,-0.40625 2.03125,0.1875 0.71875,0.25 1.15625,-2.8125 -0.65625,-0.3125 -1.59375,-1.3125 -1.84375,-2.40625 1,-1.71875 3,0.40625 1.90625,0.71875 0.625,0.4375 1.875,-2.4375 -0.59375,-0.5 L 144.25,50.8125 143.09375,48 144.5,46.625 l 2.8125,1.125 1.65625,1.21875 0.5,0.5625 2.40625,-1.84375 -0.4375,-0.65625 -0.6875,-1.875 -0.40625,-3.03125 1.6875,-1 2.4375,1.84375 1.3125,1.59375 0.3125,0.6875 2.8125,-1.1875 -0.25,-0.6875 -0.1875,-2.0625 0.40625,-3 1.875,-0.5 1.875,2.40625 0.84375,1.875 0.125,0.71875 3.03125,-0.375 -0.0625,-0.78125 0.34375,-2 1.1875,-2.8125 1.96875,0 1.15625,2.8125 0.34375,2 -0.0625,0.78125 3.03125,0.375 0.125,-0.71875 0.84375,-1.875 1.875,-2.40625 1.875,0.5 0.4375,3 -0.21875,2.0625 -0.25,0.6875 2.8125,1.1875 0.34375,-0.6875 1.28125,-1.59375 2.40625,-1.84375 1.71875,1 -0.375,3.03125 -0.75,1.875 -0.40625,0.65625 2.40625,1.84375 0.5,-0.5625 L 190,48.34375 190,12 c 0,-3.324 -2.676,-6 -6,-6 L 152.34375,6 z M 124.5,8.625 c -7.53154,0 -13.65625,6.09346 -13.65625,13.625 0,7.53154 6.12471,13.65625 13.65625,13.65625 7.53154,0 13.625,-6.12471 13.625,-13.65625 0,-7.53154 -6.09346,-13.625 -13.625,-13.625 z m 44.5625,38.53125 c -5.74578,0 -11.05193,1.907852 -15.3125,5.125 l 8.15625,8.78125 c 2.0761,-1.293182 4.53192,-2.03125 7.15625,-2.03125 1.32352,0 2.60305,0.17696 3.8125,0.53125 l 5.5,-10.625 c -2.88236,-1.135296 -6.0278,-1.78125 -9.3125,-1.78125 z m 13.90625,4.15625 -5.5,10.65625 c 3.0873,2.451345 5.10585,6.203919 5.15625,10.4375 L 190,73.75 190,58.1875 c -1.87421,-2.717952 -4.26324,-5.061314 -7.03125,-6.875 z m -62.65625,2.15625 1.21875,0 0.9375,2.09375 0.0625,0.71875 -0.1875,1.28125 2.21875,0.59375 0.46875,-1.1875 0.4375,-0.59375 1.875,-1.3125 1.0625,0.625 -0.25,2.25 -0.28125,0.6875 -0.8125,0.96875 1.625,1.65625 1,-0.78125 0.6875,-0.3125 2.25,-0.21875 0.625,1.0625 -1.34375,1.84375 -0.59375,0.4375 -1.1875,0.46875 0.59375,2.21875 1.25,-0.1875 0.75,0.09375 2.0625,0.9375 0,1.25 -2.09375,0.9375 -0.71875,0.0625 -1.25,-0.1875 -0.625,2.21875 1.1875,0.46875 0.59375,0.4375 1.34375,1.84375 -0.625,1.0625 -2.28125,-0.21875 -0.65625,-0.3125 -1,-0.78125 -1.625,1.625 0.78125,1 0.28125,0.65625 0.21875,2.28125 -1.0625,0.59375 -1.84375,-1.3125 -0.4375,-0.625 -0.46875,-1.15625 -2.21875,0.5625 0.1875,1.28125 -0.0625,0.71875 -0.96875,2.09375 -1.21875,0 -0.9375,-2.09375 -0.0625,-0.75 0.1875,-1.25 -2.21875,-0.59375 -0.5,1.1875 -0.40625,0.59375 -1.875,1.3125 -1.0625,-0.625 0.21875,-2.25 0.3125,-0.6875 0.8125,-1 -1.625,-1.625 -1,0.78125 -0.6875,0.3125 -2.28125,0.21875 -0.59375,-1.0625 1.34375,-1.875 0.59375,-0.40625 1.1875,-0.46875 -0.59375,-2.21875 -1.25,0.15625 -0.75,-0.0625 -2.0625,-0.9375 0,-1.25 2.0625,-0.9375 0.75,-0.0625 1.25,0.1875 0.59375,-2.21875 -1.15625,-0.46875 -0.59375,-0.4375 -1.34375,-1.84375 0.625,-1.0625 2.28125,0.21875 0.65625,0.3125 1,0.78125 1.625,-1.625 -0.78125,-1 L 113.625,57.90625 113.40625,55.625 114.5,55 l 1.84375,1.34375 0.4375,0.59375 0.4375,1.1875 2.25,-0.59375 -0.1875,-1.25 0.0625,-0.71875 0.96875,-2.09375 z m 29.625,2.34375 c -3.93256,4.474843 -6.3125,10.329221 -6.3125,16.75 0,2.868692 0.49734,5.613964 1.375,8.1875 l 10.90625,-4.96875 C 155.65791,74.755862 155.5,73.663871 155.5,72.5625 c 0,-2.983379 0.9581,-5.72947 2.59375,-7.96875 L 149.9375,55.8125 z m -29.09375,8.375 c -1.81315,0 -3.28125,1.468102 -3.28125,3.28125 0,1.813148 1.4681,3.28125 3.28125,3.28125 1.81315,0 3.28125,-1.468102 3.28125,-3.28125 0,-1.813148 -1.4681,-3.28125 -3.28125,-3.28125 z m 48.21875,3.28125 c -2.78946,0 -5.03125,2.241791 -5.03125,5.03125 0,2.789459 2.24179,5.0625 5.03125,5.0625 2.78946,0 5.0625,-2.273041 5.0625,-5.0625 0,-2.789459 -2.27304,-5.03125 -5.0625,-5.03125 z M 181.6875,77.5 c -1.44987,3.708793 -4.49322,6.621554 -8.28125,7.90625 L 174.03125,90 184,90 c 3.324,0 6,-2.676 6,-6 L 190,79.03125 181.6875,77.5 z m -23.625,2.96875 -10.90625,5 c 0.96641,1.636602 2.11102,3.15601 3.40625,4.53125 l 18.25,0 -0.53125,-3.90625 c -4.20392,-0.242792 -7.90236,-2.407521 -10.21875,-5.625 z M 144.15625,89.75 143.8125,90 l 0.53125,0 -0.1875,-0.25 z"
         inkscape:connector-curvature="0"
         id="path3838"
         style="fill:#ffffff;fill-opacity:1;fill-rule:nonzero;stroke:none" />
    </clipPath>
    <linearGradient
       x1="57.51778"
       y1="90"
       x2="57.51778"
       y2="5.5969558"
       id="linearGradient3846"
       xlink:href="#linearGradient3848"
       gradientUnits="userSpaceOnUse" />
    <clipPath
       id="clipPath3867">
      <path
         d="m 115.78125,6 c -5.78119,3.1123067 -9.71875,9.225149 -9.71875,16.25 0,10.181526 8.25597,18.4375 18.4375,18.4375 10.18153,0 18.4375,-8.255974 18.4375,-18.4375 0,-7.024851 -3.93756,-13.1376933 -9.71875,-16.25 l -17.4375,0 z m 24.78125,0 c 4.09802,4.129345 6.625,9.818866 6.625,16.09375 0,12.612729 -10.23102,22.84375 -22.84375,22.84375 -7.50479,10e-7 -14.17899,-3.627823 -18.34375,-9.21875 l 0,7.875 0.21875,-0.15625 0.4375,-0.53125 2.1875,1.6875 -0.40625,0.5625 -0.625,1.75 -0.375,2.71875 1.5625,0.875 2.15625,-1.65625 1.1875,-1.4375 0.3125,-0.625 2.53125,1.0625 -0.25,0.65625 -0.15625,1.84375 0.375,2.71875 1.71875,0.46875 1.6875,-2.1875 0.75,-1.6875 0.125,-0.6875 2.75,0.375 L 122.125,50 l 0.28125,1.84375 1.0625,2.53125 1.78125,0 1.0625,-2.53125 L 126.625,50 l -0.0625,-0.65625 2.71875,-0.375 0.125,0.6875 0.78125,1.6875 1.65625,2.1875 1.71875,-0.46875 0.375,-2.71875 L 133.75,48.5 l -0.21875,-0.65625 2.53125,-1.0625 0.3125,0.625 1.15625,1.4375 2.1875,1.65625 1.53125,-0.875 -0.34375,-2.71875 -0.65625,-1.75 -0.375,-0.5625 2.1875,-1.6875 0.4375,0.53125 1.5,1.0625 2.5625,1.0625 1.25,-1.28125 -1.0625,-2.53125 -1.0625,-1.5 -0.53125,-0.4375 1.6875,-2.1875 0.5625,0.375 1.75,0.65625 L 151.875,39 l 0.875,-1.53125 -1.65625,-2.1875 -1.4375,-1.1875 -0.625,-0.25 1.0625,-2.5625 0.65625,0.21875 1.84375,0.1875 2.71875,-0.375 0.4375,-1.71875 -2.15625,-1.6875 -1.6875,-0.75 -0.6875,-0.125 0.375,-2.75 0.6875,0.0625 1.8125,-0.3125 L 156.625,23 l 0,-1.78125 -2.53125,-1.0625 -1.8125,-0.3125 -0.6875,0.0625 -0.375,-2.75 0.6875,-0.125 1.6875,-0.75 2.15625,-1.6875 -0.4375,-1.71875 -2.71875,-0.34375 -1.84375,0.15625 -0.65625,0.25 -1.0625,-2.5625 0.625,-0.28125 1.4375,-1.1875 L 152.75,6.75 152.34375,6 l -4.4375,0 -0.5,0.1875 -0.5625,0.40625 L 146.375,6 140.5625,6 z M 124.5,8.625 c 7.53154,0 13.625,6.09346 13.625,13.625 0,7.53154 -6.09346,13.65625 -13.625,13.65625 -7.53154,0 -13.65625,-6.12471 -13.65625,-13.65625 0,-7.53154 6.12471,-13.625 13.65625,-13.625 z m 43.59375,28.21875 -1.1875,2.8125 -0.34375,2 0.0625,0.78125 -3.03125,0.375 -0.125,-0.71875 -0.84375,-1.875 -1.875,-2.40625 -1.875,0.5 -0.40625,3 0.1875,2.0625 0.25,0.6875 -2.8125,1.1875 -0.3125,-0.6875 -1.3125,-1.59375 -2.4375,-1.84375 -1.6875,1 0.40625,3.03125 0.6875,1.875 0.4375,0.65625 -2.40625,1.84375 -0.5,-0.5625 L 147.3125,47.75 144.5,46.625 143.09375,48 l 1.15625,2.8125 1.1875,1.65625 0.59375,0.5 -1.875,2.4375 -0.625,-0.4375 -1.90625,-0.71875 -3,-0.40625 -1,1.71875 1.84375,2.40625 1.59375,1.3125 0.65625,0.3125 -1.15625,2.8125 -0.71875,-0.25 -2.03125,-0.1875 -3,0.40625 -0.53125,1.90625 2.40625,1.84375 1.875,0.84375 0.75,0.15625 -0.40625,3.03125 -0.75,-0.0625 -2.03125,0.3125 -2.8125,1.1875 0,1.96875 2.8125,1.15625 2.03125,0.34375 0.75,-0.0625 0.40625,3.03125 -0.75,0.15625 -1.875,0.8125 -2.40625,1.875 0.53125,1.90625 3,0.40625 2.03125,-0.21875 0.71875,-0.25 1.15625,2.8125 -0.65625,0.34375 -1.59375,1.28125 -1.84375,2.4375 0.25,0.40625 5.9375,0 0.34375,-0.25 0.1875,0.25 6.21875,0 c -1.29523,-1.37524 -2.43984,-2.894648 -3.40625,-4.53125 l 10.90625,-5 c 2.31639,3.217479 6.01482,5.382208 10.21875,5.625 L 168.8125,90 l 5.21875,0 -0.625,-4.59375 c 3.78803,-1.284696 6.83138,-4.197457 8.28125,-7.90625 L 190,79.03125 190,73.75 182.625,72.40625 c -0.0504,-4.233581 -2.06895,-7.986155 -5.15625,-10.4375 l 5.5,-10.65625 c 2.76801,1.813686 5.15704,4.157048 7.03125,6.875 l 0,-9.84375 -0.84375,0.625 -0.5,0.5625 -2.40625,-1.84375 0.40625,-0.65625 0.75,-1.875 0.375,-3.03125 -1.71875,-1 -2.40625,1.84375 -1.28125,1.59375 -0.34375,0.6875 -2.8125,-1.1875 0.25,-0.6875 0.21875,-2.0625 -0.4375,-3 -1.875,-0.5 -1.875,2.40625 -0.84375,1.875 -0.125,0.71875 -3.03125,-0.375 0.0625,-0.78125 -0.34375,-2 -1.15625,-2.8125 -1.96875,0 z m 0.96875,10.3125 c 3.2847,0 6.43014,0.645954 9.3125,1.78125 l -5.5,10.625 c -1.20945,-0.35429 -2.48898,-0.53125 -3.8125,-0.53125 -2.62433,0 -5.08015,0.738068 -7.15625,2.03125 L 153.75,52.28125 c 4.26057,-3.217148 9.56672,-5.125 15.3125,-5.125 z m -48.75,6.3125 -0.96875,2.09375 -0.0625,0.71875 0.1875,1.25 -2.25,0.59375 -0.4375,-1.1875 -0.4375,-0.59375 L 114.5,55 l -1.09375,0.625 0.21875,2.28125 0.3125,0.65625 0.78125,1 -1.625,1.625 -1,-0.78125 -0.65625,-0.3125 -2.28125,-0.21875 -0.625,1.0625 1.34375,1.84375 0.59375,0.4375 1.15625,0.46875 -0.59375,2.21875 -1.25,-0.1875 -0.75,0.0625 -2.0625,0.9375 0,1.25 2.0625,0.9375 0.75,0.0625 1.25,-0.15625 0.59375,2.21875 -1.1875,0.46875 -0.59375,0.40625 -1.34375,1.875 0.59375,1.0625 2.28125,-0.21875 0.6875,-0.3125 1,-0.78125 1.625,1.625 -0.8125,1 -0.3125,0.6875 -0.21875,2.25 1.0625,0.625 1.875,-1.3125 0.40625,-0.59375 0.5,-1.1875 2.21875,0.59375 -0.1875,1.25 0.0625,0.75 0.9375,2.09375 1.21875,0 0.96875,-2.09375 0.0625,-0.71875 -0.1875,-1.28125 2.21875,-0.5625 0.46875,1.15625 0.4375,0.625 1.84375,1.3125 1.0625,-0.59375 -0.21875,-2.28125 -0.28125,-0.65625 -0.78125,-1 1.625,-1.625 1,0.78125 0.65625,0.3125 2.28125,0.21875 0.625,-1.0625 L 131.875,72 l -0.59375,-0.4375 -1.1875,-0.46875 0.625,-2.21875 1.25,0.1875 0.71875,-0.0625 2.09375,-0.9375 0,-1.25 -2.0625,-0.9375 -0.75,-0.09375 -1.25,0.1875 -0.59375,-2.21875 1.1875,-0.46875 0.59375,-0.4375 L 133.25,61 l -0.625,-1.0625 -2.25,0.21875 -0.6875,0.3125 -1,0.78125 -1.625,-1.65625 0.8125,-0.96875 0.28125,-0.6875 0.25,-2.25 -1.0625,-0.625 -1.875,1.3125 -0.4375,0.59375 -0.46875,1.1875 -2.21875,-0.59375 0.1875,-1.28125 -0.0625,-0.71875 -0.9375,-2.09375 -1.21875,0 z m 29.625,2.34375 8.15625,8.78125 C 156.4581,66.83303 155.5,69.579121 155.5,72.5625 c 0,1.101371 0.15791,2.193362 0.40625,3.21875 L 145,80.75 c -0.87766,-2.573536 -1.375,-5.318808 -1.375,-8.1875 0,-6.420779 2.37994,-12.275157 6.3125,-16.75 z m -29.09375,8.375 c 1.81315,0 3.28125,1.468102 3.28125,3.28125 0,1.813148 -1.4681,3.28125 -3.28125,3.28125 -1.81315,0 -3.28125,-1.468102 -3.28125,-3.28125 0,-1.813148 1.4681,-3.28125 3.28125,-3.28125 z m 48.21875,3.28125 c 2.78946,0 5.0625,2.241791 5.0625,5.03125 0,2.789459 -2.27304,5.0625 -5.0625,5.0625 -2.78946,0 -5.03125,-2.273041 -5.03125,-5.0625 0,-2.789459 2.24179,-5.03125 5.03125,-5.03125 z"
         inkscape:connector-curvature="0"
         id="path3869"
         style="fill:#ffffff;fill-opacity:1;stroke:none;display:inline" />
    </clipPath>
    <filter
       color-interpolation-filters="sRGB"
       id="filter3875">
      <feGaussianBlur
         id="feGaussianBlur3877"
         stdDeviation="0.42" />
    </filter>
    <filter
       x="-0.12"
       y="-0.12"
       width="1.24"
       height="1.24"
       color-interpolation-filters="sRGB"
       id="filter3879">
      <feGaussianBlur
         id="feGaussianBlur3881"
         stdDeviation="4.2" />
    </filter>
    <linearGradient
       x1="10.31979"
       y1="21"
       x2="10.31979"
       y2="0.99929649"
       id="ButtonColor-7"
       gradientUnits="userSpaceOnUse">
      <stop
         id="stop3189"
         style="stop-color:#afafaf;stop-opacity:1"
         offset="0" />
      <stop
         id="stop3191"
         style="stop-color:#d8d8d8;stop-opacity:1"
         offset="1" />
    </linearGradient>
    <linearGradient
       x1="45.447727"
       y1="92.539597"
       x2="45.447727"
       y2="7.0165396"
       id="ButtonShadow-0"
       gradientUnits="userSpaceOnUse"
       gradientTransform="matrix(1.0058652,0,0,0.994169,100,0)">
      <stop
         id="stop3750-8"
         style="stop-color:#000000;stop-opacity:1"
         offset="0" />
      <stop
         id="stop3752-5"
         style="stop-color:#000000;stop-opacity:0.58823532"
         offset="1" />
    </linearGradient>
    <linearGradient
       x1="32.251034"
       y1="6.1317081"
       x2="32.251034"
       y2="90.238609"
       id="linearGradient3780"
       xlink:href="#ButtonShadow-0"
       gradientUnits="userSpaceOnUse"
       gradientTransform="matrix(1.0238095,0,0,1.0119048,-1.1428571,-98.071429)" />
    <linearGradient
       x1="32.251034"
       y1="6.1317081"
       x2="32.251034"
       y2="90.238609"
       id="linearGradient3772"
       xlink:href="#ButtonShadow-0"
       gradientUnits="userSpaceOnUse"
       gradientTransform="matrix(1.0238095,0,0,1.0119048,-1.1428571,-98.071429)" />
    <linearGradient
       x1="32.251034"
       y1="6.1317081"
       x2="32.251034"
       y2="90.238609"
       id="linearGradient3725"
       xlink:href="#ButtonShadow-0"
       gradientUnits="userSpaceOnUse"
       gradientTransform="matrix(1.0238095,0,0,1.0119048,-1.1428571,-98.071429)" />
    <linearGradient
       x1="32.251034"
       y1="6.1317081"
       x2="32.251034"
       y2="90.238609"
       id="linearGradient3721"
       xlink:href="#ButtonShadow-0"
       gradientUnits="userSpaceOnUse"
       gradientTransform="translate(0,-97)" />
    <linearGradient
       x1="32.251034"
       y1="6.1317081"
       x2="32.251034"
       y2="90.238609"
       id="linearGradient3059"
       xlink:href="#ButtonShadow-0"
       gradientUnits="userSpaceOnUse"
       gradientTransform="matrix(1.0238095,0,0,1.0119048,-1.1428571,-98.071429)" />
  </defs>
  <metadata
     id="metadata2413">
    <rdf:RDF>
      <cc:Work
         rdf:about="">
        <dc:format>image/svg+xml</dc:format>
        <dc:type
           rdf:resource="http://purl.org/dc/dcmitype/StillImage" />
      </cc:Work>
    </rdf:RDF>
  </metadata>
  <g
     id="layer2"
     style="display:none">
    <rect
       width="86"
       height="85"
       rx="6"
       ry="6"
       x="5"
       y="7"
       id="rect3745"
       style="opacity:0.9;fill:url(#ButtonShadow);fill-opacity:1;fill-rule:nonzero;stroke:none;filter:url(#filter3174)" />
  </g>
  <g
     id="layer4"
     style="display:inline">
    <path
       d="m 12,-95.03125 c -5.5110903,0 -10.03125,4.52016 -10.03125,10.03125 l 0,71 c 0,5.5110902 4.5201598,10.03125 10.03125,10.03125 l 72,0 c 5.51109,0 10.03125,-4.5201597 10.03125,-10.03125 l 0,-71 c 0,-5.51109 -4.52016,-10.03125 -10.03125,-10.03125 l -72,0 z"
       transform="scale(1,-1)"
       id="path3786-1"
       style="opacity:0.07999998;fill:url(#linearGradient3059);fill-opacity:1;fill-rule:nonzero;stroke:none;display:inline" />
    <path
       d="m 12,-94.03125 c -4.971633,0 -9.03125,4.059617 -9.03125,9.03125 l 0,71 c 0,4.9716329 4.0596171,9.03125 9.03125,9.03125 l 72,0 c 4.971633,0 9.03125,-4.059617 9.03125,-9.03125 l 0,-71 c 0,-4.971633 -4.059617,-9.03125 -9.03125,-9.03125 l -72,0 z"
       transform="scale(1,-1)"
       id="path3778"
       style="opacity:0.1;fill:url(#linearGradient3780);fill-opacity:1;fill-rule:nonzero;stroke:none;display:inline" />
    <path
       d="m 12,-93 c -4.4091333,0 -8,3.590867 -8,8 l 0,71 c 0,4.4091333 3.5908667,8 8,8 l 72,0 c 4.409133,0 8,-3.5908667 8,-8 l 0,-71 c 0,-4.409133 -3.590867,-8 -8,-8 l -72,0 z"
       transform="scale(1,-1)"
       id="path3770"
       style="opacity:0.2;fill:url(#linearGradient3772);fill-opacity:1;fill-rule:nonzero;stroke:none;display:inline" />
    <rect
       width="86"
       height="85"
       rx="7"
       ry="7"
       x="5"
       y="-92"
       transform="scale(1,-1)"
       id="rect3723"
       style="opacity:0.3;fill:url(#linearGradient3725);fill-opacity:1;fill-rule:nonzero;stroke:none;display:inline" />
    <rect
       width="84"
       height="84"
       rx="6"
       ry="6"
       x="6"
       y="-91"
       transform="scale(1,-1)"
       id="rect3716"
       style="opacity:0.45;fill:url(#linearGradient3721);fill-opacity:1;fill-rule:nonzero;stroke:none;display:inline" />
  </g>
  <g
     id="layer1">
    <rect
       width="84"
       height="84"
       rx="6"
       ry="6"
       x="6"
       y="6"
       id="rect2419"
       style="fill:url(#linearGradient3617);fill-opacity:1;fill-rule:nonzero;stroke:none" />
  </g>
  <g
     id="layer3">
    <path
       d="m 115.78125,6 c -5.78119,3.1123067 -9.71875,9.225149 -9.71875,16.25 0,10.181526 8.25597,18.4375 18.4375,18.4375 10.18153,0 18.4375,-8.255974 18.4375,-18.4375 0,-7.024851 -3.93756,-13.1376933 -9.71875,-16.25 l -17.4375,0 z m 24.78125,0 c 4.09802,4.129345 6.625,9.818866 6.625,16.09375 0,12.612729 -10.23102,22.84375 -22.84375,22.84375 -7.50479,10e-7 -14.17899,-3.627823 -18.34375,-9.21875 l 0,7.875 0.21875,-0.15625 0.4375,-0.53125 2.1875,1.6875 -0.40625,0.5625 -0.625,1.75 -0.375,2.71875 1.5625,0.875 2.15625,-1.65625 1.1875,-1.4375 0.3125,-0.625 2.53125,1.0625 -0.25,0.65625 -0.15625,1.84375 0.375,2.71875 1.71875,0.46875 1.6875,-2.1875 0.75,-1.6875 0.125,-0.6875 2.75,0.375 L 122.125,50 l 0.28125,1.84375 1.0625,2.53125 1.78125,0 1.0625,-2.53125 L 126.625,50 l -0.0625,-0.65625 2.71875,-0.375 0.125,0.6875 0.78125,1.6875 1.65625,2.1875 1.71875,-0.46875 0.375,-2.71875 L 133.75,48.5 l -0.21875,-0.65625 2.53125,-1.0625 0.3125,0.625 1.15625,1.4375 2.1875,1.65625 1.53125,-0.875 -0.34375,-2.71875 -0.65625,-1.75 -0.375,-0.5625 2.1875,-1.6875 0.4375,0.53125 1.5,1.0625 2.5625,1.0625 1.25,-1.28125 -1.0625,-2.53125 -1.0625,-1.5 -0.53125,-0.4375 1.6875,-2.1875 0.5625,0.375 1.75,0.65625 L 151.875,39 l 0.875,-1.53125 -1.65625,-2.1875 -1.4375,-1.1875 -0.625,-0.25 1.0625,-2.5625 0.65625,0.21875 1.84375,0.1875 2.71875,-0.375 0.4375,-1.71875 -2.15625,-1.6875 -1.6875,-0.75 -0.6875,-0.125 0.375,-2.75 0.6875,0.0625 1.8125,-0.3125 L 156.625,23 l 0,-1.78125 -2.53125,-1.0625 -1.8125,-0.3125 -0.6875,0.0625 -0.375,-2.75 0.6875,-0.125 1.6875,-0.75 2.15625,-1.6875 -0.4375,-1.71875 -2.71875,-0.34375 -1.84375,0.15625 -0.65625,0.25 -1.0625,-2.5625 0.625,-0.28125 1.4375,-1.1875 L 152.75,6.75 152.34375,6 l -4.4375,0 -0.5,0.1875 -0.5625,0.40625 L 146.375,6 140.5625,6 z M 124.5,8.625 c 7.53154,0 13.625,6.09346 13.625,13.625 0,7.53154 -6.09346,13.65625 -13.625,13.65625 -7.53154,0 -13.65625,-6.12471 -13.65625,-13.65625 0,-7.53154 6.12471,-13.625 13.65625,-13.625 z m 43.59375,28.21875 -1.1875,2.8125 -0.34375,2 0.0625,0.78125 -3.03125,0.375 -0.125,-0.71875 -0.84375,-1.875 -1.875,-2.40625 -1.875,0.5 -0.40625,3 0.1875,2.0625 0.25,0.6875 -2.8125,1.1875 -0.3125,-0.6875 -1.3125,-1.59375 -2.4375,-1.84375 -1.6875,1 0.40625,3.03125 0.6875,1.875 0.4375,0.65625 -2.40625,1.84375 -0.5,-0.5625 L 147.3125,47.75 144.5,46.625 143.09375,48 l 1.15625,2.8125 1.1875,1.65625 0.59375,0.5 -1.875,2.4375 -0.625,-0.4375 -1.90625,-0.71875 -3,-0.40625 -1,1.71875 1.84375,2.40625 1.59375,1.3125 0.65625,0.3125 -1.15625,2.8125 -0.71875,-0.25 -2.03125,-0.1875 -3,0.40625 -0.53125,1.90625 2.40625,1.84375 1.875,0.84375 0.75,0.15625 -0.40625,3.03125 -0.75,-0.0625 -2.03125,0.3125 -2.8125,1.1875 0,1.96875 2.8125,1.15625 2.03125,0.34375 0.75,-0.0625 0.40625,3.03125 -0.75,0.15625 -1.875,0.8125 -2.40625,1.875 0.53125,1.90625 3,0.40625 2.03125,-0.21875 0.71875,-0.25 1.15625,2.8125 -0.65625,0.34375 -1.59375,1.28125 -1.84375,2.4375 0.25,0.40625 5.9375,0 0.34375,-0.25 0.1875,0.25 6.21875,0 c -1.29523,-1.37524 -2.43984,-2.894648 -3.40625,-4.53125 l 10.90625,-5 c 2.31639,3.217479 6.01483,5.382208 10.21875,5.625 L 168.8125,90 l 5.21875,0 -0.625,-4.59375 c 3.78803,-1.284696 6.83138,-4.197457 8.28125,-7.90625 L 190,79.03125 190,73.75 182.625,72.40625 c -0.0504,-4.233581 -2.06895,-7.986155 -5.15625,-10.4375 l 5.5,-10.65625 c 2.76801,1.813686 5.15704,4.157048 7.03125,6.875 l 0,-9.84375 -0.84375,0.625 -0.5,0.5625 -2.40625,-1.84375 0.40625,-0.65625 0.75,-1.875 0.375,-3.03125 -1.71875,-1 -2.40625,1.84375 -1.28125,1.59375 -0.34375,0.6875 -2.8125,-1.1875 0.25,-0.6875 0.21875,-2.0625 -0.4375,-3 -1.875,-0.5 -1.875,2.40625 -0.84375,1.875 -0.125,0.71875 -3.03125,-0.375 0.0625,-0.78125 -0.34375,-2 -1.15625,-2.8125 -1.96875,0 z m 0.96875,10.3125 c 3.2847,0 6.43014,0.645954 9.3125,1.78125 l -5.5,10.625 c -1.20945,-0.35429 -2.48898,-0.53125 -3.8125,-0.53125 -2.62433,0 -5.08015,0.738068 -7.15625,2.03125 L 153.75,52.28125 c 4.26057,-3.217148 9.56672,-5.125 15.3125,-5.125 z m -48.75,6.3125 -0.96875,2.09375 -0.0625,0.71875 0.1875,1.25 -2.25,0.59375 -0.4375,-1.1875 -0.4375,-0.59375 L 114.5,55 l -1.09375,0.625 0.21875,2.28125 0.3125,0.65625 0.78125,1 -1.625,1.625 -1,-0.78125 -0.65625,-0.3125 -2.28125,-0.21875 -0.625,1.0625 1.34375,1.84375 0.59375,0.4375 1.15625,0.46875 -0.59375,2.21875 -1.25,-0.1875 -0.75,0.0625 -2.0625,0.9375 0,1.25 2.0625,0.9375 0.75,0.0625 1.25,-0.15625 0.59375,2.21875 -1.1875,0.46875 -0.59375,0.40625 -1.34375,1.875 0.59375,1.0625 2.28125,-0.21875 0.6875,-0.3125 1,-0.78125 1.625,1.625 -0.8125,1 -0.3125,0.6875 -0.21875,2.25 1.0625,0.625 1.875,-1.3125 0.40625,-0.59375 0.5,-1.1875 2.21875,0.59375 -0.1875,1.25 0.0625,0.75 0.9375,2.09375 1.21875,0 0.96875,-2.09375 0.0625,-0.71875 -0.1875,-1.28125 2.21875,-0.5625 0.46875,1.15625 0.4375,0.625 1.84375,1.3125 1.0625,-0.59375 -0.21875,-2.28125 -0.28125,-0.65625 -0.78125,-1 1.625,-1.625 1,0.78125 0.65625,0.3125 2.28125,0.21875 0.625,-1.0625 L 131.875,72 l -0.59375,-0.4375 -1.1875,-0.46875 0.625,-2.21875 1.25,0.1875 0.71875,-0.0625 2.09375,-0.9375 0,-1.25 -2.0625,-0.9375 -0.75,-0.09375 -1.25,0.1875 -0.59375,-2.21875 1.1875,-0.46875 0.59375,-0.4375 L 133.25,61 l -0.625,-1.0625 -2.25,0.21875 -0.6875,0.3125 -1,0.78125 -1.625,-1.65625 0.8125,-0.96875 0.28125,-0.6875 0.25,-2.25 -1.0625,-0.625 -1.875,1.3125 -0.4375,0.59375 -0.46875,1.1875 -2.21875,-0.59375 0.1875,-1.28125 -0.0625,-0.71875 -0.9375,-2.09375 -1.21875,0 z m 29.625,2.34375 8.15625,8.78125 C 156.4581,66.83303 155.5,69.579121 155.5,72.5625 c 0,1.101371 0.15791,2.193362 0.40625,3.21875 L 145,80.75 c -0.87766,-2.573536 -1.375,-5.318808 -1.375,-8.1875 0,-6.420779 2.37994,-12.275157 6.3125,-16.75 z m -29.09375,8.375 c 1.81315,0 3.28125,1.468102 3.28125,3.28125 0,1.813148 -1.4681,3.28125 -3.28125,3.28125 -1.81315,0 -3.28125,-1.468102 -3.28125,-3.28125 0,-1.813148 1.4681,-3.28125 3.28125,-3.28125 z m 48.21875,3.28125 c 2.78946,0 5.0625,2.241791 5.0625,5.03125 0,2.789459 -2.27304,5.0625 -5.0625,5.0625 -2.78946,0 -5.03125,-2.273041 -5.03125,-5.0625 0,-2.789459 2.24179,-5.03125 5.03125,-5.03125 z"
       inkscape:connector-curvature="0"
       transform="translate(-100,0)"
       clip-path="url(#clipPath3836)"
       id="path3830"
       style="opacity:0.5;fill:#ffffff;fill-opacity:1;stroke:none;display:inline;filter:url(#filter3879)" />
    <path
       d="M 15.78125,6 C 10.000055,9.112307 6.0625,15.225149 6.0625,22.25 c 0,10.181526 8.255974,18.4375 18.4375,18.4375 10.181526,0 18.4375,-8.255974 18.4375,-18.4375 0,-7.024851 -3.937555,-13.137693 -9.71875,-16.25 L 15.78125,6 z M 40.5625,6 c 4.098021,4.129345 6.625,9.818866 6.625,16.09375 0,12.612729 -10.231018,22.84375 -22.84375,22.84375 C 16.838963,44.937501 10.164764,41.309677 6,35.71875 l 0,7.875 0.21875,-0.15625 0.4375,-0.53125 2.1875,1.6875 -0.40625,0.5625 -0.625,1.75 L 7.4375,49.625 9,50.5 l 2.15625,-1.65625 1.1875,-1.4375 0.3125,-0.625 2.53125,1.0625 -0.25,0.65625 -0.15625,1.84375 0.375,2.71875 1.71875,0.46875 1.6875,-2.1875 0.75,-1.6875 0.125,-0.6875 2.75,0.375 L 22.125,50 l 0.28125,1.84375 1.0625,2.53125 1.78125,0 1.0625,-2.53125 L 26.625,50 l -0.0625,-0.65625 2.71875,-0.375 0.125,0.6875 0.78125,1.6875 1.65625,2.1875 1.71875,-0.46875 0.375,-2.71875 L 33.75,48.5 l -0.21875,-0.65625 2.53125,-1.0625 0.3125,0.625 1.15625,1.4375 L 39.71875,50.5 41.25,49.625 40.90625,46.90625 40.25,45.15625 39.875,44.59375 42.0625,42.90625 42.5,43.4375 44,44.5 l 2.5625,1.0625 1.25,-1.28125 L 46.75,41.75 l -1.0625,-1.5 -0.53125,-0.4375 1.6875,-2.1875 0.5625,0.375 1.75,0.65625 L 51.875,39 l 0.875,-1.53125 -1.65625,-2.1875 -1.4375,-1.1875 -0.625,-0.25 1.0625,-2.5625 L 50.75,31.5 l 1.84375,0.1875 2.71875,-0.375 0.4375,-1.71875 -2.15625,-1.6875 -1.6875,-0.75 -0.6875,-0.125 0.375,-2.75 0.6875,0.0625 1.8125,-0.3125 L 56.625,23 l 0,-1.78125 -2.53125,-1.0625 -1.8125,-0.3125 -0.6875,0.0625 -0.375,-2.75 0.6875,-0.125 1.6875,-0.75 L 55.75,14.59375 55.3125,12.875 52.59375,12.53125 50.75,12.6875 l -0.65625,0.25 -1.0625,-2.5625 0.625,-0.28125 1.4375,-1.1875 L 52.75,6.75 52.34375,6 l -4.4375,0 -0.5,0.1875 -0.5625,0.40625 L 46.375,6 40.5625,6 z M 24.5,8.625 c 7.53154,0 13.625,6.09346 13.625,13.625 0,7.53154 -6.09346,13.65625 -13.625,13.65625 -7.53154,0 -13.65625,-6.12471 -13.65625,-13.65625 0,-7.53154 6.12471,-13.625 13.65625,-13.625 z m 43.59375,28.21875 -1.1875,2.8125 -0.34375,2 0.0625,0.78125 -3.03125,0.375 -0.125,-0.71875 -0.84375,-1.875 -1.875,-2.40625 -1.875,0.5 -0.40625,3 0.1875,2.0625 0.25,0.6875 -2.8125,1.1875 -0.3125,-0.6875 -1.3125,-1.59375 -2.4375,-1.84375 -1.6875,1 0.40625,3.03125 0.6875,1.875 0.4375,0.65625 -2.40625,1.84375 -0.5,-0.5625 L 47.3125,47.75 44.5,46.625 43.09375,48 44.25,50.8125 l 1.1875,1.65625 0.59375,0.5 -1.875,2.4375 -0.625,-0.4375 L 41.625,54.25 l -3,-0.40625 -1,1.71875 1.84375,2.40625 1.59375,1.3125 0.65625,0.3125 -1.15625,2.8125 -0.71875,-0.25 -2.03125,-0.1875 -3,0.40625 -0.53125,1.90625 2.40625,1.84375 1.875,0.84375 0.75,0.15625 -0.40625,3.03125 -0.75,-0.0625 -2.03125,0.3125 -2.8125,1.1875 0,1.96875 2.8125,1.15625 2.03125,0.34375 0.75,-0.0625 0.40625,3.03125 -0.75,0.15625 -1.875,0.8125 -2.40625,1.875 0.53125,1.90625 3,0.40625 2.03125,-0.21875 0.71875,-0.25 1.15625,2.8125 -0.65625,0.34375 -1.59375,1.28125 -1.84375,2.4375 0.25,0.40625 5.9375,0 0.34375,-0.25 0.1875,0.25 6.21875,0 c -1.295234,-1.37524 -2.43984,-2.894648 -3.40625,-4.53125 l 10.90625,-5 c 2.316387,3.217479 6.014825,5.382208 10.21875,5.625 L 68.8125,90 l 5.21875,0 -0.625,-4.59375 C 77.19428,84.121554 80.237632,81.208793 81.6875,77.5 L 90,79.03125 90,73.75 82.625,72.40625 c -0.05044,-4.233581 -2.068949,-7.986155 -5.15625,-10.4375 l 5.5,-10.65625 c 2.768009,1.813686 5.157045,4.157048 7.03125,6.875 l 0,-9.84375 -0.84375,0.625 -0.5,0.5625 -2.40625,-1.84375 0.40625,-0.65625 0.75,-1.875 0.375,-3.03125 -1.71875,-1 -2.40625,1.84375 -1.28125,1.59375 -0.34375,0.6875 -2.8125,-1.1875 0.25,-0.6875 0.21875,-2.0625 -0.4375,-3 -1.875,-0.5 -1.875,2.40625 -0.84375,1.875 -0.125,0.71875 -3.03125,-0.375 0.0625,-0.78125 -0.34375,-2 -1.15625,-2.8125 -1.96875,0 z m 0.96875,10.3125 c 3.284696,0 6.430143,0.645954 9.3125,1.78125 l -5.5,10.625 c -1.209447,-0.35429 -2.488978,-0.53125 -3.8125,-0.53125 -2.624326,0 -5.080149,0.738068 -7.15625,2.03125 L 53.75,52.28125 c 4.260574,-3.217148 9.566723,-5.125 15.3125,-5.125 z m -48.75,6.3125 -0.96875,2.09375 -0.0625,0.71875 0.1875,1.25 -2.25,0.59375 -0.4375,-1.1875 -0.4375,-0.59375 L 14.5,55 l -1.09375,0.625 0.21875,2.28125 0.3125,0.65625 0.78125,1 -1.625,1.625 -1,-0.78125 -0.65625,-0.3125 -2.28125,-0.21875 -0.625,1.0625 1.34375,1.84375 0.59375,0.4375 1.15625,0.46875 -0.59375,2.21875 -1.25,-0.1875 -0.75,0.0625 -2.0625,0.9375 0,1.25 2.0625,0.9375 0.75,0.0625 1.25,-0.15625 L 11.625,71.03125 10.4375,71.5 9.84375,71.90625 8.5,73.78125 9.09375,74.84375 11.375,74.625 l 0.6875,-0.3125 1,-0.78125 1.625,1.625 -0.8125,1 -0.3125,0.6875 -0.21875,2.25 1.0625,0.625 1.875,-1.3125 0.40625,-0.59375 0.5,-1.1875 2.21875,0.59375 -0.1875,1.25 0.0625,0.75 0.9375,2.09375 1.21875,0 0.96875,-2.09375 0.0625,-0.71875 -0.1875,-1.28125 2.21875,-0.5625 0.46875,1.15625 0.4375,0.625 L 27.25,79.75 28.3125,79.15625 28.09375,76.875 27.8125,76.21875 l -0.78125,-1 1.625,-1.625 1,0.78125 0.65625,0.3125 2.28125,0.21875 0.625,-1.0625 L 31.875,72 l -0.59375,-0.4375 -1.1875,-0.46875 0.625,-2.21875 1.25,0.1875 L 32.6875,69 l 2.09375,-0.9375 0,-1.25 -2.0625,-0.9375 -0.75,-0.09375 -1.25,0.1875 L 30.125,63.75 31.3125,63.28125 31.90625,62.84375 33.25,61 l -0.625,-1.0625 -2.25,0.21875 -0.6875,0.3125 -1,0.78125 -1.625,-1.65625 0.8125,-0.96875 0.28125,-0.6875 0.25,-2.25 -1.0625,-0.625 -1.875,1.3125 -0.4375,0.59375 -0.46875,1.1875 -2.21875,-0.59375 0.1875,-1.28125 -0.0625,-0.71875 -0.9375,-2.09375 -1.21875,0 z m 29.625,2.34375 8.15625,8.78125 C 56.458102,66.83303 55.5,69.579121 55.5,72.5625 c 0,1.101371 0.157912,2.193362 0.40625,3.21875 L 45,80.75 c -0.877661,-2.573536 -1.375,-5.318808 -1.375,-8.1875 0,-6.420779 2.379937,-12.275157 6.3125,-16.75 z m -29.09375,8.375 c 1.813148,0 3.28125,1.468102 3.28125,3.28125 0,1.813148 -1.468102,3.28125 -3.28125,3.28125 -1.813148,0 -3.28125,-1.468102 -3.28125,-3.28125 0,-1.813148 1.468102,-3.28125 3.28125,-3.28125 z m 48.21875,3.28125 c 2.789459,0 5.0625,2.241791 5.0625,5.03125 0,2.789459 -2.273041,5.0625 -5.0625,5.0625 -2.789459,0 -5.03125,-2.273041 -5.03125,-5.0625 0,-2.789459 2.241791,-5.03125 5.03125,-5.03125 z"
       inkscape:connector-curvature="0"
       id="path6159"
       style="fill:url(#linearGradient3846);fill-opacity:1;stroke:none;display:inline" />
    <path
       d="m 115.78125,6.5 c -5.78119,3.112307 -9.71875,9.225149 -9.71875,16.25 0,10.181526 8.25597,18.4375 18.4375,18.4375 10.18153,0 18.4375,-8.255974 18.4375,-18.4375 0,-7.024851 -3.93756,-13.137693 -9.71875,-16.25 l -17.4375,0 z m 24.78125,0 c 4.09802,4.129345 6.625,9.818866 6.625,16.09375 0,12.612729 -10.23102,22.84375 -22.84375,22.84375 -7.50479,10e-7 -14.17899,-3.627823 -18.34375,-9.21875 l 0,7.875 0.21875,-0.15625 0.4375,-0.53125 2.1875,1.6875 -0.40625,0.5625 -0.625,1.75 -0.375,2.71875 L 109,51 l 2.15625,-1.65625 1.1875,-1.4375 0.3125,-0.625 2.53125,1.0625 -0.25,0.65625 -0.15625,1.84375 0.375,2.71875 1.71875,0.46875 1.6875,-2.1875 0.75,-1.6875 0.125,-0.6875 2.75,0.375 -0.0625,0.65625 0.28125,1.84375 1.0625,2.53125 1.78125,0 1.0625,-2.53125 0.3125,-1.84375 -0.0625,-0.65625 2.71875,-0.375 0.125,0.6875 0.78125,1.6875 1.65625,2.1875 1.71875,-0.46875 0.375,-2.71875 L 133.75,49 l -0.21875,-0.65625 2.53125,-1.0625 0.3125,0.625 1.15625,1.4375 2.1875,1.65625 1.53125,-0.875 -0.34375,-2.71875 -0.65625,-1.75 -0.375,-0.5625 2.1875,-1.6875 L 142.5,43.9375 144,45 l 2.5625,1.0625 1.25,-1.28125 -1.0625,-2.53125 -1.0625,-1.5 -0.53125,-0.4375 1.6875,-2.1875 0.5625,0.375 1.75,0.65625 2.71875,0.34375 0.875,-1.53125 -1.65625,-2.1875 -1.4375,-1.1875 -0.625,-0.25 1.0625,-2.5625 L 150.75,32 l 1.84375,0.1875 2.71875,-0.375 0.4375,-1.71875 -2.15625,-1.6875 -1.6875,-0.75 -0.6875,-0.125 0.375,-2.75 0.6875,0.0625 1.8125,-0.3125 2.53125,-1.03125 0,-1.78125 -2.53125,-1.0625 -1.8125,-0.3125 -0.6875,0.0625 -0.375,-2.75 0.6875,-0.125 1.6875,-0.75 2.15625,-1.6875 -0.4375,-1.71875 -2.71875,-0.34375 -1.84375,0.15625 -0.65625,0.25 -1.0625,-2.5625 0.625,-0.28125 1.4375,-1.1875 L 152.75,7.25 152.34375,6.5 l -4.4375,0 -0.5,0.1875 -0.5625,0.40625 L 146.375,6.5 l -5.8125,0 z M 124.5,9.125 c 7.53154,0 13.625,6.09346 13.625,13.625 0,7.53154 -6.09346,13.65625 -13.625,13.65625 -7.53154,0 -13.65625,-6.12471 -13.65625,-13.65625 0,-7.53154 6.12471,-13.625 13.65625,-13.625 z m 43.59375,28.21875 -1.1875,2.8125 -0.34375,2 0.0625,0.78125 -3.03125,0.375 -0.125,-0.71875 -0.84375,-1.875 -1.875,-2.40625 -1.875,0.5 -0.40625,3 0.1875,2.0625 0.25,0.6875 -2.8125,1.1875 -0.3125,-0.6875 -1.3125,-1.59375 -2.4375,-1.84375 -1.6875,1 0.40625,3.03125 0.6875,1.875 0.4375,0.65625 -2.40625,1.84375 -0.5,-0.5625 L 147.3125,48.25 144.5,47.125 l -1.40625,1.375 1.15625,2.8125 1.1875,1.65625 0.59375,0.5 -1.875,2.4375 -0.625,-0.4375 -1.90625,-0.71875 -3,-0.40625 -1,1.71875 1.84375,2.40625 1.59375,1.3125 0.65625,0.3125 -1.15625,2.8125 -0.71875,-0.25 -2.03125,-0.1875 -3,0.40625 -0.53125,1.90625 2.40625,1.84375 1.875,0.84375 0.75,0.15625 -0.40625,3.03125 -0.75,-0.0625 -2.03125,0.3125 -2.8125,1.1875 0,1.96875 2.8125,1.15625 2.03125,0.34375 0.75,-0.0625 0.40625,3.03125 -0.75,0.15625 -1.875,0.8125 -2.40625,1.875 0.53125,1.90625 3,0.40625 2.03125,-0.21875 0.71875,-0.25 1.15625,2.8125 -0.65625,0.34375 -1.59375,1.28125 -1.84375,2.4375 0.25,0.40625 5.9375,0 0.34375,-0.25 0.1875,0.25 6.21875,0 c -1.29523,-1.37524 -2.43984,-2.894648 -3.40625,-4.53125 l 10.90625,-5 c 2.31639,3.217479 6.01482,5.382208 10.21875,5.625 l 0.53125,3.90625 5.21875,0 -0.625,-4.59375 C 177.19428,84.621554 180.23763,81.708793 181.6875,78 L 190,79.53125 190,74.25 182.625,72.90625 c -0.0504,-4.233581 -2.06895,-7.986155 -5.15625,-10.4375 l 5.5,-10.65625 c 2.76801,1.813686 5.15704,4.157048 7.03125,6.875 l 0,-9.84375 -0.84375,0.625 -0.5,0.5625 -2.40625,-1.84375 0.40625,-0.65625 0.75,-1.875 0.375,-3.03125 -1.71875,-1 -2.40625,1.84375 -1.28125,1.59375 -0.34375,0.6875 -2.8125,-1.1875 0.25,-0.6875 0.21875,-2.0625 -0.4375,-3 -1.875,-0.5 -1.875,2.40625 -0.84375,1.875 -0.125,0.71875 -3.03125,-0.375 0.0625,-0.78125 -0.34375,-2 -1.15625,-2.8125 -1.96875,0 z m 0.96875,10.3125 c 3.2847,0 6.43014,0.645954 9.3125,1.78125 l -5.5,10.625 c -1.20945,-0.35429 -2.48898,-0.53125 -3.8125,-0.53125 -2.62433,0 -5.08015,0.738068 -7.15625,2.03125 L 153.75,52.78125 c 4.26057,-3.217148 9.56672,-5.125 15.3125,-5.125 z m -48.75,6.3125 -0.96875,2.09375 -0.0625,0.71875 0.1875,1.25 -2.25,0.59375 -0.4375,-1.1875 -0.4375,-0.59375 L 114.5,55.5 l -1.09375,0.625 0.21875,2.28125 0.3125,0.65625 0.78125,1 -1.625,1.625 -1,-0.78125 -0.65625,-0.3125 -2.28125,-0.21875 -0.625,1.0625 1.34375,1.84375 0.59375,0.4375 1.15625,0.46875 -0.59375,2.21875 -1.25,-0.1875 -0.75,0.0625 -2.0625,0.9375 0,1.25 2.0625,0.9375 0.75,0.0625 1.25,-0.15625 0.59375,2.21875 -1.1875,0.46875 -0.59375,0.40625 -1.34375,1.875 0.59375,1.0625 2.28125,-0.21875 0.6875,-0.3125 1,-0.78125 1.625,1.625 -0.8125,1 -0.3125,0.6875 -0.21875,2.25 1.0625,0.625 1.875,-1.3125 0.40625,-0.59375 0.5,-1.1875 2.21875,0.59375 -0.1875,1.25 0.0625,0.75 0.9375,2.09375 1.21875,0 0.96875,-2.09375 0.0625,-0.71875 -0.1875,-1.28125 2.21875,-0.5625 0.46875,1.15625 0.4375,0.625 1.84375,1.3125 1.0625,-0.59375 -0.21875,-2.28125 -0.28125,-0.65625 -0.78125,-1 1.625,-1.625 1,0.78125 0.65625,0.3125 2.28125,0.21875 0.625,-1.0625 L 131.875,72.5 l -0.59375,-0.4375 -1.1875,-0.46875 0.625,-2.21875 1.25,0.1875 0.71875,-0.0625 2.09375,-0.9375 0,-1.25 -2.0625,-0.9375 -0.75,-0.09375 -1.25,0.1875 -0.59375,-2.21875 1.1875,-0.46875 0.59375,-0.4375 L 133.25,61.5 l -0.625,-1.0625 -2.25,0.21875 -0.6875,0.3125 -1,0.78125 -1.625,-1.65625 0.8125,-0.96875 0.28125,-0.6875 0.25,-2.25 -1.0625,-0.625 -1.875,1.3125 -0.4375,0.59375 -0.46875,1.1875 -2.21875,-0.59375 0.1875,-1.28125 -0.0625,-0.71875 -0.9375,-2.09375 -1.21875,0 z m 29.625,2.34375 8.15625,8.78125 C 156.4581,67.33303 155.5,70.079121 155.5,73.0625 c 0,1.101371 0.15791,2.193362 0.40625,3.21875 L 145,81.25 c -0.87766,-2.573536 -1.375,-5.318808 -1.375,-8.1875 0,-6.420779 2.37994,-12.275157 6.3125,-16.75 z m -29.09375,8.375 c 1.81315,0 3.28125,1.468102 3.28125,3.28125 0,1.813148 -1.4681,3.28125 -3.28125,3.28125 -1.81315,0 -3.28125,-1.468102 -3.28125,-3.28125 0,-1.813148 1.4681,-3.28125 3.28125,-3.28125 z m 48.21875,3.28125 c 2.78946,0 5.0625,2.241791 5.0625,5.03125 0,2.789459 -2.27304,5.0625 -5.0625,5.0625 -2.78946,0 -5.03125,-2.273041 -5.03125,-5.0625 0,-2.789459 2.24179,-5.03125 5.03125,-5.03125 z"
       inkscape:connector-curvature="0"
       transform="translate(-100,0)"
       clip-path="url(#clipPath3867)"
       id="path3786"
       style="opacity:0.2;fill:none;stroke:#000000;stroke-width:1.5;stroke-miterlimit:4;stroke-dasharray:none;display:inline;filter:url(#filter3875)" />
    <path
       d="m -51.90625,36.84375 -1.1875,2.8125 -0.34375,2 0.0625,0.78125 -3.03125,0.375 -0.125,-0.71875 -0.84375,-1.875 -1.875,-2.40625 -1.875,0.5 -0.40625,3 0.1875,2.0625 0.25,0.6875 -2.8125,1.1875 -0.3125,-0.6875 -1.3125,-1.59375 -2.4375,-1.84375 -1.6875,1 0.40625,3.03125 0.6875,1.875 0.4375,0.65625 -2.40625,1.84375 -0.5,-0.5625 L -72.6875,47.75 -75.5,46.625 -76.90625,48 l 1.15625,2.8125 1.1875,1.65625 0.59375,0.5 -1.875,2.4375 -0.625,-0.4375 -1.90625,-0.71875 -3,-0.40625 -1,1.71875 1.84375,2.40625 1.59375,1.3125 0.65625,0.3125 -1.15625,2.8125 -0.71875,-0.25 -2.03125,-0.1875 -3,0.40625 -0.53125,1.90625 2.40625,1.84375 1.875,0.84375 0.75,0.15625 -0.40625,3.03125 -0.75,-0.0625 -2.03125,0.3125 -2.8125,1.1875 0,1.96875 2.8125,1.15625 2.03125,0.34375 0.75,-0.0625 0.40625,3.03125 -0.75,0.15625 -1.875,0.8125 -2.40625,1.875 0.53125,1.90625 3,0.40625 2.03125,-0.21875 0.71875,-0.25 1.15625,2.8125 -0.65625,0.34375 -1.59375,1.28125 -1.84375,2.4375 1,1.6875 3,-0.375 1.90625,-0.71875 0.625,-0.4375 1.875,2.40625 -0.59375,0.5 -1.1875,1.6875 -1.15625,2.8125 1.40625,1.375 2.8125,-1.15625 1.65625,-1.1875 0.5,-0.5625 2.40625,1.84375 -0.4375,0.625 L -69.25,100 l -0.40625,3.03125 1.6875,0.96875 2.4375,-1.8125 1.3125,-1.59375 0.3125,-0.6875 2.8125,1.15625 -0.25,0.71875 -0.1875,2.03125 0.40625,3.03125 1.875,0.5 1.875,-2.40625 0.84375,-1.875 0.125,-0.75 3.03125,0.40625 -0.0625,0.75 0.34375,2.03125 1.1875,2.8125 1.96875,0 1.15625,-2.8125 0.34375,-2.03125 -0.0625,-0.75 3.03125,-0.40625 0.125,0.75 0.84375,1.875 1.875,2.40625 1.875,-0.5 0.4375,-3.03125 -0.21875,-2.03125 -0.25,-0.71875 2.8125,-1.15625 0.34375,0.6875 1.28125,1.59375 2.40625,1.8125 1.71875,-0.96875 -0.375,-3.03125 -0.75,-1.90625 -0.40625,-0.625 2.40625,-1.84375 0.5,0.5625 1.65625,1.1875 2.8125,1.15625 1.40625,-1.375 -1.15625,-2.8125 -1.1875,-1.6875 -0.59375,-0.5 1.875,-2.40625 0.625,0.4375 1.90625,0.71875 3.03125,0.375 0.96875,-1.6875 -1.84375,-2.4375 -1.59375,-1.28125 -0.6875,-0.34375 1.1875,-2.8125 0.71875,0.25 2.03125,0.21875 3,-0.40625 0.53125,-1.90625 -2.4375,-1.875 -1.84375,-0.8125 -0.75,-0.15625 0.40625,-3.03125 0.75,0.0625 2.03125,-0.34375 2.78125,-1.15625 0,-1.96875 -2.78125,-1.1875 -2.03125,-0.3125 -0.75,0.0625 -0.40625,-3.03125 0.75,-0.15625 1.84375,-0.84375 2.4375,-1.84375 -0.53125,-1.90625 -3,-0.40625 -2.03125,0.1875 -0.71875,0.25 -1.1875,-2.8125 0.6875,-0.3125 1.59375,-1.3125 L -19.5,55.5625 -20.46875,53.84375 -23.5,54.25 l -1.90625,0.71875 -0.625,0.4375 -1.875,-2.4375 0.59375,-0.5 1.1875,-1.65625 1.15625,-2.8125 -1.40625,-1.375 -2.8125,1.125 -1.65625,1.21875 -0.5,0.5625 -2.40625,-1.84375 0.40625,-0.65625 0.75,-1.875 0.375,-3.03125 -1.71875,-1 -2.40625,1.84375 -1.28125,1.59375 -0.34375,0.6875 -2.8125,-1.1875 0.25,-0.6875 0.21875,-2.0625 -0.4375,-3 -1.875,-0.5 -1.875,2.40625 -0.84375,1.875 -0.125,0.71875 -3.03125,-0.375 0.0625,-0.78125 -0.34375,-2 -1.15625,-2.8125 -1.96875,0 z m 0.96875,10.3125 c 3.284696,0 6.430143,0.645954 9.3125,1.78125 l -5.5,10.625 c -1.209447,-0.35429 -2.488978,-0.53125 -3.8125,-0.53125 -2.624326,0 -5.080149,0.738068 -7.15625,2.03125 L -66.25,52.28125 c 4.260574,-3.217148 9.566723,-5.125 15.3125,-5.125 z m 13.90625,4.15625 c 6.929687,4.540548 11.5,12.349721 11.5,21.25 0,0.664694 -0.01235,1.316818 -0.0625,1.96875 l -11.78125,-2.125 c -0.05044,-4.233581 -2.068949,-7.986155 -5.15625,-10.4375 l 5.5,-10.65625 z m -33.03125,4.5 8.15625,8.78125 C -63.541898,66.83303 -64.5,69.579121 -64.5,72.5625 c 0,1.101371 0.157912,2.193362 0.40625,3.21875 L -75,80.75 c -0.877661,-2.573536 -1.375,-5.318808 -1.375,-8.1875 0,-6.420779 2.379937,-12.275157 6.3125,-16.75 z m 19.125,11.65625 c 2.789459,0 5.0625,2.241791 5.0625,5.03125 0,2.789459 -2.273041,5.0625 -5.0625,5.0625 -2.789459,0 -5.03125,-2.273041 -5.03125,-5.0625 0,-2.789459 2.241791,-5.03125 5.03125,-5.03125 z m 12.625,10.03125 11.78125,2.15625 c -2.520899,8.720021 -9.563054,15.51994 -18.4375,17.65625 l -1.625,-11.90625 c 3.78803,-1.284696 6.831382,-4.197457 8.28125,-7.90625 z m -23.625,2.96875 c 2.316387,3.217479 6.014825,5.382208 10.21875,5.625 L -50.125,98 c -0.269203,0.009 -0.541251,0 -0.8125,0 -9.326138,0 -17.480084,-5.0356 -21.90625,-12.53125 l 10.90625,-5 z"
       inkscape:connector-curvature="0"
       id="path3767"
       style="fill:#000000;fill-opacity:1;stroke:none;display:inline" />
    <path
       d="m -96.53125,-10.15625 -1.0625,2.5 -0.28125,1.84375 0.0625,0.6875 -2.75,0.375 -0.125,-0.6875 -0.75,-1.6875 -1.6875,-2.1875 -1.71875,0.46875 -0.375,2.71875 0.15625,1.84375 0.25,0.625 -2.53125,1.0625 -0.3125,-0.625 -1.1875,-1.40625 -2.15625,-1.6875 -1.5625,0.90625 0.375,2.71875 0.625,1.75 0.40625,0.5625 -2.1875,1.6875 -0.4375,-0.53125 -1.5,-1.09375 -2.5625,-1.03125 -1.25,1.25 1.03125,2.5625 1.09375,1.5 0.5,0.4375 -1.65625,2.1875 -0.5625,-0.40625 -1.75,-0.65625 -2.71875,-0.34375 -0.875,1.5625 1.65625,2.15625 1.4375,1.1875 0.625,0.28125 -1.0625,2.5625 -0.65625,-0.25 -1.84375,-0.15625 -2.71875,0.34375 -0.46875,1.71875 2.1875,1.6875 1.6875,0.75 0.65625,0.125 -0.34375,2.75 -0.6875,-0.0625 -1.8125,0.3125 -2.53125,1.0625 0,1.78125 2.53125,1.03125 1.8125,0.3125 0.6875,-0.0625 0.34375,2.75 -0.65625,0.125 -1.6875,0.75 -2.1875,1.6875 0.46875,1.71875 2.71875,0.375 1.84375,-0.1875 0.65625,-0.21875 1.0625,2.5625 -0.625,0.25 -1.4375,1.1875 -1.65625,2.1875 0.875,1.53125 2.71875,-0.34375 1.75,-0.65625 0.5625,-0.375 1.65625,2.1875 -0.5,0.4375 -1.09375,1.5 -1.03125,2.53125 1.25,1.28125 2.5625,-1.0625 1.5,-1.0625 0.4375,-0.53125 2.1875,1.6875 -0.40625,0.5625 -0.625,1.75 -0.375,2.71875 1.5625,0.875 2.15625,-1.65625 1.1875,-1.4375 0.3125,-0.625 2.53125,1.0625 -0.25,0.65625 -0.15625,1.84375 0.375,2.71875 1.71875,0.46875 1.6875,-2.1875 0.75,-1.6875 0.125,-0.6875 2.75,0.375 L -97.875,50 l 0.28125,1.84375 1.0625,2.53125 1.78125,0 1.0625,-2.53125 L -93.375,50 l -0.0625,-0.65625 2.71875,-0.375 0.125,0.6875 0.78125,1.6875 1.65625,2.1875 1.71875,-0.46875 0.375,-2.71875 L -86.25,48.5 l -0.21875,-0.65625 2.53125,-1.0625 0.3125,0.625 1.15625,1.4375 2.1875,1.65625 1.53125,-0.875 -0.34375,-2.71875 -0.65625,-1.75 -0.375,-0.5625 2.1875,-1.6875 0.4375,0.53125 1.5,1.0625 2.5625,1.0625 1.25,-1.28125 -1.0625,-2.53125 -1.0625,-1.5 -0.53125,-0.4375 1.6875,-2.1875 0.5625,0.375 1.75,0.65625 L -68.125,39 l 0.875,-1.53125 -1.65625,-2.1875 -1.4375,-1.1875 -0.625,-0.25 1.0625,-2.5625 0.65625,0.21875 1.84375,0.1875 2.71875,-0.375 0.4375,-1.71875 -2.15625,-1.6875 -1.6875,-0.75 -0.6875,-0.125 0.375,-2.75 0.6875,0.0625 1.8125,-0.3125 L -63.375,23 l 0,-1.78125 -2.53125,-1.0625 -1.8125,-0.3125 -0.6875,0.0625 -0.375,-2.75 0.6875,-0.125 1.6875,-0.75 2.15625,-1.6875 -0.4375,-1.71875 -2.71875,-0.34375 -1.84375,0.15625 -0.65625,0.25 -1.0625,-2.5625 0.625,-0.28125 1.4375,-1.1875 L -67.25,6.75 l -0.875,-1.5625 -2.71875,0.34375 -1.75,0.65625 -0.5625,0.40625 -1.6875,-2.1875 0.53125,-0.4375 1.0625,-1.5 1.0625,-2.5625 -1.25,-1.25 -2.5625,1.03125 -1.5,1.09375 -0.4375,0.53125 -2.1875,-1.6875 0.375,-0.5625 0.65625,-1.75 0.34375,-2.71875 -1.53125,-0.90625 -2.1875,1.6875 -1.15625,1.40625 -0.3125,0.625 -2.53125,-1.0625 0.21875,-0.625 0.1875,-1.84375 -0.375,-2.71875 -1.71875,-0.46875 -1.65625,2.1875 -0.78125,1.6875 -0.125,0.6875 -2.71875,-0.375 0.0625,-0.6875 -0.3125,-1.84375 -1.0625,-2.5 -1.78125,0 z m 0.875,9.40625 c 12.612727,0 22.84375,10.2310197 22.84375,22.84375 0,12.612729 -10.231018,22.84375 -22.84375,22.84375 C -108.26898,44.937501 -118.5,34.70648 -118.5,22.09375 -118.5,9.4810197 -108.26898,-0.75 -95.65625,-0.75 z M -95.5,3.8125 c -10.18153,0 -18.4375,8.255974 -18.4375,18.4375 0,10.181526 8.25597,18.4375 18.4375,18.4375 10.181526,0 18.4375,-8.255974 18.4375,-18.4375 0,-10.181526 -8.255974,-18.4375 -18.4375,-18.4375 z m 0,4.8125 c 7.53154,0 13.625,6.09346 13.625,13.625 0,7.53154 -6.09346,13.65625 -13.625,13.65625 -7.53154,0 -13.65625,-6.12471 -13.65625,-13.65625 0,-7.53154 6.12471,-13.625 13.65625,-13.625 z"
       inkscape:connector-curvature="0"
       id="path3769"
       style="fill:#000000;fill-opacity:1;stroke:none" />
    <path
       d="m -99.6875,53.46875 -0.96875,2.09375 -0.0625,0.71875 0.1875,1.25 -2.25,0.59375 -0.4375,-1.1875 -0.4375,-0.59375 L -105.5,55 l -1.09375,0.625 0.21875,2.28125 0.3125,0.65625 0.78125,1 -1.625,1.625 -1,-0.78125 -0.65625,-0.3125 -2.28125,-0.21875 -0.625,1.0625 1.34375,1.84375 0.59375,0.4375 1.15625,0.46875 -0.59375,2.21875 -1.25,-0.1875 -0.75,0.0625 -2.0625,0.9375 0,1.25 2.0625,0.9375 0.75,0.0625 1.25,-0.15625 0.59375,2.21875 -1.1875,0.46875 -0.59375,0.40625 -1.34375,1.875 0.59375,1.0625 2.28125,-0.21875 0.6875,-0.3125 1,-0.78125 1.625,1.625 -0.8125,1 -0.3125,0.6875 -0.21875,2.25 1.0625,0.625 1.875,-1.3125 0.40625,-0.59375 0.5,-1.1875 2.21875,0.59375 -0.1875,1.25 0.0625,0.75 0.9375,2.09375 1.21875,0 0.96875,-2.09375 0.0625,-0.71875 -0.1875,-1.28125 2.21875,-0.5625 0.46875,1.15625 0.4375,0.625 1.84375,1.3125 1.0625,-0.59375 -0.21875,-2.28125 -0.28125,-0.65625 -0.78125,-1 1.625,-1.625 1,0.78125 0.65625,0.3125 2.28125,0.21875 0.625,-1.0625 L -88.125,72 l -0.59375,-0.4375 -1.1875,-0.46875 0.625,-2.21875 1.25,0.1875 0.71875,-0.0625 2.09375,-0.9375 0,-1.25 -2.0625,-0.9375 -0.75,-0.09375 -1.25,0.1875 -0.59375,-2.21875 1.1875,-0.46875 0.59375,-0.4375 L -86.75,61 l -0.625,-1.0625 -2.25,0.21875 -0.6875,0.3125 -1,0.78125 -1.625,-1.65625 0.8125,-0.96875 0.28125,-0.6875 0.25,-2.25 -1.0625,-0.625 -1.875,1.3125 -0.4375,0.59375 -0.46875,1.1875 -2.21875,-0.59375 0.1875,-1.28125 -0.0625,-0.71875 -0.9375,-2.09375 -1.21875,0 z m 0.53125,10.71875 c 1.813148,0 3.28125,1.468102 3.28125,3.28125 0,1.813148 -1.468102,3.28125 -3.28125,3.28125 -1.81315,0 -3.28125,-1.468102 -3.28125,-3.28125 0,-1.813148 1.4681,-3.28125 3.28125,-3.28125 z"
       inkscape:connector-curvature="0"
       id="path3771"
       style="fill:#000000;fill-opacity:1;stroke:none" />
    <rect
       width="84"
       height="84"
       rx="6"
       ry="6"
       x="6"
       y="106"
       id="rect3774"
       style="fill:#000000;fill-opacity:1;fill-rule:nonzero;stroke:none" />
  </g>
  <g
     id="layer5">
    <rect
       width="66"
       height="66"
       rx="12"
       ry="12"
       x="15"
       y="15"
       clip-path="url(#clipPath3613)"
       id="rect3171"
       style="opacity:0.1;fill:url(#linearGradient3613);fill-opacity:1;fill-rule:nonzero;stroke:#ffffff;stroke-width:0.5;stroke-linecap:round;stroke-linejoin:miter;stroke-miterlimit:4;stroke-opacity:1;stroke-dasharray:none;stroke-dashoffset:0;filter:url(#filter3794)" />
    <path
       d="M 12,6 C 8.676,6 6,8.676 6,12 l 0,2 0,68 0,2 c 0,0.334721 0.04135,0.6507 0.09375,0.96875 0.0487,0.295596 0.09704,0.596915 0.1875,0.875 0.00988,0.03038 0.020892,0.0636 0.03125,0.09375 0.098865,0.287771 0.2348802,0.547452 0.375,0.8125 0.1445918,0.273507 0.3156161,0.535615 0.5,0.78125 0.1843839,0.245635 0.3737765,0.473472 0.59375,0.6875 0.439947,0.428056 0.94291,0.814526 1.5,1.09375 0.278545,0.139612 0.5734731,0.246947 0.875,0.34375 -0.2562018,-0.100222 -0.4867109,-0.236272 -0.71875,-0.375 -0.00741,-0.0044 -0.023866,0.0045 -0.03125,0 -0.031933,-0.0193 -0.062293,-0.04251 -0.09375,-0.0625 -0.120395,-0.0767 -0.2310226,-0.163513 -0.34375,-0.25 -0.1061728,-0.0808 -0.2132809,-0.161112 -0.3125,-0.25 C 8.4783201,88.557317 8.3087904,88.373362 8.15625,88.1875 8.0486711,88.057245 7.9378561,87.922215 7.84375,87.78125 7.818661,87.74287 7.805304,87.69538 7.78125,87.65625 7.716487,87.553218 7.6510225,87.451733 7.59375,87.34375 7.4927417,87.149044 7.3880752,86.928049 7.3125,86.71875 7.30454,86.69694 7.288911,86.6782 7.28125,86.65625 7.2494249,86.5643 7.2454455,86.469419 7.21875,86.375 7.1884177,86.268382 7.1483606,86.171969 7.125,86.0625 7.0521214,85.720988 7,85.364295 7,85 L 7,83 7,15 7,13 C 7,10.218152 9.2181517,8 12,8 l 2,0 68,0 2,0 c 2.781848,0 5,2.218152 5,5 l 0,2 0,68 0,2 c 0,0.364295 -0.05212,0.720988 -0.125,1.0625 -0.04415,0.206893 -0.08838,0.397658 -0.15625,0.59375 -0.0077,0.02195 -0.0233,0.04069 -0.03125,0.0625 -0.06274,0.173739 -0.138383,0.367449 -0.21875,0.53125 -0.04158,0.0828 -0.07904,0.169954 -0.125,0.25 -0.0546,0.09721 -0.126774,0.18835 -0.1875,0.28125 -0.09411,0.140965 -0.204921,0.275995 -0.3125,0.40625 -0.143174,0.17445 -0.303141,0.346998 -0.46875,0.5 -0.01117,0.0102 -0.01998,0.02115 -0.03125,0.03125 -0.138386,0.125556 -0.285091,0.234436 -0.4375,0.34375 -0.102571,0.07315 -0.204318,0.153364 -0.3125,0.21875 -0.0074,0.0045 -0.02384,-0.0044 -0.03125,0 -0.232039,0.138728 -0.462548,0.274778 -0.71875,0.375 0.301527,-0.0968 0.596455,-0.204138 0.875,-0.34375 0.55709,-0.279224 1.060053,-0.665694 1.5,-1.09375 0.219973,-0.214028 0.409366,-0.441865 0.59375,-0.6875 0.184384,-0.245635 0.355408,-0.507743 0.5,-0.78125 0.14012,-0.265048 0.276135,-0.524729 0.375,-0.8125 0.01041,-0.03078 0.02133,-0.06274 0.03125,-0.09375 0.09046,-0.278085 0.1388,-0.579404 0.1875,-0.875 C 89.95865,84.6507 90,84.334721 90,84 l 0,-2 0,-68 0,-2 C 90,8.676 87.324,6 84,6 L 12,6 z"
       inkscape:connector-curvature="0"
       id="rect3728"
       style="opacity:0.5;fill:url(#linearGradient3188);fill-opacity:1;fill-rule:nonzero;stroke:none" />
    <path
       d="M 12,90 C 8.676,90 6,87.324 6,84 L 6,82 6,14 6,12 c 0,-0.334721 0.04135,-0.6507 0.09375,-0.96875 0.0487,-0.295596 0.09704,-0.596915 0.1875,-0.875 C 6.29113,10.12587 6.302142,10.09265 6.3125,10.0625 6.411365,9.774729 6.5473802,9.515048 6.6875,9.25 6.8320918,8.976493 7.0031161,8.714385 7.1875,8.46875 7.3718839,8.223115 7.5612765,7.995278 7.78125,7.78125 8.221197,7.353194 8.72416,6.966724 9.28125,6.6875 9.559795,6.547888 9.8547231,6.440553 10.15625,6.34375 9.9000482,6.443972 9.6695391,6.580022 9.4375,6.71875 c -0.00741,0.0044 -0.023866,-0.0045 -0.03125,0 -0.031933,0.0193 -0.062293,0.04251 -0.09375,0.0625 -0.120395,0.0767 -0.2310226,0.163513 -0.34375,0.25 -0.1061728,0.0808 -0.2132809,0.161112 -0.3125,0.25 C 8.4783201,7.442683 8.3087904,7.626638 8.15625,7.8125 8.0486711,7.942755 7.9378561,8.077785 7.84375,8.21875 7.818661,8.25713 7.805304,8.30462 7.78125,8.34375 7.716487,8.446782 7.6510225,8.548267 7.59375,8.65625 7.4927417,8.850956 7.3880752,9.071951 7.3125,9.28125 7.30454,9.30306 7.288911,9.3218 7.28125,9.34375 7.2494249,9.4357 7.2454455,9.530581 7.21875,9.625 7.1884177,9.731618 7.1483606,9.828031 7.125,9.9375 7.0521214,10.279012 7,10.635705 7,11 l 0,2 0,68 0,2 c 0,2.781848 2.2181517,5 5,5 l 2,0 68,0 2,0 c 2.781848,0 5,-2.218152 5,-5 l 0,-2 0,-68 0,-2 C 89,10.635705 88.94788,10.279012 88.875,9.9375 88.83085,9.730607 88.78662,9.539842 88.71875,9.34375 88.71105,9.3218 88.69545,9.30306 88.6875,9.28125 88.62476,9.107511 88.549117,8.913801 88.46875,8.75 88.42717,8.6672 88.38971,8.580046 88.34375,8.5 88.28915,8.40279 88.216976,8.31165 88.15625,8.21875 88.06214,8.077785 87.951329,7.942755 87.84375,7.8125 87.700576,7.63805 87.540609,7.465502 87.375,7.3125 87.36383,7.3023 87.35502,7.29135 87.34375,7.28125 87.205364,7.155694 87.058659,7.046814 86.90625,6.9375 86.803679,6.86435 86.701932,6.784136 86.59375,6.71875 c -0.0074,-0.0045 -0.02384,0.0044 -0.03125,0 -0.232039,-0.138728 -0.462548,-0.274778 -0.71875,-0.375 0.301527,0.0968 0.596455,0.204138 0.875,0.34375 0.55709,0.279224 1.060053,0.665694 1.5,1.09375 0.219973,0.214028 0.409366,0.441865 0.59375,0.6875 0.184384,0.245635 0.355408,0.507743 0.5,0.78125 0.14012,0.265048 0.276135,0.524729 0.375,0.8125 0.01041,0.03078 0.02133,0.06274 0.03125,0.09375 0.09046,0.278085 0.1388,0.579404 0.1875,0.875 C 89.95865,11.3493 90,11.665279 90,12 l 0,2 0,68 0,2 c 0,3.324 -2.676,6 -6,6 l -72,0 z"
       inkscape:connector-curvature="0"
       id="path3615"
       style="opacity:0.2;fill:url(#radialGradient3619);fill-opacity:1;fill-rule:nonzero;stroke:none" />
  </g>
</svg>
