<svg height="96" width="96" xmlns="http://www.w3.org/2000/svg" xmlns:xlink="http://www.w3.org/1999/xlink"><linearGradient id="a"><stop offset="0" stop-color="#717249"/><stop offset="1" stop-color="#717249" stop-opacity="0"/></linearGradient><linearGradient id="b"><stop offset="0" stop-color="#928075"/><stop offset="1" stop-color="#5b4f48"/></linearGradient><linearGradient id="c"><stop offset="0" stop-color="#323232"/><stop offset="1" stop-color="#505050"/></linearGradient><linearGradient id="d"><stop offset="0" stop-color="#fff"/><stop offset="1" stop-color="#fff" stop-opacity="0"/></linearGradient><linearGradient id="e" gradientUnits="userSpaceOnUse" x1="48" x2="48" y1="90" y2="5.9877172"><stop offset="0" stop-color="#bcb5ac"/><stop offset="1" stop-color="#e9e7e4"/></linearGradient><linearGradient id="f" gradientUnits="userSpaceOnUse" x1="36.357143" x2="36.357143" xlink:href="#d" y1="6" y2="63.893143"/><linearGradient id="g" gradientTransform="matrix(.7499999 0 0 .7500001 -2.9999963 -36.750022)" gradientUnits="userSpaceOnUse" x1="30.246527" x2="30.246527" xlink:href="#c" y1="102" y2="112.00001"/><linearGradient id="h" gradientTransform="matrix(.7499999 0 0 .7500001 15.000004 -36.750022)" gradientUnits="userSpaceOnUse" x1="30.246527" x2="30.246527" xlink:href="#c" y1="102" y2="112.00001"/><linearGradient id="i" gradientTransform="matrix(.7499999 0 0 .7500001 33.000006 -36.750022)" gradientUnits="userSpaceOnUse" x1="30.246527" x2="30.246527" xlink:href="#c" y1="102" y2="112.00001"/><linearGradient id="j" gradientTransform="matrix(.7499999 0 0 .7500001 3.0000056 -.7500124)" gradientUnits="userSpaceOnUse" x1="93.746803" x2="93.746803" y1="54" y2="64.000008"><stop offset="0" stop-color="#802b27"/><stop offset="1" stop-color="#a93833"/></linearGradient><linearGradient id="k" gradientTransform="matrix(.7499999 0 0 .7500001 -2.9999963 -24.750019)" gradientUnits="userSpaceOnUse" x1="30.246527" x2="30.246527" xlink:href="#c" y1="102" y2="112.00001"/><linearGradient id="l" gradientTransform="matrix(.7499999 0 0 .7500001 15.000004 -24.750019)" gradientUnits="userSpaceOnUse" x1="30.246527" x2="30.246527" xlink:href="#c" y1="102" y2="112.00001"/><linearGradient id="m" gradientTransform="matrix(.7499999 0 0 .7500001 33.000006 -24.750019)" gradientUnits="userSpaceOnUse" x1="30.246527" x2="30.246527" xlink:href="#c" y1="102" y2="112.00001"/><linearGradient id="n" gradientTransform="matrix(.7499999 0 0 .7500001 3.0000056 -.7500124)" gradientUnits="userSpaceOnUse" x1="96" x2="96" xlink:href="#b" y1="80" y2="70"/><linearGradient id="o" gradientTransform="matrix(.7499999 0 0 .7500001 -2.9999963 -12.750023)" gradientUnits="userSpaceOnUse" x1="30.246527" x2="30.246527" xlink:href="#c" y1="102" y2="112.00001"/><linearGradient id="p" gradientTransform="matrix(.7499999 0 0 .7500001 15.000004 -12.750023)" gradientUnits="userSpaceOnUse" x1="30.246527" x2="30.246527" xlink:href="#c" y1="102" y2="112.00001"/><linearGradient id="q" gradientTransform="matrix(.7499999 0 0 .7500001 33.000006 -12.750023)" gradientUnits="userSpaceOnUse" x1="30.246527" x2="30.246527" xlink:href="#c" y1="102" y2="112.00001"/><linearGradient id="r" gradientTransform="matrix(.7499999 0 0 .7500001 3.0000056 -.75002)" gradientUnits="userSpaceOnUse" x1="95.745689" x2="95.745689" xlink:href="#b" y1="96" y2="85.996765"/><linearGradient id="s" gradientTransform="matrix(.7499999 0 0 .7500001 -2.9999963 -.7500239)" gradientUnits="userSpaceOnUse" x1="30.246527" x2="30.246527" xlink:href="#c" y1="102" y2="112.00001"/><linearGradient id="t" gradientTransform="matrix(.7499999 0 0 .7500001 -.9999944 -159.75)" gradientUnits="userSpaceOnUse" x1="53.333332" x2="53.333332" xlink:href="#b" y1="102" y2="112"/><linearGradient id="u" gradientTransform="matrix(.7499999 0 0 .7500001 1.0000094 -.7500239)" gradientUnits="userSpaceOnUse" x1="74.666664" x2="74.666664" xlink:href="#b" y1="112" y2="102"/><linearGradient id="v" gradientTransform="matrix(.7499999 0 0 .7500001 3.0000056 -.7500239)" gradientUnits="userSpaceOnUse" x1="94.746246" x2="94.746246" y1="102" y2="112.04894"><stop offset="0" stop-color="#c06517"/><stop offset="1" stop-color="#e88b3b"/></linearGradient><linearGradient id="w" gradientTransform="matrix(1.025 0 0 1.0625 -9.5999986 -3.9999969)" gradientUnits="userSpaceOnUse" x1="64" x2="64" y1="15.5" y2="35.770973"><stop offset="0" stop-color="#ccc7c1"/><stop offset="1" stop-color="#fefefd" stop-opacity=".58015269"/></linearGradient><radialGradient id="x" cx="48" cy="90.171875" gradientTransform="matrix(1.1573129 0 0 .99590774 -7.551021 .197132)" gradientUnits="userSpaceOnUse" r="42" xlink:href="#d"/><linearGradient id="y" gradientTransform="matrix(1.0058652 0 0 .994169 100 0)" gradientUnits="userSpaceOnUse" x1="45.447727" x2="45.447727" y1="92.539597" y2="7.0165396"><stop offset="0"/><stop offset="1" stop-opacity=".58823532"/></linearGradient><linearGradient id="z" gradientTransform="matrix(1.0238095 0 0 1.0119048 -1.1428571 -98.071429)" gradientUnits="userSpaceOnUse" x1="32.251034" x2="32.251034" xlink:href="#y" y1="6.1317081" y2="90.238609"/><linearGradient id="A" gradientTransform="translate(0 -97)" gradientUnits="userSpaceOnUse" x1="32.251034" x2="32.251034" xlink:href="#y" y1="6.1317081" y2="90.238609"/><linearGradient id="B" gradientUnits="userSpaceOnUse" x1="34" x2="34" xlink:href="#a" y1="14" y2="39"/><linearGradient id="C" gradientUnits="userSpaceOnUse" x1="37" x2="37" xlink:href="#a" y1="16" y2="49"/><path d="m12-95.03125c-5.5110903 0-10.03125 4.52016-10.03125 10.03125v71c0 5.5110902 4.5201598 10.03125 10.03125 10.03125h72c5.51109 0 10.03125-4.5201597 10.03125-10.03125v-71c0-5.51109-4.52016-10.03125-10.03125-10.03125z" fill="url(#z)" opacity=".07999998" transform="scale(1 -1)"/><path d="m12-94.03125c-4.971633 0-9.03125 4.059617-9.03125 9.03125v71c0 4.9716329 4.0596171 9.03125 9.03125 9.03125h72c4.971633 0 9.03125-4.059617 9.03125-9.03125v-71c0-4.971633-4.059617-9.03125-9.03125-9.03125z" fill="url(#z)" opacity=".1" transform="scale(1 -1)"/><path d="m12-93c-4.4091333 0-8 3.590867-8 8v71c0 4.4091333 3.5908667 8 8 8h72c4.409133 0 8-3.5908667 8-8v-71c0-4.409133-3.590867-8-8-8z" fill="url(#z)" opacity=".2" transform="scale(1 -1)"/><rect fill="url(#z)" height="85" opacity=".3" rx="7" transform="scale(1 -1)" width="86" x="5" y="-92"/><rect fill="url(#A)" height="84" opacity=".45" rx="6" transform="scale(1 -1)" width="84" x="6" y="-91"/><rect fill="#bdc490" height="26.107143" rx="2.5647321" ry="2.4475446" width="68.39286" x="13.428572" y="10.714285"/><g transform="matrix(.7767857 0 0 .7767857 18.258896 5.3571429)"><path d="m68.217479 22.237718l-1.89605 1.496038-1.920998-1.496038v-3.017432l1.920998-1.496039 1.89605 1.496039zm-2.220374-4.741679l-1.89605 1.521393h-3.817048l-1.89605-1.521393 1.89605-1.496039h3.817048zm2.220374 11.207606l-1.89605 1.496038-1.920998-1.496038v-3.017432l1.920998-1.496039 1.89605 1.496039zm-8.182953-6.465927l-1.896049 1.496038-1.920998-1.496038v-3.017432l1.920998-1.496039 1.896049 1.496039zm5.962579 8.266244l-1.920998 1.496038h-3.7921l-1.920998-1.496038 1.920998-1.521394h3.7921zm-5.962579-1.800317l-1.896049 1.496038-1.920998-1.496038v-3.017432l1.920998-1.496039 1.896049 1.496039z" opacity=".5"/><path d="m74.139297 30.473069l-2.044535 1.526931-1.889255-1.526931 1.966895-1.552812z" opacity=".5"/></g><path d="m17 14c-.554 0-1 .446-1 1v18c0 .554.446 1 1 1h62c .554 0 1-.446 1-1v-18c0-.554-.446-1-1-1zm1.03125 2.03125h59.9375v15.9375h-59.9375z" fill="url(#C)" opacity=".3" overflow="visible"/><path d="m17 14c-.554 0-1 .446-1 1v18c0 .554.446 1 1 1h62c .554 0 1-.446 1-1v-18c0-.554-.446-1-1-1zm .03125 1.03125h61.9375v17.9375h-61.9375z" fill="url(#B)" opacity=".6" overflow="visible"/><path d="m12 6c-3.324 0-6 2.676-6 6v72c0 3.324 2.676 6 6 6h72c3.324 0 6-2.676 6-6v-72c0-3.324-2.676-6-6-6zm6 7h60c1.108 0 2 .892 2 2v18c0 1.108-.892 2-2 2h-60c-1.108 0-2-.892-2-2v-18c0-1.108.892-2 2-2z" fill="url(#e)"/><path d="m12 6c-3.324 0-6 2.676-6 6v2 68 2c0 .334721.04135.6507.09375.96875.0487.295596.09704.596915.1875.875.00988.03038.020892.0636.03125.09375.098865.287771.2348802.547452.375.8125.1445918.273507.3156161.535615.5.78125.1843839.245635.3737765.473472.59375.6875.439947.428056.94291.814526 1.5 1.09375.278545.139612.5734731.246947.875.34375-.2562018-.100222-.4867109-.236272-.71875-.375-.00741-.0044-.023866.0045-.03125 0-.031933-.0193-.062293-.04251-.09375-.0625-.120395-.0767-.2310226-.163513-.34375-.25-.1061728-.0808-.2132809-.161112-.3125-.25-.1779299-.161433-.3474596-.345388-.5-.53125-.1075789-.130255-.2183939-.265285-.3125-.40625-.025089-.03838-.038446-.08587-.0625-.125-.064763-.103032-.1302275-.204517-.1875-.3125-.1010083-.194706-.2056748-.415701-.28125-.625-.00796-.02181-.023589-.04055-.03125-.0625-.0318251-.09195-.0358045-.186831-.0625-.28125-.0303323-.106618-.0703894-.203031-.09375-.3125-.0728786-.341512-.125-.698205-.125-1.0625v-2-68-2c0-2.781848 2.2181517-5 5-5h2 68 2c2.781848 0 5 2.218152 5 5v2 68 2c0 .364295-.05212.720988-.125 1.0625-.04415.206893-.08838.397658-.15625.59375-.0077.02195-.0233.04069-.03125.0625-.06274.173739-.138383.367449-.21875.53125-.04158.0828-.07904.169954-.125.25-.0546.09721-.126774.18835-.1875.28125-.09411.140965-.204921.275995-.3125.40625-.143174.17445-.303141.346998-.46875.5-.01117.0102-.01998.02115-.03125.03125-.138386.125556-.285091.234436-.4375.34375-.102571.07315-.204318.153364-.3125.21875-.0074.0045-.02384-.0044-.03125 0-.232039.138728-.462548.274778-.71875.375.301527-.0968.596455-.204138.875-.34375.55709-.279224 1.060053-.665694 1.5-1.09375.219973-.214028.409366-.441865.59375-.6875.184384-.245635.355408-.507743.5-.78125.14012-.265048.276135-.524729.375-.8125.01041-.03078.02133-.06274.03125-.09375.09046-.278085.1388-.579404.1875-.875.0524-.31805.09375-.634029.09375-.96875v-2-68-2c0-3.324-2.676-6-6-6z" fill="url(#f)" opacity=".5"/><rect fill="none" height="22" rx="2" stroke="url(#w)" stroke-linecap="square" stroke-linejoin="round" stroke-width="2" width="66" x="15" y="13"/><path d="m12 90c-3.324 0-6-2.676-6-6v-2-68-2c0-.334721.04135-.6507.09375-.96875.0487-.295596.09704-.596915.1875-.875.0099-.03038.02089-.0636.03125-.09375.09886-.287771.23488-.547452.375-.8125.144592-.273507.315616-.535615.5-.78125.184384-.245635.373776-.473472.59375-.6875.439947-.428056.94291-.814526 1.5-1.09375.278545-.139612.573473-.246947.875-.34375-.256202.100222-.486711.236272-.71875.375-.0074.0044-.02387-.0045-.03125 0-.03193.0193-.06229.04251-.09375.0625-.120395.0767-.231023.163513-.34375.25-.106173.0808-.213281.161112-.3125.25-.17793.161433-.34746.345388-.5.53125-.107579.130255-.218394.265285-.3125.40625-.02509.03838-.03845.08587-.0625.125-.06476.103032-.130228.204517-.1875.3125-.101008.194706-.205675.415701-.28125.625-.008.02181-.02359.04055-.03125.0625-.03182.09195-.0358.186831-.0625.28125-.03033.106618-.07039.203031-.09375.3125-.072879.341512-.125.698205-.125 1.0625v2 68 2c0 2.781848 2.218152 5 5 5h2 68 2c2.781848 0 5-2.218152 5-5v-2-68-2c0-.364295-.05212-.720988-.125-1.0625-.04415-.206893-.08838-.397658-.15625-.59375-.0077-.02195-.0233-.04069-.03125-.0625-.06274-.173739-.138383-.367449-.21875-.53125-.04158-.0828-.07904-.169954-.125-.25-.0546-.09721-.126774-.18835-.1875-.28125-.09411-.140965-.204921-.275995-.3125-.40625-.143174-.17445-.303141-.346998-.46875-.5-.01117-.0102-.01998-.02115-.03125-.03125-.138386-.125556-.285091-.234436-.4375-.34375-.102571-.07315-.204318-.153364-.3125-.21875-.0074-.0045-.02384.0044-.03125 0-.232039-.138728-.462548-.274778-.71875-.375.301527.0968.596455.204138.875.34375.55709.279224 1.060053.665694 1.5 1.09375.219973.214028.409366.441865.59375.6875.184384.245635.355408.507743.5.78125.14012.265048.276135.524729.375.8125.01041.03078.02133.06274.03125.09375.09046.278085.1388.579404.1875.875.0524.31805.09375.634029.09375.96875v2 68 2c0 3.324-2.676 6-6 6z" fill="url(#x)" opacity=".5"/><path d="m16.125 39.84375c-.970874 0-1.78125.810376-1.78125 1.78125v5.25c0 .970874.810375 1.781252 1.78125 1.78125h9.75c.970873 0 1.781248-.810377 1.78125-1.78125v-5.25c0-.970874-.810377-1.78125-1.78125-1.78125zm18 0c-.970874 0-1.78125.810376-1.78125 1.78125v5.25c0 .970874.810375 1.781252 1.78125 1.78125h9.75c.970873 0 1.781248-.810377 1.78125-1.78125v-5.25c0-.970874-.810377-1.78125-1.78125-1.78125zm18 0c-.970874 0-1.78125.810376-1.78125 1.78125v5.25c0 .970874.810375 1.781252 1.78125 1.78125h9.75c.970873 0 1.781248-.810377 1.78125-1.78125v-5.25c0-.970874-.810377-1.78125-1.78125-1.78125zm18 0c-.970874 0-1.78125.810376-1.78125 1.78125v5.25c0 .970874.810375 1.781252 1.78125 1.78125h9.75c.970873 0 1.781248-.810377 1.78125-1.78125v-5.25c0-.970874-.810377-1.78125-1.78125-1.78125zm-54 12c-.970874 0-1.78125.810376-1.78125 1.78125v5.25c0 .970874.810375 1.781252 1.78125 1.78125h9.75c.970873 0 1.781248-.810377 1.78125-1.78125v-5.25c0-.970874-.810377-1.78125-1.78125-1.78125zm18 0c-.970874 0-1.78125.810376-1.78125 1.78125v5.25c0 .970874.810375 1.781252 1.78125 1.78125h9.75c.970873 0 1.781248-.810377 1.78125-1.78125v-5.25c0-.970874-.810377-1.78125-1.78125-1.78125zm18 0c-.970874 0-1.78125.810376-1.78125 1.78125v5.25c0 .970874.810375 1.781252 1.78125 1.78125h9.75c.970873 0 1.781248-.810377 1.78125-1.78125v-5.25c0-.970874-.810377-1.78125-1.78125-1.78125zm18 0c-.970874 0-1.78125.810376-1.78125 1.78125v5.25c0 .970874.810375 1.781252 1.78125 1.78125h9.75c.970873 0 1.781248-.810377 1.78125-1.78125v-5.25c0-.970874-.810377-1.78125-1.78125-1.78125zm-54 12c-.970874 0-1.78125.810376-1.78125 1.78125v5.25c0 .970874.810375 1.781252 1.78125 1.78125h9.75c.970873 0 1.781248-.810377 1.78125-1.78125v-5.25c0-.970874-.810377-1.78125-1.78125-1.78125zm18 0c-.970874 0-1.78125.810376-1.78125 1.78125v5.25c0 .970874.810375 1.781252 1.78125 1.78125h9.75c.970873 0 1.781248-.810377 1.78125-1.78125v-5.25c0-.970874-.810377-1.78125-1.78125-1.78125zm18 0c-.970874 0-1.78125.810376-1.78125 1.78125v5.25c0 .970874.810375 1.781252 1.78125 1.78125h9.75c.970873 0 1.781248-.810377 1.78125-1.78125v-5.25c0-.970874-.810377-1.78125-1.78125-1.78125zm18 0c-.970874 0-1.78125.810376-1.78125 1.78125v5.25c0 .970874.810375 1.781252 1.78125 1.78125h9.75c.970873 0 1.781248-.810377 1.78125-1.78125v-5.25c0-.970874-.810377-1.78125-1.78125-1.78125zm-54 12c-.970874 0-1.78125.810376-1.78125 1.78125v5.25c0 .970874.810375 1.781252 1.78125 1.78125h9.75c.970873 0 1.781248-.810377 1.78125-1.78125v-5.25c0-.970874-.810377-1.78125-1.78125-1.78125zm18 0c-.970875-.000002-1.78125.810376-1.78125 1.78125v5.25c0 .970874.810376 1.78125 1.78125 1.78125h9.75c.970873 0 1.78125-.810376 1.78125-1.78125v-5.25c-.000002-.970873-.810377-1.78125-1.78125-1.78125zm18 0c-.970874 0-1.78125.810376-1.78125 1.78125v5.25c0 .970874.810375 1.781252 1.78125 1.78125h9.75c.970873 0 1.781248-.810377 1.78125-1.78125v-5.25c0-.970874-.810377-1.78125-1.78125-1.78125zm18 0c-.970874 0-1.78125.810376-1.78125 1.78125v5.25c0 .970874.810375 1.781252 1.78125 1.78125h9.75c.970873 0 1.781248-.810377 1.78125-1.78125v-5.25c0-.970874-.810377-1.78125-1.78125-1.78125z" opacity=".2"/><path d="m16.125 40.5c-.62325 0-1.125.50175-1.125 1.125v5.25c0 .62325.50175 1.125001 1.125 1.125h9.75c.62325 0 1.124999-.501749 1.125-1.125v-5.25c0-.62325-.501751-1.125-1.125-1.125zm18 0c-.62325 0-1.125.50175-1.125 1.125v5.25c0 .62325.50175 1.125001 1.125 1.125h9.75c.62325 0 1.124999-.501749 1.125-1.125v-5.25c0-.62325-.501751-1.125-1.125-1.125zm18 0c-.62325 0-1.125.50175-1.125 1.125v5.25c0 .62325.50175 1.125001 1.125 1.125h9.75c.62325 0 1.124999-.501749 1.125-1.125v-5.25c0-.62325-.501751-1.125-1.125-1.125zm18 0c-.62325 0-1.125.50175-1.125 1.125v5.25c0 .62325.50175 1.125001 1.125 1.125h9.75c.62325 0 1.124999-.501749 1.125-1.125v-5.25c0-.62325-.501751-1.125-1.125-1.125zm-54 12c-.62325 0-1.125.50175-1.125 1.125v5.25c0 .62325.50175 1.125001 1.125 1.125h9.75c.62325 0 1.124999-.501749 1.125-1.125v-5.25c0-.62325-.501751-1.125-1.125-1.125zm18 0c-.62325 0-1.125.50175-1.125 1.125v5.25c0 .62325.50175 1.125001 1.125 1.125h9.75c.62325 0 1.124999-.501749 1.125-1.125v-5.25c0-.62325-.501751-1.125-1.125-1.125zm18 0c-.62325 0-1.125.50175-1.125 1.125v5.25c0 .62325.50175 1.125001 1.125 1.125h9.75c.62325 0 1.124999-.501749 1.125-1.125v-5.25c0-.62325-.501751-1.125-1.125-1.125zm18 0c-.62325 0-1.125.50175-1.125 1.125v5.25c0 .62325.50175 1.125001 1.125 1.125h9.75c.62325 0 1.124999-.501749 1.125-1.125v-5.25c0-.62325-.501751-1.125-1.125-1.125zm-54 12c-.62325 0-1.125.50175-1.125 1.125v5.25c0 .62325.50175 1.125001 1.125 1.125h9.75c.62325 0 1.124999-.501749 1.125-1.125v-5.25c0-.62325-.501751-1.125-1.125-1.125zm18 0c-.62325 0-1.125.50175-1.125 1.125v5.25c0 .62325.50175 1.125001 1.125 1.125h9.75c.62325 0 1.124999-.501749 1.125-1.125v-5.25c0-.62325-.501751-1.125-1.125-1.125zm18 0c-.62325 0-1.125.50175-1.125 1.125v5.25c0 .62325.50175 1.125001 1.125 1.125h9.75c.62325 0 1.124999-.501749 1.125-1.125v-5.25c0-.62325-.501751-1.125-1.125-1.125zm18 0c-.62325 0-1.125.50175-1.125 1.125v5.25c0 .62325.50175 1.125001 1.125 1.125h9.75c.62325 0 1.124999-.501749 1.125-1.125v-5.25c0-.62325-.501751-1.125-1.125-1.125zm-54 12c-.62325 0-1.125.50175-1.125 1.125v5.25c0 .62325.50175 1.125001 1.125 1.125h9.75c.62325 0 1.124999-.501749 1.125-1.125v-5.25c0-.62325-.501751-1.125-1.125-1.125zm18 0c-.62325-.000001-1.125.50175-1.125 1.125v5.25c0 .62325.50175 1.125 1.125 1.125h9.75c.623249 0 1.125-.50175 1.125-1.125v-5.25c-.000001-.623251-.50175-1.125-1.125-1.125zm18 0c-.62325 0-1.125.50175-1.125 1.125v5.25c0 .62325.50175 1.125001 1.125 1.125h9.75c.62325 0 1.124999-.501749 1.125-1.125v-5.25c0-.62325-.501751-1.125-1.125-1.125zm18 0c-.62325 0-1.125.50175-1.125 1.125v5.25c0 .62325.50175 1.125001 1.125 1.125h9.75c.62325 0 1.124999-.501749 1.125-1.125v-5.25c0-.62325-.501751-1.125-1.125-1.125z" opacity=".6"/><g transform="translate(0 .2499986)"><rect fill="url(#o)" height="7.5000014" rx="1.125" ry="1.1250004" width="11.999999" x="15" y="63.75"/><path d="m19.429507 69.821956v-.688843h1.150267v-3.167359l-1.114012.695434v-.728393l1.163452-.754761h.876709v3.955079h1.064574v.688843z" fill="#fff"/><rect fill="url(#p)" height="7.5000014" rx="1.125" ry="1.1250004" width="11.999999" x="33" y="63.75"/><path d="m37.375124 69.856563v-.6427c.105469-.230713.234008-.438353.38562-.622925.151611-.186766.309814-.357053.47461-.510863.166991-.156006.331786-.299926.494384-.431765.164794-.134031.312011-.26257.441651-.38562.131834-.125242.238401-.250486.319701-.375732.08129-.125241.121943-.258176.12195-.398804-.000007-.20654-.05164-.359249-.154912-.45813-.103268-.09887-.254881-.148311-.45483-.148316-.197756.000005-.349367.05384-.454834.1615-.103273.105472-.170289.264774-.201049.477905l-.93274-.05273c.02197-.18237.06702-.353755.135132-.51416.06811-.160396.164794-.301021.290039-.421875.12744-.120845.285644-.215326.474609-.283447.191161-.07031.418578-.105464.682251-.105468.250484.000004.472409.02967.665774.08899.19335.05713.35595.141727.487793.253784.131827.112065.231802.249393.299925.411987.06811.160405.102165.343876.102172.550415-.000007.217533-.04285.414188-.128542.589966-.0857.175784-.195555.338381-.329588.487793-.13404.147219-.283447.285647-.448245.415283-.1626.129641-.320797.255985-.474606.37903-.153811.123048-.294436.247193-.421875.372435-.125245.125246-.218629.25928-.280151.4021h2.155517v.761353h-3.249756" fill="#fff"/><rect fill="url(#q)" height="7.5000014" rx="1.125" ry="1.1250004" width="11.999999" x="51" y="63.75"/><path d="m58.677616 68.529964c0 .210938-.03516.401001-.105467.570191-.06813.166992-.171391.309814-.309816.428466-.138425.118653-.310917.209839-.517459.273559-.204341.06152-.442741.09229-.715208.09229-.303225 0-.559209-.03845-.767942-.115357-.206542-.0769-.376833-.177978-.510867-.303223-.131833-.127441-.231808-.271361-.299925-.431761-.06592-.1604-.108766-.322998-.128541-.487794l.942633-.0824c.01318.09888.03735.190064.07251.273559.03735.0813.08679.151612.148309.210937.06152.05933.136233.10547.224125.138428.09008.03076.195558.04614.3164.04614.221925.000001.394417-.05493.517458-.164795.123042-.109862.184567-.277953.184575-.504272-.000008-.138426-.02967-.249388-.08899-.332886-.05713-.08349-.130734-.147216-.220825-.191163-.08789-.04614-.183475-.0769-.286742-.09228-.103275-.01538-.20105-.02307-.293342-.02307h-.322992v-.74817h.303226c.09228.000004.185658-.0088.28015-.02637.09667-.01758.183466-.04944.260375-.09558.0769-.04614.139525-.109861.187866-.191163.04833-.08349.07251-.188961.07251-.316406 0-.191159-.05383-.340573-.1615-.448242-.105467-.10986-.260375-.164792-.464717-.164795-.191167.000003-.346075.05274-.464725.158203-.116459.105472-.183475.254886-.20105.448242l-.92615-.06592c.02637-.217525.0857-.40649.177975-.566895.09449-.160395.212041-.29333.352666-.398803.142825-.105464.306517-.183467.491084-.234008.184575-.05273.380133-.0791.586675-.0791.272458.000005.506467.03296.702033.09888.195542.06592.35595.154911.4812.266967.125234.112065.217517.242802.27685.392212.05932.149418.08899.30872.08899.477905 0 .136234-.01978.263676-.05933.382325-.03956.116457-.09998.221927-.181275.316406-.07911.09229-.181275.172488-.306517.240601-.12525.06592-.273566.115358-.44495.148316v.01318c.191159.02197.357059.06592.497684.131836.140625.06372.255975.143922.346066.240601.09008.09668.1571.206545.20105.32959.04394.120851.06592.249391.06592.38562" fill="#fff"/><rect fill="url(#r)" height="7.5000014" rx="1.125" ry="1.1250004" width="11.999999" x="69" y="63.75"/><path d="m75.408329 67.910151v1.494141h-.827642v-1.494141h-1.461175v-.820313h1.461175v-1.49414h.827642v1.49414h1.472167v.820313z" fill="#fff"/></g><g transform="translate(0 .2499986)"><rect fill="url(#k)" height="7.5000014" rx="1.125" ry="1.1250004" width="11.999999" x="15" y="51.75"/><path d="m22.188174 56.876037v.945924h-.883301v-.945924h-2.112671v-.695434l1.961059-3.002565h1.034913v3.009157h.619628v.688842zm-.883301-2.208252c-.000003-.03735-.000003-.08569 0-.14502.0022-.06152.0044-.124141.0066-.187866.0044-.06372.0077-.124141.0099-.181274.0044-.05932.0088-.105465.01318-.138427-.01099.02417-.02857.05933-.05273.105468-.02417.04395-.05164.09229-.0824.145019-.02857.05054-.05933.101078-.09229.151611-.03076.05054-.05823.09449-.0824.131837l-1.077759 1.638062h1.357911v-1.51941" fill="#fff"/><rect fill="url(#l)" height="7.5000014" rx="1.125" ry="1.1250004" width="11.999999" x="33" y="51.75"/><path d="m40.679263 56.243225c-.000008.23291-.03736.448243-.112065.645995-.07251.195558-.181275.365846-.326288.510866-.145027.142822-.3252.254883-.540532.336181-.213135.0791-.460328.118652-.741575.118653-.259278-.000001-.485597-.03076-.678954-.09228-.193361-.06372-.357057-.150514-.49109-.260376-.131836-.112061-.236206-.242799-.31311-.392213-.07471-.149413-.126343-.309814-.154907-.481201l.926148-.07581c.01758.07251.04175.142823.07251.210937.03296.06812.078.128542.135132.181274.05713.05274.127439.09558.210937.128541.0835.03076.184569.04614.303223.04614.23071.000001.414182-.07361.550412-.220824.138427-.147216.207645-.359253.207645-.636109 0-.123045-.01758-.234007-.05273-.332886-.03296-.09887-.08131-.183469-.14502-.253784-.06153-.07031-.138435-.124143-.230715-.1615-.09009-.03735-.19336-.05603-.309814-.05603-.15381.000003-.280152.02967-.379028.08899-.09888.05713-.182374.127443-.250488.210938h-.903076l.161499-2.61365h2.791627v.688845h-1.951173l-.07581 1.17334c.09228-.0813.208739-.15051.349365-.207642.140624-.05932.304319-.08899.491089-.08899.228513.000003.432858.03736.613038.112061.180172.07471.33288.179079.45813.31311.125242.134036.220822.295534.28674.484497.06592.186769.09887.394411.09888.622925" fill="#fff"/><rect fill="url(#m)" height="7.5000014" rx="1.125" ry="1.1250004" width="11.999999" x="51" y="51.75"/><path d="m58.631474 56.304199c-.000008.232911-.03297.447144-.09888.6427-.06592.19336-.164792.360352-.296625.500977-.129642.138429-.292242.247193-.487792.326295-.195558.0769-.421883.115355-.678958.115355-.547117 0-.9679-.191161-1.262325-.573486-.292234-.384521-.438359-.953613-.438359-1.707275 0-.828367.148317-1.451291.44495-1.868777.298825-.419672.725092-.629511 1.278801-.629515.184575.000004.352666.01978.504283.05933.1516.03736.286742.09888.405392.18457.11865.0857.219725.19666.303225.332886.08348.134039.150508.297735.20105.49109l-.873417.121949c-.04395-.162594-.115358-.279049-.214233-.349366-.09888-.07251-.214242-.108761-.346067-.108764-.248292.000003-.44385.124149-.586675.372436-.140625.248295-.210934.625126-.210934 1.130493.09887-.164792.2362-.291135.411992-.379028.175775-.08789.374634-.131833.596559-.131836.204333.000003.388908.03406.553708.102172.166983.06592.308708.162601.425167.29004.11865.125246.209833.279055.273558.461425.06372.182375.09558.38782.09558.616334m-.929441.02637c0-.125242-.01428-.237303-.04285-.336181-.02857-.101073-.07251-.186766-.131834-.257081-.05713-.07031-.128541-.124143-.214233-.161499-.08569-.03955-.184575-.05932-.296633-.05933-.0813.000001-.1626.01319-.2439.03955-.0813.02637-.153809.06921-.217526.12854-.06372.05713-.115358.13074-.154908.220825-.03955.09009-.05933.198854-.05933.326294 0 .131837.01647.254884.04944.36914.03295.11426.0791.214235.138425.299927.06152.0835.135125.149415.220825.197754.08569.04614.182367.06921.290042.06921.208733.000001.371333-.07361.487791-.220825.11645-.149413.174684-.354858.174684-.616333" fill="#fff"/><rect fill="url(#n)" height="7.5000014" rx="1.125" ry="1.1250004" width="11.999999" x="69" y="51.75"/><path d="m73.385312 55.946777v-.893555h3.229384v.893555z" fill="#fff"/></g><g transform="translate(0 .2499986)"><rect fill="url(#g)" height="7.5000014" rx="1.125" ry="1.1250004" width="11.999999" x="15" y="39.75"/><path d="m22.583681 41.913021c-.208743.329593-.406497.649295-.593262.959107-.184573.309817-.346071.621829-.484496.936036-.138431.312013-.248294.633912-.329591.965697-.0791.329591-.118653.678956-.118652 1.048096h-.965698c-.000001-.366943.04285-.715208.12854-1.044799.08789-.331786.206542-.654784.355957-.968994.149412-.314207.322996-.624021.520752-.929445.197752-.307614.406492-.620724.626221-.939331h-2.307129v-.761352h3.167358z" fill="#fff"/><rect fill="url(#h)" height="7.5000014" rx="1.125" ry="1.1250004" width="11.999999" x="33" y="39.75"/><path d="m40.666078 44.515134c0 .199952-.03296.384522-.09888.55371-.06592.166994-.166995.312013-.303218.43506-.136237.120849-.308722.215331-.517455.283446-.208747.06811-.457035.102173-.744875.102173-.285646 0-.533937-.03406-.744873-.102173-.208741-.06812-.382325-.162597-.520753-.283446-.13623-.123047-.237304-.268066-.303222-.43506-.06592-.16699-.09888-.349364-.09888-.547118-.000001-.169188.02637-.318602.0791-.448243.05273-.131834.123047-.244993.210937-.339477.08789-.09448.188965-.169187.303223-.224121.114258-.05713.231811-.09558.352662-.115356v-.01318c-.12964-.02856-.246095-.0758-.349365-.141724-.103274-.06591-.191164-.145018-.263673-.237305-.07251-.09228-.12854-.194456-.168091-.306519-.03735-.114254-.05603-.232907-.05603-.355957 0-.184567.03296-.352658.09888-.504273.06811-.151606.166992-.281245.296631-.388915.129637-.107662.290038-.19006.481201-.247193.193358-.05932.416381-.08898.669067-.08899.270259.000004.503172.03077.698727.09229.197752.05933.360352.143925.487792.253784.12744.10767.221925.237308.283448.388916.06152.151616.09229.318607.09229.500977 0 .120852-.01978.238406-.05933.352661-.03736.112064-.09229.214236-.164797.306518-.07251.09229-.161498.170293-.266963.23401-.103275.06372-.22083.108768-.352665.135132v.01318c.13623.02197.262575.06262.379028.121948.11865.05713.220822.132937.306517.227417.08569.09229.152708.204347.201053.336181.04834.129641.07251.276857.07251.441651m-1.067869-2.119268c0-.09228-.0099-.176876-.02966-.253784-.01978-.0791-.05273-.146114-.09887-.201049-.04615-.05713-.108772-.101071-.187867-.131837-.07691-.03295-.174686-.04943-.293337-.04944-.114259.000004-.20984.01648-.286743.04944-.07691.03077-.138428.07471-.18457.131837-.04614.05494-.0791.12195-.09888.201049-.01978.07691-.02966.161502-.02966.253784-.000002.0813.0077.161503.02307.240601.01758.0791.04834.150515.09229.214233.04394.06153.105466.112064.18457.151612.0791.03955.181273.05933.306518.05933.131834.000002.237305-.01977.316407-.05933.08129-.03955.142815-.09118.184568-.154908.04175-.06372.06921-.135129.0824-.214233.01319-.0791.01978-.1582.01978-.237305m.108765 2.043458c0-.09448-.01099-.185667-.03296-.273559-.01978-.08789-.05713-.164794-.112065-.230714-.05273-.06811-.126345-.121946-.220822-.161498-.09448-.04175-.214236-.06262-.359253-.06262-.131838.000003-.2428.02088-.332886.06262-.08789.03955-.159304.09339-.214234.161498-.05274.06812-.09119.147219-.115356.237305-.02197.08789-.03296.181277-.03296.280152-.000001.116457.01098.223023.03296.319702.02417.09668.06372.180177.118652.250488.05713.06812.131835.12085.224122.158203.09228.03735.20764.05603.346068.05603.138427.000001.252682-.01868.342772-.05603.09009-.03955.161497-.09448.214237-.164795.05273-.07031.08899-.153807.108765-.250488.02197-.09887.03296-.20764.03296-.326294" fill="#fff"/><rect fill="url(#i)" height="7.5000014" rx="1.125" ry="1.1250004" width="11.999999" x="51" y="39.75"/><path d="m58.634766 43.427487c0 .823977-.150508 1.440309-.451533 1.848999-.301034.408692-.7284.613037-1.282109.613037-.19995 0-.380125-.02087-.540525-.06262-.1582-.04175-.296633-.106567-.415283-.194457-.118659-.08789-.219725-.20105-.303225-.339478-.0813-.138427-.146109-.303222-.194459-.494385l.870125-.121948c.04394.164796.11535.286744.214225.365845.101075.0791.227417.118653.379026.118652.12525.000001.237308-.02966.336191-.08899.09887-.05932.183467-.149412.253784-.270263.07031-.120848.124141-.273558.1615-.45813.03955-.186766.06042-.406493.06262-.659179-.04394.0857-.102175.1615-.174683.227416-.07251.06592-.154908.120852-.247192.164795-.09009.04395-.186766.078-.290041.102173-.103267.02197-.207634.03296-.313109.03296-.20215.000002-.385617-.03515-.550408-.105468-.1648-.07251-.305425-.17578-.421875-.309815-.116459-.134031-.206542-.29553-.270267-.484497-.06152-.19116-.09228-.406493-.09228-.645997 0-.246091.03625-.465816.108766-.65918.0747-.193356.181275-.355952.3197-.487792.138425-.13403.307609-.235104.507567-.303224.20215-.07031.430658-.105464.68555-.105468.268059.000004.504267.04615.708609.138427.20655.09009.379033.230718.517458.421875.138425.18897.2428.42957.313108.721803.07251.290041.108767.635012.108767 1.034912m-.978875-.649292c-.000008-.131833-.01538-.25488-.04615-.369142-.02856-.116451-.07251-.216426-.131833-.299926-.05933-.08569-.131834-.152706-.217534-.20105-.08569-.04834-.184566-.0725-.296625-.07251-.103275.000005-.195558.01978-.27685.05933-.0813.03736-.150517.09229-.20765.164795-.05713.07251-.101075.160405-.131833.263672-.02857.103275-.04285.21973-.04285.349366 0 .120852.01428.234012.04285.339477.02856.103274.07032.193363.125241.270265.05493.07471.12415.134036.20765.177979.08348.04175.179067.06262.286734.06262.0857.000002.169192-.01538.250492-.04614.08349-.03076.157108-.0769.220825-.138427.06592-.06152.11865-.138425.158208-.230714.03954-.09448.05932-.204342.05932-.329589" fill="#fff"/><rect fill="url(#j)" height="7.5000014" rx="1.125" ry="1.1250004" width="11.999999" x="69" y="39.75"/><path d="m73.154296 44.944333c.162108.000001.301758-.02246.41895-.06738.119133-.04687.221675-.107421.307608-.181641.08789-.07422.160158-.158201.216808-.251953.05858-.09375.106434-.188475.14355-.284179l.752925.284179c-.06054.148438-.13965.293947-.2373.436524-.09766.142579-.219733.268554-.366216.377929-.146484.109376-.321292.198243-.524409.266602-.201175.06641-.438483.09961-.711916.09961-.357425 0-.666992-.05273-.928709-.158202-.261725-.107422-.478516-.25586-.650391-.445313-.169925-.191406-.296875-.417968-.380859-.679687-.08203-.261719-.12305-.54785-.12305-.858399 0-.322264.04102-.613279.12305-.873048.08398-.259763.209959-.480465.377934-.662109.167966-.18359.379875-.324215.635741-.421875.257809-.09961.560542-.14941.9082-.149414.269534.000004.504884.02832.70605.08496.203125.05665.377925.136724.524417.240234.148433.101567.270508.22266.366208.363283.09765.138675.173834.291995.228525.45996l-.761725.208008c-.02735-.08789-.06934-.171872-.125975-.251953-.05664-.08203-.128916-.154294-.2168-.216797-.08594-.0625-.1875-.112301-.304683-.149414-.117192-.03906-.250008-.05859-.398442-.05859-.208983.000002-.388666.03418-.539058.102539-.150392.06641-.274417.162113-.372067.287108-.09571.125004-.167.275394-.213875.451172-.04492.173832-.06737.369144-.06737.585939 0 .214845.02245.412111.06737.591797.04687.177736.119142.331056.2168.459961.09766.128907.222659.229492.375.301757.154292.07227.338859.1084.553709.108399m2.4082.621093v-4.12793h3.246092v.667969h-2.381825v1.037109h2.203116v.66797h-2.203116v1.086914h2.50195v.667968z" fill="#fff"/></g><g transform="translate(0 .2499986)"><rect fill="url(#s)" height="7.5000014" rx="1.125" ry="1.1250004" width="11.999999" x="15" y="75.75"/><path d="m22.605104 79.499986c-.000003.443851-.04065.818483-.121948 1.123906-.0813.303225-.194461.549315-.339477.738277-.142825.186773-.313114.3219-.510865.405398-.195559.0813-.409792.12195-.6427.12195-.232912 0-.447145-.04065-.6427-.12195-.195558-.0813-.363649-.215333-.504272-.402098-.140626-.18897-.250488-.43506-.32959-.738285-.0791-.305415-.118653-.68115-.118653-1.127198 0-.468015.03845-.854731.115357-1.160153.0791-.307613.190063-.552608.332886-.734985.142821-.18237.313109-.30981.510864-.382328.19995-.0747.420774-.112057.662476-.112057.226316 0 .436155.03736.629516.112057.195554.07252.363645.199958.504272.382328.142819.182377.253781.427372.332886.734985.08129.305422.121945.692138.121948 1.160153m-.929443 0c-.000002-.32739-.01209-.597652-.03626-.810787-.02417-.215334-.06262-.385621-.115357-.510864-.05274-.12744-.12195-.216427-.207641-.26697-.0835-.05053-.18567-.0758-.306518-.07581-.129641.000008-.238406.02638-.326294.0791-.08789.05054-.159303.13953-.214234.26697-.05274.127447-.09119.29883-.115356.514163-.02197.213135-.03296.4812-.03296.804195-.000001.318608.01208.584476.03625.797611.02417.213135.06262.384525.115358.514162.05273.12744.121946.21753.20764.270263.08569.05273.191161.0791.316406.0791.120849 0 .22412-.02637.309815-.0791.08569-.05273.156004-.142823.210938-.270263.05493-.129637.09448-.301027.118652-.514162.02636-.213135.03955-.479003.03955-.797611" fill="#fff"/><rect fill="url(#t)" height="7.5000014" rx="1.125" ry="1.1250004" transform="scale(1 -1)" width="11.999999" x="33" y="-83.25"/><path d="m38.470828 81.558467v-1.116945h1.058347v1.116945z" fill="#fff"/><rect fill="url(#u)" height="7.5000014" rx="1.125" ry="1.1250004" width="11.999999" x="51" y="75.75"/><path d="m59.827883 80.398127c0 .274657-.03077.506467-.09228.695437-.06153.188963-.145025.34167-.250491.45813-.105475.114255-.229617.19665-.372434.247193-.140633.05054-.291141.0758-.451541.0758-.164792 0-.3186-.02527-.461417-.0758-.140633-.05054-.263683-.132938-.369142-.247193-.103275-.11646-.185675-.269167-.247191-.45813-.05933-.18897-.089-.42078-.08899-.695437-.000008-.29004.02966-.529538.08899-.718508.06152-.19116.145008-.342773.250483-.45483.105467-.114255.229608-.193358.372442-.237308.145008-.04614.301016-.06921.468016-.06921.158192 0 .307609.02307.448234.06921.140625.04395.262575.123053.36585.237308.105466.112057.187858.26367.247191.45483.06152.18897.09228.428468.09228.718508m-4.004517 1.42383h-.67895l3.032217-4.643927h.68885zm-.474609-4.696659c.1582.000007.307617.02308.448242.06922.140625.04395.263667.12195.369142.234008.105466.112065.188966.263677.250483.45483.06153.18897.09229.428475.09229.718507 0 .274666-.03077.506476-.09229.695439-.06152.188962-.146117.341677-.253775.45813-.105475.116452-.229617.19995-.372442.250485-.142825.05054-.295533.07581-.458133.0758-.160392.000007-.312008-.02526-.454825-.0758-.140625-.05054-.263675-.13293-.369142-.247193-.103275-.116452-.185675-.26916-.2472-.45813-.05933-.188962-.08898-.421875-.08898-.698731 0-.290032.02966-.529537.08898-.718507.05932-.191153.141734-.342765.2472-.45483.105467-.112058.229609-.190058.372434-.234008.145016-.04614.301025-.06921.468016-.06922m3.770509 3.272829c-.000008-.19116-.0099-.349365-.02966-.474608-.01758-.125243-.04506-.224123-.0824-.296633-.03737-.07471-.0835-.126337-.138425-.154905-.05494-.03077-.119759-.04614-.194459-.04615-.08131.000007-.151625.01538-.210941.04615-.05713.02857-.104375.0802-.141725.154905-.03736.07471-.06592.174683-.08569.299926-.01758.12525-.02637.282352-.02637.471315-.000008.184575.0088.338377.02637.461422.01758.120855.04504.218633.0824.29334.03954.07471.08788.12744.145017.158198.05712.03077.125233.04615.20435.04615.0725 0 .136216-.01538.191158-.04615.05712-.03076.104367-.0824.141725-.154905.03954-.07471.06921-.17358.08899-.296633.01977-.123045.02965-.276847.02966-.461422m-3.325559-1.796267c0-.188962-.0099-.34497-.02967-.468015-.01758-.125242-.04504-.224122-.0824-.296632-.03735-.0747-.0835-.126338-.138425-.154905-.05493-.03076-.119759-.04614-.194459-.04615-.0813.000008-.151608.01539-.210933.04615-.05933.03076-.107667.0835-.145017.158197-.03736.07252-.06593.17139-.0857.296633-.01758.123052-.02637.277957-.02637.464722 0 .184576.0088.338386.02637.461424.01977.123052.04834.221932.0857.296632.03954.07471.08788.128543.145017.161498.05712.03077.125242.04615.204342.04615.0747 0 .139525-.01538.194458-.04615.05712-.03076.104367-.08349.141725-.158198.03955-.07471.06812-.17358.08569-.296632.01978-.125243.02967-.280148.02967-.464724" fill="#fff"/><rect fill="url(#v)" height="7.5000014" rx="1.125" ry="1.1250004" width="11.999999" x="69" y="75.75"/><path d="m73.119512 78.899409v-.816654h3.760984v.816654zm0 2.017823v-.809325h3.760984v.809325z" fill="#fff"/></g></svg>