<svg enable-background="new" height="102.4" width="102.4" xmlns="http://www.w3.org/2000/svg" xmlns:xlink="http://www.w3.org/1999/xlink"><linearGradient id="a" gradientUnits="userSpaceOnUse" x1="51.2000016" x2="51.2000016" y1="96.000003" y2="6.38689855"><stop offset="0" stop-color="#404040"/><stop offset="1" stop-color="#808080"/></linearGradient><radialGradient id="b" cx="48" cy="-14.78724" gradientTransform="matrix(0 1.0591161 -1.0684903 0 35.399977 -44.324099)" gradientUnits="userSpaceOnUse" r="42"><stop offset="0" stop-color="#a0a0a0"/><stop offset="1" stop-color="#a0a0a0" stop-opacity="0"/></radialGradient><linearGradient id="c" gradientUnits="userSpaceOnUse" x1="38.78095375" x2="38.78095375" y1="6.4000002" y2="68.152688"><stop offset="0" stop-color="#fff"/><stop offset="1" stop-color="#fff" stop-opacity="0"/></linearGradient><linearGradient id="d" gradientTransform="matrix(1.0058652 0 0 .994169 100 0)" gradientUnits="userSpaceOnUse" x1="45.447727" x2="45.447727" y1="92.539597" y2="7.0165396"><stop offset="0"/><stop offset="1" stop-opacity=".58823532"/></linearGradient><linearGradient id="e" gradientTransform="matrix(1.0920635 0 0 -1.0793651 -1.2190476 104.60952)" gradientUnits="userSpaceOnUse" x1="32.251034" x2="32.251034" xlink:href="#d" y1="6.1317081" y2="90.238609"/><linearGradient id="f" gradientTransform="matrix(1.0920635 0 0 1.0793651 -1.2190476 -104.60952)" gradientUnits="userSpaceOnUse" x1="32.251034" x2="32.251034" xlink:href="#d" y1="6.1317081" y2="90.238609"/><linearGradient id="g" gradientTransform="matrix(1.0666667 0 0 1.0666667 0 -103.46667)" gradientUnits="userSpaceOnUse" x1="32.251034" x2="32.251034" xlink:href="#d" y1="6.1317081" y2="90.238609"/><path d="m12.8 101.36667c-5.8784963 0-10.7-4.821507-10.7-10.700003v-75.733334c0-5.8784959 4.8215038-10.6999997 10.7-10.6999997h76.8c5.878496 0 10.7 4.8215037 10.7 10.6999997v75.733334c0 5.878496-4.821504 10.700003-10.7 10.700003z" fill="url(#e)" opacity=".07999998"/><path d="m12.8 100.3c-5.3030752 0-9.6333333-4.330258-9.6333333-9.633333v-75.733334c0-5.3030748 4.3302582-9.633333 9.6333333-9.633333h76.8c5.303075 0 9.633333 4.3302581 9.633333 9.633333v75.733334c0 5.303075-4.330258 9.633333-9.633333 9.633333z" fill="url(#e)" opacity=".1"/><path d="m12.8 99.2c-4.7030755 0-8.5333333-3.830258-8.5333333-8.533333v-75.733334c0-4.703075 3.8302578-8.533333 8.5333333-8.533333h76.8c4.703075 0 8.533333 3.830258 8.533333 8.533333v75.733334c0 4.703075-3.830258 8.533333-8.533333 8.533333z" fill="url(#e)" opacity=".2"/><rect fill="url(#f)" height="90.666664" opacity=".3" rx="7.4666667" transform="scale(1 -1)" width="91.73333" x="5.3333335" y="-98.133331"/><rect fill="url(#g)" height="89.599998" opacity=".45" rx="6.4000001" transform="scale(1 -1)" width="89.599998" x="6.4000001" y="-97.066666"/><path d="m12.8 6.4c-3.5456 0-6.4 2.8544-6.4 6.4v2.133333 72.533334 2.133333c0 .357036.044107.69408.1 1.033333.051947.315303.1035093.63671.2.933334.010539.03241.022285.06784.033333.1.105456.306955.2505389.583948.4.866666.1542313.291741.3366572.571323.5333334.833334.1966764.26201.3986952.505036.6333336.733333.4692768.456593 1.0057707.868828 1.6 1.166667.297115.148919.611705.26341.933333.366666-.273282-.106903-.519158-.252023-.766666-.4-.0079-.0047-.02546.0048-.03333 0-.034061-.02059-.066446-.04534-.1-.06667-.128425-.08181-.2464278-.17441-.3666703-.266663-.113251-.086187-.2274997-.171853-.3333334-.266667-.1897919-.172195-.3706235-.368414-.5333333-.566666-.1147508-.138939-.2329535-.282971-.3333333-.433334-.0267616-.040938-.0410091-.091594-.0666667-.133333-.0690805-.109901-.1389093-.218151-.2-.333333-.1077422-.207687-.2193865-.443415-.3-.666667-.0084907-.023264-.0251616-.043253-.0333333-.066667-.0339468-.09808-.0381915-.199286-.0666667-.3-.0323545-.113726-.075082-.216566-.1-.333333-.0777372-.364279-.1333333-.744752-.1333333-1.133333v-2.133334-72.533333-2.133333c0-2.967305 2.3660284-5.3333337 5.3333333-5.3333337h2.133333 72.533334 2.133333c2.967305 0 5.333333 2.3660287 5.333333 5.3333337v2.133333 72.533333 2.133334c0 .388581-.05559.769054-.133333 1.133333-.04709.220686-.09427.424169-.166667.633333-.0082.02341-.02485.0434-.03333.06667-.06692.185322-.147609.391946-.233333.566667-.04435.08832-.08431.181284-.133334.266666-.05824.103691-.135225.200907-.2.3-.100384.150363-.218582.294395-.333333.433334-.152719.18608-.32335.370131-.5.533333-.01192.01088-.02131.02256-.03333.03333-.147618.133927-.304103.250065-.466673.366667-.109409.07803-.217939.163588-.333333.233333-.0079.0048-.02543-.0047-.03333 0-.247508.147977-.493384.293097-.766666.4.321624-.103253.636214-.217747.933329-.366666.594229-.297839 1.130723-.710074 1.6-1.166667.234638-.228297.436657-.471323.633333-.733333.196677-.262011.379102-.541593.533334-.833334.149461-.282718.294544-.559711.4-.866666.0111-.03283.02275-.06692.03333-.1.09649-.296624.148053-.618031.2-.933334.055896-.339253.100003-.676297.100003-1.033333v-2.133333-72.533334-2.133333c0-3.5456-2.8544-6.4-6.4-6.4z" fill="url(#c)" opacity=".4"/><rect fill="url(#a)" height="89.599998" rx="6.4000001" width="89.599998" x="6.4000001" y="6.4000001"/><path d="m12.8 6.4c-3.5456 0-6.4 2.8544-6.4 6.4v38.4h89.6v-38.4c0-3.5456-2.8544-6.4-6.4-6.4z" fill="url(#b)" opacity=".8"/><g stroke="#0cc" stroke-opacity=".15686275"><path d="m90.120937 55.223446c-10.769328 13.49115-.336437.589537-10.6294 13.560686-3.583113 2.143898-10.152704 3.763432-13.122829 3.146862-4.163503-.627999-8.726025-5.29165-12.072369-9.909655-4.233369-5.844005-7.334608-14.008012-11.625012-19.024014-3.980994-4.654004-9.64022-7.516009-15.017127-3.738004-2.657798 1.87-5.252858 5.234005-7.264742 8.834006-3.213882 5.746006-1.35537 13.216378 7.060039 14.846379 6.62253.570456 9.975141-.319535 18.760046-4.235284 11.324843-5.30799 19.394028-12.24775 40.954815-28.614778-12.043687 12.50711-.628547.32154-12.437647 12.754045-5.997078 6.313662-18.004788 13.530839-30.602436 20.875652-5.970206 3.424204-11.217218 5.604004-18.891181 7.474206-4.592685 1.12-11.355525 2.157801-12.836991-2.716002-1.542777-5.080003 2.138786-12.912211 2.905897-14.610012 5.78898-12.80201 14.433952-26.094021 29.549462-24.120022 14.415415 1.884004 15.095402 24.373896 25.85492 30.283902 5.298343 2.909802 9.250264.510269 19.414555-4.807967z" fill="#0cc" stroke="none"/><path d="m90.120937 55.223446c-10.76932 13.49115-.33643.589537-10.6294 13.560686-3.58311 2.143898-10.1527 3.763432-13.12282 3.146862-4.16351-.627999-8.72603-5.29165-12.07237-9.909655-4.23337-5.844005-7.33461-14.008012-11.62502-19.024014-3.98099-4.654004-9.64022-7.516009-15.01712-3.738004-2.6578 1.87-5.25286 5.234005-7.26474 8.834006-3.21389 5.746006-1.35537 13.216378 7.06003 14.846379 6.62253.570456 9.97515-.319535 18.76005-4.235284 11.32484-5.30799 19.39403-12.24775 40.95481-28.614778-12.04368 12.50711-.62854.32154-12.43764 12.754045-5.99708 6.313662-18.00479 13.530839-30.60244 20.875652-5.9702 3.424204-11.21722 5.604004-18.89118 7.474206-4.59268 1.12-11.35552 2.157801-12.83699-2.716002-1.54278-5.080003 2.13879-12.912211 2.9059-14.610012 5.78898-12.80201 14.43395-26.094021 29.54946-24.120022 14.41541 1.884004 15.0954 24.373896 25.85492 30.283902 5.29834 2.909802 9.25026.510269 19.41455-4.807967z" style="fill:none;stroke:#0cc;stroke-width:2;stroke-linecap:round;stroke-linejoin:round;stroke-opacity:.15686275"/><path d="m90.120937 55.223446c-10.76932 13.49115-.33643.58954-10.6294 13.56069-3.58311 2.1439-10.1527 3.76343-13.12282 3.14686-4.16351-.628-8.72603-5.29165-12.07237-9.90965-4.23337-5.84401-7.33461-14.00801-11.62502-19.02402-3.98099-4.654-9.64022-7.516-15.01712-3.738-2.6578 1.87-5.25286 5.234-7.26474 8.83401-3.21389 5.746-1.35537 13.21637 7.06003 14.84637 6.62253.57046 9.97515-.31953 18.76005-4.23528 11.32484-5.30799 19.39403-12.24775 40.95481-28.61478-12.04368 12.50711-.62854.32154-12.43764 12.75405-5.99708 6.31366-18.00479 13.53084-30.60244 20.87565-5.9702 3.4242-11.21722 5.604-18.89118 7.47421-4.59268 1.12-11.35552 2.1578-12.83699-2.71601-1.54278-5.08 2.13879-12.91221 2.9059-14.61001 5.78898-12.80201 14.43395-26.09402 29.54946-24.12002 14.41541 1.884 15.0954 24.3739 25.85492 30.2839 5.29834 2.9098 9.25026.51027 19.41455-4.80797z" style="fill:none;stroke:#0cc;stroke-width:6;stroke-linecap:round;stroke-linejoin:round;stroke-opacity:.15686275"/><path d="m90.120937 55.223446c-10.76932 13.49115-.33643.58954-10.6294 13.56069-3.58311 2.14389-10.1527 3.76343-13.12282 3.14686-4.16351-.628-8.72603-5.29165-12.07237-9.90966-4.23337-5.844-7.33461-14.008009-11.62502-19.024011-3.98099-4.654003-9.64022-7.516008-15.01712-3.738003-2.6578 1.869999-5.25286 5.234004-7.26474 8.834005-3.21389 5.746006-1.35537 13.216379 7.06003 14.846379 6.62253.57046 9.97515-.31953 18.76005-4.23528 11.32484-5.307994 19.39403-12.247754 40.95481-28.614781-12.04368 12.507109-.62854.32154-12.43764 12.754044-5.99708 6.313662-18.00479 13.530837-30.60244 20.875657-5.9702 3.4242-11.21722 5.604-18.89118 7.4742-4.59268 1.12-11.35552 2.1578-12.83699-2.716-1.54278-5.08 2.13879-12.91221 2.9059-14.610013 5.78898-12.80201 14.43395-26.09402 29.54946-24.120021 14.41541 1.884004 15.0954 24.373895 25.85492 30.283904 5.29834 2.9098 9.25026.51027 19.41455-4.80797z" style="fill:none;stroke:#0cc;stroke-width:4;stroke-linecap:round;stroke-linejoin:round;stroke-opacity:.15686275"/><path d="m90.120937 55.223444c-10.76932 13.49115-.33643.58954-10.6294 13.56069-3.58311 2.14389-10.152699 3.76343-13.12282 3.14686-4.163506-.628-8.726025-5.29165-12.072366-9.90966-4.23337-5.844-7.33461-14.00801-11.62502-19.02401-3.98099-4.65401-9.64022-7.51601-15.01712-3.73801-2.6578 1.87-5.25286 5.23401-7.26474 8.83401-3.21389 5.746-1.35537 13.21638 7.06003 14.84638 6.62253.57046 9.97515-.31953 18.76005-4.23528 11.324841-5.308 19.394027-12.24776 40.954806-28.61478-12.04368 12.50711-.62854.32154-12.43764 12.75404-5.99708 6.31366-18.004785 13.53084-30.602436 20.87566-5.9702 3.4242-11.21722 5.604-18.89118 7.4742-4.59268 1.12-11.35552 2.1578-12.83699-2.716-1.54278-5.08 2.13879-12.91221 2.9059-14.61002 5.78898-12.80201 14.43395-26.09402 29.54946-24.12002 14.41541 1.88401 15.0954 24.3739 25.854916 30.28391 5.29834 2.9098 9.25026.51027 19.41455-4.80797z" style="fill:none;stroke:#0cc;stroke-width:8;stroke-linecap:round;stroke-linejoin:round;stroke-opacity:.15686275"/></g></svg>