<?xml version="1.0" encoding="UTF-8" standalone="no"?>
<!--
  - Copyright (c) 2022 Manuel Schneider
  -->

<!-- Generator: Adobe Illustrator 19.0.0, SVG Export Plug-In . SVG Version: 6.00 Build 0)  -->

<svg
   version="1.1"
   id="Capa_1"
   x="0px"
   y="0px"
   viewBox="0 0 453.5 453.5"
   style="enable-background:new 0 0 453.5 453.5;"
   xml:space="preserve"
   sodipodi:docname="cpp.svg"
   inkscape:version="1.1.1 (c3084ef, 2021-09-22)"
   xmlns:inkscape="http://www.inkscape.org/namespaces/inkscape"
   xmlns:sodipodi="http://sodipodi.sourceforge.net/DTD/sodipodi-0.dtd"
   xmlns="http://www.w3.org/2000/svg"
   xmlns:svg="http://www.w3.org/2000/svg"><defs
   id="defs865" /><sodipodi:namedview
   id="namedview863"
   pagecolor="#505050"
   bordercolor="#ffffff"
   borderopacity="1"
   inkscape:pageshadow="0"
   inkscape:pageopacity="0"
   inkscape:pagecheckerboard="1"
   showgrid="false"
   inkscape:zoom="0.78575174"
   inkscape:cx="250.07899"
   inkscape:cy="247.53365"
   inkscape:window-width="1383"
   inkscape:window-height="847"
   inkscape:window-x="0"
   inkscape:window-y="25"
   inkscape:window-maximized="0"
   inkscape:current-layer="Capa_1" />
<style
   type="text/css"
   id="style824">
	.st0{fill-rule:evenodd;clip-rule:evenodd;fill:#669AD2;}
	.st1{fill:#0C4581;}
	.st2{fill:#075A9D;}
	.st3{fill:#FFFFFF;}
</style>
<g
   id="g848"
   transform="matrix(1.1569775,0,0,1.1569775,-32.420838,-34.759483)">
	<g
   id="g830">
		<path
   class="st0"
   d="m 226.8,171.8 c -30.4,0 -55,24.6 -55,55 0,9.9 2.6,19.2 7.3,27.3 l 95.3,-54.9 c -9.6,-16.4 -27.3,-27.4 -47.6,-27.4 z"
   id="path826" />
		<path
   class="st0"
   d="m 116.4,226.8 c 0,-61 49.4,-110.4 110.4,-110.4 40.8,0 76.5,22.2 95.6,55.2 l 66.5,-38.3 c -2.7,-4.7 -6.7,-8.6 -12,-11.7 C 332.6,96 288.3,70.5 244.1,45 232.2,38.1 220.6,38.4 208.8,45.3 191.2,55.7 103,106.2 76.7,121.4 c -10.8,6.3 -16.1,15.9 -16.1,28.3 0,51.3 0,102.6 0,154 0,6.1 1.3,11.6 3.9,16.3 l 66.6,-38.3 c -9.4,-16.2 -14.7,-34.9 -14.7,-54.9 z"
   id="path828" />
	</g>
	<g
   id="g836">
		<path
   class="st1"
   d="m 179,254 c 9.5,16.5 27.3,27.7 47.7,27.7 20.6,0 38.5,-11.3 47.9,-28 l -47.4,-27.5 z"
   id="path832" />
		<path
   class="st1"
   d="m 226.8,337.2 c -41,0 -76.7,-22.3 -95.8,-55.5 L 64.4,320 c 2.7,4.8 6.7,8.9 12.2,12 26.3,15.2 114.5,65.8 132.1,76.1 11.8,7 23.4,7.2 35.3,0.3 44.2,-25.5 88.6,-51 132.8,-76.5 5.5,-3.2 9.5,-7.2 12.2,-12 l -66.5,-38.5 c -18.9,33.4 -54.7,55.8 -95.7,55.8 z"
   id="path834" />
	</g>
	<path
   class="st2"
   d="m 393,149.8 c 0,-6.3 -1.3,-11.8 -4.1,-16.6 L 227.3,226.3 389.1,320 c 2.6,-4.7 3.9,-10.1 3.9,-16.3 0,0 0,-102.6 0,-153.9 z M 337.9,233 h -12.6 v 12.6 H 312.7 V 233 H 300 v -12.6 h 12.6 v -12.6 h 12.6 v 12.6 h 12.6 V 233 Z m 46.2,0 h -12.6 v 12.6 H 358.9 V 233 h -12.6 v -12.6 h 12.6 v -12.6 h 12.6 v 12.6 h 12.6 z"
   id="path838" />
	<g
   id="g846">
		<polygon
   class="st3"
   points="346.1,233 358.8,233 358.8,245.6 371.4,245.6 371.4,233 384.1,233 384.1,220.3 371.4,220.3 371.4,207.7 358.8,207.7 358.8,220.3 346.1,220.3 "
   id="polygon840" />
		<polygon
   class="st3"
   points="300,233 312.6,233 312.6,245.6 325.3,245.6 325.3,233 337.9,233 337.9,220.3 325.3,220.3 325.3,207.7 312.6,207.7 312.6,220.3 300,220.3 "
   id="polygon842" />
		<path
   class="st3"
   d="m 274.7,253.7 c -9.4,16.7 -27.3,28 -47.9,28 -20.4,0 -38.2,-11.2 -47.7,-27.7 -4.6,-8 -7.3,-17.3 -7.3,-27.3 0,-30.4 24.6,-55 55,-55 20.3,0 38,11 47.5,27.4 l 48.1,-27.7 c -19.1,-33 -54.8,-55.2 -95.6,-55.2 -61,0 -110.4,49.4 -110.4,110.4 0,20 5.3,38.8 14.6,54.9 19.1,33.1 54.8,55.5 95.8,55.5 41,0 76.9,-22.4 95.9,-55.6 z"
   id="path844" />
	</g>
</g>
<g
   id="g850"
   transform="matrix(1.1569775,0,0,1.1569775,-32.420838,-34.759483)">
</g>
<g
   id="g852"
   transform="matrix(1.1569775,0,0,1.1569775,-32.420838,-34.759483)">
</g>
<g
   id="g854"
   transform="matrix(1.1569775,0,0,1.1569775,-32.420838,-34.759483)">
</g>
<g
   id="g856"
   transform="matrix(1.1569775,0,0,1.1569775,-32.420838,-34.759483)">
</g>
<g
   id="g858"
   transform="matrix(1.1569775,0,0,1.1569775,-32.420838,-34.759483)">
</g>
<g
   id="g860"
   transform="matrix(1.1569775,0,0,1.1569775,-32.420838,-34.759483)">
</g>
</svg>
