<?xml version="1.0" encoding="UTF-8"?>
<!--
  - Copyright (c) 2023 Manuel Schneider
  -->

<svg version="1.1" viewBox="0 0 64 64" xmlns="http://www.w3.org/2000/svg">
<g transform="matrix(.45731 0 0 .45731 -3.0273 -10.029)" stroke-width="17.085">
<path d="m62.876 62.001c-20.588-0.183-32.76 18.881-41.082 37.285-1.1763 2.6035-6.8208 14.614-4.4551 22.404 2.2717 7.4737 12.641 5.8815 19.684 4.1641 11.768-2.8678 19.814-6.2101 28.969-11.461 4.2416-2.473 8.418-4.9335 12.484-7.375 1.0041 1.6565 2.0288 3.2744 3.1133 4.7715 5.1314 7.0814 12.129 14.232 18.514 15.195 4.5545 0.94548 14.629-1.5386 20.123-4.8262 15.784-19.891-0.21533-0.10701 16.299-20.795-15.586 8.1552-21.647 11.835-29.771 7.373-4.6773-2.5692-8.0961-7.2079-11.121-12.564 7.0994-4.8016 13.155-9.4409 17.287-13.791 18.109-19.065 0.60395-0.37965 19.072-19.559-17.326 13.152-28.923 22.276-38.582 29.209-6.5369-12.858-12.037-27.868-26.303-29.732-1.4487-0.18919-2.858-0.28663-4.2305-0.29883zm-14.375 12.209c5.6527-0.10694 11.065 3.4998 15.262 8.4062 4.6361 5.4201 8.3747 13.228 12.445 20.508-2.29 1.2602-4.6056 2.4467-7.0195 3.5781-13.471 6.0046-18.612 7.3709-28.768 6.4961-12.905-2.4995-15.754-13.956-10.826-22.768 3.0851-5.5204 7.065-10.677 11.141-13.545 2.5766-1.8104 5.1962-2.6272 7.7656-2.6758z" stroke="#fff" stroke-linejoin="round" stroke-width="17.085" style="paint-order:stroke fill markers"/>
</g>
</svg>
