<?xml version="1.0" encoding="UTF-8" standalone="no"?>
<!--
  - Copyright (c) 2022 Manuel Schneider
  -->

<svg
   version="1.1"
   width="1024"
   height="1024"
   id="svg1"
   sodipodi:docname="albert.svg"
   inkscape:version="1.3 (0e150ed, 2023-07-21)"
   xmlns:inkscape="http://www.inkscape.org/namespaces/inkscape"
   xmlns:sodipodi="http://sodipodi.sourceforge.net/DTD/sodipodi-0.dtd"
   xmlns="http://www.w3.org/2000/svg"
   xmlns:svg="http://www.w3.org/2000/svg">
  <sodipodi:namedview
     id="namedview1"
     pagecolor="#505050"
     bordercolor="#ffffff"
     borderopacity="1"
     inkscape:showpageshadow="0"
     inkscape:pageopacity="0"
     inkscape:pagecheckerboard="1"
     inkscape:deskcolor="#d1d1d1"
     showgrid="false"
     inkscape:zoom="0.36220895"
     inkscape:cx="-376.8543"
     inkscape:cy="382.37597"
     inkscape:window-width="1680"
     inkscape:window-height="1050"
     inkscape:window-x="0"
     inkscape:window-y="0"
     inkscape:window-maximized="0"
     inkscape:current-layer="svg1" />
  <defs
     id="defs1" />
  <g
     transform="matrix(8.3999077,0,0,8.3999077,-130.55647,-286.79491)"
     id="g1">
    <path
       d="m 136.52453,101.36505 c -16.51417,20.68793 -0.51592,0.90402 -16.2996,20.79456 -5.49451,3.28754 -15.56862,5.77102 -20.12313,4.82554 -6.384505,-0.963 -13.380879,-8.11445 -18.512312,-15.19591 C 75.097851,102.82778 70.342273,90.308729 63.763176,82.616968 57.658543,75.480311 48.980434,71.091585 40.735245,76.884946 c -4.075586,2.867542 -8.054966,8.026057 -11.140079,13.546459 -4.92831,8.811181 -2.078385,20.266585 10.826178,22.766095 10.155283,0.87477 15.296326,-0.48999 28.76749,-6.49457 17.366019,-8.139508 29.739665,-18.781245 62.801936,-43.879175 -18.46833,19.17896 -0.96384,0.493064 -19.07244,19.557621 -9.19619,9.68165 -27.609344,20.748794 -46.927138,32.011644 -9.15498,5.25084 -17.200982,8.59344 -28.968579,11.46129 -7.042627,1.71746 -17.413068,3.30887 -19.684813,-4.16484 -2.365763,-7.78989 3.279709,-19.80016 4.456031,-22.403641 8.87708,-19.631172 22.133665,-40.013734 45.312462,-36.986716 22.105239,2.889016 23.147961,37.376018 39.647087,46.438687 8.12471,4.46202 14.18477,0.78247 29.77115,-7.37275 z"
       fill="#00cccc"
       stroke="none"
       id="path1" />
  </g>
</svg>
