<svg height="200" viewBox="0 0 200 200" width="200"><path d="m110.45312.546875l-10.45312 19.453125-32.539062 6.916016-17.460938-13.519532-30.902344 27.824219 11.621094 18.779297-10.28125 31.638672-20.4375 8.361328 8.6445312 40.67383 22.0742188-.67383 22.257812 24.7207-2.976562 21.88282 39.546875 12.8496 10.453125-19.45312 32.53906-6.91602 17.46094 13.51954 30.90234-27.82422-11.62109-18.7793 10.28125-31.63867 20.4375-8.36133-8.64453-40.673828-22.07422.673828-22.25781-24.720703 2.97656-21.882813zm-10.45312 59.453125a40 40 0 0 1 40 40 40 40 0 0 1 -40 40 40 40 0 0 1 -40-40 40 40 0 0 1  40-40z"/></svg>