<svg height="96" width="96" xmlns="http://www.w3.org/2000/svg" xmlns:xlink="http://www.w3.org/1999/xlink"><linearGradient id="a"><stop offset="0" stop-color="#fff"/><stop offset="1" stop-color="#fff" stop-opacity="0"/></linearGradient><linearGradient id="b" gradientUnits="userSpaceOnUse" x1="36.357143" x2="36.357143" xlink:href="#a" y1="6" y2="63.893143"/><filter id="c" color-interpolation-filters="sRGB" height="1.3839999" width="1.3839999" x="-.192" y="-.192"><feGaussianBlur stdDeviation="5.28"/></filter><linearGradient id="d" gradientUnits="userSpaceOnUse" x1="48" x2="48" xlink:href="#a" y1="20.220806" y2="138.66119"/><radialGradient id="e" cx="48" cy="90.171875" gradientTransform="matrix(1.1573129 0 0 .99590774 -7.5510206 .19713193)" gradientUnits="userSpaceOnUse" r="42" xlink:href="#a"/><clipPath id="f"><rect height="84" rx="6" width="84" x="6" y="6"/></clipPath><linearGradient id="g" gradientUnits="userSpaceOnUse" x1="48" x2="48" y1="90" y2="5.9877172"><stop offset="0" stop-color="#2295c5"/><stop offset="1" stop-color="#68d8f4"/></linearGradient><linearGradient id="h" gradientTransform="matrix(1.0058652 0 0 .994169 100 0)" gradientUnits="userSpaceOnUse" x1="45.447727" x2="45.447727" y1="92.539597" y2="7.0165396"><stop offset="0"/><stop offset="1" stop-opacity=".58823532"/></linearGradient><linearGradient id="i" gradientTransform="matrix(1.0238095 0 0 1.0119048 -1.1428571 -98.071429)" gradientUnits="userSpaceOnUse" x1="32.251034" x2="32.251034" xlink:href="#h" y1="6.1317081" y2="90.238609"/><linearGradient id="j" gradientTransform="translate(0 -97)" gradientUnits="userSpaceOnUse" x1="32.251034" x2="32.251034" xlink:href="#h" y1="6.1317081" y2="90.238609"/><path d="m12-95.03125c-5.5110903 0-10.03125 4.52016-10.03125 10.03125v71c0 5.5110902 4.5201598 10.03125 10.03125 10.03125h72c5.51109 0 10.03125-4.5201597 10.03125-10.03125v-71c0-5.51109-4.52016-10.03125-10.03125-10.03125z" fill="url(#i)" opacity=".07999998" transform="scale(1 -1)"/><path d="m12-94.03125c-4.971633 0-9.03125 4.059617-9.03125 9.03125v71c0 4.9716329 4.0596171 9.03125 9.03125 9.03125h72c4.971633 0 9.03125-4.059617 9.03125-9.03125v-71c0-4.971633-4.059617-9.03125-9.03125-9.03125z" fill="url(#i)" opacity=".1" transform="scale(1 -1)"/><path d="m12-93c-4.4091333 0-8 3.590867-8 8v71c0 4.4091333 3.5908667 8 8 8h72c4.409133 0 8-3.5908667 8-8v-71c0-4.409133-3.590867-8-8-8z" fill="url(#i)" opacity=".2" transform="scale(1 -1)"/><rect fill="url(#i)" height="85" opacity=".3" rx="7" transform="scale(1 -1)" width="86" x="5" y="-92"/><rect fill="url(#j)" height="84" opacity=".45" rx="6" transform="scale(1 -1)" width="84" x="6" y="-91"/><rect fill="url(#g)" height="84" rx="6" width="84" x="6" y="6"/><path d="m12 6c-3.324 0-6 2.676-6 6v2 68 2c0 .334721.04135.6507.09375.96875.0487.295596.09704.596915.1875.875.00988.03038.020892.0636.03125.09375.098865.287771.2348802.547452.375.8125.1445918.273507.3156161.535615.5.78125.1843839.245635.3737765.473472.59375.6875.439947.428056.94291.814526 1.5 1.09375.278545.139612.5734731.246947.875.34375-.2562018-.100222-.4867109-.236272-.71875-.375-.00741-.0044-.023866.0045-.03125 0-.031933-.0193-.062293-.04251-.09375-.0625-.120395-.0767-.2310226-.163513-.34375-.25-.1061728-.0808-.2132809-.161112-.3125-.25-.1779299-.161433-.3474596-.345388-.5-.53125-.1075789-.130255-.2183939-.265285-.3125-.40625-.025089-.03838-.038446-.08587-.0625-.125-.064763-.103032-.1302275-.204517-.1875-.3125-.1010083-.194706-.2056748-.415701-.28125-.625-.00796-.02181-.023589-.04055-.03125-.0625-.0318251-.09195-.0358045-.186831-.0625-.28125-.0303323-.106618-.0703894-.203031-.09375-.3125-.0728786-.341512-.125-.698205-.125-1.0625v-2-68-2c0-2.781848 2.2181517-5 5-5h2 68 2c2.781848 0 5 2.218152 5 5v2 68 2c0 .364295-.05212.720988-.125 1.0625-.04415.206893-.08838.397658-.15625.59375-.0077.02195-.0233.04069-.03125.0625-.06274.173739-.138383.367449-.21875.53125-.04158.0828-.07904.169954-.125.25-.0546.09721-.126774.18835-.1875.28125-.09411.140965-.204921.275995-.3125.40625-.143174.17445-.303141.346998-.46875.5-.01117.0102-.01998.02115-.03125.03125-.138386.125556-.285091.234436-.4375.34375-.102571.07315-.204318.153364-.3125.21875-.0074.0045-.02384-.0044-.03125 0-.232039.138728-.462548.274778-.71875.375.301527-.0968.596455-.204138.875-.34375.55709-.279224 1.060053-.665694 1.5-1.09375.219973-.214028.409366-.441865.59375-.6875.184384-.245635.355408-.507743.5-.78125.14012-.265048.276135-.524729.375-.8125.01041-.03078.02133-.06274.03125-.09375.09046-.278085.1388-.579404.1875-.875.0524-.31805.09375-.634029.09375-.96875v-2-68-2c0-3.324-2.676-6-6-6z" fill="url(#b)" opacity=".5"/><path d="m12 90c-3.324 0-6-2.676-6-6v-2-68-2c0-.334721.04135-.6507.09375-.96875.0487-.295596.09704-.596915.1875-.875.00988-.03038.020892-.0636.03125-.09375.098865-.287771.2348802-.547452.375-.8125.1445918-.273507.3156161-.535615.5-.78125.1843839-.245635.3737765-.473472.59375-.6875.439947-.428056.94291-.814526 1.5-1.09375.278545-.139612.5734731-.246947.875-.34375-.2562018.100222-.4867109.236272-.71875.375-.00741.0044-.023866-.0045-.03125 0-.031933.0193-.062293.04251-.09375.0625-.120395.0767-.2310226.163513-.34375.25-.1061728.0808-.2132809.161112-.3125.25-.1779299.161433-.3474596.345388-.5.53125-.1075789.130255-.2183939.265285-.3125.40625-.025089.03838-.038446.08587-.0625.125-.064763.103032-.1302275.204517-.1875.3125-.1010083.194706-.2056748.415701-.28125.625-.00796.02181-.023589.04055-.03125.0625-.0318251.09195-.0358045.186831-.0625.28125-.0303323.106618-.0703894.203031-.09375.3125-.0728786.341512-.125.698205-.125 1.0625v2 68 2c0 2.781848 2.2181517 5 5 5h2 68 2c2.781848 0 5-2.218152 5-5v-2-68-2c0-.364295-.05212-.720988-.125-1.0625-.04415-.206893-.08838-.397658-.15625-.59375-.0077-.02195-.0233-.04069-.03125-.0625-.06274-.173739-.138383-.367449-.21875-.53125-.04158-.0828-.07904-.169954-.125-.25-.0546-.09721-.126774-.18835-.1875-.28125-.09411-.140965-.204921-.275995-.3125-.40625-.143174-.17445-.303141-.346998-.46875-.5-.01117-.0102-.01998-.02115-.03125-.03125-.138386-.125556-.285091-.234436-.4375-.34375-.102571-.07315-.204318-.153364-.3125-.21875-.0074-.0045-.02384.0044-.03125 0-.232039-.138728-.462548-.274778-.71875-.375.301527.0968.596455.204138.875.34375.55709.279224 1.060053.665694 1.5 1.09375.219973.214028.409366.441865.59375.6875.184384.245635.355408.507743.5.78125.14012.265048.276135.524729.375.8125.01041.03078.02133.06274.03125.09375.09046.278085.1388.579404.1875.875.0524.31805.09375.634029.09375.96875v2 68 2c0 3.324-2.676 6-6 6z" fill="url(#e)" opacity=".2"/><path d="m11.625 9c-.682055.0766125-1.2633.3547182-1.6875.78125-.4242001.426532-.6771994.962075-.8125 1.46875-.2645325.990624-.1759066 1.968893-.125 2.71875.0000185.02083-.0000184.04167 0 .0625.020683 23.455706-.041638 46.916913.03125 70.375a.98129583.98129583 0 0 0  .03125.25c.1931205.760046.6053781 1.369967 1.15625 1.75.550872.380033 1.17373.531161 1.75.59375 1.15254.125178 2.294558-.05058 2.96875 0a .98129583.98129583 0 0 0  .0625 0c23.128342-.02085 46.275417.0417 69.40625-.03125a.98129583.98129583 0 0 0  .25-.03125c.760046-.19312 1.369967-.605378 1.75-1.15625.380033-.550872.531161-1.17373.59375-1.75.125178-1.15254-.05058-2.294558 0-2.96875a.98129583.98129583 0 0 0 0-.0625c-.02084-23.128343.0417-46.275418-.03125-69.40625a.98129583.98129583 0 0 0 -.03125-.25c-.19312-.760046-.605378-1.3699668-1.15625-1.75-.550872-.3800332-1.17373-.531161-1.75-.59375-1.15254-.1251781-2.294558.0505767-2.96875 0a .98129583.98129583 0 0 0 -.0625 0h-69.25a.98129583.98129583 0 0 0 -.125 0zm9.375 12h20.90625c-.151571.371763-.292857.735753-.375 1.09375-.226111.985442-.337308 1.915698-.59375 2.53125a.98129583.98129583 0 0 0 -.03125.125c-1.811943 6.959069-3.642388 13.916524-5.46875 20.875-.935086-3.165866-1.81909-6.373353-2.9375-9.5a.98129583.98129583 0 0 0 -.125-.21875c-.807796-1.191872-2.167891-1.467898-3.25-1.46875-1.082109-.000852-2.065485.156677-2.6875.0625a.98129583.98129583 0 0 0 -.15625 0h-5.28125zm26.5625 0h9.34375c-.151918.277089-.319395.542014-.375.875l-.0625-.03125c-1.456609 4.164646-2.920055 8.333316-4.375 12.5-1.48308-4.434677-2.916233-8.922371-4.53125-13.34375zm14.65625 0h12.78125v29.5h-3.03125c-3.2522-9.824476-6.406179-19.688174-9.75-29.5zm-41.21875 24.5h2.90625c2.967462 9.823952 5.958154 19.737096 8.90625 29.5h-11.8125zm38.3125 1.65625c1.387865 4.231204 2.734905 8.479639 4.21875 12.6875a.98129583.98129583 0 0 0  .125.25c.802476 1.189023 2.141615 1.466623 3.21875 1.46875 1.077135.0021 2.069008-.155436 2.6875-.0625a.98129583.98129583 0 0 0  .15625 0h5.28125v13.5h-35.875c2.234718-8.367762 4.429586-16.748438 6.625-25.125 1.175322 3.581117 2.299033 7.197045 3.65625 10.75a.98129583.98129583 0 0 0  .09375.21875c1.53251 2.202797 5.004041 1.130802 5.4375-1.375l.0625.03125c1.457254-4.1081 2.879944-8.227788 4.3125-12.34375z" fill="#005a80" opacity=".05"/><path d="m11.75 9.96875c-1.9831927.222764-1.8816679 2.511753-1.78125 3.998736.0208516 23.478847-.0416911 46.96362.03125 70.438764.580543 2.284787 3.290087 1.495831 5.011923 1.625 23.130701-.02085 46.267328.04169 69.394327-.03125 2.284787-.580543 1.495831-3.290087 1.625-5.011923-.020847-23.130701.041685-46.267328-.03125-69.394327-.580543-2.2847875-3.290087-1.495831-5.011923-1.625-23.079359 0-46.158718 0-69.238077 0zm8.28125 10.0625c7.916667 0 15.833333 0 23.75 0-1.544122 1.099185-1.270792 3.347599-1.945078 4.966126-2.100275 8.066455-4.224836 16.126561-6.336172 24.190124-1.327979-4.233288-2.453323-8.569557-3.9375-12.71875-1.173219-1.73104-3.546966-.737063-5.283599-1-2.08255 0-4.165101 0-6.247651 0 0-5.145833 0-10.291667 0-15.4375zm25.71875 0c10.072917 0 20.145833 0 30.21875 0 0 10.479167 0 20.958333 0 31.4375-1.572917 0-3.145833 0-4.71875 0-3.345478-10.088995-6.570568-20.223645-10-30.28125-.999607-1.675919-3.669314-.888528-3.83809.98422-1.772505 5.067836-3.54533 10.135559-5.31816 15.20328-1.935279-5.576837-3.635971-11.260764-5.6875-16.78125-.160069-.243691-.417255-.406952-.65625-.5625zm13.59375 24.0625c1.723786 5.136624 3.328602 10.343306 5.125 15.4375 1.164484 1.725406 3.524912.740431 5.252349 1 2.08255 0 4.165101 0 6.247651 0 0 5.145833 0 10.291667 0 15.4375-12.697917 0-25.395833 0-38.09375 0 2.629292-9.812978 5.16223-19.669216 7.75-29.5 1.583448 4.593569 2.95808 9.285182 4.6875 13.8125 1.07216 1.5411 3.574375.684141 3.746056-1.108617 1.780621-5.019695 3.53308-10.049188 5.285194-15.078883zm-39.3125.4375c1.53125 0 3.0625 0 4.59375 0 3.160741 10.464653 6.362931 21.046964 9.5 31.4375-4.697917 0-9.395833 0-14.09375 0 0-10.479167 0-20.958333 0-31.4375z" fill="#005a80" opacity=".1"/><path d="m11.90625 11.0625a.93232674.93232674 0 0 0 -.84375.9375v72a .93232674.93232674 0 0 0  .9375.9375h72a .93232674.93232674 0 0 0  .9375-.9375v-72a .93232674.93232674 0 0 0 -.9375-.9375h-72a .93232674.93232674 0 0 0 -.09375 0zm7.03125 7.875h58.125v33.625h-6.59375l-7.75-23.59375-2.3125-7a .93232674.93232674 0 0 0 -1.75-.03125l-2.4375 6.96875-4.15625 11.84375-3.75-11.25-2.65625-8a .93232674.93232674 0 0 0 -1.78125.03125l-2.125 8.15625-6.15625 23.53125-4.28125-14.21875a.93232674.93232674 0 0 0 -.03125 0l-.5625-1.78125a.93232674.93232674 0 0 0 -.875-.65625h-1.84375-9.0625zm40.4375 21.75l5.375 16.375.5625 1.71875a.93232674.93232674 0 0 0  .875.65625h1.8125 9.0625v17.625h-58.125v-33.625h6.46875l7.125 23.53125 2.5625 8.5a.93232674.93232674 0 0 0 1.8125-.03125l2.25-8.59375 6.34375-24.21875 3.25 9.8125 2.3125 6.9375a.93232674.93232674 0 0 0 1.75.03125l2.4375-6.90625z" fill="#005a80" opacity=".3"/><path d="m12 12v72h72v-72zm6 6h60v35.5h-8.1875l-7.96875-24.25-2.3125-7-2.4375 6.96875-5.03125 14.375-4.625-13.8125-2.65625-8-2.125 8.15625-7 26.78125-5.25-17.4375-.5625-1.78125h-1.84375-10zm41.40625 19.8125l6.21875 18.96875.5625 1.71875h1.8125 10v19.5h-60v-35.5h8.125l7.3125 24.1875 2.5625 8.5 2.25-8.59375 7.125-27.21875 4.25 12.78125 2.3125 6.9375 2.4375-6.90625z" fill="#fff"/><rect height="66" rx="12" style="opacity:.1;stroke:#fff;stroke-width:.5;stroke-linecap:round;clip-path:url(#f);fill:url(#d);filter:url(#c)" width="66" x="15" y="15"/></svg>