<svg height="96" width="96" xmlns="http://www.w3.org/2000/svg" xmlns:xlink="http://www.w3.org/1999/xlink"><linearGradient id="a"><stop offset="0" stop-color="#fff"/><stop offset="1" stop-color="#fff" stop-opacity="0"/></linearGradient><linearGradient id="b" gradientUnits="userSpaceOnUse" x1="36.357143" x2="36.357143" xlink:href="#a" y1="6" y2="63.893143"/><filter id="c" color-interpolation-filters="sRGB" height="1.3839999" width="1.3839999" x="-.192" y="-.192"><feGaussianBlur stdDeviation="5.28"/></filter><linearGradient id="d" gradientUnits="userSpaceOnUse" x1="48" x2="48" xlink:href="#a" y1="20.220806" y2="138.66119"/><clipPath id="e"><rect height="84" rx="6" width="84" x="6" y="6"/></clipPath><linearGradient id="f" gradientUnits="userSpaceOnUse" x1="48" x2="48" y1="90" y2="5.9877172"><stop offset="0" stop-color="#8c8c8c"/><stop offset="1" stop-color="#dcdcdc"/></linearGradient><linearGradient id="g" gradientTransform="matrix(1.0058652 0 0 .994169 100 0)" gradientUnits="userSpaceOnUse" x1="45.447727" x2="45.447727" y1="92.539597" y2="7.0165396"><stop offset="0"/><stop offset="1" stop-opacity=".58823532"/></linearGradient><linearGradient id="h" gradientTransform="matrix(1.0238095 0 0 1.0119048 -1.1428571 -98.071429)" gradientUnits="userSpaceOnUse" x1="32.251034" x2="32.251034" xlink:href="#g" y1="6.1317081" y2="90.238609"/><linearGradient id="i" gradientTransform="translate(0 -97)" gradientUnits="userSpaceOnUse" x1="32.251034" x2="32.251034" xlink:href="#g" y1="6.1317081" y2="90.238609"/><clipPath id="j"><rect height="84" rx="6" width="84" x="6" y="6"/></clipPath><linearGradient id="k" gradientUnits="userSpaceOnUse" x1="48.233639" x2="126.13924" xlink:href="#l" y1="48.047016" y2="66.232674"/><linearGradient id="l"><stop offset="0"/><stop offset="1" stop-opacity="0"/></linearGradient><linearGradient id="m" gradientUnits="userSpaceOnUse" x1="48.055065" x2="126.67282" xlink:href="#l" y1="48.031517" y2="62.838562"/><linearGradient id="n" gradientUnits="userSpaceOnUse" x1="47.997307" x2="127.05216" xlink:href="#l" y1="48.028725" y2="60.289631"/><linearGradient id="o" gradientUnits="userSpaceOnUse" x1="47.99826" x2="127.41583" xlink:href="#l" y1="48.028797" y2="57.664623"/><linearGradient id="p" gradientUnits="userSpaceOnUse" x1="48.233643" x2="126.13924" xlink:href="#a" y1="48.04702" y2="66.232674"/><linearGradient id="q" gradientUnits="userSpaceOnUse" x1="48.055069" x2="126.67282" xlink:href="#a" y1="48.031521" y2="62.838566"/><linearGradient id="r" gradientUnits="userSpaceOnUse" x1="47.997311" x2="127.05216" xlink:href="#a" y1="48.028728" y2="60.289635"/><linearGradient id="s" gradientUnits="userSpaceOnUse" x1="47.998264" x2="127.41583" xlink:href="#a" y1="48.028801" y2="57.664627"/><radialGradient id="t" cx="48" cy="90.171875" gradientTransform="matrix(1.1573129 0 0 .99590774 -7.551021 .1971319)" gradientUnits="userSpaceOnUse" r="42" xlink:href="#a"/><radialGradient id="u" cx="48.410488" cy="47.59774" gradientTransform="matrix(1 0 0 .98495914 -30 .71591078)" gradientUnits="userSpaceOnUse" r="30.640047"><stop offset="0" stop-color="#fff" stop-opacity="0"/><stop offset="1" stop-color="#fff"/></radialGradient><radialGradient id="v" cx="48.265148" cy="47.886696" gradientTransform="matrix(1 0 0 1.013812 -30 -.66140908)" gradientUnits="userSpaceOnUse" r="28.878813"><stop offset="0" stop-opacity="0"/><stop offset="1"/></radialGradient><linearGradient id="w" gradientTransform="matrix(0 1 -1 0 96 0)" gradientUnits="userSpaceOnUse" x1="16" x2="80" y1="48" y2="48"><stop offset="0" stop-color="#1e1e1e"/><stop offset="1" stop-color="#505050"/></linearGradient><path d="m12-95.03125c-5.5110903 0-10.03125 4.52016-10.03125 10.03125v71c0 5.5110902 4.5201598 10.03125 10.03125 10.03125h72c5.51109 0 10.03125-4.5201597 10.03125-10.03125v-71c0-5.51109-4.52016-10.03125-10.03125-10.03125z" fill="url(#h)" opacity=".07999998" transform="scale(1 -1)"/><path d="m12-94.03125c-4.971633 0-9.03125 4.059617-9.03125 9.03125v71c0 4.9716329 4.0596171 9.03125 9.03125 9.03125h72c4.971633 0 9.03125-4.059617 9.03125-9.03125v-71c0-4.971633-4.059617-9.03125-9.03125-9.03125z" fill="url(#h)" opacity=".1" transform="scale(1 -1)"/><path d="m12-93c-4.4091333 0-8 3.590867-8 8v71c0 4.4091333 3.5908667 8 8 8h72c4.409133 0 8-3.5908667 8-8v-71c0-4.409133-3.590867-8-8-8z" fill="url(#h)" opacity=".2" transform="scale(1 -1)"/><rect fill="url(#h)" height="85" opacity=".3" rx="7" transform="scale(1 -1)" width="86" x="5" y="-92"/><rect fill="url(#i)" height="84" opacity=".45" rx="6" transform="scale(1 -1)" width="84" x="6" y="-91"/><rect fill="url(#f)" height="84" rx="6" width="84" x="6" y="6"/><rect height="66" rx="12" style="opacity:.3;stroke:#fff;stroke-width:.5;stroke-linecap:round;clip-path:url(#e);fill:url(#d);filter:url(#c)" width="66" x="15" y="15"/><g clip-path="url(#j)"><g opacity=".9" transform="matrix(.1413721 .99271966 -1.1651755 .12044784 96.937266 -5.1946837)"><path d="m108.8959 48a60.895905 60.895905 0 0 1 -6.54616 27.466658l-54.34974-27.466658z" fill="url(#k)" opacity=".05" overflow="visible" transform="matrix(.99411049 -.1083712 .1083712 .99411049 -5.1582185 5.4918915)"/><path d="m108.8959 48a60.895905 60.895905 0 0 1 -4.45721 22.86887l-56.43869-22.86887z" fill="url(#m)" opacity=".07000002" overflow="visible" transform="matrix(.99786084 -.06537382 .06537382 .99786084 -3.0940115 3.2415713)"/><path d="m108.8959 48a60.895905 60.895905 0 0 1 -3.12994 19.271878l-57.76596-19.271878z" fill="url(#n)" opacity=".1" overflow="visible" transform="matrix(.99945136 -.0331207 .0331207 .99945136 -1.5634586 1.6161281)"/><path d="m108.8959 48a60.895905 60.895905 0 0 1 -2.07497 15.76102l-58.82093-15.76102z" fill="url(#o)" opacity=".1" overflow="visible"/></g><g fill="none" stroke-width=".47875074" transform="matrix(1.8327427 0 0 1.8327427 14.258316 -39.234412)"><path d="m19.196345 49.867051c-3.738265 2.562962-5.605177-4.899096-1.154974-4.811997 4.387142-.236076 3.979146 6.80144-.14484 6.614579-3.173748.242635-5.09871-3.898691-3.103604-6.28528 2.027686-2.980787 7.171211-1.684158 7.738852 1.817453.968958 3.636165-3.157198 7.038605-6.567267 5.522909-3.946222-1.269714-4.48984-7.147021-1.107149-9.366244 3.569732-2.795822 9.391656.237279 9.205832 4.758257.256767 4.350812-4.689261 7.672183-8.648236 5.934817-4.719427-1.551169-5.691985-8.420221-1.909414-11.472668 3.658906-3.435008 10.362961-1.458224 11.674531 3.358788 1.593108 4.559419-2.064292 9.921397-6.919377 10.009261-4.934051.46502-9.383474-4.338798-8.522574-9.226302.480479-5.045837 6.04397-8.597229 10.838865-7.042849 5.1784 1.246192 7.964231 7.581112 5.661928 12.315394-2.070284 5.179524-9.065521 7.066028-13.621189 4.001758-5.193418-3.020309-5.926005-10.893773-1.748259-15.070664 4.295937-4.828771 12.904413-3.785221 16.129114 1.740355 3.588156 5.436658.745533 13.649896-5.445197 15.695132-6.085917 2.396446-13.647309-1.742433-14.738377-8.236325-1.47472-6.410358 3.513038-13.362527 10.125034-13.808812 6.54736-.847687 13.054971 4.593955 13.183699 11.238201.523535 6.584005-5.015809 12.887258-11.659057 13.025163-6.795418.537949-13.300224-5.18053-13.440104-12.037695-.552396-7.007924 5.345763-13.715324 12.417489-13.857179 7.222899-.570541 14.129228 5.518301 14.275431 12.799224.544025 7.070773-5.078209 13.910145-12.150395 14.605866-7.060551 1.019154-14.409602-3.962245-15.813087-11.011865-1.765672-7.23283 2.79083-15.364433 10.01537-17.379527 7.395186-2.395395 16.204287 1.872317 18.685034 9.293107 2.828648 7.457542-1.114699 16.692208-8.577921 19.624653-7.623944 3.345667-17.457795-.451128-20.710481-8.154175-3.626699-7.730116.02753-17.902233 7.831666-21.439347 7.826862-3.917379 18.336216-.419073 22.165966 7.476562 4.217282 7.914183.888809 18.760005-7.087849 22.890591-7.991033 4.52648-19.171373 1.38183-23.610467-6.66553-4.844438-8.057431-1.898159-19.57058 6.208677-24.325893 7.972008-5.073225 19.561382-2.546664 24.767382 5.318462 5.622453 7.876356 3.599073 19.843135-4.151744 25.573234-7.618106 6.052732-19.658893 4.731761-25.991969-2.574757-6.536752-7.044882-6.348078-18.848089.0059-25.943201 5.969241-7.141338 17.094051-8.693924 25.012262-3.987725 7.86966 4.287323 11.778154 14.218967 9.324558 22.774667-2.103437 8.653625-10.400274 15.240452-19.316255 15.261922-9.351169.375063-18.515408-6.175958-20.824854-15.312916-2.840627-9.825982 2.376002-21.277007 11.857038-25.282748 9.799494-4.530353 22.579527-.439119 27.806611 9.040763 5.626443 9.45661 2.708166 22.790429-6.297042 29.089492-8.846478 6.616662-22.358797 5.123242-29.7631-2.991843-7.444188-7.667003-7.988705-20.555646-1.734403-29.099234 5.692201-8.332349 17.146752-11.702589 26.556931-8.288444 9.34073 3.004917 16.04007 12.40988 15.837192 22.218909.14356 10.288875-6.982184 20.25341-16.956646 23.048192-10.920554 3.426252-23.852597-1.920365-28.875954-12.274294-5.596859-10.682915-1.900697-25.098743 8.167772-31.748555 9.877551-6.965129 24.557917-5.161033 32.664147 3.725177 8.120013 8.387742 8.871471 22.382417 2.264401 31.879982-5.871776 9.028695-17.787753 13.194486-28.077227 10.26129-10.333522-2.561045-18.453427-12.028377-19.260619-22.666867-1.247825-11.537536 5.842211-23.476674 16.819676-27.472163 11.762409-4.671539 26.426062.214006 32.851199 11.16669 6.962977 11.110018 4.254376 26.938891-5.848527 35.239969-9.017477 7.807835-23.122755 8.436242-33.025428 1.904107-9.310481-5.77269-14.270242-17.436248-12.265053-28.168415 1.644104-10.784654 10.062017-20.170668 20.68576-22.75623 11.827441-3.169813 25.393363 2.049289 31.779831 12.560058 6.785995 10.59373 5.379237 25.434833-2.950896 34.782681-7.205646 8.461881-19.472302 11.821964-30.071758 8.709786-10.579674-2.806539-19.15466-11.943655-21.080462-22.747463-2.468307-12.1985 3.355421-25.652156 14.214149-31.8639 11.254823-6.788152 26.723545-4.953857 36.275015 3.999132 8.648345 7.755808 11.835188 20.655975 8.326714 31.654229-2.022046 6.678916-6.325835 12.653212-12.119166 16.565345" opacity=".2" stroke="url(#u)"/><path d="m16.908938 49.337251c-3.885859-1.858917 1.368699-6.941434 3.411713-3.237252 2.27904 3.498707-3.707115 6.507095-5.513003 3.024002-1.707843-2.496891.785978-6.049192 3.698336-5.541192 3.416899.252456 4.793862 5.102047 2.181575 7.233199-2.532331 2.525401-7.29345.746141-7.666384-2.780808-.830168-3.851348 3.748869-7.091646 7.182845-5.362045 3.99743 1.609549 4.267549 7.842669.458223 9.838071-3.458953 2.278819-8.542946-.213769-8.994268-4.297839-.965935-4.621489 4.225535-8.686104 8.535322-7.023322 4.565892 1.379208 6.124601 7.836419 2.783172 11.204943-2.995629 3.47784-9.146812 3.015559-11.526228-.938725-2.727361-3.840055-.887875-9.784956 3.543912-11.3989 4.381333-2.002293 9.948059.889201 10.947213 5.574331 1.435048 4.854329-2.455147 10.157563-7.445769 10.512333-5.246827.757312-10.12361-4.103745-9.76636-9.309468.01802-5.709742 6.150207-10.054138 11.57326-8.600431 6.015751 1.241214 9.24753 8.822414 6.232018 14.102269-2.769616 5.536748-10.880373 7.099984-15.505506 2.976515-4.864393-3.870308-5.050974-12.060578-.224597-16.04446 4.575316-4.259956 12.667493-3.458359 16.17678 1.771651 3.80895 4.986067 2.422534 12.928076-2.98489 16.19134-5.170232 3.559589-12.990424 1.99564-16.260748-3.406633-3.671892-5.33742-2.056291-13.408672 3.521078-16.782293 5.505428-3.784787 13.828761-2.11756 17.305945 3.635501 3.901854 5.673775 2.172224 14.2515-3.750918 17.831693-5.561134 3.807762-13.861971 2.430352-17.795237-3.059893-4.193942-5.326975-3.586177-13.742836 1.549138-18.247936 5.113999-4.890263 13.971988-5.004077 19.06357-.0154 5.485683 4.948417 6.159129 14.226849 1.230226 19.794981-4.793832 5.87194-14.268338 7.014588-20.228373 2.265378-6.376514-4.685135-7.924505-14.583222-3.130109-20.920835 4.638949-6.658312 14.747644-8.484394 21.367356-3.741925 6.943491 4.580474 9.058149 14.892702 4.379458 21.796791-4.509806 7.231865-15.018202 9.646206-22.208356 5.043756-7.522829-4.426155-10.247414-15.12259-5.7334-22.600306 4.329687-7.816124 15.205716-10.862146 22.971917-6.449418 7.96379 4.150685 11.391467 14.890068 7.391869 22.912398-3.810944 8.370438-14.621782 12.391626-23.02111 8.735138-8.601809-3.393946-13.236264-13.931979-10.23201-22.616515 2.692126-8.727846 12.496497-14.181381 21.355541-12.323225 8.714266 1.519526 15.278557 9.938154 15.167759 18.691695.21089 8.514533-6.106135 16.450934-14.313894 18.4971-8.121966 2.380901-17.485894-1.317882-21.74037-8.646086-4.752301-7.518364-3.715212-18.174114 2.707595-24.416769 6.737501-7.00727 18.641251-8.155133 26.44352-2.25516 8.385383 5.91279 11.091037 18.375685 5.772422 27.182692-5.109689 9.124647-17.470926 13.058888-26.934621 8.640328-9.649669-4.136995-14.841448-15.968138-11.680737-25.918588 2.772961-9.77035 13.122301-16.343141 23.126158-15.255334 9.56289.725544 17.779904 8.551829 19.441512 17.919374 1.965425 9.115922-2.591923 19.099087-10.761721 23.593308-8.400113 5.007382-19.987594 3.877551-27.027647-3.003984-8.009364-7.360155-9.754-20.544715-3.619185-29.599385 6.133066-9.683031 19.754504-13.491191 30.012139-8.364175 10.426435 4.820043 15.917558 17.760192 12.455716 28.654806-3.045023 10.669087-14.206354 17.937784-25.163022 17.012952-10.221354-.542444-19.312419-8.370469-21.787709-18.233184-2.802524-9.722125 1.131116-20.904141 9.503629-26.623868 8.903096-6.509618 22.098819-6.347498 30.603741.789 9.43435 7.461299 12.381322 21.851982 6.419813 32.344931-5.835428 11.010387-20.150601 16.302843-31.783684 11.932159-10.71133-3.711698-17.931265-15.022601-17.260618-26.277154.326985-10.406257 7.56992-20.030913 17.355957-23.480392 9.657652-3.771615 21.383006-1.303337 28.559392 6.212016 8.229246 8.228438 10.380049 21.874125 4.763885 32.12525-5.494593 10.619383-18.37815 16.513953-30.030378 14.099788-10.38868-1.909649-18.98324-10.409173-21.45852-20.612075-2.717437-10.041381.728165-21.441039 8.70519-28.16001 8.867142-7.828237 22.707661-9.428059 32.980265-3.442442 10.935243 6.037721 16.776131 19.641086 13.946093 31.756955-2.273846 10.803646-11.377058 19.556712-22.096449 21.895336-6.457991 1.509519-13.420305.80619-19.393161-2.103054" opacity=".1" stroke="url(#v)"/></g><g fill="#fff" opacity=".9" transform="matrix(1.062807 -.13087531 -.74010065 3.227468 32.525111 -100.66774)"><path d="m108.8959 48a60.895905 60.895905 0 0 1 -6.54616 27.466658l-54.34974-27.466658z" fill="url(#p)" opacity=".2" overflow="visible" transform="matrix(.99411049 -.1083712 .1083712 .99411049 -5.1582185 5.4918915)"/><path d="m108.8959 48a60.895905 60.895905 0 0 1 -4.45721 22.86887l-56.43869-22.86887z" fill="url(#q)" opacity=".4" overflow="visible" transform="matrix(.99786084 -.06537382 .06537382 .99786084 -3.0940115 3.2415713)"/><path d="m108.8959 48a60.895905 60.895905 0 0 1 -3.12994 19.271878l-57.76596-19.271878z" fill="url(#r)" opacity=".6" overflow="visible" transform="matrix(.99945136 -.0331207 .0331207 .99945136 -1.5634586 1.6161281)"/><path d="m108.8959 48a60.895905 60.895905 0 0 1 -2.07497 15.76102l-58.82093-15.76102z" fill="url(#s)" opacity=".8" overflow="visible"/></g><g opacity=".5" transform="matrix(-.61678932 .78712829 -.78712829 -.61678932 115.00148 40.011929)"><path d="m108.8959 48a60.895905 60.895905 0 0 1 -6.54616 27.466658l-54.34974-27.466658z" fill="url(#k)" opacity=".05" overflow="visible" transform="matrix(.99411049 -.1083712 .1083712 .99411049 -5.1582185 5.4918915)"/><path d="m108.8959 48a60.895905 60.895905 0 0 1 -4.45721 22.86887l-56.43869-22.86887z" fill="url(#m)" opacity=".07000002" overflow="visible" transform="matrix(.99786084 -.06537382 .06537382 .99786084 -3.0940115 3.2415713)"/><path d="m108.8959 48a60.895905 60.895905 0 0 1 -3.12994 19.271878l-57.76596-19.271878z" fill="url(#n)" opacity=".1" overflow="visible" transform="matrix(.99945136 -.0331207 .0331207 .99945136 -1.5634586 1.6161281)"/><path d="m108.8959 48a60.895905 60.895905 0 0 1 -2.07497 15.76102l-58.82093-15.76102z" fill="url(#o)" opacity=".1" overflow="visible"/></g><g opacity=".8" transform="matrix(-.06817198 -1.0460056 2.710673 .60162586 -79.095447 69.080129)"><path d="m108.8959 48a60.895905 60.895905 0 0 1 -6.54616 27.466658l-54.34974-27.466658z" fill="url(#k)" opacity=".05" overflow="visible" transform="matrix(.99411049 -.1083712 .1083712 .99411049 -5.1582185 5.4918915)"/><path d="m108.8959 48a60.895905 60.895905 0 0 1 -4.45721 22.86887l-56.43869-22.86887z" fill="url(#m)" opacity=".07000002" overflow="visible" transform="matrix(.99786084 -.06537382 .06537382 .99786084 -3.0940115 3.2415713)"/><path d="m108.8959 48a60.895905 60.895905 0 0 1 -3.12994 19.271878l-57.76596-19.271878z" fill="url(#n)" opacity=".1" overflow="visible" transform="matrix(.99945136 -.0331207 .0331207 .99945136 -1.5634586 1.6161281)"/><path d="m108.8959 48a60.895905 60.895905 0 0 1 -2.07497 15.76102l-58.82093-15.76102z" fill="url(#o)" opacity=".1" overflow="visible"/></g><g fill="#fff" opacity=".9" transform="matrix(-1.062807 .1308753 .74010064 -3.227468 62.996694 196.66774)"><path d="m108.8959 48a60.895905 60.895905 0 0 1 -6.54616 27.466658l-54.34974-27.466658z" fill="url(#p)" opacity=".2" overflow="visible" transform="matrix(.99411049 -.1083712 .1083712 .99411049 -5.1582185 5.4918915)"/><path d="m108.8959 48a60.895905 60.895905 0 0 1 -4.45721 22.86887l-56.43869-22.86887z" fill="url(#q)" opacity=".4" overflow="visible" transform="matrix(.99786084 -.06537382 .06537382 .99786084 -3.0940115 3.2415713)"/><path d="m108.8959 48a60.895905 60.895905 0 0 1 -3.12994 19.271878l-57.76596-19.271878z" fill="url(#r)" opacity=".6" overflow="visible" transform="matrix(.99945136 -.0331207 .0331207 .99945136 -1.5634586 1.6161281)"/><path d="m108.8959 48a60.895905 60.895905 0 0 1 -2.07497 15.76102l-58.82093-15.76102z" fill="url(#s)" opacity=".8" overflow="visible"/></g></g><path d="m12 6c-3.324 0-6 2.676-6 6v2 68 2c0 .334721.04135.6507.09375.96875.0487.295596.09704.596915.1875.875.00988.03038.020892.0636.03125.09375.098865.287771.2348802.547452.375.8125.1445918.273507.3156161.535615.5.78125.1843839.245635.3737765.473472.59375.6875.439947.428056.94291.814526 1.5 1.09375.278545.139612.5734731.246947.875.34375-.2562018-.100222-.4867109-.236272-.71875-.375-.00741-.0044-.023866.0045-.03125 0-.031933-.0193-.062293-.04251-.09375-.0625-.120395-.0767-.2310226-.163513-.34375-.25-.1061728-.0808-.2132809-.161112-.3125-.25-.1779299-.161433-.3474596-.345388-.5-.53125-.1075789-.130255-.2183939-.265285-.3125-.40625-.025089-.03838-.038446-.08587-.0625-.125-.064763-.103032-.1302275-.204517-.1875-.3125-.1010083-.194706-.2056748-.415701-.28125-.625-.00796-.02181-.023589-.04055-.03125-.0625-.0318251-.09195-.0358045-.186831-.0625-.28125-.0303323-.106618-.0703894-.203031-.09375-.3125-.0728786-.341512-.125-.698205-.125-1.0625v-2-68-2c0-2.781848 2.2181517-5 5-5h2 68 2c2.781848 0 5 2.218152 5 5v2 68 2c0 .364295-.05212.720988-.125 1.0625-.04415.206893-.08838.397658-.15625.59375-.0077.02195-.0233.04069-.03125.0625-.06274.173739-.138383.367449-.21875.53125-.04158.0828-.07904.169954-.125.25-.0546.09721-.126774.18835-.1875.28125-.09411.140965-.204921.275995-.3125.40625-.143174.17445-.303141.346998-.46875.5-.01117.0102-.01998.02115-.03125.03125-.138386.125556-.285091.234436-.4375.34375-.102571.07315-.204318.153364-.3125.21875-.0074.0045-.02384-.0044-.03125 0-.232039.138728-.462548.274778-.71875.375.301527-.0968.596455-.204138.875-.34375.55709-.279224 1.060053-.665694 1.5-1.09375.219973-.214028.409366-.441865.59375-.6875.184384-.245635.355408-.507743.5-.78125.14012-.265048.276135-.524729.375-.8125.01041-.03078.02133-.06274.03125-.09375.09046-.278085.1388-.579404.1875-.875.0524-.31805.09375-.634029.09375-.96875v-2-68-2c0-3.324-2.676-6-6-6z" fill="url(#b)" opacity=".5"/><path d="m12 90c-3.324 0-6-2.676-6-6v-2-68-2c0-.334721.04135-.6507.09375-.96875.0487-.295596.09704-.596915.1875-.875.00988-.03038.020892-.0636.03125-.09375.098865-.287771.2348802-.547452.375-.8125.1445918-.273507.3156161-.535615.5-.78125.1843839-.245635.3737765-.473472.59375-.6875.439947-.428056.94291-.814526 1.5-1.09375.278545-.139612.5734731-.246947.875-.34375-.2562018.100222-.4867109.236272-.71875.375-.00741.0044-.023866-.0045-.03125 0-.031933.0193-.062293.04251-.09375.0625-.120395.0767-.2310226.163513-.34375.25-.1061728.0808-.2132809.161112-.3125.25-.1779299.161433-.3474596.345388-.5.53125-.1075789.130255-.2183939.265285-.3125.40625-.025089.03838-.038446.08587-.0625.125-.064763.103032-.1302275.204517-.1875.3125-.1010083.194706-.2056748.415701-.28125.625-.00796.02181-.023589.04055-.03125.0625-.0318251.09195-.0358045.186831-.0625.28125-.0303323.106618-.0703894.203031-.09375.3125-.0728786.341512-.125.698205-.125 1.0625v2 68 2c0 2.781848 2.2181517 5 5 5h2 68 2c2.781848 0 5-2.218152 5-5v-2-68-2c0-.364295-.05212-.720988-.125-1.0625-.04415-.206893-.08838-.397658-.15625-.59375-.0077-.02195-.0233-.04069-.03125-.0625-.06274-.173739-.138383-.367449-.21875-.53125-.04158-.0828-.07904-.169954-.125-.25-.0546-.09721-.126774-.18835-.1875-.28125-.09411-.140965-.204921-.275995-.3125-.40625-.143174-.17445-.303141-.346998-.46875-.5-.01117-.0102-.01998-.02115-.03125-.03125-.138386-.125556-.285091-.234436-.4375-.34375-.102571-.07315-.204318-.153364-.3125-.21875-.0074-.0045-.02384.0044-.03125 0-.232039-.138728-.462548-.274778-.71875-.375.301527.0968.596455.204138.875.34375.55709.279224 1.060053.665694 1.5 1.09375.219973.214028.409366.441865.59375.6875.184384.245635.355408.507743.5.78125.14012.265048.276135.524729.375.8125.01041.03078.02133.06274.03125.09375.09046.278085.1388.579404.1875.875.0524.31805.09375.634029.09375.96875v2 68 2c0 3.324-2.676 6-6 6z" fill="url(#t)" opacity=".2"/><path d="m80 48c0-2.216-1.784-4-4-4h-10c-2.216 0-4 1.784-4 4 0 2.216 1.784 4 4 4h10c2.216 0 4-1.784 4-4zm-8.1875-19.8125c0-1.022476-.404026-2.029026-1.1875-2.8125-1.566949-1.566949-4.089301-1.566949-5.65625 0l-7.0625 7.0625c-1.566949 1.566949-1.566949 4.089301 0 5.65625 1.566949 1.566949 4.089301 1.566949 5.65625 0l7.0625-7.0625c.783474-.783474 1.1875-1.821274 1.1875-2.84375zm0 39.625c0-1.022476-.404026-2.060276-1.1875-2.84375l-7.0625-7.0625c-1.566949-1.566949-4.089301-1.566949-5.65625 0-1.566949 1.566949-1.566949 4.089301 0 5.65625l7.0625 7.0625c1.566949 1.566949 4.089301 1.566949 5.65625 0 .783474-.783474 1.1875-1.790024 1.1875-2.8125zm-19.8125-47.8125c0-2.216-1.784-4-4-4-2.216 0-4 1.784-4 4v10c0 2.216 1.784 4 4 4 2.216 0 4-1.784 4-4zm0 46c0-2.216-1.784-4-4-4-2.216 0-4 1.784-4 4v10c0 2.216 1.784 4 4 4 2.216 0 4-1.784 4-4zm-12.71875-30.71875c0-1.022476-.404026-2.060276-1.1875-2.84375l-7.0625-7.0625c-1.566949-1.566949-4.089301-1.566949-5.65625 0-1.566949 1.566949-1.566949 4.089301 0 5.65625l7.0625 7.0625c1.566949 1.566949 4.089301 1.566949 5.65625 0 .783474-.783474 1.1875-1.790024 1.1875-2.8125zm0 25.4375c0-1.022476-.404026-2.029026-1.1875-2.8125-1.566949-1.566949-4.089301-1.566949-5.65625 0l-7.0625 7.0625c-1.566949 1.566949-1.566949 4.089301 0 5.65625 1.566949 1.566949 4.089301 1.566949 5.65625 0l7.0625-7.0625c.783474-.783474 1.1875-1.821274 1.1875-2.84375zm-5.28125-12.71875c0-2.216-1.784-4-4-4h-10c-2.216 0-4 1.784-4 4 0 2.216 1.784 4 4 4h10c2.216 0 4-1.784 4-4z" fill="url(#w)" overflow="visible"/><path d="m48 16c-2.216 0-4 1.784-4 4v10c0 2.216 1.784 4 4 4 2.216 0 4-1.784 4-4v-10c0-2.216-1.784-4-4-4zm0 .96875c1.702545 0 3.03125 1.328705 3.03125 3.03125v10c0 1.702545-1.328705 3.03125-3.03125 3.03125-1.702545 0-3.03125-1.328705-3.03125-3.03125v-10c0-1.702545 1.328705-3.03125 3.03125-3.03125zm-19.8125 7.21875c-1.022325 0-2.029025.404025-2.8125 1.1875-1.566949 1.566949-1.566949 4.089301 0 5.65625l7.0625 7.0625c1.566949 1.566949 4.089301 1.566949 5.65625 0 .783474-.783474 1.1875-1.790024 1.1875-2.8125 0-1.022476-.404026-2.060276-1.1875-2.84375l-7.0625-7.0625c-.783475-.783475-1.821425-1.1875-2.84375-1.1875zm39.625 0c-1.022325 0-2.060276.404025-2.84375 1.1875l-7.0625 7.0625c-1.566949 1.566949-1.566949 4.089301 0 5.65625 1.566949 1.566949 4.089301 1.566949 5.65625 0l7.0625-7.0625c.783474-.783474 1.1875-1.821274 1.1875-2.84375 0-1.022476-.404026-2.029026-1.1875-2.8125-.783474-.783475-1.790175-1.1875-2.8125-1.1875zm-39.625.96875c.770269 0 1.555226.305226 2.15625.90625l7.0625 7.0625c.601067.601067.90625 1.385793.90625 2.15625 0 .770457-.296189 1.514939-.90625 2.125-1.203968 1.203968-3.077282 1.203968-4.28125 0l-7.0625-7.0625c-1.203968-1.203968-1.203968-3.077282 0-4.28125.610018-.610018 1.354731-.90625 2.125-.90625zm39.625 0c .770269 0 1.514983.296232 2.125.90625.610061.610061.90625 1.354543.90625 2.125 0 .770457-.305183 1.555183-.90625 2.15625l-7.0625 7.0625c-1.203968 1.203968-3.077282 1.203968-4.28125 0-1.203968-1.203968-1.203968-3.077282 0-4.28125l7.0625-7.0625c.601023-.601024 1.385981-.90625 2.15625-.90625zm-47.8125 18.84375c-2.216 0-4 1.784-4 4 0 2.216 1.784 4 4 4h10c2.216 0 4-1.784 4-4 0-2.216-1.784-4-4-4zm46 0c-2.216 0-4 1.784-4 4 0 2.216 1.784 4 4 4h10c2.216 0 4-1.784 4-4 0-2.216-1.784-4-4-4zm-46 .96875h10c1.702545 0 3.03125 1.328705 3.03125 3.03125 0 1.702545-1.328705 3.03125-3.03125 3.03125h-10c-1.702545 0-3.03125-1.328705-3.03125-3.03125 0-1.702545 1.328705-3.03125 3.03125-3.03125zm46 0h10c1.702545 0 3.03125 1.328705 3.03125 3.03125 0 1.702545-1.328705 3.03125-3.03125 3.03125h-10c-1.702545 0-3.03125-1.328705-3.03125-3.03125 0-1.702545 1.328705-3.03125 3.03125-3.03125zm-30.75 11.75c-1.022325 0-2.029026.404026-2.8125 1.1875l-7.0625 7.0625c-1.566949 1.566949-1.566949 4.089301 0 5.65625 1.566949 1.566949 4.089301 1.566949 5.65625 0l7.0625-7.0625c.783474-.783474 1.1875-1.821274 1.1875-2.84375 0-1.022476-.404026-2.029026-1.1875-2.8125-.783474-.783474-1.821425-1.1875-2.84375-1.1875zm25.5 0c-1.022325 0-2.060276.404026-2.84375 1.1875-1.566949 1.566949-1.566949 4.089301 0 5.65625l7.0625 7.0625c1.566949 1.566949 4.089301 1.566949 5.65625 0 .783474-.783474 1.1875-1.790024 1.1875-2.8125 0-1.022476-.404026-2.060276-1.1875-2.84375l-7.0625-7.0625c-.783474-.783474-1.790175-1.1875-2.8125-1.1875zm-25.5.96875c.770268 0 1.555227.305227 2.15625.90625.610061.610061.90625 1.354543.90625 2.125 0 .770457-.305183 1.555183-.90625 2.15625l-7.0625 7.0625c-1.203968 1.203968-3.077282 1.203968-4.28125 0-1.203968-1.203968-1.203968-3.077282 0-4.28125l7.0625-7.0625c.610017-.610017 1.354732-.90625 2.125-.90625zm25.5 0c .770268 0 1.514983.296233 2.125.90625l7.0625 7.0625c.601067.601067.90625 1.385793.90625 2.15625 0 .770457-.296189 1.514939-.90625 2.125-1.203968 1.203968-3.077282 1.203968-4.28125 0l-7.0625-7.0625c-1.203968-1.203968-1.203968-3.077282 0-4.28125.601023-.601023 1.385982-.90625 2.15625-.90625zm-12.75 4.3125c-2.216 0-4 1.784-4 4v10c0 2.216 1.784 4 4 4 2.216 0 4-1.784 4-4v-10c0-2.216-1.784-4-4-4zm0 .96875c1.702545 0 3.03125 1.328705 3.03125 3.03125v10c0 1.702545-1.328705 3.03125-3.03125 3.03125-1.702545 0-3.03125-1.328705-3.03125-3.03125v-10c0-1.702545 1.328705-3.03125 3.03125-3.03125z" opacity=".2" overflow="visible"/><path d="m48 16c-2.216 0-4 1.784-4 4v10c0 2.216 1.784 4 4 4 2.216 0 4-1.784 4-4v-10c0-2.216-1.784-4-4-4zm0 2c1.143449 0 2 .856551 2 2v10c0 1.143449-.856551 2-2 2-1.143449 0-2-.856551-2-2v-10c0-1.143449.856551-2 2-2zm-19.8125 6.1875c-1.022325 0-2.029025.404025-2.8125 1.1875-1.566949 1.566949-1.566949 4.089301 0 5.65625l7.0625 7.0625c1.566949 1.566949 4.089301 1.566949 5.65625 0 .783474-.783474 1.1875-1.790024 1.1875-2.8125 0-1.022476-.404026-2.060276-1.1875-2.84375l-7.0625-7.0625c-.783475-.783475-1.821425-1.1875-2.84375-1.1875zm39.625 0c-1.022325 0-2.060276.404025-2.84375 1.1875l-7.0625 7.0625c-1.566949 1.566949-1.566949 4.089301 0 5.65625 1.566949 1.566949 4.089301 1.566949 5.65625 0l7.0625-7.0625c.783474-.783474 1.1875-1.821274 1.1875-2.84375 0-1.022476-.404026-2.029026-1.1875-2.8125-.783474-.783475-1.790175-1.1875-2.8125-1.1875zm-39.625 2c .495808 0 1.035144.191394 1.4375.59375l7.0625 7.0625c.402445.402445.59375.941464.59375 1.4375 0 .496036-.172517.985017-.59375 1.40625-.808723.808723-2.035027.808723-2.84375 0l-7.0625-7.0625c-.808723-.808723-.808723-2.035027 0-2.84375.421144-.421144.910442-.59375 1.40625-.59375zm39.625 0c .495808 0 .985109.172608 1.40625.59375.421233.421233.59375.910214.59375 1.40625 0 .496036-.191305 1.035055-.59375 1.4375l-7.0625 7.0625c-.808723.808723-2.035027.808723-2.84375 0-.808723-.808723-.808723-2.035027 0-2.84375l7.0625-7.0625c.402354-.402354.941692-.59375 1.4375-.59375zm-47.8125 17.8125c-2.216 0-4 1.784-4 4 0 2.216 1.784 4 4 4h10c2.216 0 4-1.784 4-4 0-2.216-1.784-4-4-4zm46 0c-2.216 0-4 1.784-4 4 0 2.216 1.784 4 4 4h10c2.216 0 4-1.784 4-4 0-2.216-1.784-4-4-4zm-46 2h10c1.143449 0 2 .856551 2 2 0 1.143449-.856551 2-2 2h-10c-1.143449 0-2-.856551-2-2 0-1.143449.856551-2 2-2zm46 0h10c1.143449 0 2 .856551 2 2 0 1.143449-.856551 2-2 2h-10c-1.143449 0-2-.856551-2-2 0-1.143449.856551-2 2-2zm-30.75 10.71875c-1.022325 0-2.029026.404026-2.8125 1.1875l-7.0625 7.0625c-1.566949 1.566949-1.566949 4.089301 0 5.65625 1.566949 1.566949 4.089301 1.566949 5.65625 0l7.0625-7.0625c.783474-.783474 1.1875-1.821274 1.1875-2.84375 0-1.022476-.404026-2.029026-1.1875-2.8125-.783474-.783474-1.821425-1.1875-2.84375-1.1875zm25.5 0c-1.022325 0-2.060276.404026-2.84375 1.1875-1.566949 1.566949-1.566949 4.089301 0 5.65625l7.0625 7.0625c1.566949 1.566949 4.089301 1.566949 5.65625 0 .783474-.783474 1.1875-1.790024 1.1875-2.8125 0-1.022476-.404026-2.060276-1.1875-2.84375l-7.0625-7.0625c-.783474-.783474-1.790175-1.1875-2.8125-1.1875zm-25.5 2c .495807 0 1.035146.191396 1.4375.59375.421233.421233.59375.910214.59375 1.40625 0 .496036-.191305 1.035055-.59375 1.4375l-7.0625 7.0625c-.808723.808723-2.035027.808723-2.84375 0-.808723-.808723-.808723-2.035027 0-2.84375l7.0625-7.0625c.421142-.421142.910443-.59375 1.40625-.59375zm25.5 0c .495807 0 .985108.172608 1.40625.59375l7.0625 7.0625c.402445.402445.59375.941464.59375 1.4375 0 .496036-.172517.985017-.59375 1.40625-.808723.808723-2.035027.808723-2.84375 0l-7.0625-7.0625c-.808723-.808723-.808723-2.035027 0-2.84375.402354-.402354.941693-.59375 1.4375-.59375zm-12.75 3.28125c-2.216 0-4 1.784-4 4v10c0 2.216 1.784 4 4 4 2.216 0 4-1.784 4-4v-10c0-2.216-1.784-4-4-4zm0 2c1.143449 0 2 .856551 2 2v10c0 1.143449-.856551 2-2 2-1.143449 0-2-.856551-2-2v-10c0-1.143449.856551-2 2-2z" opacity=".05" overflow="visible"/><path d="m48 16c-2.216 0-4 1.784-4 4v1c0-2.216 1.784-4 4-4 2.216 0 4 1.784 4 4v-1c0-2.216-1.784-4-4-4zm-19.8125 8.1875c-1.022325 0-2.029025.404025-2.8125 1.1875-.908905.908905-1.270511 2.133608-1.125 3.3125.108816-.846409.472105-1.659605 1.125-2.3125 1.566949-1.566949 4.089301-1.566949 5.65625 0l7.0625 7.0625c.65312.65312 1.044743 1.493365 1.15625 2.34375.02226-.168283.03125-.329881.03125-.5 0-1.022476-.404026-2.060276-1.1875-2.84375l-7.0625-7.0625c-.783475-.783475-1.821425-1.1875-2.84375-1.1875zm39.625 0c-1.022325 0-2.060276.404025-2.84375 1.1875l-7.0625 7.0625c-.908905.908905-1.270511 2.133608-1.125 3.3125.108816-.846409.472105-1.659605 1.125-2.3125l7.0625-7.0625c1.566949-1.566949 4.089301-1.566949 5.65625 0 .65312.65312 1.044743 1.469341 1.15625 2.3125.02226-.169725.03125-.329881.03125-.5 0-1.022476-.404026-2.029026-1.1875-2.8125-.783474-.783475-1.790175-1.1875-2.8125-1.1875zm-47.8125 19.8125c-2.216 0-4 1.784-4 4 0 .170648.04196.335093.0625.5.246203-1.976541 1.892148-3.5 3.9375-3.5h10c2.045352 0 3.691297 1.523459 3.9375 3.5.020541-.164907.0625-.329352.0625-.5 0-2.216-1.784-4-4-4zm46 0c-2.216 0-4 1.784-4 4 0 .170648.04196.335093.0625.5.246203-1.976541 1.892148-3.5 3.9375-3.5h10c2.045352 0 3.691297 1.523459 3.9375 3.5.020541-.164907.0625-.329352.0625-.5 0-2.216-1.784-4-4-4zm-30.75 12.71875c-1.022325 0-2.029026.404026-2.8125 1.1875l-7.0625 7.0625c-.914054.914054-1.277342 2.158778-1.125 3.34375.105349-.853515.466956-1.685706 1.125-2.34375l7.0625-7.0625c1.566949-1.566949 4.089301-1.566949 5.65625 0 .65312.65312 1.044743 1.469341 1.15625 2.3125.02226-.169725.03125-.329881.03125-.5 0-1.022476-.404026-2.029026-1.1875-2.8125-.783474-.783474-1.821425-1.1875-2.84375-1.1875zm25.5 0c-1.022325 0-2.060276.404026-2.84375 1.1875-.914054.914054-1.277342 2.158778-1.125 3.34375.105349-.853515.466956-1.685706 1.125-2.34375 1.566949-1.566949 4.089301-1.566949 5.65625 0l7.0625 7.0625c.65312.65312 1.044743 1.493365 1.15625 2.34375.02226-.168283.03125-.329881.03125-.5 0-1.022476-.404026-2.060276-1.1875-2.84375l-7.0625-7.0625c-.783474-.783474-1.790175-1.1875-2.8125-1.1875zm-12.75 5.28125c-2.216 0-4 1.784-4 4v1c0-2.216 1.784-4 4-4 2.216 0 4 1.784 4 4v-1c0-2.216-1.784-4-4-4z" opacity=".6" overflow="visible"/><path d="m24.25 28.6875c-.152342 1.184972.210946 2.429696 1.125 3.34375l7.0625 7.0625c1.566949 1.566949 4.089301 1.566949 5.65625 0 .783474-.783474 1.1875-1.790024 1.1875-2.8125 0-.170119-.009-.330275-.03125-.5-.111507.843159-.50313 1.65938-1.15625 2.3125-1.566949 1.566949-4.089301 1.566949-5.65625 0l-7.0625-7.0625c-.658044-.658044-1.019651-1.490235-1.125-2.34375zm47.53125 0c-.111507.850385-.50313 1.69063-1.15625 2.34375l-7.0625 7.0625c-1.566949 1.566949-4.089301 1.566949-5.65625 0-.658044-.658044-1.019651-1.490235-1.125-2.34375-.152342 1.184972.210946 2.429696 1.125 3.34375 1.566949 1.566949 4.089301 1.566949 5.65625 0l7.0625-7.0625c.783474-.783474 1.1875-1.821274 1.1875-2.84375 0-.170119-.009-.331717-.03125-.5zm-27.78125 1.3125v1c0 2.216 1.784 4 4 4 2.216 0 4-1.784 4-4v-1c0 2.216-1.784 4-4 4-2.216 0-4-1.784-4-4zm-27.9375 18.5c-.020541.164907-.0625.329352-.0625.5 0 2.216 1.784 4 4 4h10c2.216 0 4-1.784 4-4 0-.170648-.04196-.335093-.0625-.5-.246203 1.976541-1.892148 3.5-3.9375 3.5h-10c-2.045352 0-3.691297-1.523459-3.9375-3.5zm46 0c-.020541.164907-.0625.329352-.0625.5 0 2.216 1.784 4 4 4h10c2.216 0 4-1.784 4-4 0-.170648-.04196-.335093-.0625-.5-.246203 1.976541-1.892148 3.5-3.9375 3.5h-10c-2.045352 0-3.691297-1.523459-3.9375-3.5zm-22.8125 12.71875c-.111507.850385-.50313 1.69063-1.15625 2.34375l-7.0625 7.0625c-1.566949 1.566949-4.089301 1.566949-5.65625 0-.652895-.652895-1.016184-1.466091-1.125-2.3125-.145511 1.178892.216095 2.403595 1.125 3.3125 1.566949 1.566949 4.089301 1.566949 5.65625 0l7.0625-7.0625c.783474-.783474 1.1875-1.821274 1.1875-2.84375 0-.170119-.009-.331717-.03125-.5zm17.53125.03125c-.145511 1.178892.216095 2.403595 1.125 3.3125l7.0625 7.0625c1.566949 1.566949 4.089301 1.566949 5.65625 0 .783474-.783474 1.1875-1.790024 1.1875-2.8125 0-.170119-.009-.330275-.03125-.5-.111507.843159-.50313 1.65938-1.15625 2.3125-1.566949 1.566949-4.089301 1.566949-5.65625 0l-7.0625-7.0625c-.652895-.652895-1.016184-1.466091-1.125-2.3125zm-12.78125 14.75v1c0 2.216 1.784 4 4 4 2.216 0 4-1.784 4-4v-1c0 2.216-1.784 4-4 4-2.216 0-4-1.784-4-4z" fill="#fff" opacity=".6" overflow="visible"/></svg>