<?xml version="1.0" encoding="UTF-8" standalone="no"?>
<!-- Created with Inkscape (http://www.inkscape.org/) -->

<svg
   xmlns:dc="http://purl.org/dc/elements/1.1/"
   xmlns:cc="http://creativecommons.org/ns#"
   xmlns:rdf="http://www.w3.org/1999/02/22-rdf-syntax-ns#"
   xmlns:svg="http://www.w3.org/2000/svg"
   xmlns="http://www.w3.org/2000/svg"
   xmlns:xlink="http://www.w3.org/1999/xlink"
   xmlns:inkscape="http://www.inkscape.org/namespaces/inkscape"
   version="1.0"
   width="96"
   height="96"
   id="svg2408">
  <defs
     id="defs2410">
    <linearGradient
       x1="45.447727"
       y1="92.539597"
       x2="45.447727"
       y2="7.0165396"
       id="ButtonShadow"
       gradientUnits="userSpaceOnUse"
       gradientTransform="scale(1.0058652,0.994169)">
      <stop
         id="stop3750"
         style="stop-color:#000000;stop-opacity:1"
         offset="0" />
      <stop
         id="stop3752"
         style="stop-color:#000000;stop-opacity:0.58823532"
         offset="1" />
    </linearGradient>
    <linearGradient
       id="linearGradient3737">
      <stop
         id="stop3739"
         style="stop-color:#ffffff;stop-opacity:1"
         offset="0" />
      <stop
         id="stop3741"
         style="stop-color:#ffffff;stop-opacity:0"
         offset="1" />
    </linearGradient>
    <filter
       color-interpolation-filters="sRGB"
       id="filter3174">
      <feGaussianBlur
         id="feGaussianBlur3176"
         stdDeviation="1.71" />
    </filter>
    <linearGradient
       x1="36.357143"
       y1="6"
       x2="36.357143"
       y2="63.893143"
       id="linearGradient3188"
       xlink:href="#linearGradient3737"
       gradientUnits="userSpaceOnUse" />
    <filter
       x="-0.192"
       y="-0.192"
       width="1.3839999"
       height="1.3839999"
       color-interpolation-filters="sRGB"
       id="filter3794">
      <feGaussianBlur
         id="feGaussianBlur3796"
         stdDeviation="5.28" />
    </filter>
    <linearGradient
       x1="48"
       y1="20.220806"
       x2="48"
       y2="138.66119"
       id="linearGradient3613"
       xlink:href="#linearGradient3737"
       gradientUnits="userSpaceOnUse" />
    <radialGradient
       cx="48"
       cy="90.171875"
       r="42"
       fx="48"
       fy="90.171875"
       id="radialGradient3619"
       xlink:href="#linearGradient3737"
       gradientUnits="userSpaceOnUse"
       gradientTransform="matrix(1.1573129,0,0,0.99590774,-7.5510206,0.19713193)" />
    <clipPath
       id="clipPath3613">
      <rect
         width="84"
         height="84"
         rx="6"
         ry="6"
         x="6"
         y="6"
         id="rect3615"
         style="fill:#ffffff;fill-opacity:1;fill-rule:nonzero;stroke:none" />
    </clipPath>
    <linearGradient
       x1="48"
       y1="90"
       x2="48"
       y2="5.9877172"
       id="linearGradient3617"
       xlink:href="#linearGradient4081"
       gradientUnits="userSpaceOnUse" />
    <linearGradient
       x1="45.447727"
       y1="92.539597"
       x2="45.447727"
       y2="7.0165396"
       id="ButtonShadow-0"
       gradientUnits="userSpaceOnUse"
       gradientTransform="matrix(1.0058652,0,0,0.994169,100,0)">
      <stop
         id="stop3750-8"
         style="stop-color:#000000;stop-opacity:1"
         offset="0" />
      <stop
         id="stop3752-5"
         style="stop-color:#000000;stop-opacity:0.58823532"
         offset="1" />
    </linearGradient>
    <linearGradient
       x1="32.251034"
       y1="6.1317081"
       x2="32.251034"
       y2="90.238609"
       id="linearGradient3780"
       xlink:href="#ButtonShadow-0"
       gradientUnits="userSpaceOnUse"
       gradientTransform="matrix(1.0238095,0,0,1.0119048,-1.1428571,-98.071429)" />
    <linearGradient
       x1="32.251034"
       y1="6.1317081"
       x2="32.251034"
       y2="90.238609"
       id="linearGradient3772"
       xlink:href="#ButtonShadow-0"
       gradientUnits="userSpaceOnUse"
       gradientTransform="matrix(1.0238095,0,0,1.0119048,-1.1428571,-98.071429)" />
    <linearGradient
       x1="32.251034"
       y1="6.1317081"
       x2="32.251034"
       y2="90.238609"
       id="linearGradient3725"
       xlink:href="#ButtonShadow-0"
       gradientUnits="userSpaceOnUse"
       gradientTransform="matrix(1.0238095,0,0,1.0119048,-1.1428571,-98.071429)" />
    <linearGradient
       x1="32.251034"
       y1="6.1317081"
       x2="32.251034"
       y2="90.238609"
       id="linearGradient3721"
       xlink:href="#ButtonShadow-0"
       gradientUnits="userSpaceOnUse"
       gradientTransform="translate(0,-97)" />
    <linearGradient
       x1="32.251034"
       y1="6.1317081"
       x2="32.251034"
       y2="90.238609"
       id="linearGradient3026"
       xlink:href="#ButtonShadow-0"
       gradientUnits="userSpaceOnUse"
       gradientTransform="matrix(1.0238095,0,0,1.0119048,-1.1428571,-98.071429)" />
    <linearGradient
       id="linearGradient4081">
      <stop
         id="stop4083"
         style="stop-color:#8c8c8c;stop-opacity:1"
         offset="0" />
      <stop
         id="stop4085"
         style="stop-color:#dcdcdc;stop-opacity:1"
         offset="1" />
    </linearGradient>
    <linearGradient
       id="linearGradient4281-6">
      <stop
         id="stop4283-9"
         style="stop-color:#1e1e1e;stop-opacity:1"
         offset="0" />
      <stop
         id="stop4285-8"
         style="stop-color:#505050;stop-opacity:1"
         offset="1" />
    </linearGradient>
    <clipPath
       id="clipPath4194-1">
      <rect
         width="84"
         height="84"
         rx="6"
         ry="6"
         x="6"
         y="6"
         id="rect4196-1"
         style="fill:#ff00ff;fill-opacity:1;fill-rule:nonzero;stroke:none" />
    </clipPath>
    <linearGradient
       x1="48.233639"
       y1="48.047016"
       x2="126.13924"
       y2="66.232674"
       id="linearGradient4077-0"
       xlink:href="#linearGradient4071-3"
       gradientUnits="userSpaceOnUse" />
    <linearGradient
       id="linearGradient4071-3">
      <stop
         id="stop4073-8"
         style="stop-color:#000000;stop-opacity:1"
         offset="0" />
      <stop
         id="stop4075-4"
         style="stop-color:#000000;stop-opacity:0"
         offset="1" />
    </linearGradient>
    <linearGradient
       x1="48.055065"
       y1="48.031517"
       x2="126.67282"
       y2="62.838562"
       id="linearGradient4069-9"
       xlink:href="#linearGradient4047-2"
       gradientUnits="userSpaceOnUse" />
    <linearGradient
       id="linearGradient4047-2">
      <stop
         id="stop4049-0"
         style="stop-color:#000000;stop-opacity:1"
         offset="0" />
      <stop
         id="stop4051-5"
         style="stop-color:#000000;stop-opacity:0"
         offset="1" />
    </linearGradient>
    <linearGradient
       x1="47.997307"
       y1="48.028725"
       x2="127.05216"
       y2="60.289631"
       id="linearGradient4061-6"
       xlink:href="#linearGradient4047-2"
       gradientUnits="userSpaceOnUse" />
    <linearGradient
       x1="47.99826"
       y1="48.028797"
       x2="127.41583"
       y2="57.664623"
       id="linearGradient4053-2"
       xlink:href="#linearGradient4047-2"
       gradientUnits="userSpaceOnUse" />
    <linearGradient
       x1="48.233643"
       y1="48.04702"
       x2="126.13924"
       y2="66.232674"
       id="linearGradient4145-0"
       xlink:href="#linearGradient4115-2"
       gradientUnits="userSpaceOnUse" />
    <linearGradient
       id="linearGradient4115-2">
      <stop
         id="stop4117-3"
         style="stop-color:#ffffff;stop-opacity:1"
         offset="0" />
      <stop
         id="stop4119-6"
         style="stop-color:#ffffff;stop-opacity:0"
         offset="1" />
    </linearGradient>
    <linearGradient
       x1="48.055069"
       y1="48.031521"
       x2="126.67282"
       y2="62.838566"
       id="linearGradient4137-7"
       xlink:href="#linearGradient4115-2"
       gradientUnits="userSpaceOnUse" />
    <linearGradient
       x1="47.997311"
       y1="48.028728"
       x2="127.05216"
       y2="60.289635"
       id="linearGradient4129-8"
       xlink:href="#linearGradient4115-2"
       gradientUnits="userSpaceOnUse" />
    <linearGradient
       x1="47.998264"
       y1="48.028801"
       x2="127.41583"
       y2="57.664627"
       id="linearGradient4121-6"
       xlink:href="#linearGradient4115-2"
       gradientUnits="userSpaceOnUse" />
    <linearGradient
       x1="48.233639"
       y1="48.047016"
       x2="126.13924"
       y2="66.232674"
       id="linearGradient4089-7"
       xlink:href="#linearGradient4071-3"
       gradientUnits="userSpaceOnUse" />
    <linearGradient
       x1="48.055065"
       y1="48.031517"
       x2="126.67282"
       y2="62.838562"
       id="linearGradient4091-0"
       xlink:href="#linearGradient4047-2"
       gradientUnits="userSpaceOnUse" />
    <linearGradient
       x1="47.997307"
       y1="48.028725"
       x2="127.05216"
       y2="60.289631"
       id="linearGradient4093-5"
       xlink:href="#linearGradient4047-2"
       gradientUnits="userSpaceOnUse" />
    <linearGradient
       x1="47.99826"
       y1="48.028797"
       x2="127.41583"
       y2="57.664623"
       id="linearGradient4095-8"
       xlink:href="#linearGradient4047-2"
       gradientUnits="userSpaceOnUse" />
    <linearGradient
       x1="48.233639"
       y1="48.047016"
       x2="126.13924"
       y2="66.232674"
       id="linearGradient4107-8"
       xlink:href="#linearGradient4071-3"
       gradientUnits="userSpaceOnUse" />
    <linearGradient
       x1="48.055065"
       y1="48.031517"
       x2="126.67282"
       y2="62.838562"
       id="linearGradient4109-3"
       xlink:href="#linearGradient4047-2"
       gradientUnits="userSpaceOnUse" />
    <linearGradient
       x1="47.997307"
       y1="48.028725"
       x2="127.05216"
       y2="60.289631"
       id="linearGradient4111-3"
       xlink:href="#linearGradient4047-2"
       gradientUnits="userSpaceOnUse" />
    <linearGradient
       x1="47.99826"
       y1="48.028797"
       x2="127.41583"
       y2="57.664623"
       id="linearGradient4113-5"
       xlink:href="#linearGradient4047-2"
       gradientUnits="userSpaceOnUse" />
    <linearGradient
       x1="48.233643"
       y1="48.04702"
       x2="126.13924"
       y2="66.232674"
       id="linearGradient4157-8"
       xlink:href="#linearGradient4115-2"
       gradientUnits="userSpaceOnUse" />
    <linearGradient
       x1="48.055069"
       y1="48.031521"
       x2="126.67282"
       y2="62.838566"
       id="linearGradient4159-8"
       xlink:href="#linearGradient4115-2"
       gradientUnits="userSpaceOnUse" />
    <linearGradient
       x1="47.997311"
       y1="48.028728"
       x2="127.05216"
       y2="60.289635"
       id="linearGradient4161-2"
       xlink:href="#linearGradient4115-2"
       gradientUnits="userSpaceOnUse" />
    <linearGradient
       x1="47.998264"
       y1="48.028801"
       x2="127.41583"
       y2="57.664627"
       id="linearGradient4163-3"
       xlink:href="#linearGradient4115-2"
       gradientUnits="userSpaceOnUse" />
    <radialGradient
       cx="48"
       cy="90.171875"
       r="42"
       fx="48"
       fy="90.171875"
       id="radialGradient3619-8"
       xlink:href="#linearGradient3737-6"
       gradientUnits="userSpaceOnUse"
       gradientTransform="matrix(1.1573129,0,0,0.99590774,-7.551021,0.1971319)" />
    <linearGradient
       id="linearGradient3737-6">
      <stop
         id="stop3739-9"
         style="stop-color:#ffffff;stop-opacity:1"
         offset="0" />
      <stop
         id="stop3741-6"
         style="stop-color:#ffffff;stop-opacity:0"
         offset="1" />
    </linearGradient>
    <linearGradient
       x1="36.357143"
       y1="6"
       x2="36.357143"
       y2="63.893143"
       id="linearGradient3047"
       xlink:href="#linearGradient3737-6"
       gradientUnits="userSpaceOnUse" />
    <radialGradient
       cx="48.410488"
       cy="47.59774"
       r="30.640047"
       fx="48.410488"
       fy="47.59774"
       id="radialGradient3814-9"
       xlink:href="#linearGradient3796-9"
       gradientUnits="userSpaceOnUse"
       gradientTransform="matrix(1,0,0,0.98495914,-30,0.71591078)" />
    <linearGradient
       id="linearGradient3796-9">
      <stop
         id="stop3798-4"
         style="stop-color:#ffffff;stop-opacity:0"
         offset="0" />
      <stop
         id="stop3800-9"
         style="stop-color:#ffffff;stop-opacity:1"
         offset="1" />
    </linearGradient>
    <linearGradient
       id="linearGradient3780-6-5">
      <stop
         id="stop3782-4"
         style="stop-color:#000000;stop-opacity:0"
         offset="0" />
      <stop
         id="stop3784-9"
         style="stop-color:#000000;stop-opacity:1"
         offset="1" />
    </linearGradient>
    <radialGradient
       cx="48.265148"
       cy="47.886696"
       r="28.878813"
       fx="48.265148"
       fy="47.886696"
       id="radialGradient5008"
       xlink:href="#linearGradient3780-6-5"
       gradientUnits="userSpaceOnUse"
       gradientTransform="matrix(1,0,0,1.013812,-30,-0.66140908)" />
    <linearGradient
       x1="16"
       y1="48"
       x2="80"
       y2="48"
       id="linearGradient3979"
       xlink:href="#linearGradient4281-6"
       gradientUnits="userSpaceOnUse"
       gradientTransform="matrix(0,1,-1,0,96,0)" />
  </defs>
  <metadata
     id="metadata2413">
    <rdf:RDF>
      <cc:Work
         rdf:about="">
        <dc:format>image/svg+xml</dc:format>
        <dc:type
           rdf:resource="http://purl.org/dc/dcmitype/StillImage" />
        <dc:title />
      </cc:Work>
    </rdf:RDF>
  </metadata>
  <g
     id="layer2"
     style="display:none">
    <rect
       width="86"
       height="85"
       rx="6"
       ry="6"
       x="5"
       y="7"
       id="rect3745"
       style="opacity:0.9;fill:url(#ButtonShadow);fill-opacity:1;fill-rule:nonzero;stroke:none;filter:url(#filter3174)" />
  </g>
  <g
     id="layer3"
     style="display:inline">
    <path
       d="m 12,-95.03125 c -5.5110903,0 -10.03125,4.52016 -10.03125,10.03125 l 0,71 c 0,5.5110902 4.5201598,10.03125 10.03125,10.03125 l 72,0 c 5.51109,0 10.03125,-4.5201597 10.03125,-10.03125 l 0,-71 c 0,-5.51109 -4.52016,-10.03125 -10.03125,-10.03125 l -72,0 z"
       transform="scale(1,-1)"
       id="path3786"
       style="opacity:0.07999998;fill:url(#linearGradient3026);fill-opacity:1;fill-rule:nonzero;stroke:none;display:inline" />
    <path
       d="m 12,-94.03125 c -4.971633,0 -9.03125,4.059617 -9.03125,9.03125 l 0,71 c 0,4.9716329 4.0596171,9.03125 9.03125,9.03125 l 72,0 c 4.971633,0 9.03125,-4.059617 9.03125,-9.03125 l 0,-71 c 0,-4.971633 -4.059617,-9.03125 -9.03125,-9.03125 l -72,0 z"
       transform="scale(1,-1)"
       id="path3778"
       style="opacity:0.1;fill:url(#linearGradient3780);fill-opacity:1;fill-rule:nonzero;stroke:none;display:inline" />
    <path
       d="m 12,-93 c -4.4091333,0 -8,3.590867 -8,8 l 0,71 c 0,4.4091333 3.5908667,8 8,8 l 72,0 c 4.409133,0 8,-3.5908667 8,-8 l 0,-71 c 0,-4.409133 -3.590867,-8 -8,-8 l -72,0 z"
       transform="scale(1,-1)"
       id="path3770"
       style="opacity:0.2;fill:url(#linearGradient3772);fill-opacity:1;fill-rule:nonzero;stroke:none;display:inline" />
    <rect
       width="86"
       height="85"
       rx="7"
       ry="7"
       x="5"
       y="-92"
       transform="scale(1,-1)"
       id="rect3723"
       style="opacity:0.3;fill:url(#linearGradient3725);fill-opacity:1;fill-rule:nonzero;stroke:none;display:inline" />
    <rect
       width="84"
       height="84"
       rx="6"
       ry="6"
       x="6"
       y="-91"
       transform="scale(1,-1)"
       id="rect3716"
       style="opacity:0.45;fill:url(#linearGradient3721);fill-opacity:1;fill-rule:nonzero;stroke:none;display:inline" />
  </g>
  <g
     id="layer1"
     style="opacity:0.9;display:inline">
    <rect
       width="84"
       height="84"
       rx="6"
       ry="6"
       x="6"
       y="6"
       id="rect2419"
       style="fill:url(#linearGradient3617);fill-opacity:1;fill-rule:nonzero;stroke:none" />
    <path
       d="m 142,23.0625 c -6.9787,2.478287 -12,9.112312 -12,16.9375 0,9.936002 8.064,18 18,18 9.936,0 18,-8.063999 18,-18 0,-7.825188 -5.0213,-14.459213 -12,-16.9375 l 0,4.3125 c 4.72254,2.249712 8,7.04558 8,12.625 0,7.731987 -6.26801,14 -14,14 -7.73199,0 -14,-6.268013 -14,-14 0,-5.57942 3.27746,-10.375288 8,-12.625 l 0,-4.3125 z M 146,19 l 0,14 4,0 0,-14 -4,0 z"
       inkscape:connector-curvature="0"
       id="path3122"
       style="fill:#000000;fill-opacity:1;stroke:none;display:inline;filter:url(#filter4022)" />
  </g>
  <g
     id="layer5"
     style="display:inline">
    <rect
       width="66"
       height="66"
       rx="12"
       ry="12"
       x="15"
       y="15"
       clip-path="url(#clipPath3613)"
       id="rect3171"
       style="opacity:0.3;fill:url(#linearGradient3613);fill-opacity:1;fill-rule:nonzero;stroke:#ffffff;stroke-width:0.5;stroke-linecap:round;stroke-linejoin:miter;stroke-miterlimit:4;stroke-opacity:1;stroke-dasharray:none;stroke-dashoffset:0;filter:url(#filter3794)" />
  </g>
  <g
     id="layer7"
     style="display:inline">
    <g
       clip-path="url(#clipPath4194-1)"
       id="g4165">
      <g
         transform="matrix(0.1413721,0.99271966,-1.1651755,0.12044784,96.937266,-5.1946837)"
         id="g4011"
         style="opacity:0.9">
        <path
           d="m 108.8959,48 a 60.895905,60.895905 0 0 1 -6.54616,27.466658 L 48,48 z"
           transform="matrix(0.99411049,-0.1083712,0.1083712,0.99411049,-5.1582185,5.4918915)"
           id="path4009"
           style="opacity:0.05;color:#000000;fill:url(#linearGradient4077-0);fill-opacity:1;fill-rule:nonzero;stroke:none;stroke-width:2;marker:none;visibility:visible;display:inline;overflow:visible;enable-background:accumulate" />
        <path
           d="m 108.8959,48 a 60.895905,60.895905 0 0 1 -4.45721,22.86887 L 48,48 z"
           transform="matrix(0.99786084,-0.06537382,0.06537382,0.99786084,-3.0940115,3.2415713)"
           id="path4007"
           style="opacity:0.07000002;color:#000000;fill:url(#linearGradient4069-9);fill-opacity:1;fill-rule:nonzero;stroke:none;stroke-width:2;marker:none;visibility:visible;display:inline;overflow:visible;enable-background:accumulate" />
        <path
           d="m 108.8959,48 a 60.895905,60.895905 0 0 1 -3.12994,19.271878 L 48,48 z"
           transform="matrix(0.99945136,-0.0331207,0.0331207,0.99945136,-1.5634586,1.6161281)"
           id="path4005"
           style="opacity:0.1;color:#000000;fill:url(#linearGradient4061-6);fill-opacity:1;fill-rule:nonzero;stroke:none;stroke-width:2;marker:none;visibility:visible;display:inline;overflow:visible;enable-background:accumulate" />
        <path
           d="m 108.8959,48 a 60.895905,60.895905 0 0 1 -2.07497,15.76102 L 48,48 z"
           id="path4003"
           style="opacity:0.1;color:#000000;fill:url(#linearGradient4053-2);fill-opacity:1;fill-rule:nonzero;stroke:none;stroke-width:2;marker:none;visibility:visible;display:inline;overflow:visible;enable-background:accumulate" />
      </g>
      <g
         transform="matrix(1.8327427,0,0,1.8327427,14.258316,-39.234412)"
         id="g3802"
         style="display:inline">
        <path
           d="m 19.196345,49.867051 c -3.738265,2.562962 -5.605177,-4.899096 -1.154974,-4.811997 4.387142,-0.236076 3.979146,6.80144 -0.14484,6.614579 -3.173748,0.242635 -5.09871,-3.898691 -3.103604,-6.28528 2.027686,-2.980787 7.171211,-1.684158 7.738852,1.817453 0.968958,3.636165 -3.157198,7.038605 -6.567267,5.522909 -3.946222,-1.269714 -4.48984,-7.147021 -1.107149,-9.366244 3.569732,-2.795822 9.391656,0.237279 9.205832,4.758257 0.256767,4.350812 -4.689261,7.672183 -8.648236,5.934817 -4.719427,-1.551169 -5.691985,-8.420221 -1.909414,-11.472668 3.658906,-3.435008 10.362961,-1.458224 11.674531,3.358788 1.593108,4.559419 -2.064292,9.921397 -6.919377,10.009261 -4.934051,0.46502 -9.383474,-4.338798 -8.522574,-9.226302 0.480479,-5.045837 6.04397,-8.597229 10.838865,-7.042849 5.1784,1.246192 7.964231,7.581112 5.661928,12.315394 -2.070284,5.179524 -9.065521,7.066028 -13.621189,4.001758 C 7.424311,52.974618 6.691724,45.101154 10.86947,40.924263 15.165407,36.095492 23.773883,37.139042 26.998584,42.664618 30.58674,48.101276 27.744117,56.314514 21.553387,58.35975 15.46747,60.756196 7.906078,56.617317 6.81501,50.123425 5.34029,43.713067 10.328048,36.760898 16.940044,36.314613 23.487404,35.466926 29.995015,40.908568 30.123743,47.552814 30.647278,54.136819 25.107934,60.440072 18.464686,60.577977 11.669268,61.115926 5.164462,55.397447 5.024582,48.540282 4.472186,41.532358 10.370345,34.824958 17.442071,34.683103 24.66497,34.112562 31.571299,40.201404 31.717502,47.482327 32.261527,54.5531 26.639293,61.392472 19.567107,62.088193 12.506556,63.107347 5.157505,58.125948 3.75402,51.076328 1.988348,43.843498 6.54485,35.711895 13.76939,33.696801 21.164576,31.301406 29.973677,35.569118 32.454424,42.989908 35.283072,50.44745 31.339725,59.682116 23.876503,62.614561 16.252559,65.960228 6.418708,62.163433 3.166022,54.460386 -0.460677,46.73027 3.193552,36.558153 10.997688,33.021039 18.82455,29.10366 29.333904,32.601966 33.163654,40.497601 37.380936,48.411784 34.052463,59.257606 26.075805,63.388192 18.084772,67.914672 6.904432,64.770022 2.465338,56.722662 -2.3791,48.665231 0.567179,37.152082 8.674015,32.396769 16.646023,27.323544 28.235397,29.850105 33.441397,37.715231 39.06385,45.591587 37.04047,57.558366 29.289653,63.288465 21.671547,69.341197 9.63076,68.020226 3.297684,60.713708 -3.239068,53.668826 -3.050394,41.865619 3.303584,34.770507 9.272825,27.629169 20.397635,26.076583 28.315846,30.782782 36.185506,35.070105 40.094,45.001749 37.640404,53.557449 35.536967,62.211074 27.24013,68.797901 18.324149,68.819371 8.97298,69.194434 -0.191259,62.643413 -2.500705,53.506455 -5.341332,43.680473 -0.124703,32.229448 9.356333,28.223707 19.155827,23.693354 31.93586,27.784588 37.162944,37.26447 42.789387,46.72108 39.87111,60.054899 30.865902,66.353962 22.019424,72.970624 8.507105,71.477204 1.102802,63.362119 -6.341386,55.695116 -6.885903,42.806473 -0.631601,34.262885 5.0606,25.930536 16.515151,22.560296 25.92533,25.974441 35.26606,28.979358 41.9654,38.384321 41.762522,48.19335 41.906082,58.482225 34.780338,68.44676 24.805876,71.241542 13.885322,74.667794 0.953279,69.321177 -4.070078,58.967248 -9.666937,48.284333 -5.970775,33.868505 4.097694,27.218693 13.975245,20.253564 28.655611,22.05766 36.761841,30.94387 44.881854,39.331612 45.633312,53.326287 39.026242,62.823852 33.154466,71.852547 21.238489,76.018338 10.949015,73.085142 0.615493,70.524097 -7.504412,61.056765 -8.311604,50.418275 -9.559429,38.880739 -2.469393,26.941601 8.508072,22.946112 20.270481,18.274573 34.934134,23.160118 41.359271,34.112802 48.322248,45.22282 45.613647,61.051693 35.510744,69.352771 26.493267,77.160606 12.387989,77.789013 2.485316,71.256878 -6.825165,65.484188 -11.784926,53.82063 -9.779737,43.088463 -8.135633,32.303809 0.28228,22.917795 10.906023,20.332233 22.733464,17.16242 36.299386,22.381522 42.685854,32.892291 49.471849,43.486021 48.065091,58.327124 39.734958,67.674972 32.529312,76.136853 20.262656,79.496936 9.6632,76.384758 -0.916474,73.578219 -9.49146,64.441103 -11.417262,53.637295 c -2.468307,-12.1985 3.355421,-25.652156 14.214149,-31.8639 11.254823,-6.788152 26.723545,-4.953857 36.275015,3.999132 8.648345,7.755808 11.835188,20.655975 8.326714,31.654229 -2.022046,6.678916 -6.325835,12.653212 -12.119166,16.565345"
           inkscape:connector-curvature="0"
           id="path2875"
           style="opacity:0.2;fill:none;stroke:url(#radialGradient3814-9);stroke-width:0.47875074;stroke-linecap:butt;stroke-linejoin:miter;stroke-miterlimit:4;stroke-opacity:1;stroke-dasharray:none" />
        <path
           d="m 16.908938,49.337251 c -3.885859,-1.858917 1.368699,-6.941434 3.411713,-3.237252 2.27904,3.498707 -3.707115,6.507095 -5.513003,3.024002 -1.707843,-2.496891 0.785978,-6.049192 3.698336,-5.541192 3.416899,0.252456 4.793862,5.102047 2.181575,7.233199 -2.532331,2.525401 -7.29345,0.746141 -7.666384,-2.780808 -0.830168,-3.851348 3.748869,-7.091646 7.182845,-5.362045 3.99743,1.609549 4.267549,7.842669 0.458223,9.838071 -3.458953,2.278819 -8.542946,-0.213769 -8.994268,-4.297839 -0.965935,-4.621489 4.225535,-8.686104 8.535322,-7.023322 4.565892,1.379208 6.124601,7.836419 2.783172,11.204943 -2.995629,3.47784 -9.146812,3.015559 -11.526228,-0.938725 -2.727361,-3.840055 -0.887875,-9.784956 3.543912,-11.3989 4.381333,-2.002293 9.948059,0.889201 10.947213,5.574331 1.435048,4.854329 -2.455147,10.157563 -7.445769,10.512333 -5.246827,0.757312 -10.12361,-4.103745 -9.76636,-9.309468 0.01802,-5.709742 6.150207,-10.054138 11.57326,-8.600431 6.015751,1.241214 9.24753,8.822414 6.232018,14.102269 -2.769616,5.536748 -10.880373,7.099984 -15.505506,2.976515 -4.864393,-3.870308 -5.050974,-12.060578 -0.224597,-16.04446 4.575316,-4.259956 12.667493,-3.458359 16.17678,1.771651 3.80895,4.986067 2.422534,12.928076 -2.98489,16.19134 C 18.83607,60.791052 11.015878,59.227103 7.745554,53.82483 4.073662,48.48741 5.689263,40.416158 11.266632,37.042537 c 5.505428,-3.784787 13.828761,-2.11756 17.305945,3.635501 3.901854,5.673775 2.172224,14.2515 -3.750918,17.831693 C 19.260525,62.317493 10.959688,60.940083 7.026422,55.449838 2.83248,50.122863 3.440245,41.707002 8.57556,37.201902 c 5.113999,-4.890263 13.971988,-5.004077 19.06357,-0.0154 5.485683,4.948417 6.159129,14.226849 1.230226,19.794981 -4.793832,5.87194 -14.268338,7.014588 -20.228373,2.265378 C 2.264469,54.561726 0.716478,44.663639 5.510874,38.326026 c 4.638949,-6.658312 14.747644,-8.484394 21.367356,-3.741925 6.943491,4.580474 9.058149,14.892702 4.379458,21.796791 -4.509806,7.231865 -15.018202,9.646206 -22.208356,5.043756 -7.522829,-4.426155 -10.247414,-15.12259 -5.7334,-22.600306 4.329687,-7.816124 15.205716,-10.862146 22.971917,-6.449418 7.96379,4.150685 11.391467,14.890068 7.391869,22.912398 C 29.868774,63.65776 19.057936,67.678948 10.658608,64.02246 2.056799,60.628514 -2.577656,50.090481 0.426598,41.405945 3.118724,32.678099 12.923095,27.224564 21.782139,29.08272 c 8.714266,1.519526 15.278557,9.938154 15.167759,18.691695 0.21089,8.514533 -6.106135,16.450934 -14.313894,18.4971 C 14.514038,68.652416 5.15011,64.953633 0.895634,57.625429 -3.856667,50.107065 -2.819578,39.451315 3.603229,33.20866 10.34073,26.20139 22.24448,25.053527 30.046749,30.9535 38.432132,36.86629 41.137786,49.329185 35.819171,58.136192 30.709482,67.260839 18.348245,71.19508 8.88455,66.77652 -0.765119,62.639525 -5.956898,50.808382 -2.796187,40.857932 -0.023226,31.087582 10.326114,24.514791 20.329971,25.602598 29.892861,26.328142 38.109875,34.154427 39.771483,43.521972 41.736908,52.637894 37.17956,62.621059 29.009762,67.11528 20.609649,72.122662 9.022168,70.992831 1.982115,64.111296 -6.027249,56.751141 -7.771885,43.566581 -1.63707,34.511911 4.495996,24.82888 18.117434,21.02072 28.375069,26.147736 38.801504,30.967779 44.292627,43.907928 40.830785,54.802542 37.785762,65.471629 26.624431,72.740326 15.667763,71.815494 5.446409,71.27305 -3.644656,63.445025 -6.119946,53.58231 -8.92247,43.860185 -4.98883,32.678169 3.383683,26.958442 c 8.903096,-6.509618 22.098819,-6.347498 30.603741,0.789 9.43435,7.461299 12.381322,21.851982 6.419813,32.344931 C 34.571809,71.10276 20.256636,76.395216 8.623553,72.024532 -2.087777,68.312834 -9.307712,57.001931 -8.637065,45.747378 -8.31008,35.341121 -1.067145,25.716465 8.718892,22.266986 18.376544,18.495371 30.101898,20.963649 37.278284,28.479002 45.50753,36.70744 47.658333,50.353127 42.042169,60.604252 36.547576,71.223635 23.664019,77.118205 12.011791,74.70404 1.623111,72.794391 -6.971449,64.294867 -9.446729,54.091965 -12.164166,44.050584 -8.718564,32.650926 -0.741539,25.931955 8.125603,18.103718 21.966122,16.503896 32.238726,22.489513 43.173969,28.527234 49.014857,42.130599 46.184819,54.246468 43.910973,65.050114 34.807761,73.80318 24.08837,76.141804 17.630379,77.651323 10.668065,76.947994 4.695209,74.03875"
           inkscape:connector-curvature="0"
           id="path3650"
           style="opacity:0.1;fill:none;stroke:url(#radialGradient5008);stroke-width:0.47875074;stroke-linecap:butt;stroke-linejoin:miter;stroke-miterlimit:4;stroke-opacity:1;stroke-dasharray:none" />
      </g>
      <g
         transform="matrix(1.062807,-0.13087531,-0.74010065,3.227468,32.525111,-100.66774)"
         id="g4027"
         style="opacity:0.9;fill:#ffffff">
        <path
           d="m 108.8959,48 a 60.895905,60.895905 0 0 1 -6.54616,27.466658 L 48,48 z"
           transform="matrix(0.99411049,-0.1083712,0.1083712,0.99411049,-5.1582185,5.4918915)"
           id="path4029"
           style="opacity:0.2;color:#000000;fill:url(#linearGradient4145-0);fill-opacity:1;fill-rule:nonzero;stroke:none;stroke-width:2;marker:none;visibility:visible;display:inline;overflow:visible;enable-background:accumulate" />
        <path
           d="m 108.8959,48 a 60.895905,60.895905 0 0 1 -4.45721,22.86887 L 48,48 z"
           transform="matrix(0.99786084,-0.06537382,0.06537382,0.99786084,-3.0940115,3.2415713)"
           id="path4031"
           style="opacity:0.4;color:#000000;fill:url(#linearGradient4137-7);fill-opacity:1;fill-rule:nonzero;stroke:none;stroke-width:2;marker:none;visibility:visible;display:inline;overflow:visible;enable-background:accumulate" />
        <path
           d="m 108.8959,48 a 60.895905,60.895905 0 0 1 -3.12994,19.271878 L 48,48 z"
           transform="matrix(0.99945136,-0.0331207,0.0331207,0.99945136,-1.5634586,1.6161281)"
           id="path4033"
           style="opacity:0.6;color:#000000;fill:url(#linearGradient4129-8);fill-opacity:1;fill-rule:nonzero;stroke:none;stroke-width:2;marker:none;visibility:visible;display:inline;overflow:visible;enable-background:accumulate" />
        <path
           d="m 108.8959,48 a 60.895905,60.895905 0 0 1 -2.07497,15.76102 L 48,48 z"
           id="path4035"
           style="opacity:0.8;color:#000000;fill:url(#linearGradient4121-6);fill-opacity:1;fill-rule:nonzero;stroke:none;stroke-width:2;marker:none;visibility:visible;display:inline;overflow:visible;enable-background:accumulate" />
      </g>
      <g
         transform="matrix(-0.61678932,0.78712829,-0.78712829,-0.61678932,115.00148,40.011929)"
         id="g4079"
         style="opacity:0.5">
        <path
           d="m 108.8959,48 a 60.895905,60.895905 0 0 1 -6.54616,27.466658 L 48,48 z"
           transform="matrix(0.99411049,-0.1083712,0.1083712,0.99411049,-5.1582185,5.4918915)"
           id="path4081"
           style="opacity:0.05;color:#000000;fill:url(#linearGradient4089-7);fill-opacity:1;fill-rule:nonzero;stroke:none;stroke-width:2;marker:none;visibility:visible;display:inline;overflow:visible;enable-background:accumulate" />
        <path
           d="m 108.8959,48 a 60.895905,60.895905 0 0 1 -4.45721,22.86887 L 48,48 z"
           transform="matrix(0.99786084,-0.06537382,0.06537382,0.99786084,-3.0940115,3.2415713)"
           id="path4083"
           style="opacity:0.07000002;color:#000000;fill:url(#linearGradient4091-0);fill-opacity:1;fill-rule:nonzero;stroke:none;stroke-width:2;marker:none;visibility:visible;display:inline;overflow:visible;enable-background:accumulate" />
        <path
           d="m 108.8959,48 a 60.895905,60.895905 0 0 1 -3.12994,19.271878 L 48,48 z"
           transform="matrix(0.99945136,-0.0331207,0.0331207,0.99945136,-1.5634586,1.6161281)"
           id="path4085"
           style="opacity:0.1;color:#000000;fill:url(#linearGradient4093-5);fill-opacity:1;fill-rule:nonzero;stroke:none;stroke-width:2;marker:none;visibility:visible;display:inline;overflow:visible;enable-background:accumulate" />
        <path
           d="m 108.8959,48 a 60.895905,60.895905 0 0 1 -2.07497,15.76102 L 48,48 z"
           id="path4087"
           style="opacity:0.1;color:#000000;fill:url(#linearGradient4095-8);fill-opacity:1;fill-rule:nonzero;stroke:none;stroke-width:2;marker:none;visibility:visible;display:inline;overflow:visible;enable-background:accumulate" />
      </g>
      <g
         transform="matrix(-0.06817198,-1.0460056,2.710673,0.60162586,-79.095447,69.080129)"
         id="g4097"
         style="opacity:0.8">
        <path
           d="m 108.8959,48 a 60.895905,60.895905 0 0 1 -6.54616,27.466658 L 48,48 z"
           transform="matrix(0.99411049,-0.1083712,0.1083712,0.99411049,-5.1582185,5.4918915)"
           id="path4099"
           style="opacity:0.05;color:#000000;fill:url(#linearGradient4107-8);fill-opacity:1;fill-rule:nonzero;stroke:none;stroke-width:2;marker:none;visibility:visible;display:inline;overflow:visible;enable-background:accumulate" />
        <path
           d="m 108.8959,48 a 60.895905,60.895905 0 0 1 -4.45721,22.86887 L 48,48 z"
           transform="matrix(0.99786084,-0.06537382,0.06537382,0.99786084,-3.0940115,3.2415713)"
           id="path4101"
           style="opacity:0.07000002;color:#000000;fill:url(#linearGradient4109-3);fill-opacity:1;fill-rule:nonzero;stroke:none;stroke-width:2;marker:none;visibility:visible;display:inline;overflow:visible;enable-background:accumulate" />
        <path
           d="m 108.8959,48 a 60.895905,60.895905 0 0 1 -3.12994,19.271878 L 48,48 z"
           transform="matrix(0.99945136,-0.0331207,0.0331207,0.99945136,-1.5634586,1.6161281)"
           id="path4103"
           style="opacity:0.1;color:#000000;fill:url(#linearGradient4111-3);fill-opacity:1;fill-rule:nonzero;stroke:none;stroke-width:2;marker:none;visibility:visible;display:inline;overflow:visible;enable-background:accumulate" />
        <path
           d="m 108.8959,48 a 60.895905,60.895905 0 0 1 -2.07497,15.76102 L 48,48 z"
           id="path4105"
           style="opacity:0.1;color:#000000;fill:url(#linearGradient4113-5);fill-opacity:1;fill-rule:nonzero;stroke:none;stroke-width:2;marker:none;visibility:visible;display:inline;overflow:visible;enable-background:accumulate" />
      </g>
      <g
         transform="matrix(-1.062807,0.1308753,0.74010064,-3.227468,62.996694,196.66774)"
         id="g4147"
         style="opacity:0.9;fill:#ffffff">
        <path
           d="m 108.8959,48 a 60.895905,60.895905 0 0 1 -6.54616,27.466658 L 48,48 z"
           transform="matrix(0.99411049,-0.1083712,0.1083712,0.99411049,-5.1582185,5.4918915)"
           id="path4149"
           style="opacity:0.2;color:#000000;fill:url(#linearGradient4157-8);fill-opacity:1;fill-rule:nonzero;stroke:none;stroke-width:2;marker:none;visibility:visible;display:inline;overflow:visible;enable-background:accumulate" />
        <path
           d="m 108.8959,48 a 60.895905,60.895905 0 0 1 -4.45721,22.86887 L 48,48 z"
           transform="matrix(0.99786084,-0.06537382,0.06537382,0.99786084,-3.0940115,3.2415713)"
           id="path4151"
           style="opacity:0.4;color:#000000;fill:url(#linearGradient4159-8);fill-opacity:1;fill-rule:nonzero;stroke:none;stroke-width:2;marker:none;visibility:visible;display:inline;overflow:visible;enable-background:accumulate" />
        <path
           d="m 108.8959,48 a 60.895905,60.895905 0 0 1 -3.12994,19.271878 L 48,48 z"
           transform="matrix(0.99945136,-0.0331207,0.0331207,0.99945136,-1.5634586,1.6161281)"
           id="path4153"
           style="opacity:0.6;color:#000000;fill:url(#linearGradient4161-2);fill-opacity:1;fill-rule:nonzero;stroke:none;stroke-width:2;marker:none;visibility:visible;display:inline;overflow:visible;enable-background:accumulate" />
        <path
           d="m 108.8959,48 a 60.895905,60.895905 0 0 1 -2.07497,15.76102 L 48,48 z"
           id="path4155"
           style="opacity:0.8;color:#000000;fill:url(#linearGradient4163-3);fill-opacity:1;fill-rule:nonzero;stroke:none;stroke-width:2;marker:none;visibility:visible;display:inline;overflow:visible;enable-background:accumulate" />
      </g>
    </g>
  </g>
  <g
     id="layer6"
     style="display:inline">
    <path
       d="M 12,90 C 8.676,90 6,87.324 6,84 L 6,82 6,14 6,12 c 0,-0.334721 0.04135,-0.6507 0.09375,-0.96875 0.0487,-0.295596 0.09704,-0.596915 0.1875,-0.875 C 6.29113,10.12587 6.302142,10.09265 6.3125,10.0625 6.411365,9.774729 6.5473802,9.515048 6.6875,9.25 6.8320918,8.976493 7.0031161,8.714385 7.1875,8.46875 7.3718839,8.223115 7.5612765,7.995278 7.78125,7.78125 8.221197,7.353194 8.72416,6.966724 9.28125,6.6875 9.559795,6.547888 9.8547231,6.440553 10.15625,6.34375 9.9000482,6.443972 9.6695391,6.580022 9.4375,6.71875 c -0.00741,0.0044 -0.023866,-0.0045 -0.03125,0 -0.031933,0.0193 -0.062293,0.04251 -0.09375,0.0625 -0.120395,0.0767 -0.2310226,0.163513 -0.34375,0.25 -0.1061728,0.0808 -0.2132809,0.161112 -0.3125,0.25 C 8.4783201,7.442683 8.3087904,7.626638 8.15625,7.8125 8.0486711,7.942755 7.9378561,8.077785 7.84375,8.21875 7.818661,8.25713 7.805304,8.30462 7.78125,8.34375 7.716487,8.446782 7.6510225,8.548267 7.59375,8.65625 7.4927417,8.850956 7.3880752,9.071951 7.3125,9.28125 7.30454,9.30306 7.288911,9.3218 7.28125,9.34375 7.2494249,9.4357 7.2454455,9.530581 7.21875,9.625 7.1884177,9.731618 7.1483606,9.828031 7.125,9.9375 7.0521214,10.279012 7,10.635705 7,11 l 0,2 0,68 0,2 c 0,2.781848 2.2181517,5 5,5 l 2,0 68,0 2,0 c 2.781848,0 5,-2.218152 5,-5 l 0,-2 0,-68 0,-2 C 89,10.635705 88.94788,10.279012 88.875,9.9375 88.83085,9.730607 88.78662,9.539842 88.71875,9.34375 88.71105,9.3218 88.69545,9.30306 88.6875,9.28125 88.62476,9.107511 88.549117,8.913801 88.46875,8.75 88.42717,8.6672 88.38971,8.580046 88.34375,8.5 88.28915,8.40279 88.216976,8.31165 88.15625,8.21875 88.06214,8.077785 87.951329,7.942755 87.84375,7.8125 87.700576,7.63805 87.540609,7.465502 87.375,7.3125 87.36383,7.3023 87.35502,7.29135 87.34375,7.28125 87.205364,7.155694 87.058659,7.046814 86.90625,6.9375 86.803679,6.86435 86.701932,6.784136 86.59375,6.71875 c -0.0074,-0.0045 -0.02384,0.0044 -0.03125,0 -0.232039,-0.138728 -0.462548,-0.274778 -0.71875,-0.375 0.301527,0.0968 0.596455,0.204138 0.875,0.34375 0.55709,0.279224 1.060053,0.665694 1.5,1.09375 0.219973,0.214028 0.409366,0.441865 0.59375,0.6875 0.184384,0.245635 0.355408,0.507743 0.5,0.78125 0.14012,0.265048 0.276135,0.524729 0.375,0.8125 0.01041,0.03078 0.02133,0.06274 0.03125,0.09375 0.09046,0.278085 0.1388,0.579404 0.1875,0.875 C 89.95865,11.3493 90,11.665279 90,12 l 0,2 0,68 0,2 c 0,3.324 -2.676,6 -6,6 l -72,0 z"
       inkscape:connector-curvature="0"
       id="path3615"
       style="opacity:0.25;fill:url(#radialGradient3619);fill-opacity:1;fill-rule:nonzero;stroke:none;display:none" />
    <path
       d="M 12,6 C 8.676,6 6,8.676 6,12 l 0,2 0,68 0,2 c 0,0.334721 0.04135,0.6507 0.09375,0.96875 0.0487,0.295596 0.09704,0.596915 0.1875,0.875 0.0099,0.03038 0.02089,0.0636 0.03125,0.09375 0.09886,0.287771 0.23488,0.547452 0.375,0.8125 0.144592,0.273507 0.315616,0.535615 0.5,0.78125 0.184384,0.245635 0.373776,0.473472 0.59375,0.6875 0.439947,0.428056 0.94291,0.814526 1.5,1.09375 0.278545,0.139612 0.573473,0.246947 0.875,0.34375 -0.256202,-0.100222 -0.486711,-0.236272 -0.71875,-0.375 -0.0074,-0.0044 -0.02387,0.0045 -0.03125,0 -0.03193,-0.0193 -0.06229,-0.04251 -0.09375,-0.0625 -0.120395,-0.0767 -0.231023,-0.163513 -0.34375,-0.25 -0.106173,-0.0808 -0.213281,-0.161112 -0.3125,-0.25 C 8.47832,88.557317 8.30879,88.373362 8.15625,88.1875 8.048671,88.057245 7.937856,87.922215 7.84375,87.78125 7.81866,87.74287 7.8053,87.69538 7.78125,87.65625 7.71649,87.553218 7.651022,87.451733 7.59375,87.34375 7.492742,87.149044 7.388075,86.928049 7.3125,86.71875 7.3045,86.69694 7.28891,86.6782 7.28125,86.65625 7.24942,86.5643 7.24545,86.469419 7.21875,86.375 7.188418,86.268382 7.148361,86.171969 7.125,86.0625 7.052121,85.720988 7,85.364295 7,85 L 7,83 7,15 7,13 C 7,10.218152 9.218152,8 12,8 l 2,0 68,0 2,0 c 2.78185,0 5,2.218152 5,5 l 0,2 0,68 0,2 c 0,0.364295 -0.0521,0.720988 -0.125,1.0625 -0.0442,0.206893 -0.0884,0.397658 -0.15625,0.59375 -0.008,0.02195 -0.0233,0.04069 -0.0312,0.0625 -0.0627,0.173739 -0.13838,0.367449 -0.21875,0.53125 -0.0416,0.0828 -0.079,0.169954 -0.125,0.25 -0.0546,0.09721 -0.12677,0.18835 -0.1875,0.28125 -0.0941,0.140965 -0.20492,0.275995 -0.3125,0.40625 -0.14317,0.17445 -0.30314,0.346998 -0.46875,0.5 -0.0112,0.0102 -0.02,0.02115 -0.0312,0.03125 -0.13839,0.125556 -0.28509,0.234436 -0.4375,0.34375 -0.10257,0.07315 -0.20432,0.153364 -0.3125,0.21875 -0.007,0.0045 -0.0238,-0.0044 -0.0312,0 -0.23204,0.138728 -0.46255,0.274778 -0.71875,0.375 0.30153,-0.0968 0.59646,-0.204138 0.875,-0.34375 0.55709,-0.279224 1.06005,-0.665694 1.5,-1.09375 0.21997,-0.214028 0.40937,-0.441865 0.59375,-0.6875 0.18438,-0.245635 0.35541,-0.507743 0.5,-0.78125 0.14012,-0.265048 0.27613,-0.524729 0.375,-0.8125 0.0104,-0.03078 0.0213,-0.06274 0.0312,-0.09375 0.0905,-0.278085 0.1388,-0.579404 0.1875,-0.875 C 89.95865,84.6507 90,84.334721 90,84 l 0,-2 0,-68 0,-2 C 90,8.676 87.324,6 84,6 L 12,6 z"
       inkscape:connector-curvature="0"
       id="rect3728"
       style="opacity:0.5;fill:url(#linearGradient3188);fill-opacity:1;fill-rule:nonzero;stroke:none;display:none" />
    <path
       d="M 12,6 C 8.676,6 6,8.676 6,12 l 0,2 0,68 0,2 c 0,0.334721 0.04135,0.6507 0.09375,0.96875 0.0487,0.295596 0.09704,0.596915 0.1875,0.875 0.00988,0.03038 0.020892,0.0636 0.03125,0.09375 0.098865,0.287771 0.2348802,0.547452 0.375,0.8125 0.1445918,0.273507 0.3156161,0.535615 0.5,0.78125 0.1843839,0.245635 0.3737765,0.473472 0.59375,0.6875 0.439947,0.428056 0.94291,0.814526 1.5,1.09375 0.278545,0.139612 0.5734731,0.246947 0.875,0.34375 -0.2562018,-0.100222 -0.4867109,-0.236272 -0.71875,-0.375 -0.00741,-0.0044 -0.023866,0.0045 -0.03125,0 -0.031933,-0.0193 -0.062293,-0.04251 -0.09375,-0.0625 -0.120395,-0.0767 -0.2310226,-0.163513 -0.34375,-0.25 -0.1061728,-0.0808 -0.2132809,-0.161112 -0.3125,-0.25 C 8.4783201,88.557317 8.3087904,88.373362 8.15625,88.1875 8.0486711,88.057245 7.9378561,87.922215 7.84375,87.78125 7.818661,87.74287 7.805304,87.69538 7.78125,87.65625 7.716487,87.553218 7.6510225,87.451733 7.59375,87.34375 7.4927417,87.149044 7.3880752,86.928049 7.3125,86.71875 7.30454,86.69694 7.288911,86.6782 7.28125,86.65625 7.2494249,86.5643 7.2454455,86.469419 7.21875,86.375 7.1884177,86.268382 7.1483606,86.171969 7.125,86.0625 7.0521214,85.720988 7,85.364295 7,85 L 7,83 7,15 7,13 C 7,10.218152 9.2181517,8 12,8 l 2,0 68,0 2,0 c 2.781848,0 5,2.218152 5,5 l 0,2 0,68 0,2 c 0,0.364295 -0.05212,0.720988 -0.125,1.0625 -0.04415,0.206893 -0.08838,0.397658 -0.15625,0.59375 -0.0077,0.02195 -0.0233,0.04069 -0.03125,0.0625 -0.06274,0.173739 -0.138383,0.367449 -0.21875,0.53125 -0.04158,0.0828 -0.07904,0.169954 -0.125,0.25 -0.0546,0.09721 -0.126774,0.18835 -0.1875,0.28125 -0.09411,0.140965 -0.204921,0.275995 -0.3125,0.40625 -0.143174,0.17445 -0.303141,0.346998 -0.46875,0.5 -0.01117,0.0102 -0.01998,0.02115 -0.03125,0.03125 -0.138386,0.125556 -0.285091,0.234436 -0.4375,0.34375 -0.102571,0.07315 -0.204318,0.153364 -0.3125,0.21875 -0.0074,0.0045 -0.02384,-0.0044 -0.03125,0 -0.232039,0.138728 -0.462548,0.274778 -0.71875,0.375 0.301527,-0.0968 0.596455,-0.204138 0.875,-0.34375 0.55709,-0.279224 1.060053,-0.665694 1.5,-1.09375 0.219973,-0.214028 0.409366,-0.441865 0.59375,-0.6875 0.184384,-0.245635 0.355408,-0.507743 0.5,-0.78125 0.14012,-0.265048 0.276135,-0.524729 0.375,-0.8125 0.01041,-0.03078 0.02133,-0.06274 0.03125,-0.09375 0.09046,-0.278085 0.1388,-0.579404 0.1875,-0.875 C 89.95865,84.6507 90,84.334721 90,84 l 0,-2 0,-68 0,-2 C 90,8.676 87.324,6 84,6 L 12,6 z"
       inkscape:connector-curvature="0"
       id="rect3728-1"
       style="opacity:0.5;fill:url(#linearGradient3047);fill-opacity:1;fill-rule:nonzero;stroke:none" />
    <path
       d="M 12,90 C 8.676,90 6,87.324 6,84 L 6,82 6,14 6,12 c 0,-0.334721 0.04135,-0.6507 0.09375,-0.96875 0.0487,-0.295596 0.09704,-0.596915 0.1875,-0.875 C 6.29113,10.12587 6.302142,10.09265 6.3125,10.0625 6.411365,9.774729 6.5473802,9.515048 6.6875,9.25 6.8320918,8.976493 7.0031161,8.714385 7.1875,8.46875 7.3718839,8.223115 7.5612765,7.995278 7.78125,7.78125 8.221197,7.353194 8.72416,6.966724 9.28125,6.6875 9.559795,6.547888 9.8547231,6.440553 10.15625,6.34375 9.9000482,6.443972 9.6695391,6.580022 9.4375,6.71875 c -0.00741,0.0044 -0.023866,-0.0045 -0.03125,0 -0.031933,0.0193 -0.062293,0.04251 -0.09375,0.0625 -0.120395,0.0767 -0.2310226,0.163513 -0.34375,0.25 -0.1061728,0.0808 -0.2132809,0.161112 -0.3125,0.25 C 8.4783201,7.442683 8.3087904,7.626638 8.15625,7.8125 8.0486711,7.942755 7.9378561,8.077785 7.84375,8.21875 7.818661,8.25713 7.805304,8.30462 7.78125,8.34375 7.716487,8.446782 7.6510225,8.548267 7.59375,8.65625 7.4927417,8.850956 7.3880752,9.071951 7.3125,9.28125 7.30454,9.30306 7.288911,9.3218 7.28125,9.34375 7.2494249,9.4357 7.2454455,9.530581 7.21875,9.625 7.1884177,9.731618 7.1483606,9.828031 7.125,9.9375 7.0521214,10.279012 7,10.635705 7,11 l 0,2 0,68 0,2 c 0,2.781848 2.2181517,5 5,5 l 2,0 68,0 2,0 c 2.781848,0 5,-2.218152 5,-5 l 0,-2 0,-68 0,-2 C 89,10.635705 88.94788,10.279012 88.875,9.9375 88.83085,9.730607 88.78662,9.539842 88.71875,9.34375 88.71105,9.3218 88.69545,9.30306 88.6875,9.28125 88.62476,9.107511 88.549117,8.913801 88.46875,8.75 88.42717,8.6672 88.38971,8.580046 88.34375,8.5 88.28915,8.40279 88.216976,8.31165 88.15625,8.21875 88.06214,8.077785 87.951329,7.942755 87.84375,7.8125 87.700576,7.63805 87.540609,7.465502 87.375,7.3125 87.36383,7.3023 87.35502,7.29135 87.34375,7.28125 87.205364,7.155694 87.058659,7.046814 86.90625,6.9375 86.803679,6.86435 86.701932,6.784136 86.59375,6.71875 c -0.0074,-0.0045 -0.02384,0.0044 -0.03125,0 -0.232039,-0.138728 -0.462548,-0.274778 -0.71875,-0.375 0.301527,0.0968 0.596455,0.204138 0.875,0.34375 0.55709,0.279224 1.060053,0.665694 1.5,1.09375 0.219973,0.214028 0.409366,0.441865 0.59375,0.6875 0.184384,0.245635 0.355408,0.507743 0.5,0.78125 0.14012,0.265048 0.276135,0.524729 0.375,0.8125 0.01041,0.03078 0.02133,0.06274 0.03125,0.09375 0.09046,0.278085 0.1388,0.579404 0.1875,0.875 C 89.95865,11.3493 90,11.665279 90,12 l 0,2 0,68 0,2 c 0,3.324 -2.676,6 -6,6 l -72,0 z"
       inkscape:connector-curvature="0"
       id="path3615-9"
       style="opacity:0.2;fill:url(#radialGradient3619-8);fill-opacity:1;fill-rule:nonzero;stroke:none" />
  </g>
  <g
     id="layer4"
     style="display:inline">
    <path
       d="m 80,48 c 0,-2.216 -1.784,-4 -4,-4 l -10,0 c -2.216,0 -4,1.784 -4,4 0,2.216 1.784,4 4,4 l 10,0 c 2.216,0 4,-1.784 4,-4 z M 71.8125,28.1875 c 0,-1.022476 -0.404026,-2.029026 -1.1875,-2.8125 -1.566949,-1.566949 -4.089301,-1.566949 -5.65625,0 l -7.0625,7.0625 c -1.566949,1.566949 -1.566949,4.089301 0,5.65625 1.566949,1.566949 4.089301,1.566949 5.65625,0 l 7.0625,-7.0625 c 0.783474,-0.783474 1.1875,-1.821274 1.1875,-2.84375 z m 0,39.625 c 0,-1.022476 -0.404026,-2.060276 -1.1875,-2.84375 l -7.0625,-7.0625 c -1.566949,-1.566949 -4.089301,-1.566949 -5.65625,0 -1.566949,1.566949 -1.566949,4.089301 0,5.65625 l 7.0625,7.0625 c 1.566949,1.566949 4.089301,1.566949 5.65625,0 0.783474,-0.783474 1.1875,-1.790024 1.1875,-2.8125 z M 52,20 c 0,-2.216 -1.784,-4 -4,-4 -2.216,0 -4,1.784 -4,4 l 0,10 c 0,2.216 1.784,4 4,4 2.216,0 4,-1.784 4,-4 l 0,-10 z m 0,46 c 0,-2.216 -1.784,-4 -4,-4 -2.216,0 -4,1.784 -4,4 l 0,10 c 0,2.216 1.784,4 4,4 2.216,0 4,-1.784 4,-4 L 52,66 z M 39.28125,35.28125 c 0,-1.022476 -0.404026,-2.060276 -1.1875,-2.84375 l -7.0625,-7.0625 c -1.566949,-1.566949 -4.089301,-1.566949 -5.65625,0 -1.566949,1.566949 -1.566949,4.089301 0,5.65625 l 7.0625,7.0625 c 1.566949,1.566949 4.089301,1.566949 5.65625,0 0.783474,-0.783474 1.1875,-1.790024 1.1875,-2.8125 z m 0,25.4375 c 0,-1.022476 -0.404026,-2.029026 -1.1875,-2.8125 -1.566949,-1.566949 -4.089301,-1.566949 -5.65625,0 l -7.0625,7.0625 c -1.566949,1.566949 -1.566949,4.089301 0,5.65625 1.566949,1.566949 4.089301,1.566949 5.65625,0 l 7.0625,-7.0625 c 0.783474,-0.783474 1.1875,-1.821274 1.1875,-2.84375 z M 34,48 c 0,-2.216 -1.784,-4 -4,-4 l -10,0 c -2.216,0 -4,1.784 -4,4 0,2.216 1.784,4 4,4 l 10,0 c 2.216,0 4,-1.784 4,-4 z"
       inkscape:connector-curvature="0"
       id="rect3186"
       style="color:#000000;fill:url(#linearGradient3979);fill-opacity:1;fill-rule:nonzero;stroke:none;stroke-width:2;marker:none;visibility:visible;display:inline;overflow:visible;enable-background:accumulate" />
    <path
       d="m 48,16 c -2.216,0 -4,1.784 -4,4 l 0,10 c 0,2.216 1.784,4 4,4 2.216,0 4,-1.784 4,-4 l 0,-10 c 0,-2.216 -1.784,-4 -4,-4 z m 0,0.96875 c 1.702545,0 3.03125,1.328705 3.03125,3.03125 l 0,10 c 0,1.702545 -1.328705,3.03125 -3.03125,3.03125 -1.702545,0 -3.03125,-1.328705 -3.03125,-3.03125 l 0,-10 c 0,-1.702545 1.328705,-3.03125 3.03125,-3.03125 z M 28.1875,24.1875 c -1.022325,0 -2.029025,0.404025 -2.8125,1.1875 -1.566949,1.566949 -1.566949,4.089301 0,5.65625 l 7.0625,7.0625 c 1.566949,1.566949 4.089301,1.566949 5.65625,0 0.783474,-0.783474 1.1875,-1.790024 1.1875,-2.8125 0,-1.022476 -0.404026,-2.060276 -1.1875,-2.84375 L 31.03125,25.375 C 30.247775,24.591525 29.209825,24.1875 28.1875,24.1875 z m 39.625,0 c -1.022325,0 -2.060276,0.404025 -2.84375,1.1875 l -7.0625,7.0625 c -1.566949,1.566949 -1.566949,4.089301 0,5.65625 1.566949,1.566949 4.089301,1.566949 5.65625,0 l 7.0625,-7.0625 c 0.783474,-0.783474 1.1875,-1.821274 1.1875,-2.84375 0,-1.022476 -0.404026,-2.029026 -1.1875,-2.8125 -0.783474,-0.783475 -1.790175,-1.1875 -2.8125,-1.1875 z m -39.625,0.96875 c 0.770269,0 1.555226,0.305226 2.15625,0.90625 l 7.0625,7.0625 c 0.601067,0.601067 0.90625,1.385793 0.90625,2.15625 0,0.770457 -0.296189,1.514939 -0.90625,2.125 -1.203968,1.203968 -3.077282,1.203968 -4.28125,0 l -7.0625,-7.0625 c -1.203968,-1.203968 -1.203968,-3.077282 0,-4.28125 0.610018,-0.610018 1.354731,-0.90625 2.125,-0.90625 z m 39.625,0 c 0.770269,0 1.514983,0.296232 2.125,0.90625 0.610061,0.610061 0.90625,1.354543 0.90625,2.125 0,0.770457 -0.305183,1.555183 -0.90625,2.15625 l -7.0625,7.0625 c -1.203968,1.203968 -3.077282,1.203968 -4.28125,0 -1.203968,-1.203968 -1.203968,-3.077282 0,-4.28125 l 7.0625,-7.0625 c 0.601023,-0.601024 1.385981,-0.90625 2.15625,-0.90625 z M 20,44 c -2.216,0 -4,1.784 -4,4 0,2.216 1.784,4 4,4 l 10,0 c 2.216,0 4,-1.784 4,-4 0,-2.216 -1.784,-4 -4,-4 l -10,0 z m 46,0 c -2.216,0 -4,1.784 -4,4 0,2.216 1.784,4 4,4 l 10,0 c 2.216,0 4,-1.784 4,-4 0,-2.216 -1.784,-4 -4,-4 l -10,0 z m -46,0.96875 10,0 c 1.702545,0 3.03125,1.328705 3.03125,3.03125 0,1.702545 -1.328705,3.03125 -3.03125,3.03125 l -10,0 c -1.702545,0 -3.03125,-1.328705 -3.03125,-3.03125 0,-1.702545 1.328705,-3.03125 3.03125,-3.03125 z m 46,0 10,0 c 1.702545,0 3.03125,1.328705 3.03125,3.03125 0,1.702545 -1.328705,3.03125 -3.03125,3.03125 l -10,0 c -1.702545,0 -3.03125,-1.328705 -3.03125,-3.03125 0,-1.702545 1.328705,-3.03125 3.03125,-3.03125 z m -30.75,11.75 c -1.022325,0 -2.029026,0.404026 -2.8125,1.1875 l -7.0625,7.0625 c -1.566949,1.566949 -1.566949,4.089301 0,5.65625 1.566949,1.566949 4.089301,1.566949 5.65625,0 l 7.0625,-7.0625 c 0.783474,-0.783474 1.1875,-1.821274 1.1875,-2.84375 0,-1.022476 -0.404026,-2.029026 -1.1875,-2.8125 -0.783474,-0.783474 -1.821425,-1.1875 -2.84375,-1.1875 z m 25.5,0 c -1.022325,0 -2.060276,0.404026 -2.84375,1.1875 -1.566949,1.566949 -1.566949,4.089301 0,5.65625 l 7.0625,7.0625 c 1.566949,1.566949 4.089301,1.566949 5.65625,0 0.783474,-0.783474 1.1875,-1.790024 1.1875,-2.8125 0,-1.022476 -0.404026,-2.060276 -1.1875,-2.84375 l -7.0625,-7.0625 c -0.783474,-0.783474 -1.790175,-1.1875 -2.8125,-1.1875 z m -25.5,0.96875 c 0.770268,0 1.555227,0.305227 2.15625,0.90625 0.610061,0.610061 0.90625,1.354543 0.90625,2.125 0,0.770457 -0.305183,1.555183 -0.90625,2.15625 l -7.0625,7.0625 c -1.203968,1.203968 -3.077282,1.203968 -4.28125,0 -1.203968,-1.203968 -1.203968,-3.077282 0,-4.28125 l 7.0625,-7.0625 c 0.610017,-0.610017 1.354732,-0.90625 2.125,-0.90625 z m 25.5,0 c 0.770268,0 1.514983,0.296233 2.125,0.90625 l 7.0625,7.0625 c 0.601067,0.601067 0.90625,1.385793 0.90625,2.15625 0,0.770457 -0.296189,1.514939 -0.90625,2.125 -1.203968,1.203968 -3.077282,1.203968 -4.28125,0 l -7.0625,-7.0625 c -1.203968,-1.203968 -1.203968,-3.077282 0,-4.28125 C 59.194773,57.992727 59.979732,57.6875 60.75,57.6875 z M 48,62 c -2.216,0 -4,1.784 -4,4 l 0,10 c 0,2.216 1.784,4 4,4 2.216,0 4,-1.784 4,-4 l 0,-10 c 0,-2.216 -1.784,-4 -4,-4 z m 0,0.96875 c 1.702545,0 3.03125,1.328705 3.03125,3.03125 l 0,10 c 0,1.702545 -1.328705,3.03125 -3.03125,3.03125 -1.702545,0 -3.03125,-1.328705 -3.03125,-3.03125 l 0,-10 c 0,-1.702545 1.328705,-3.03125 3.03125,-3.03125 z"
       inkscape:connector-curvature="0"
       id="path3999"
       style="opacity:0.2;color:#000000;fill:#000000;fill-opacity:1;fill-rule:nonzero;stroke:none;stroke-width:2;marker:none;visibility:visible;display:inline;overflow:visible;enable-background:accumulate" />
    <path
       d="m 48,16 c -2.216,0 -4,1.784 -4,4 l 0,10 c 0,2.216 1.784,4 4,4 2.216,0 4,-1.784 4,-4 l 0,-10 c 0,-2.216 -1.784,-4 -4,-4 z m 0,2 c 1.143449,0 2,0.856551 2,2 l 0,10 c 0,1.143449 -0.856551,2 -2,2 -1.143449,0 -2,-0.856551 -2,-2 l 0,-10 c 0,-1.143449 0.856551,-2 2,-2 z m -19.8125,6.1875 c -1.022325,0 -2.029025,0.404025 -2.8125,1.1875 -1.566949,1.566949 -1.566949,4.089301 0,5.65625 l 7.0625,7.0625 c 1.566949,1.566949 4.089301,1.566949 5.65625,0 0.783474,-0.783474 1.1875,-1.790024 1.1875,-2.8125 0,-1.022476 -0.404026,-2.060276 -1.1875,-2.84375 L 31.03125,25.375 C 30.247775,24.591525 29.209825,24.1875 28.1875,24.1875 z m 39.625,0 c -1.022325,0 -2.060276,0.404025 -2.84375,1.1875 l -7.0625,7.0625 c -1.566949,1.566949 -1.566949,4.089301 0,5.65625 1.566949,1.566949 4.089301,1.566949 5.65625,0 l 7.0625,-7.0625 c 0.783474,-0.783474 1.1875,-1.821274 1.1875,-2.84375 0,-1.022476 -0.404026,-2.029026 -1.1875,-2.8125 -0.783474,-0.783475 -1.790175,-1.1875 -2.8125,-1.1875 z m -39.625,2 c 0.495808,0 1.035144,0.191394 1.4375,0.59375 l 7.0625,7.0625 c 0.402445,0.402445 0.59375,0.941464 0.59375,1.4375 0,0.496036 -0.172517,0.985017 -0.59375,1.40625 -0.808723,0.808723 -2.035027,0.808723 -2.84375,0 l -7.0625,-7.0625 c -0.808723,-0.808723 -0.808723,-2.035027 0,-2.84375 0.421144,-0.421144 0.910442,-0.59375 1.40625,-0.59375 z m 39.625,0 c 0.495808,0 0.985109,0.172608 1.40625,0.59375 0.421233,0.421233 0.59375,0.910214 0.59375,1.40625 0,0.496036 -0.191305,1.035055 -0.59375,1.4375 l -7.0625,7.0625 c -0.808723,0.808723 -2.035027,0.808723 -2.84375,0 -0.808723,-0.808723 -0.808723,-2.035027 0,-2.84375 l 7.0625,-7.0625 c 0.402354,-0.402354 0.941692,-0.59375 1.4375,-0.59375 z M 20,44 c -2.216,0 -4,1.784 -4,4 0,2.216 1.784,4 4,4 l 10,0 c 2.216,0 4,-1.784 4,-4 0,-2.216 -1.784,-4 -4,-4 l -10,0 z m 46,0 c -2.216,0 -4,1.784 -4,4 0,2.216 1.784,4 4,4 l 10,0 c 2.216,0 4,-1.784 4,-4 0,-2.216 -1.784,-4 -4,-4 l -10,0 z m -46,2 10,0 c 1.143449,0 2,0.856551 2,2 0,1.143449 -0.856551,2 -2,2 l -10,0 c -1.143449,0 -2,-0.856551 -2,-2 0,-1.143449 0.856551,-2 2,-2 z m 46,0 10,0 c 1.143449,0 2,0.856551 2,2 0,1.143449 -0.856551,2 -2,2 l -10,0 c -1.143449,0 -2,-0.856551 -2,-2 0,-1.143449 0.856551,-2 2,-2 z M 35.25,56.71875 c -1.022325,0 -2.029026,0.404026 -2.8125,1.1875 l -7.0625,7.0625 c -1.566949,1.566949 -1.566949,4.089301 0,5.65625 1.566949,1.566949 4.089301,1.566949 5.65625,0 l 7.0625,-7.0625 c 0.783474,-0.783474 1.1875,-1.821274 1.1875,-2.84375 0,-1.022476 -0.404026,-2.029026 -1.1875,-2.8125 -0.783474,-0.783474 -1.821425,-1.1875 -2.84375,-1.1875 z m 25.5,0 c -1.022325,0 -2.060276,0.404026 -2.84375,1.1875 -1.566949,1.566949 -1.566949,4.089301 0,5.65625 l 7.0625,7.0625 c 1.566949,1.566949 4.089301,1.566949 5.65625,0 0.783474,-0.783474 1.1875,-1.790024 1.1875,-2.8125 0,-1.022476 -0.404026,-2.060276 -1.1875,-2.84375 l -7.0625,-7.0625 c -0.783474,-0.783474 -1.790175,-1.1875 -2.8125,-1.1875 z m -25.5,2 c 0.495807,0 1.035146,0.191396 1.4375,0.59375 0.421233,0.421233 0.59375,0.910214 0.59375,1.40625 0,0.496036 -0.191305,1.035055 -0.59375,1.4375 l -7.0625,7.0625 c -0.808723,0.808723 -2.035027,0.808723 -2.84375,0 -0.808723,-0.808723 -0.808723,-2.035027 0,-2.84375 l 7.0625,-7.0625 c 0.421142,-0.421142 0.910443,-0.59375 1.40625,-0.59375 z m 25.5,0 c 0.495807,0 0.985108,0.172608 1.40625,0.59375 l 7.0625,7.0625 c 0.402445,0.402445 0.59375,0.941464 0.59375,1.4375 0,0.496036 -0.172517,0.985017 -0.59375,1.40625 -0.808723,0.808723 -2.035027,0.808723 -2.84375,0 l -7.0625,-7.0625 c -0.808723,-0.808723 -0.808723,-2.035027 0,-2.84375 0.402354,-0.402354 0.941693,-0.59375 1.4375,-0.59375 z M 48,62 c -2.216,0 -4,1.784 -4,4 l 0,10 c 0,2.216 1.784,4 4,4 2.216,0 4,-1.784 4,-4 l 0,-10 c 0,-2.216 -1.784,-4 -4,-4 z m 0,2 c 1.143449,0 2,0.856551 2,2 l 0,10 c 0,1.143449 -0.856551,2 -2,2 -1.143449,0 -2,-0.856551 -2,-2 l 0,-10 c 0,-1.143449 0.856551,-2 2,-2 z"
       inkscape:connector-curvature="0"
       id="path4008"
       style="opacity:0.05;color:#000000;fill:#000000;fill-opacity:1;fill-rule:nonzero;stroke:none;stroke-width:2;marker:none;visibility:visible;display:inline;overflow:visible;enable-background:accumulate" />
    <path
       d="m 48,16 c -2.216,0 -4,1.784 -4,4 l 0,1 c 0,-2.216 1.784,-4 4,-4 2.216,0 4,1.784 4,4 l 0,-1 c 0,-2.216 -1.784,-4 -4,-4 z m -19.8125,8.1875 c -1.022325,0 -2.029025,0.404025 -2.8125,1.1875 -0.908905,0.908905 -1.270511,2.133608 -1.125,3.3125 0.108816,-0.846409 0.472105,-1.659605 1.125,-2.3125 1.566949,-1.566949 4.089301,-1.566949 5.65625,0 l 7.0625,7.0625 c 0.65312,0.65312 1.044743,1.493365 1.15625,2.34375 0.02226,-0.168283 0.03125,-0.329881 0.03125,-0.5 0,-1.022476 -0.404026,-2.060276 -1.1875,-2.84375 L 31.03125,25.375 C 30.247775,24.591525 29.209825,24.1875 28.1875,24.1875 z m 39.625,0 c -1.022325,0 -2.060276,0.404025 -2.84375,1.1875 l -7.0625,7.0625 c -0.908905,0.908905 -1.270511,2.133608 -1.125,3.3125 0.108816,-0.846409 0.472105,-1.659605 1.125,-2.3125 l 7.0625,-7.0625 c 1.566949,-1.566949 4.089301,-1.566949 5.65625,0 0.65312,0.65312 1.044743,1.469341 1.15625,2.3125 0.02226,-0.169725 0.03125,-0.329881 0.03125,-0.5 0,-1.022476 -0.404026,-2.029026 -1.1875,-2.8125 -0.783474,-0.783475 -1.790175,-1.1875 -2.8125,-1.1875 z M 20,44 c -2.216,0 -4,1.784 -4,4 0,0.170648 0.04196,0.335093 0.0625,0.5 C 16.308703,46.523459 17.954648,45 20,45 l 10,0 c 2.045352,0 3.691297,1.523459 3.9375,3.5 C 33.958041,48.335093 34,48.170648 34,48 34,45.784 32.216,44 30,44 l -10,0 z m 46,0 c -2.216,0 -4,1.784 -4,4 0,0.170648 0.04196,0.335093 0.0625,0.5 C 62.308703,46.523459 63.954648,45 66,45 l 10,0 c 2.045352,0 3.691297,1.523459 3.9375,3.5 C 79.958041,48.335093 80,48.170648 80,48 80,45.784 78.216,44 76,44 L 66,44 z M 35.25,56.71875 c -1.022325,0 -2.029026,0.404026 -2.8125,1.1875 l -7.0625,7.0625 c -0.914054,0.914054 -1.277342,2.158778 -1.125,3.34375 0.105349,-0.853515 0.466956,-1.685706 1.125,-2.34375 l 7.0625,-7.0625 c 1.566949,-1.566949 4.089301,-1.566949 5.65625,0 0.65312,0.65312 1.044743,1.469341 1.15625,2.3125 0.02226,-0.169725 0.03125,-0.329881 0.03125,-0.5 0,-1.022476 -0.404026,-2.029026 -1.1875,-2.8125 -0.783474,-0.783474 -1.821425,-1.1875 -2.84375,-1.1875 z m 25.5,0 c -1.022325,0 -2.060276,0.404026 -2.84375,1.1875 -0.914054,0.914054 -1.277342,2.158778 -1.125,3.34375 0.105349,-0.853515 0.466956,-1.685706 1.125,-2.34375 1.566949,-1.566949 4.089301,-1.566949 5.65625,0 l 7.0625,7.0625 c 0.65312,0.65312 1.044743,1.493365 1.15625,2.34375 0.02226,-0.168283 0.03125,-0.329881 0.03125,-0.5 0,-1.022476 -0.404026,-2.060276 -1.1875,-2.84375 l -7.0625,-7.0625 C 62.779026,57.122776 61.772325,56.71875 60.75,56.71875 z M 48,62 c -2.216,0 -4,1.784 -4,4 l 0,1 c 0,-2.216 1.784,-4 4,-4 2.216,0 4,1.784 4,4 l 0,-1 c 0,-2.216 -1.784,-4 -4,-4 z"
       inkscape:connector-curvature="0"
       id="path3981"
       style="opacity:0.6;color:#000000;fill:#000000;fill-opacity:1;fill-rule:nonzero;stroke:none;stroke-width:2;marker:none;visibility:visible;display:inline;overflow:visible;enable-background:accumulate" />
    <path
       d="m 24.25,28.6875 c -0.152342,1.184972 0.210946,2.429696 1.125,3.34375 l 7.0625,7.0625 c 1.566949,1.566949 4.089301,1.566949 5.65625,0 0.783474,-0.783474 1.1875,-1.790024 1.1875,-2.8125 0,-0.170119 -0.009,-0.330275 -0.03125,-0.5 -0.111507,0.843159 -0.50313,1.65938 -1.15625,2.3125 -1.566949,1.566949 -4.089301,1.566949 -5.65625,0 L 25.375,31.03125 C 24.716956,30.373206 24.355349,29.541015 24.25,28.6875 z m 47.53125,0 c -0.111507,0.850385 -0.50313,1.69063 -1.15625,2.34375 l -7.0625,7.0625 c -1.566949,1.566949 -4.089301,1.566949 -5.65625,0 -0.658044,-0.658044 -1.019651,-1.490235 -1.125,-2.34375 -0.152342,1.184972 0.210946,2.429696 1.125,3.34375 1.566949,1.566949 4.089301,1.566949 5.65625,0 l 7.0625,-7.0625 c 0.783474,-0.783474 1.1875,-1.821274 1.1875,-2.84375 0,-0.170119 -0.009,-0.331717 -0.03125,-0.5 z M 44,30 l 0,1 c 0,2.216 1.784,4 4,4 2.216,0 4,-1.784 4,-4 l 0,-1 c 0,2.216 -1.784,4 -4,4 -2.216,0 -4,-1.784 -4,-4 z M 16.0625,48.5 C 16.041959,48.664907 16,48.829352 16,49 c 0,2.216 1.784,4 4,4 l 10,0 c 2.216,0 4,-1.784 4,-4 0,-0.170648 -0.04196,-0.335093 -0.0625,-0.5 C 33.691297,50.476541 32.045352,52 30,52 l -10,0 c -2.045352,0 -3.691297,-1.523459 -3.9375,-3.5 z m 46,0 C 62.041959,48.664907 62,48.829352 62,49 c 0,2.216 1.784,4 4,4 l 10,0 c 2.216,0 4,-1.784 4,-4 0,-0.170648 -0.04196,-0.335093 -0.0625,-0.5 C 79.691297,50.476541 78.045352,52 76,52 l -10,0 c -2.045352,0 -3.691297,-1.523459 -3.9375,-3.5 z M 39.25,61.21875 c -0.111507,0.850385 -0.50313,1.69063 -1.15625,2.34375 l -7.0625,7.0625 c -1.566949,1.566949 -4.089301,1.566949 -5.65625,0 -0.652895,-0.652895 -1.016184,-1.466091 -1.125,-2.3125 -0.145511,1.178892 0.216095,2.403595 1.125,3.3125 1.566949,1.566949 4.089301,1.566949 5.65625,0 l 7.0625,-7.0625 c 0.783474,-0.783474 1.1875,-1.821274 1.1875,-2.84375 0,-0.170119 -0.009,-0.331717 -0.03125,-0.5 z M 56.78125,61.25 c -0.145511,1.178892 0.216095,2.403595 1.125,3.3125 l 7.0625,7.0625 c 1.566949,1.566949 4.089301,1.566949 5.65625,0 0.783474,-0.783474 1.1875,-1.790024 1.1875,-2.8125 0,-0.170119 -0.009,-0.330275 -0.03125,-0.5 -0.111507,0.843159 -0.50313,1.65938 -1.15625,2.3125 -1.566949,1.566949 -4.089301,1.566949 -5.65625,0 l -7.0625,-7.0625 C 57.253355,62.909605 56.890066,62.096409 56.78125,61.25 z M 44,76 l 0,1 c 0,2.216 1.784,4 4,4 2.216,0 4,-1.784 4,-4 l 0,-1 c 0,2.216 -1.784,4 -4,4 -2.216,0 -4,-1.784 -4,-4 z"
       inkscape:connector-curvature="0"
       id="path3990"
       style="opacity:0.6;color:#000000;fill:#ffffff;fill-opacity:1;fill-rule:nonzero;stroke:none;stroke-width:2;marker:none;visibility:visible;display:inline;overflow:visible;enable-background:accumulate" />
  </g>
</svg>
