<?xml version="1.0" encoding="UTF-8" standalone="no"?>
<!-- Generator: Adobe Illustrator 16.0.4, SVG Export Plug-In . SVG Version: 6.00 Build 0)  -->

<svg
   xmlns:dc="http://purl.org/dc/elements/1.1/"
   xmlns:cc="http://creativecommons.org/ns#"
   xmlns:rdf="http://www.w3.org/1999/02/22-rdf-syntax-ns#"
   xmlns:svg="http://www.w3.org/2000/svg"
   xmlns="http://www.w3.org/2000/svg"
   xmlns:sodipodi="http://sodipodi.sourceforge.net/DTD/sodipodi-0.dtd"
   xmlns:inkscape="http://www.inkscape.org/namespaces/inkscape"
   width="256"
   height="256"
   inkscape:version="0.48.5 r10040"
   xml:space="preserve"
   version="0.0"
   id="svg2"
   sodipodi:docname="cogwheel.svg"><metadata
     id="metadata9"><rdf:RDF><cc:Work
         rdf:about=""><dc:format>image/svg+xml</dc:format><dc:type /></cc:Work></rdf:RDF></metadata><defs
     id="defs4" /><sodipodi:namedview
     id="namedview6"
     showgrid="false"
     inkscape:zoom="2.6074563"
     inkscape:cx="241.37589"
     inkscape:cy="162.54292"
     inkscape:window-width="956"
     inkscape:window-height="1029"
     inkscape:window-x="0"
     inkscape:window-y="0"
     inkscape:window-maximized="0"
     inkscape:current-layer="svg2" /><path
     d="m 227.93174,59.048424 c -1.22323,-0.658345 -2.49597,-0.802485 -3.82442,-0.427462 l -28.05414,7.919179 c -3.5164,-3.947651 -7.60203,-7.75106 -12.25591,-11.412778 0.63425,-3.179208 1.68478,-7.731367 3.14998,-13.660001 1.46519,-5.928635 2.46027,-10.223546 2.98283,-12.890022 0.28769,-1.403804 0.16931,-2.678036 -0.35151,-3.828627 -0.60708,-1.341181 -1.41648,-2.243294 -2.43432,-2.705703 -5.65322,-3.323749 -17.22464,-7.879664 -34.71667,-13.6730331 -1.57739,-0.4374878 -2.99032,-0.3709326 -4.23075,0.1938838 -1.43398,0.652948 -2.38625,1.6058883 -2.85684,2.8588373 l -13.38987,24.652563 c -4.83153,-0.228554 -9.93447,-0.04405 -15.3106,0.554297 L 100.65237,12.003977 C 99.993417,10.801349 98.976206,10.021523 97.604267,9.662885 96.230565,9.3050505 94.878548,9.4311375 93.537824,10.04162 L 61.715858,24.531385 c -2.771191,1.26183 -3.884885,3.386543 -3.338538,6.375111 0.926515,5.356806 3.574703,14.901678 7.94633,28.633813 -3.840146,3.485363 -7.363483,7.286213 -10.570955,11.405107 L 29.007048,64.568095 c -1.675936,-0.392619 -3.134595,-0.30524 -4.376791,0.26038 -2.102577,0.957385 -5.066965,6.438465 -8.893321,16.44757 -3.826357,10.009105 -6.1995553,17.302597 -7.1240787,21.884645 -0.2964437,1.63766 -0.2265161,2.93608 0.207224,3.89432 0.5208072,1.15059 1.5184337,2.08407 2.9938407,2.79786 9.917401,4.84932 18.023499,9.13352 24.320685,12.85792 -0.394012,5.49621 -0.261137,10.75466 0.39702,15.77179 l -24.841145,16.16606 c -0.963343,0.67067 -1.589266,1.70699 -1.8769645,3.1108 -0.2884983,1.40204 -0.1710648,2.67884 0.3489425,3.82766 l 14.447615,31.91834 c 0.564742,1.24765 1.455373,2.19792 2.676055,2.8553 1.221478,0.65915 2.496769,0.80426 3.825233,0.42924 l 27.991185,-8.06292 c 3.462768,4.087 7.568208,7.93887 12.318063,11.55475 -0.634266,3.1792 -1.68655,7.73217 -3.151739,13.6608 -1.465188,5.92863 -2.462022,10.22435 -2.982828,12.89002 -0.2869,1.40558 -0.171065,2.67883 0.349742,3.82943 0.563941,1.24589 1.396685,2.19485 2.499025,2.84864 6.070218,3.48081 17.599304,7.94319 34.586469,13.3854 1.52985,0.57619 2.96256,0.5581 4.29977,-0.0508 1.43397,-0.65294 2.43375,-1.62752 2.99935,-2.92372 l 13.24832,-24.59025 c 4.83152,0.22856 9.93448,0.0441 15.31139,-0.55253 l 15.98716,24.62559 c 0.66072,1.20181 1.67618,1.98244 3.04812,2.34108 1.37274,0.3604 2.72747,0.23094 4.06469,-0.37794 l 31.82371,-14.49056 c 2.7747,-1.26342 3.88664,-3.38735 3.34205,-6.37671 -0.92907,-5.35777 -3.5782,-14.90009 -7.94985,-28.63221 3.84095,-3.48361 7.36524,-7.28701 10.57095,-11.40511 l 26.81291,6.52124 c 1.72702,0.25229 3.16587,0.11646 4.3113,-0.4051 2.10081,-0.95658 5.05351,-6.40254 8.85215,-16.34157 3.80299,-9.93885 6.18884,-17.27005 7.16092,-21.99081 0.42665,-1.34999 0.35928,-2.64746 -0.20466,-3.89335 -0.56395,-1.24589 -1.58474,-2.23054 -3.0611,-2.94177 -10.69776,-5.3028 -18.80386,-9.58699 -24.31989,-12.85614 0.30524,-4.41714 0.19649,-9.62697 -0.33057,-15.62967 l 24.69768,-16.09862 c 1.05835,-0.71392 1.7345,-1.775258 2.02044,-3.178256 0.28594,-1.403008 0.16674,-2.678993 -0.35325,-3.827815 L 230.60604,61.904527 c -0.56221,-1.246678 -1.45104,-2.197757 -2.6743,-2.856103 z M 165.33703,141.9124 c -3.91211,10.45257 -10.9346,17.98578 -21.06568,22.59886 -10.1311,4.61307 -20.40606,4.95605 -30.82844,1.03053 -10.41982,-3.92455 -17.929904,-10.96615 -22.529305,-21.12735 -4.599403,-10.16121 -4.943123,-20.46593 -1.029246,-30.91927 3.914678,-10.4516 10.937161,-17.984817 21.066491,-22.597088 10.13109,-4.613077 20.40782,-4.956857 30.82764,-1.032314 10.4206,3.92631 17.9307,10.967902 22.5301,21.129112 4.5994,10.1612 4.94136,20.46671 1.02844,30.91752 z"
     id="path"
     inkscape:connector-curvature="0" /></svg>