<?xml version="1.0" encoding="UTF-8" standalone="no"?>
<!-- Created with Inkscape (http://www.inkscape.org/) -->

<svg
   xmlns:dc="http://purl.org/dc/elements/1.1/"
   xmlns:cc="http://creativecommons.org/ns#"
   xmlns:rdf="http://www.w3.org/1999/02/22-rdf-syntax-ns#"
   xmlns:svg="http://www.w3.org/2000/svg"
   xmlns="http://www.w3.org/2000/svg"
   xmlns:xlink="http://www.w3.org/1999/xlink"
   xmlns:inkscape="http://www.inkscape.org/namespaces/inkscape"
   version="1.0"
   width="96"
   height="96"
   id="svg2408"
   style="enable-background:new">
  <defs
     id="defs2410">
    <linearGradient
       id="linearGradient3901">
      <stop
         id="stop3903"
         style="stop-color:#ffffff;stop-opacity:1"
         offset="0" />
      <stop
         id="stop3905"
         style="stop-color:#ffffff;stop-opacity:0"
         offset="1" />
    </linearGradient>
    <linearGradient
       id="linearGradient3920">
      <stop
         id="stop3922"
         style="stop-color:#4b4b4b;stop-opacity:1"
         offset="0" />
      <stop
         id="stop3924"
         style="stop-color:#141414;stop-opacity:1"
         offset="1" />
    </linearGradient>
    <linearGradient
       id="linearGradient4119">
      <stop
         id="stop4121"
         style="stop-color:#949494;stop-opacity:0.59842521"
         offset="0" />
      <stop
         id="stop3954"
         style="stop-color:#949494;stop-opacity:0.21259843"
         offset="0.5" />
      <stop
         id="stop4123"
         style="stop-color:#949494;stop-opacity:0"
         offset="1" />
    </linearGradient>
    <linearGradient
       id="linearGradient4055">
      <stop
         id="stop4057"
         style="stop-color:#c9c9c9;stop-opacity:1"
         offset="0" />
      <stop
         id="stop4059"
         style="stop-color:#c9c9c9;stop-opacity:0"
         offset="1" />
    </linearGradient>
    <linearGradient
       id="linearGradient4367">
      <stop
         id="stop4369"
         style="stop-color:#ffffff;stop-opacity:0.71755725"
         offset="0" />
      <stop
         id="stop4371"
         style="stop-color:#ffffff;stop-opacity:1"
         offset="1" />
    </linearGradient>
    <linearGradient
       x1="45.447727"
       y1="92.539597"
       x2="45.447727"
       y2="7.0165396"
       id="ButtonShadow"
       gradientUnits="userSpaceOnUse"
       gradientTransform="scale(1.0058652,0.994169)">
      <stop
         id="stop3750"
         style="stop-color:#000000;stop-opacity:1"
         offset="0" />
      <stop
         id="stop3752"
         style="stop-color:#000000;stop-opacity:0.58823532"
         offset="1" />
    </linearGradient>
    <linearGradient
       id="linearGradient3737">
      <stop
         id="stop3739"
         style="stop-color:#ffffff;stop-opacity:1"
         offset="0" />
      <stop
         id="stop3741"
         style="stop-color:#ffffff;stop-opacity:0"
         offset="1" />
    </linearGradient>
    <filter
       color-interpolation-filters="sRGB"
       id="filter3174">
      <feGaussianBlur
         id="feGaussianBlur3176"
         stdDeviation="1.71" />
    </filter>
    <filter
       x="-0.192"
       y="-0.192"
       width="1.3839999"
       height="1.3839999"
       color-interpolation-filters="sRGB"
       id="filter3794">
      <feGaussianBlur
         id="feGaussianBlur3796"
         stdDeviation="5.28" />
    </filter>
    <linearGradient
       x1="48"
       y1="20.220806"
       x2="48"
       y2="138.66119"
       id="linearGradient3613"
       xlink:href="#linearGradient3737"
       gradientUnits="userSpaceOnUse" />
    <linearGradient
       x1="45.447727"
       y1="92.539597"
       x2="45.447727"
       y2="7.0165396"
       id="ButtonShadow-0"
       gradientUnits="userSpaceOnUse"
       gradientTransform="matrix(1.0058652,0,0,0.994169,100,0)">
      <stop
         id="stop3750-8"
         style="stop-color:#000000;stop-opacity:1"
         offset="0" />
      <stop
         id="stop3752-5"
         style="stop-color:#000000;stop-opacity:0.58823532"
         offset="1" />
    </linearGradient>
    <linearGradient
       x1="32.251034"
       y1="6.1317081"
       x2="32.251034"
       y2="90.238609"
       id="linearGradient3780"
       xlink:href="#ButtonShadow-0"
       gradientUnits="userSpaceOnUse"
       gradientTransform="matrix(1.0238095,0,0,1.0119048,-1.1428571,-98.071429)" />
    <linearGradient
       x1="32.251034"
       y1="6.1317081"
       x2="32.251034"
       y2="90.238609"
       id="linearGradient3772"
       xlink:href="#ButtonShadow-0"
       gradientUnits="userSpaceOnUse"
       gradientTransform="matrix(1.0238095,0,0,1.0119048,-1.1428571,-98.071429)" />
    <linearGradient
       x1="32.251034"
       y1="6.1317081"
       x2="32.251034"
       y2="90.238609"
       id="linearGradient3725"
       xlink:href="#ButtonShadow-0"
       gradientUnits="userSpaceOnUse"
       gradientTransform="matrix(1.0238095,0,0,1.0119048,-1.1428571,-98.071429)" />
    <linearGradient
       x1="32.251034"
       y1="6.1317081"
       x2="32.251034"
       y2="90.238609"
       id="linearGradient3721"
       xlink:href="#ButtonShadow-0"
       gradientUnits="userSpaceOnUse"
       gradientTransform="translate(0,-97)" />
    <linearGradient
       x1="32.251034"
       y1="6.1317081"
       x2="32.251034"
       y2="90.238609"
       id="linearGradient3026"
       xlink:href="#ButtonShadow-0"
       gradientUnits="userSpaceOnUse"
       gradientTransform="matrix(1.0238095,0,0,1.0119048,-1.1428571,-98.071429)" />
    <clipPath
       id="clipPath4355">
      <rect
         width="84"
         height="80"
         rx="6"
         ry="6"
         x="6"
         y="6"
         id="rect4357"
         style="fill:#ffffff;fill-opacity:1;fill-rule:nonzero;stroke:none" />
    </clipPath>
    <radialGradient
       cx="48"
       cy="87.792389"
       r="42"
       fx="48"
       fy="87.792389"
       id="radialGradient4375"
       xlink:href="#linearGradient4367"
       gradientUnits="userSpaceOnUse"
       gradientTransform="matrix(1,-6.7114942e-8,8.4282233e-8,1.2557894,109.99999,-24.505592)" />
    <linearGradient
       x1="48"
       y1="88"
       x2="48"
       y2="-40"
       id="linearGradient4390"
       xlink:href="#linearGradient4055"
       gradientUnits="userSpaceOnUse"
       gradientTransform="matrix(1,0,0,-1,0,92)" />
    <linearGradient
       x1="48"
       y1="82"
       x2="112.12357"
       y2="82.454597"
       id="linearGradient4429"
       xlink:href="#linearGradient4055"
       gradientUnits="userSpaceOnUse"
       spreadMethod="reflect" />
    <linearGradient
       id="linearGradient3892">
      <stop
         id="stop3894"
         style="stop-color:#000000;stop-opacity:0.58823532"
         offset="0" />
      <stop
         id="stop3896"
         style="stop-color:#000000;stop-opacity:0.47058824"
         offset="0.11780351" />
      <stop
         id="stop3898"
         style="stop-color:#000000;stop-opacity:0.39215687"
         offset="0.23809524" />
      <stop
         id="stop3900"
         style="stop-color:#000000;stop-opacity:0.3137255"
         offset="1" />
    </linearGradient>
    <linearGradient
       x1="90"
       y1="88"
       x2="48"
       y2="88"
       id="linearGradient3228"
       xlink:href="#linearGradient3892"
       gradientUnits="userSpaceOnUse"
       spreadMethod="reflect" />
    <radialGradient
       cx="48"
       cy="3.0000064"
       r="36"
       fx="48"
       fy="3.0000064"
       id="radialGradient4089"
       xlink:href="#linearGradient4119"
       gradientUnits="userSpaceOnUse"
       gradientTransform="matrix(-1.0277778,0,0,-0.22222219,97.333337,6.666668)" />
    <radialGradient
       cx="47.099998"
       cy="-18.000002"
       r="36"
       fx="47.099998"
       fy="-18.000002"
       id="radialGradient4095"
       xlink:href="#linearGradient4119"
       gradientUnits="userSpaceOnUse"
       gradientTransform="matrix(0.02777778,0.94444447,-0.16659462,0.00489984,85.692963,1.604863)" />
    <radialGradient
       cx="14.700001"
       cy="-12.000003"
       r="36"
       fx="14.700001"
       fy="-12.000003"
       id="radialGradient4099"
       xlink:href="#linearGradient4119"
       gradientUnits="userSpaceOnUse"
       gradientTransform="matrix(0,0.86111111,0.16666666,0,9,12.341666)" />
    <radialGradient
       cx="-26.75"
       cy="48"
       r="42"
       fx="-26.75"
       fy="48"
       id="radialGradient3940"
       xlink:href="#linearGradient3920"
       gradientUnits="userSpaceOnUse"
       gradientTransform="matrix(1.7142857,-1.2662338e-8,1.5476191e-8,2.0952381,21.857142,-52.571429)" />
    <radialGradient
       cx="32"
       cy="14.5"
       r="26"
       fx="32"
       fy="14.5"
       id="radialGradient3907"
       xlink:href="#linearGradient3901"
       gradientUnits="userSpaceOnUse"
       gradientTransform="matrix(1,0,0,0.05769231,0,13.663462)" />
    <radialGradient
       cx="32"
       cy="14.5"
       r="26"
       fx="32"
       fy="14.5"
       id="radialGradient3911"
       xlink:href="#linearGradient3901"
       gradientUnits="userSpaceOnUse"
       gradientTransform="matrix(1,0,0,0.05769231,0,13.663462)" />
    <radialGradient
       cx="32"
       cy="14.5"
       r="26"
       fx="32"
       fy="14.5"
       id="radialGradient3915"
       xlink:href="#linearGradient3901"
       gradientUnits="userSpaceOnUse"
       gradientTransform="matrix(1,0,0,0.05769231,0,13.663462)" />
    <radialGradient
       cx="32"
       cy="14.5"
       r="26"
       fx="32"
       fy="14.5"
       id="radialGradient3919"
       xlink:href="#linearGradient3901"
       gradientUnits="userSpaceOnUse"
       gradientTransform="matrix(1,0,0,0.05769231,0,13.663462)" />
    <radialGradient
       cx="32"
       cy="14.5"
       r="26"
       fx="32"
       fy="14.5"
       id="radialGradient3923"
       xlink:href="#linearGradient3901"
       gradientUnits="userSpaceOnUse"
       gradientTransform="matrix(1,0,0,0.05769231,0,13.663462)" />
    <radialGradient
       cx="32"
       cy="14.5"
       r="26"
       fx="32"
       fy="14.5"
       id="radialGradient3927"
       xlink:href="#linearGradient3901"
       gradientUnits="userSpaceOnUse"
       gradientTransform="matrix(1,0,0,0.05769231,0,13.663462)" />
    <radialGradient
       cx="32"
       cy="14.5"
       r="26"
       fx="32"
       fy="14.5"
       id="radialGradient3931"
       xlink:href="#linearGradient3901"
       gradientUnits="userSpaceOnUse"
       gradientTransform="matrix(1,0,0,0.05769231,0,13.663462)" />
    <radialGradient
       cx="32"
       cy="14.5"
       r="26"
       fx="32"
       fy="14.5"
       id="radialGradient3935"
       xlink:href="#linearGradient3901"
       gradientUnits="userSpaceOnUse"
       gradientTransform="matrix(1,0,0,0.05769231,0,13.663462)" />
    <radialGradient
       cx="32"
       cy="14.5"
       r="26"
       fx="32"
       fy="14.5"
       id="radialGradient3939"
       xlink:href="#linearGradient3901"
       gradientUnits="userSpaceOnUse"
       gradientTransform="matrix(1,0,0,0.05769231,0,13.663462)" />
    <radialGradient
       cx="32"
       cy="14.5"
       r="26"
       fx="32"
       fy="14.5"
       id="radialGradient3943"
       xlink:href="#linearGradient3901"
       gradientUnits="userSpaceOnUse"
       gradientTransform="matrix(1,0,0,0.05769231,0,13.663462)" />
    <radialGradient
       cx="32"
       cy="14.5"
       r="26"
       fx="32"
       fy="14.5"
       id="radialGradient3947"
       xlink:href="#linearGradient3901"
       gradientUnits="userSpaceOnUse"
       gradientTransform="matrix(1,0,0,0.05769231,0,13.663462)" />
    <radialGradient
       cx="32"
       cy="14.5"
       r="26"
       fx="32"
       fy="14.5"
       id="radialGradient3951"
       xlink:href="#linearGradient3901"
       gradientUnits="userSpaceOnUse"
       gradientTransform="matrix(1,0,0,0.05769231,0,13.663462)" />
    <radialGradient
       cx="32"
       cy="14.5"
       r="26"
       fx="32"
       fy="14.5"
       id="radialGradient3955"
       xlink:href="#linearGradient3901"
       gradientUnits="userSpaceOnUse"
       gradientTransform="matrix(1,0,0,0.05769231,0,13.663462)" />
    <radialGradient
       cx="32"
       cy="14.5"
       r="26"
       fx="32"
       fy="14.5"
       id="radialGradient3959"
       xlink:href="#linearGradient3901"
       gradientUnits="userSpaceOnUse"
       gradientTransform="matrix(1,0,0,0.05769231,0,13.663462)" />
    <radialGradient
       cx="32"
       cy="14.5"
       r="26"
       fx="32"
       fy="14.5"
       id="radialGradient3963"
       xlink:href="#linearGradient3901"
       gradientUnits="userSpaceOnUse"
       gradientTransform="matrix(1,0,0,0.05769231,0,13.663462)" />
    <radialGradient
       cx="32"
       cy="14.5"
       r="26"
       fx="32"
       fy="14.5"
       id="radialGradient3967"
       xlink:href="#linearGradient3901"
       gradientUnits="userSpaceOnUse"
       gradientTransform="matrix(1,0,0,0.05769231,0,13.663462)" />
    <filter
       x="-0.10363991"
       y="-0.14249329"
       width="1.2072798"
       height="1.2849866"
       color-interpolation-filters="sRGB"
       id="filter4339-1">
      <feGaussianBlur
         id="feGaussianBlur4341-6"
         stdDeviation="0.95086131" />
    </filter>
    <linearGradient
       x1="65"
       y1="6"
       x2="65"
       y2="86"
       id="linearGradient3930"
       xlink:href="#linearGradient3901"
       gradientUnits="userSpaceOnUse" />
  </defs>
  <metadata
     id="metadata2413">
    <rdf:RDF>
      <cc:Work
         rdf:about="">
        <dc:format>image/svg+xml</dc:format>
        <dc:type
           rdf:resource="http://purl.org/dc/dcmitype/StillImage" />
        <dc:title />
      </cc:Work>
    </rdf:RDF>
  </metadata>
  <g
     id="layer2"
     style="display:none">
    <rect
       width="86"
       height="85"
       rx="6"
       ry="6"
       x="5"
       y="7"
       id="rect3745"
       style="opacity:0.9;fill:url(#ButtonShadow);fill-opacity:1;fill-rule:nonzero;stroke:none;filter:url(#filter3174)" />
  </g>
  <g
     id="layer3"
     style="display:inline">
    <path
       d="m 12,-95.03125 c -5.5110903,0 -10.03125,4.52016 -10.03125,10.03125 l 0,71 c 0,5.5110902 4.5201598,10.03125 10.03125,10.03125 l 72,0 c 5.51109,0 10.03125,-4.5201597 10.03125,-10.03125 l 0,-71 c 0,-5.51109 -4.52016,-10.03125 -10.03125,-10.03125 l -72,0 z"
       transform="scale(1,-1)"
       id="path3786"
       style="opacity:0.07999998;fill:url(#linearGradient3026);fill-opacity:1;fill-rule:nonzero;stroke:none;display:inline" />
    <path
       d="m 12,-94.03125 c -4.971633,0 -9.03125,4.059617 -9.03125,9.03125 l 0,71 c 0,4.9716329 4.0596171,9.03125 9.03125,9.03125 l 72,0 c 4.971633,0 9.03125,-4.059617 9.03125,-9.03125 l 0,-71 c 0,-4.971633 -4.059617,-9.03125 -9.03125,-9.03125 l -72,0 z"
       transform="scale(1,-1)"
       id="path3778"
       style="opacity:0.1;fill:url(#linearGradient3780);fill-opacity:1;fill-rule:nonzero;stroke:none;display:inline" />
    <path
       d="m 12,-93 c -4.4091333,0 -8,3.590867 -8,8 l 0,71 c 0,4.4091333 3.5908667,8 8,8 l 72,0 c 4.409133,0 8,-3.5908667 8,-8 l 0,-71 c 0,-4.409133 -3.590867,-8 -8,-8 l -72,0 z"
       transform="scale(1,-1)"
       id="path3770"
       style="opacity:0.2;fill:url(#linearGradient3772);fill-opacity:1;fill-rule:nonzero;stroke:none;display:inline" />
    <rect
       width="86"
       height="85"
       rx="7"
       ry="7"
       x="5"
       y="-92"
       transform="scale(1,-1)"
       id="rect3723"
       style="opacity:0.3;fill:url(#linearGradient3725);fill-opacity:1;fill-rule:nonzero;stroke:none;display:inline" />
    <rect
       width="84"
       height="84"
       rx="6"
       ry="6"
       x="6"
       y="-91"
       transform="scale(1,-1)"
       id="rect3716"
       style="opacity:0.45;fill:url(#linearGradient3721);fill-opacity:1;fill-rule:nonzero;stroke:none;display:inline" />
  </g>
  <g
     id="layer1"
     style="display:inline">
    <rect
       width="84"
       height="84"
       rx="6"
       ry="6"
       x="-90"
       y="6"
       transform="matrix(0,-1,1,0,0,0)"
       id="rect2419"
       style="fill:url(#radialGradient3940);fill-opacity:1;fill-rule:nonzero;stroke:none" />
    <path
       d="M 120.78125,6.125 C 118.04223,6.6826484 116,9.0915 116,12 l 0,68 c 0,3.324 2.676,6 6,6 l 72,0 c 3.324,0 6,-2.676 6,-6 l 0,-68 c 0,-2.9085 -2.04223,-5.3173516 -4.78125,-5.875 2.20512,0.5362071 3.8125,2.4908437 3.8125,4.875 l 0,68 c 0,2.80489 -2.22636,5.03125 -5.03125,5.03125 l -72,0 c -2.80489,0 -5.03125,-2.22636 -5.03125,-5.03125 l 0,-68 c 0,-2.3841563 1.60738,-4.3387929 3.8125,-4.875 z"
       inkscape:connector-curvature="0"
       id="rect4359"
       style="opacity:0.2;fill:url(#radialGradient4375);fill-opacity:1;fill-rule:nonzero;stroke:none" />
    <path
       d="M 12,86 C 8.676,86 6,83.324 6,80 L 6,12 C 6,8.676 8.676,6 12,6 l 72,0 c 3.324,0 6,2.676 6,6 l 0,68 c 0,3.324 -2.676,6 -6,6 z m 0,-0.96875 72,0 c 2.80489,0 5.03125,-2.22636 5.03125,-5.03125 l 0,-68 C 89.03125,9.19511 86.80489,6.96875 84,6.96875 l -72,0 C 9.19511,6.96875 6.96875,9.19511 6.96875,12 l 0,68 c 0,2.80489 2.22636,5.03125 5.03125,5.03125 z"
       inkscape:connector-curvature="0"
       id="rect4377"
       style="opacity:0.25;fill:url(#linearGradient4390);fill-opacity:1;fill-rule:nonzero;stroke:none" />
    <path
       d="m 6,78 0,2 c 0,3.324 2.676,6 6,6 l 72,0 c 3.324,0 6,-2.676 6,-6 l 0,-2 c 0,3.324 -2.676,6 -6,6 L 12,84 C 8.676,84 6,81.324 6,78 z"
       inkscape:connector-curvature="0"
       id="rect4414"
       style="opacity:0.1;fill:url(#linearGradient4429);fill-opacity:1;fill-rule:nonzero;stroke:none" />
    <path
       d="m 6,100 0,1 c 0,3.324 2.676,6 6,6 l 72,0 c 3.324,0 6,-2.676 6,-6 l 0,-1 c 0,3.324 -2.676,6 -6,6 l -72,0 c -3.324,0 -6,-2.676 -6,-6 z"
       inkscape:connector-curvature="0"
       id="path4412"
       style="opacity:0.15;fill:#000000;fill-opacity:1;fill-rule:nonzero;stroke:none" />
    <path
       d="m 48,6 24,80 17.65625,0 C 89.876387,85.374238 90,84.702888 90,84 L 90,12 C 90,8.676 87.324,6 84,6 z"
       inkscape:connector-curvature="0"
       id="rect3155"
       style="opacity:0.15;fill:url(#linearGradient3930);fill-opacity:1;fill-rule:nonzero;stroke:none" />
  </g>
  <g
     id="layer4"
     style="display:inline">
    <path
       d="m 6,80 0,4 c 0,3.324 2.676,6 6,6 l 72,0 c 3.324,0 6,-2.676 6,-6 l 0,-4 c 0,3.324 -2.676,6 -6,6 L 12,86 C 8.676,86 6,83.324 6,80 z"
       inkscape:connector-curvature="0"
       id="path3888"
       style="fill:url(#linearGradient3228);fill-opacity:1;fill-rule:nonzero;stroke:none;display:inline" />
    <path
       d="m 6,82 0,2 c 0,3.324 2.676,6 6,6 l 72,0 c 3.324,0 6,-2.676 6,-6 l 0,-2 c 0,3.324 -2.676,6 -6,6 L 12,88 C 8.676,88 6,85.324 6,82 z"
       inkscape:connector-curvature="0"
       id="rect4345"
       style="opacity:0.1;color:#000000;fill:#000000;fill-opacity:1;fill-rule:nonzero;stroke:none;stroke-width:1.5;marker:none;visibility:visible;display:inline;overflow:visible;enable-background:accumulate" />
    <path
       d="m 6,83 0,1 c 0,3.324 2.676,6 6,6 l 72,0 c 3.324,0 6,-2.676 6,-6 l 0,-1 c 0,3.324 -2.676,6 -6,6 L 12,89 C 8.676,89 6,86.324 6,83 z"
       inkscape:connector-curvature="0"
       id="rect4336"
       style="opacity:0.15;color:#000000;fill:#000000;fill-opacity:1;fill-rule:nonzero;stroke:none;stroke-width:1.5;marker:none;visibility:visible;display:inline;overflow:visible;enable-background:accumulate" />
  </g>
  <g
     id="layer7"
     style="opacity:0.5">
    <path
       d="m 58,14.5 a 26,1.5 0 1 1 -52,0 26,1.5 0 1 1 52,0 z"
       transform="matrix(1.576923,0,0,1,-2.4615381,-7)"
       id="path3899"
       style="opacity:0.02000002;color:#000000;fill:url(#radialGradient3907);fill-opacity:1;fill-rule:nonzero;stroke:none;stroke-width:2;marker:none;visibility:visible;display:inline;overflow:visible;enable-background:accumulate" />
    <path
       d="m 58,14.5 a 26,1.5 0 1 1 -52,0 26,1.5 0 1 1 52,0 z"
       transform="matrix(1.576923,0,0,1,-2.4615381,-2)"
       id="path3909"
       style="opacity:0.03999999;color:#000000;fill:url(#radialGradient3911);fill-opacity:1;fill-rule:nonzero;stroke:none;stroke-width:2;marker:none;visibility:visible;display:inline;overflow:visible;enable-background:accumulate" />
    <path
       d="m 58,14.5 a 26,1.5 0 1 1 -52,0 26,1.5 0 1 1 52,0 z"
       transform="matrix(1.576923,0,0,1,-2.4615381,3)"
       id="path3913"
       style="opacity:0.06000001;color:#000000;fill:url(#radialGradient3915);fill-opacity:1;fill-rule:nonzero;stroke:none;stroke-width:2;marker:none;visibility:visible;display:inline;overflow:visible;enable-background:accumulate" />
    <path
       d="m 58,14.5 a 26,1.5 0 1 1 -52,0 26,1.5 0 1 1 52,0 z"
       transform="matrix(1.576923,0,0,1,-2.4615381,8)"
       id="path3917"
       style="opacity:0.07999998;color:#000000;fill:url(#radialGradient3919);fill-opacity:1;fill-rule:nonzero;stroke:none;stroke-width:2;marker:none;visibility:visible;display:inline;overflow:visible;enable-background:accumulate" />
    <path
       d="m 58,14.5 a 26,1.5 0 1 1 -52,0 26,1.5 0 1 1 52,0 z"
       transform="matrix(1.576923,0,0,1,-2.4615381,13)"
       id="path3921"
       style="opacity:0.1;color:#000000;fill:url(#radialGradient3923);fill-opacity:1;fill-rule:nonzero;stroke:none;stroke-width:2;marker:none;visibility:visible;display:inline;overflow:visible;enable-background:accumulate" />
    <path
       d="m 58,14.5 a 26,1.5 0 1 1 -52,0 26,1.5 0 1 1 52,0 z"
       transform="matrix(1.576923,0,0,1,-2.4615381,18)"
       id="path3925"
       style="opacity:0.1;color:#000000;fill:url(#radialGradient3927);fill-opacity:1;fill-rule:nonzero;stroke:none;stroke-width:2;marker:none;visibility:visible;display:inline;overflow:visible;enable-background:accumulate" />
    <path
       d="m 58,14.5 a 26,1.5 0 1 1 -52,0 26,1.5 0 1 1 52,0 z"
       transform="matrix(1.576923,0,0,1,-2.4615381,23)"
       id="path3929"
       style="opacity:0.1;color:#000000;fill:url(#radialGradient3931);fill-opacity:1;fill-rule:nonzero;stroke:none;stroke-width:2;marker:none;visibility:visible;display:inline;overflow:visible;enable-background:accumulate" />
    <path
       d="m 58,14.5 a 26,1.5 0 1 1 -52,0 26,1.5 0 1 1 52,0 z"
       transform="matrix(1.576923,0,0,1,-2.4615381,28)"
       id="path3933"
       style="opacity:0.1;color:#000000;fill:url(#radialGradient3935);fill-opacity:1;fill-rule:nonzero;stroke:none;stroke-width:2;marker:none;visibility:visible;display:inline;overflow:visible;enable-background:accumulate" />
    <path
       d="m 58,14.5 a 26,1.5 0 1 1 -52,0 26,1.5 0 1 1 52,0 z"
       transform="matrix(1.576923,0,0,1,-2.4615381,33)"
       id="path3937"
       style="opacity:0.1;color:#000000;fill:url(#radialGradient3939);fill-opacity:1;fill-rule:nonzero;stroke:none;stroke-width:2;marker:none;visibility:visible;display:inline;overflow:visible;enable-background:accumulate" />
    <path
       d="m 58,14.5 a 26,1.5 0 1 1 -52,0 26,1.5 0 1 1 52,0 z"
       transform="matrix(1.576923,0,0,1,-2.4615381,38)"
       id="path3941"
       style="opacity:0.1;color:#000000;fill:url(#radialGradient3943);fill-opacity:1;fill-rule:nonzero;stroke:none;stroke-width:2;marker:none;visibility:visible;display:inline;overflow:visible;enable-background:accumulate" />
    <path
       d="m 58,14.5 a 26,1.5 0 1 1 -52,0 26,1.5 0 1 1 52,0 z"
       transform="matrix(1.576923,0,0,1,-2.4615381,43)"
       id="path3945"
       style="opacity:0.1;color:#000000;fill:url(#radialGradient3947);fill-opacity:1;fill-rule:nonzero;stroke:none;stroke-width:2;marker:none;visibility:visible;display:inline;overflow:visible;enable-background:accumulate" />
    <path
       d="m 58,14.5 a 26,1.5 0 1 1 -52,0 26,1.5 0 1 1 52,0 z"
       transform="matrix(1.576923,0,0,1,-2.4615381,48)"
       id="path3949"
       style="opacity:0.1;color:#000000;fill:url(#radialGradient3951);fill-opacity:1;fill-rule:nonzero;stroke:none;stroke-width:2;marker:none;visibility:visible;display:inline;overflow:visible;enable-background:accumulate" />
    <path
       d="m 58,14.5 a 26,1.5 0 1 1 -52,0 26,1.5 0 1 1 52,0 z"
       transform="matrix(1.576923,0,0,1,-2.4615381,53)"
       id="path3953"
       style="opacity:0.07999998;color:#000000;fill:url(#radialGradient3955);fill-opacity:1;fill-rule:nonzero;stroke:none;stroke-width:2;marker:none;visibility:visible;display:inline;overflow:visible;enable-background:accumulate" />
    <path
       d="m 58,14.5 a 26,1.5 0 1 1 -52,0 26,1.5 0 1 1 52,0 z"
       transform="matrix(1.576923,0,0,1,-2.4615381,58)"
       id="path3957"
       style="opacity:0.06000001;color:#000000;fill:url(#radialGradient3959);fill-opacity:1;fill-rule:nonzero;stroke:none;stroke-width:2;marker:none;visibility:visible;display:inline;overflow:visible;enable-background:accumulate" />
    <path
       d="m 58,14.5 a 26,1.5 0 1 1 -52,0 26,1.5 0 1 1 52,0 z"
       transform="matrix(1.576923,0,0,1,-2.4615381,63)"
       id="path3961"
       style="opacity:0.03999999;color:#000000;fill:url(#radialGradient3963);fill-opacity:1;fill-rule:nonzero;stroke:none;stroke-width:2;marker:none;visibility:visible;display:inline;overflow:visible;enable-background:accumulate" />
    <path
       d="m 58,14.5 a 26,1.5 0 1 1 -52,0 26,1.5 0 1 1 52,0 z"
       transform="matrix(1.576923,0,0,1,-2.4615381,68)"
       id="path3965"
       style="opacity:0.02000002;color:#000000;fill:url(#radialGradient3967);fill-opacity:1;fill-rule:nonzero;stroke:none;stroke-width:2;marker:none;visibility:visible;display:inline;overflow:visible;enable-background:accumulate" />
  </g>
  <g
     id="layer5"
     style="display:none">
    <rect
       width="66"
       height="62"
       rx="12"
       ry="12"
       x="15"
       y="15"
       clip-path="url(#clipPath4355)"
       id="rect3171"
       style="opacity:0.1;fill:url(#linearGradient3613);fill-opacity:1;fill-rule:nonzero;stroke:#ffffff;stroke-width:0.5;stroke-linecap:round;stroke-linejoin:miter;stroke-miterlimit:4;stroke-opacity:1;stroke-dasharray:none;stroke-dashoffset:0;filter:url(#filter3794)" />
  </g>
  <g
     id="layer6"
     style="display:inline">
    <path
       d="m 90,15 c 0,-1.662 -1.338,-3 -3,-3 l -9,0 0,68 9,0 c 1.662,0 3,-1.338 3,-3 z"
       inkscape:connector-curvature="0"
       id="path4093"
       style="opacity:0.3;color:#000000;fill:url(#radialGradient4095);fill-opacity:1;fill-rule:nonzero;stroke:none;stroke-width:1.5;marker:none;visibility:visible;display:inline;overflow:visible;enable-background:accumulate" />
    <path
       d="M 6,12 C 6,10.338 7.338,9 9,9 l 9,0 0,68 -9,0 C 7.338,77 6,75.662 6,74 z"
       inkscape:connector-curvature="0"
       id="path4097"
       style="opacity:0.45;color:#000000;fill:url(#radialGradient4099);fill-opacity:1;fill-rule:nonzero;stroke:none;stroke-width:1.5;marker:none;visibility:visible;display:inline;overflow:visible;enable-background:accumulate" />
    <path
       d="M 9,6 C 7.338,6 5.8164628,7.348165 6,9 l 0,9 84,0 0,-9 C 90,7.338 88.662,6 87,6 z"
       inkscape:connector-curvature="0"
       id="rect4076"
       style="opacity:0.8;color:#000000;fill:url(#radialGradient4089);fill-opacity:1;fill-rule:nonzero;stroke:none;stroke-width:1.5;marker:none;visibility:visible;display:inline;overflow:visible;enable-background:accumulate" />
    <path
       d="m 15.84375,15 c -0.365413,0.07716 -0.727304,0.339214 -0.78125,0.71875 -0.136955,0.509451 -0.02728,1.121057 -0.0625,1.67265 -9.31e-4,0.477268 -0.06462,1.069231 0.375,1.3586 0.749494,0.553439 1.603952,1.024272 2.394075,1.54583 0.899892,0.568057 1.799783,1.136113 2.699675,1.70417 -1.68864,1.060478 -3.368174,2.137108 -5.0625,3.1875 -0.411423,0.310905 -0.433505,0.862468 -0.40625,1.35656 0.05636,0.697554 -0.15815,1.459054 0.21875,2.08094 0.358877,0.41134 1.008249,0.484197 1.450909,0.132245 C 19.312107,27.110931 21.945893,25.44917 24.59375,23.8125 25.005173,23.501595 25.027255,22.950032 25,22.45594 24.94426,21.771116 25.14735,21.025187 24.8125,20.40625 24.240952,19.894638 23.479296,19.534858 22.824211,19.089351 20.684313,17.762289 18.549091,16.396622 16.40625,15.09375 16.221208,15.034154 16.050552,14.972054 15.84375,15 z m 10,12 c -0.432867,0.08183 -0.804495,0.431828 -0.8125,0.875 -0.07412,0.660432 -0.0095,1.378315 -0.03125,2.06046 -0.01859,0.401581 0.222707,0.736545 0.5625,0.97079 0.681304,0.183335 1.491308,0.05596 2.232898,0.09375 2.755701,0 5.511401,0 8.267102,0 0.341865,-0.02589 0.634447,-0.264829 0.84375,-0.5625 C 37.089585,29.756196 36.96221,28.946192 37,28.204602 37.0393,27.764465 36.85545,27.370809 36.46875,27.125 35.919917,26.892767 35.212694,27.04292 34.585444,27 c -2.913898,0 -5.827796,0 -8.741694,0 z"
       inkscape:connector-curvature="0"
       id="path4337"
       style="font-size:48px;font-style:normal;font-variant:normal;font-weight:bold;font-stretch:normal;text-align:start;line-height:125%;writing-mode:lr-tb;text-anchor:start;opacity:0.1;fill:#ffffff;fill-opacity:1;stroke:none;display:inline;filter:url(#filter4339-1);font-family:MgOpen Canonica;-inkscape-font-specification:MgOpen Canonica Bold" />
    <path
       d="m 15.84375,15 c -0.365413,0.07716 -0.727304,0.339214 -0.78125,0.71875 -0.136955,0.509451 -0.02728,1.121057 -0.0625,1.67265 -9.31e-4,0.477268 -0.06462,1.069231 0.375,1.3586 0.749494,0.553439 1.603952,1.024272 2.394075,1.54583 0.899892,0.568057 1.799783,1.136113 2.699675,1.70417 -1.68864,1.060478 -3.368174,2.137108 -5.0625,3.1875 -0.411423,0.310905 -0.433505,0.862468 -0.40625,1.35656 0.05636,0.697554 -0.15815,1.459054 0.21875,2.08094 0.358877,0.41134 1.008249,0.484197 1.450909,0.132245 C 19.312107,27.110931 21.945893,25.44917 24.59375,23.8125 25.005173,23.501595 25.027255,22.950032 25,22.45594 24.94426,21.771116 25.14735,21.025187 24.8125,20.40625 24.240952,19.894638 23.479296,19.534858 22.824211,19.089351 20.684313,17.762289 18.549091,16.396622 16.40625,15.09375 16.221208,15.034154 16.050552,14.972054 15.84375,15 z m 10,12 c -0.432867,0.08183 -0.804495,0.431828 -0.8125,0.875 -0.07412,0.660432 -0.0095,1.378315 -0.03125,2.06046 -0.01859,0.401581 0.222707,0.736545 0.5625,0.97079 0.681304,0.183335 1.491308,0.05596 2.232898,0.09375 2.755701,0 5.511401,0 8.267102,0 0.341865,-0.02589 0.634447,-0.264829 0.84375,-0.5625 C 37.089585,29.756196 36.96221,28.946192 37,28.204602 37.0393,27.764465 36.85545,27.370809 36.46875,27.125 35.919917,26.892767 35.212694,27.04292 34.585444,27 c -2.913898,0 -5.827796,0 -8.741694,0 z"
       inkscape:connector-curvature="0"
       id="path4333"
       style="font-size:48px;font-style:normal;font-variant:normal;font-weight:bold;font-stretch:normal;text-align:start;line-height:125%;writing-mode:lr-tb;text-anchor:start;opacity:0.05;fill:#ffffff;fill-opacity:1;stroke:none;display:inline;font-family:MgOpen Canonica;-inkscape-font-specification:MgOpen Canonica Bold" />
    <path
       d="M 23.90625,23.59375 A 0.40757592,0.40757592 0 0 0 23.59375,24 l 0,2 a 0.40757592,0.40757592 0 0 0 0.1875,0.34375 L 29.5625,30 23.78125,33.65625 A 0.40757592,0.40757592 0 0 0 23.59375,34 l 0,2 a 0.40757592,0.40757592 0 0 0 0.625,0.34375 l 8,-5 A 0.40757592,0.40757592 0 0 0 32.40625,31 l 0,-2 a 0.40757592,0.40757592 0 0 0 -0.1875,-0.34375 l -8,-5 a 0.40757592,0.40757592 0 0 0 -0.3125,-0.0625 z m 10,12 A 0.40757592,0.40757592 0 0 0 33.59375,36 l 0,2 A 0.40757592,0.40757592 0 0 0 34,38.40625 l 10,0 A 0.40757592,0.40757592 0 0 0 44.40625,38 l 0,-2 A 0.40757592,0.40757592 0 0 0 44,35.59375 l -10,0 a 0.40757592,0.40757592 0 0 0 -0.09375,0 z"
       transform="translate(-8,-8)"
       id="path4329"
       style="font-size:48px;font-style:normal;font-variant:normal;font-weight:bold;font-stretch:normal;text-align:start;line-height:125%;writing-mode:lr-tb;text-anchor:start;opacity:0.2;fill:#ffffff;fill-opacity:1;stroke:none;display:inline;font-family:MgOpen Canonica;-inkscape-font-specification:MgOpen Canonica Bold" />
    <path
       d="m 16,16 0,2 6.3125,4 -6.3125,4 0,2 8,-5 0,-2 -8,-5 z m 10,12 0,2 10,0 0,-2 -10,0 z"
       inkscape:connector-curvature="0"
       id="path3213"
       style="font-size:48px;font-style:normal;font-variant:normal;font-weight:bold;font-stretch:normal;text-align:start;line-height:125%;writing-mode:lr-tb;text-anchor:start;fill:#ffffff;fill-opacity:1;stroke:none;display:inline;font-family:MgOpen Canonica;-inkscape-font-specification:MgOpen Canonica Bold" />
  </g>
</svg>
