<svg enable-background="new" height="96" width="96" xmlns="http://www.w3.org/2000/svg" xmlns:xlink="http://www.w3.org/1999/xlink"><linearGradient id="a"><stop offset="0" stop-color="#fff"/><stop offset="1" stop-color="#fff" stop-opacity="0"/></linearGradient><linearGradient id="b"><stop offset="0" stop-color="#949494" stop-opacity=".59842521"/><stop offset=".5" stop-color="#949494" stop-opacity=".21259843"/><stop offset="1" stop-color="#949494" stop-opacity="0"/></linearGradient><linearGradient id="c"><stop offset="0" stop-color="#c9c9c9"/><stop offset="1" stop-color="#c9c9c9" stop-opacity="0"/></linearGradient><linearGradient id="d" gradientTransform="matrix(1.0058652 0 0 .994169 100 0)" gradientUnits="userSpaceOnUse" x1="45.447727" x2="45.447727" y1="92.539597" y2="7.0165396"><stop offset="0"/><stop offset="1" stop-opacity=".58823532"/></linearGradient><linearGradient id="e" gradientTransform="matrix(1.0238095 0 0 1.0119048 -1.1428571 -98.071429)" gradientUnits="userSpaceOnUse" x1="32.251034" x2="32.251034" xlink:href="#d" y1="6.1317081" y2="90.238609"/><linearGradient id="f" gradientTransform="translate(0 -97)" gradientUnits="userSpaceOnUse" x1="32.251034" x2="32.251034" xlink:href="#d" y1="6.1317081" y2="90.238609"/><radialGradient id="g" cx="48" cy="87.792389" gradientTransform="matrix(1 -.00000007 .00000008 1.2557894 109.99999 -24.505592)" gradientUnits="userSpaceOnUse" r="42"><stop offset="0" stop-color="#fff" stop-opacity=".71755725"/><stop offset="1" stop-color="#fff"/></radialGradient><linearGradient id="h" gradientTransform="matrix(1 0 0 -1 0 92)" gradientUnits="userSpaceOnUse" x1="48" x2="48" xlink:href="#c" y1="88" y2="-40"/><linearGradient id="i" gradientUnits="userSpaceOnUse" spreadMethod="reflect" x1="48" x2="112.12357" xlink:href="#c" y1="82" y2="82.454597"/><linearGradient id="j" gradientUnits="userSpaceOnUse" spreadMethod="reflect" x1="90" x2="48" y1="88" y2="88"><stop offset="0" stop-opacity=".58823532"/><stop offset=".11780351" stop-opacity=".47058824"/><stop offset=".23809524" stop-opacity=".39215687"/><stop offset="1" stop-opacity=".3137255"/></linearGradient><radialGradient id="k" cx="48" cy="3.0000064" gradientTransform="matrix(-1.0277778 0 0 -.22222219 97.333337 6.666668)" gradientUnits="userSpaceOnUse" r="36" xlink:href="#b"/><radialGradient id="l" cx="47.099998" cy="-18.000002" gradientTransform="matrix(.02777778 .94444447 -.16659462 .00489984 85.692963 1.604863)" gradientUnits="userSpaceOnUse" r="36" xlink:href="#b"/><radialGradient id="m" cx="14.700001" cy="-12.000003" gradientTransform="matrix(0 .86111111 .16666666 0 9 12.341666)" gradientUnits="userSpaceOnUse" r="36" xlink:href="#b"/><radialGradient id="n" cx="-26.75" cy="48" gradientTransform="matrix(1.7142857 -.00000001 .00000002 2.0952381 21.857142 -52.571429)" gradientUnits="userSpaceOnUse" r="42"><stop offset="0" stop-color="#4b4b4b"/><stop offset="1" stop-color="#141414"/></radialGradient><radialGradient id="o" cx="32" cy="14.5" gradientTransform="matrix(1 0 0 .05769231 0 13.663462)" gradientUnits="userSpaceOnUse" r="26" xlink:href="#a"/><filter id="p" color-interpolation-filters="sRGB" height="1.2849866" width="1.2072798" x="-.10363991" y="-.14249329"><feGaussianBlur stdDeviation=".95086131"/></filter><linearGradient id="q" gradientUnits="userSpaceOnUse" x1="65" x2="65" xlink:href="#a" y1="6" y2="86"/><path d="m12-95.03125c-5.5110903 0-10.03125 4.52016-10.03125 10.03125v71c0 5.5110902 4.5201598 10.03125 10.03125 10.03125h72c5.51109 0 10.03125-4.5201597 10.03125-10.03125v-71c0-5.51109-4.52016-10.03125-10.03125-10.03125z" fill="url(#e)" opacity=".07999998" transform="scale(1 -1)"/><path d="m12-94.03125c-4.971633 0-9.03125 4.059617-9.03125 9.03125v71c0 4.9716329 4.0596171 9.03125 9.03125 9.03125h72c4.971633 0 9.03125-4.059617 9.03125-9.03125v-71c0-4.971633-4.059617-9.03125-9.03125-9.03125z" fill="url(#e)" opacity=".1" transform="scale(1 -1)"/><path d="m12-93c-4.4091333 0-8 3.590867-8 8v71c0 4.4091333 3.5908667 8 8 8h72c4.409133 0 8-3.5908667 8-8v-71c0-4.409133-3.590867-8-8-8z" fill="url(#e)" opacity=".2" transform="scale(1 -1)"/><rect fill="url(#e)" height="85" opacity=".3" rx="7" transform="scale(1 -1)" width="86" x="5" y="-92"/><rect fill="url(#f)" height="84" opacity=".45" rx="6" transform="scale(1 -1)" width="84" x="6" y="-91"/><rect fill="url(#n)" height="84" rx="6" transform="rotate(-90)" width="84" x="-90" y="6"/><path d="m120.78125 6.125c-2.73902.5576484-4.78125 2.9665-4.78125 5.875v68c0 3.324 2.676 6 6 6h72c3.324 0 6-2.676 6-6v-68c0-2.9085-2.04223-5.3173516-4.78125-5.875 2.20512.5362071 3.8125 2.4908437 3.8125 4.875v68c0 2.80489-2.22636 5.03125-5.03125 5.03125h-72c-2.80489 0-5.03125-2.22636-5.03125-5.03125v-68c0-2.3841563 1.60738-4.3387929 3.8125-4.875z" fill="url(#g)" opacity=".2"/><path d="m12 86c-3.324 0-6-2.676-6-6v-68c0-3.324 2.676-6 6-6h72c3.324 0 6 2.676 6 6v68c0 3.324-2.676 6-6 6zm0-.96875h72c2.80489 0 5.03125-2.22636 5.03125-5.03125v-68c0-2.80489-2.22636-5.03125-5.03125-5.03125h-72c-2.80489 0-5.03125 2.22636-5.03125 5.03125v68c0 2.80489 2.22636 5.03125 5.03125 5.03125z" fill="url(#h)" opacity=".25"/><path d="m6 78v2c0 3.324 2.676 6 6 6h72c3.324 0 6-2.676 6-6v-2c0 3.324-2.676 6-6 6h-72c-3.324 0-6-2.676-6-6z" fill="url(#i)" opacity=".1"/><path d="m6 100v1c0 3.324 2.676 6 6 6h72c3.324 0 6-2.676 6-6v-1c0 3.324-2.676 6-6 6h-72c-3.324 0-6-2.676-6-6z" opacity=".15"/><path d="m48 6l24 80h17.65625c.220137-.625762.34375-1.297112.34375-2v-72c0-3.324-2.676-6-6-6z" fill="url(#q)" opacity=".15"/><path d="m6 80v4c0 3.324 2.676 6 6 6h72c3.324 0 6-2.676 6-6v-4c0 3.324-2.676 6-6 6h-72c-3.324 0-6-2.676-6-6z" fill="url(#j)"/><path d="m6 82v2c0 3.324 2.676 6 6 6h72c3.324 0 6-2.676 6-6v-2c0 3.324-2.676 6-6 6h-72c-3.324 0-6-2.676-6-6z" opacity=".1" overflow="visible"/><path d="m6 83v1c0 3.324 2.676 6 6 6h72c3.324 0 6-2.676 6-6v-1c0 3.324-2.676 6-6 6h-72c-3.324 0-6-2.676-6-6z" opacity=".15" overflow="visible"/><g opacity=".5"><path d="m58 14.5a26 1.5 0 1 1 -52 0 26 1.5 0 1 1  52 0z" fill="url(#o)" opacity=".02000002" overflow="visible" transform="matrix(1.576923 0 0 1 -2.4615381 -7)"/><path d="m58 14.5a26 1.5 0 1 1 -52 0 26 1.5 0 1 1  52 0z" fill="url(#o)" opacity=".03999999" overflow="visible" transform="matrix(1.576923 0 0 1 -2.4615381 -2)"/><path d="m58 14.5a26 1.5 0 1 1 -52 0 26 1.5 0 1 1  52 0z" fill="url(#o)" opacity=".06000001" overflow="visible" transform="matrix(1.576923 0 0 1 -2.4615381 3)"/><path d="m58 14.5a26 1.5 0 1 1 -52 0 26 1.5 0 1 1  52 0z" fill="url(#o)" opacity=".07999998" overflow="visible" transform="matrix(1.576923 0 0 1 -2.4615381 8)"/><path d="m58 14.5a26 1.5 0 1 1 -52 0 26 1.5 0 1 1  52 0z" fill="url(#o)" opacity=".1" overflow="visible" transform="matrix(1.576923 0 0 1 -2.4615381 13)"/><path d="m58 14.5a26 1.5 0 1 1 -52 0 26 1.5 0 1 1  52 0z" fill="url(#o)" opacity=".1" overflow="visible" transform="matrix(1.576923 0 0 1 -2.4615381 18)"/><path d="m58 14.5a26 1.5 0 1 1 -52 0 26 1.5 0 1 1  52 0z" fill="url(#o)" opacity=".1" overflow="visible" transform="matrix(1.576923 0 0 1 -2.4615381 23)"/><path d="m58 14.5a26 1.5 0 1 1 -52 0 26 1.5 0 1 1  52 0z" fill="url(#o)" opacity=".1" overflow="visible" transform="matrix(1.576923 0 0 1 -2.4615381 28)"/><path d="m58 14.5a26 1.5 0 1 1 -52 0 26 1.5 0 1 1  52 0z" fill="url(#o)" opacity=".1" overflow="visible" transform="matrix(1.576923 0 0 1 -2.4615381 33)"/><path d="m58 14.5a26 1.5 0 1 1 -52 0 26 1.5 0 1 1  52 0z" fill="url(#o)" opacity=".1" overflow="visible" transform="matrix(1.576923 0 0 1 -2.4615381 38)"/><path d="m58 14.5a26 1.5 0 1 1 -52 0 26 1.5 0 1 1  52 0z" fill="url(#o)" opacity=".1" overflow="visible" transform="matrix(1.576923 0 0 1 -2.4615381 43)"/><path d="m58 14.5a26 1.5 0 1 1 -52 0 26 1.5 0 1 1  52 0z" fill="url(#o)" opacity=".1" overflow="visible" transform="matrix(1.576923 0 0 1 -2.4615381 48)"/><path d="m58 14.5a26 1.5 0 1 1 -52 0 26 1.5 0 1 1  52 0z" fill="url(#o)" opacity=".07999998" overflow="visible" transform="matrix(1.576923 0 0 1 -2.4615381 53)"/><path d="m58 14.5a26 1.5 0 1 1 -52 0 26 1.5 0 1 1  52 0z" fill="url(#o)" opacity=".06000001" overflow="visible" transform="matrix(1.576923 0 0 1 -2.4615381 58)"/><path d="m58 14.5a26 1.5 0 1 1 -52 0 26 1.5 0 1 1  52 0z" fill="url(#o)" opacity=".03999999" overflow="visible" transform="matrix(1.576923 0 0 1 -2.4615381 63)"/><path d="m58 14.5a26 1.5 0 1 1 -52 0 26 1.5 0 1 1  52 0z" fill="url(#o)" opacity=".02000002" overflow="visible" transform="matrix(1.576923 0 0 1 -2.4615381 68)"/></g><path d="m90 15c0-1.662-1.338-3-3-3h-9v68h9c1.662 0 3-1.338 3-3z" fill="url(#l)" opacity=".3" overflow="visible"/><path d="m6 12c0-1.662 1.338-3 3-3h9v68h-9c-1.662 0-3-1.338-3-3z" fill="url(#m)" opacity=".45" overflow="visible"/><path d="m9 6c-1.662 0-3.1835372 1.348165-3 3v9h84v-9c0-1.662-1.338-3-3-3z" fill="url(#k)" opacity=".8" overflow="visible"/><path d="m15.84375 15c-.365413.07716-.727304.339214-.78125.71875-.136955.509451-.02728 1.121057-.0625 1.67265-.000931.477268-.06462 1.069231.375 1.3586.749494.553439 1.603952 1.024272 2.394075 1.54583.899892.568057 1.799783 1.136113 2.699675 1.70417-1.68864 1.060478-3.368174 2.137108-5.0625 3.1875-.411423.310905-.433505.862468-.40625 1.35656.05636.697554-.15815 1.459054.21875 2.08094.358877.41134 1.008249.484197 1.450909.132245 2.642448-1.646314 5.276234-3.308075 7.924091-4.944745.411423-.310905.433505-.862468.40625-1.35656-.05574-.684824.14735-1.430753-.1875-2.04969-.571548-.511612-1.333204-.871392-1.988289-1.316899-2.139898-1.327062-4.27512-2.692729-6.417961-3.995601-.185042-.059596-.355698-.121696-.5625-.09375zm10 12c-.432867.08183-.804495.431828-.8125.875-.07412.660432-.0095 1.378315-.03125 2.06046-.01859.401581.222707.736545.5625.97079.681304.183335 1.491308.05596 2.232898.09375 2.755701 0 5.511401 0 8.267102 0 .341865-.02589.634447-.264829.84375-.5625.183335-.681304.05596-1.491308.09375-2.232898.0393-.440137-.14455-.833793-.53125-1.079602-.548833-.232233-1.256056-.08208-1.883306-.125-2.913898 0-5.827796 0-8.741694 0z" fill="#fff" filter="url(#p)" opacity=".1"/><path d="m15.84375 15c-.365413.07716-.727304.339214-.78125.71875-.136955.509451-.02728 1.121057-.0625 1.67265-.000931.477268-.06462 1.069231.375 1.3586.749494.553439 1.603952 1.024272 2.394075 1.54583.899892.568057 1.799783 1.136113 2.699675 1.70417-1.68864 1.060478-3.368174 2.137108-5.0625 3.1875-.411423.310905-.433505.862468-.40625 1.35656.05636.697554-.15815 1.459054.21875 2.08094.358877.41134 1.008249.484197 1.450909.132245 2.642448-1.646314 5.276234-3.308075 7.924091-4.944745.411423-.310905.433505-.862468.40625-1.35656-.05574-.684824.14735-1.430753-.1875-2.04969-.571548-.511612-1.333204-.871392-1.988289-1.316899-2.139898-1.327062-4.27512-2.692729-6.417961-3.995601-.185042-.059596-.355698-.121696-.5625-.09375zm10 12c-.432867.08183-.804495.431828-.8125.875-.07412.660432-.0095 1.378315-.03125 2.06046-.01859.401581.222707.736545.5625.97079.681304.183335 1.491308.05596 2.232898.09375 2.755701 0 5.511401 0 8.267102 0 .341865-.02589.634447-.264829.84375-.5625.183335-.681304.05596-1.491308.09375-2.232898.0393-.440137-.14455-.833793-.53125-1.079602-.548833-.232233-1.256056-.08208-1.883306-.125-2.913898 0-5.827796 0-8.741694 0z" fill="#fff" opacity=".05"/><path d="m23.90625 23.59375a.40757592.40757592 0 0 0 -.3125.40625v2a .40757592.40757592 0 0 0  .1875.34375l5.78125 3.65625-5.78125 3.65625a.40757592.40757592 0 0 0 -.1875.34375v2a .40757592.40757592 0 0 0  .625.34375l8-5a .40757592.40757592 0 0 0  .1875-.34375v-2a .40757592.40757592 0 0 0 -.1875-.34375l-8-5a .40757592.40757592 0 0 0 -.3125-.0625zm10 12a .40757592.40757592 0 0 0 -.3125.40625v2a .40757592.40757592 0 0 0  .40625.40625h10a .40757592.40757592 0 0 0  .40625-.40625v-2a .40757592.40757592 0 0 0 -.40625-.40625h-10a .40757592.40757592 0 0 0 -.09375 0z" fill="#fff" opacity=".2" transform="translate(-8 -8)"/><path d="m16 16v2l6.3125 4-6.3125 4v2l8-5v-2zm10 12v2h10v-2z" fill="#fff"/></svg>