<svg height="96" width="96" xmlns="http://www.w3.org/2000/svg" xmlns:xlink="http://www.w3.org/1999/xlink"><linearGradient id="a"><stop offset="0" stop-color="#fff"/><stop offset="1" stop-color="#fff" stop-opacity="0"/></linearGradient><linearGradient id="b" gradientTransform="scale(1.0598527 .9435274)" gradientUnits="userSpaceOnUse" x1="48.035713" x2="48.035713" y1="25.910715" y2="85.821426"><stop offset="0" stop-color="#c6953a"/><stop offset="1" stop-color="#ab7a1f"/></linearGradient><linearGradient id="c" gradientTransform="matrix(1.0058652 0 0 .994169 0 12)" gradientUnits="userSpaceOnUse" x1="45.447727" x2="45.447727" y1="80.471962" y2="7.0165396"><stop offset="0"/><stop offset="1" stop-opacity=".58823532"/></linearGradient><linearGradient id="d" gradientUnits="userSpaceOnUse" x1="48" x2="48" y1="86" y2="13.9877172"><stop offset="0" stop-color="#c29656"/><stop offset="1" stop-color="#ddc08b"/></linearGradient><clipPath id="e"><rect height="72" rx="6" width="84" x="6" y="18"/></clipPath><filter id="f" color-interpolation-filters="sRGB" height="1.3943198" width="1.331176" x="-.16558799" y="-.19715989"><feGaussianBlur stdDeviation="5.1703125"/></filter><linearGradient id="g" gradientUnits="userSpaceOnUse" x1="48.021698" x2="48.021698" xlink:href="#a" y1="22.933374" y2="81.481377"/><linearGradient id="h" gradientUnits="userSpaceOnUse" x1="27.018948" x2="27.018948" y1="6.19809576" y2="13.91044992"><stop offset="0" stop-color="#dab980"/><stop offset=".71691591" stop-color="#c29856"/><stop offset="1" stop-color="#a2773a"/></linearGradient><linearGradient id="i" gradientUnits="userSpaceOnUse" x1="43" x2="43" xlink:href="#c" y1="91" y2="7"/><linearGradient id="j" gradientUnits="userSpaceOnUse" x1="45" x2="45" xlink:href="#c" y1="92" y2="7"/><radialGradient id="k" cx="48" cy="90.171875" gradientTransform="matrix(1.1573129 0 0 .99590774 -7.551021 .197132)" gradientUnits="userSpaceOnUse" r="42" xlink:href="#a"/><linearGradient id="l" gradientUnits="userSpaceOnUse" x1="36.357143" x2="36.357143" xlink:href="#a" y1="16" y2="73.994667"/><path d="m14.125 4c-4.4339296 0-8.125 3.568413-8.125 8v2.15625c-2.3764039 1.802117-4 4.602795-4 7.84375v63c0 5.503629 4.496371 10 10 10h72c5.503629 0 10-4.496371 10-10v-63c0-3.483399-1.853393-6.453106-4.53125-8.21875-.987199-3.289512-3.942726-5.78125-7.59375-5.78125h-39.5c-1.402648-1.354823-2.539671-2.5096216-3.6875-3.15625-1.495213-.8423269-2.930851-.8142088-3.8125-.84375a.92780092.92780092 0 0 0 -.03125 0c-.0012-.0000173-.03009-.0000173-.03125 0h-.03125z" fill="url(#j)" opacity=".07999998"/><path d="m14.125 4.9375c-3.940593 0-7.1875 3.1432925-7.1875 7.0625v2.59375c-2.3826099 1.622076-4 4.293928-4 7.40625v63c0 5.001444 4.0610559 9.0625 9.0625 9.0625h72c5.001444 0 9.0625-4.061056 9.0625-9.0625v-63c0-3.260846-1.77319-6.039741-4.34375-7.625-.761191-3.095675-3.477261-5.4375-6.84375-5.4375h-39.8125c-1.597479-1.5411943-2.772062-2.6775158-3.84375-3.28125-1.273179-.7172441-2.447473-.6876716-3.375-.71875a1.043776 1.043776 0 0 0 -.03125 0c-.000001 0-.03125 0-.03125 0z" fill="url(#j)" opacity=".1"/><path d="m14.125 5.96875c-3.388674 0-6.15625 2.6880206-6.15625 6.03125v3.125c-2.3751432 1.394016-4 3.920462-4 6.875v63c0 4.438141 3.5931086 8.03125 8.03125 8.03125h72c4.438141 0 8.03125-3.593109 8.03125-8.03125v-63c0-3.031992-1.712245-5.604362-4.1875-6.96875-.491893-2.85962-2.928643-5.0625-5.96875-5.0625h-40.1875c-1.834833-1.7748421-3.008637-2.8653713-3.96875-3.40625-1.037275-.5843477-1.940446-.5613891-2.90625-.59375a1.043776 1.043776 0 0 0 -.03125 0z" fill="url(#j)" opacity=".2"/><path d="m14.125 7c-2.842895 0-5.125 2.23-5.125 5v3.6875c-2.3640592 1.121384-4 3.512842-4 6.3125v63c0 3.878 3.122 7 7 7h72c3.878 0 7-3.122 7-7v-63c0-2.809736-1.653368-5.196371-4.03125-6.3125-.169649-2.618425-2.362165-4.6875-5.09375-4.6875h-40.59375c-4.220528-4.1123102-4.502768-3.9330794-6.5-4z" fill="url(#j)" opacity=".3"/><path d="m15 7c-2.77 0-5 2.23-5 5v3.34375c-2.3335067.820906-4 3.035137-4 5.65625v64c0 3.324 2.676 6 6 6h72c3.324 0 6-2.676 6-6v-64c0-2.641888-1.699863-4.851225-4.0625-5.65625-.326036-2.450302-2.395226-4.34375-4.9375-4.34375h-40.53125c-4.11231-4.1123102-4.366479-3.9330794-6.3125-4z" fill="url(#i)" opacity=".45"/><rect fill="url(#b)" height="62.678574" rx="6" width="75" x="10.535714" y="23.142857"/><path d="m15 6c-2.77 0-5 2.23-5 5v59.8125c0 2.39328 1.91922 4.3125 4.3125 4.3125h67.375c2.39328 0 4.3125-1.91922 4.3125-4.3125v-55.8125c0-2.77-2.23-5-5-5h-40.53125c-4.11231-4.1123102-4.366479-3.9330794-6.3125-4z" fill="url(#h)"/><path d="m15 6c-2.77 0-5 2.23-5 5v59.8125c0 2.39328 1.91922 4.3125 4.3125 4.3125h67.375c2.39328 0 4.3125-1.91922 4.3125-4.3125v-55.8125c0-2.77-2.23-5-5-5h-40.53125c-4.11231-4.1123102-4.366479-3.9330794-6.3125-4zm0 1.03125h19.125.03125c.964976.031157 1.192535-.016972 1.8125.34375.630289.366729 1.706808 1.3318077 3.75 3.375a1.043776 1.043776 0 0 0  .75.28125h40.53125c2.209859 0 3.96875 1.758891 3.96875 3.96875v55.8125c0 1.835319-1.445931 3.28125-3.28125 3.28125h-67.375c-1.835319 0-3.28125-1.445931-3.28125-3.28125v-59.8125c0-2.2098586 1.758891-3.96875 3.96875-3.96875z" fill="#fff" opacity=".2"/><rect fill="url(#d)" height="76" rx="6" width="84" x="6" y="14"/><path d="m12 14c-3.324 0-6 2.676-6 6v2 60 2c0 .334721.04135.6507.09375.96875.0487.295596.09704.596915.1875.875.00988.03038.020892.0636.03125.09375.098865.287771.2348802.547452.375.8125.1445918.273507.3156161.535615.5.78125.1843839.245635.3737765.473472.59375.6875.439947.428056.94291.814526 1.5 1.09375.278545.139612.5734731.246947.875.34375-.2562018-.100222-.4867109-.236272-.71875-.375-.00741-.0044-.023866.0045-.03125 0-.031933-.0193-.062293-.04251-.09375-.0625-.120395-.0767-.2310226-.163513-.34375-.25-.1061728-.0808-.2132809-.161112-.3125-.25-.1779299-.161433-.3474596-.345388-.5-.53125-.1075789-.130255-.2183939-.265285-.3125-.40625-.025089-.03838-.038446-.08587-.0625-.125-.064763-.103032-.1302275-.204517-.1875-.3125-.1010083-.194706-.2056748-.415701-.28125-.625-.00796-.02181-.023589-.04055-.03125-.0625-.0318251-.09195-.0358045-.186831-.0625-.28125-.0303323-.106618-.0703894-.203031-.09375-.3125-.0728786-.341512-.125-.698205-.125-1.0625v-2-60-2c0-2.781848 2.2181517-5 5-5h2 68 2c2.781848 0 5 2.218152 5 5v2 60 2c0 .364295-.05212.720988-.125 1.0625-.04415.206893-.08838.397658-.15625.59375-.0077.02195-.0233.04069-.03125.0625-.06274.173739-.138383.367449-.21875.53125-.04158.0828-.07904.169954-.125.25-.0546.09721-.126774.18835-.1875.28125-.09411.140965-.204921.275995-.3125.40625-.143174.17445-.303141.346998-.46875.5-.01117.0102-.01998.02115-.03125.03125-.138386.125556-.285091.234436-.4375.34375-.102571.07315-.204318.153364-.3125.21875-.0074.0045-.02384-.0044-.03125 0-.232039.138728-.462548.274778-.71875.375.301527-.0968.596455-.204138.875-.34375.55709-.279224 1.060053-.665694 1.5-1.09375.219973-.214028.409366-.441865.59375-.6875.184384-.245635.355408-.507743.5-.78125.14012-.265048.276135-.524729.375-.8125.01041-.03078.02133-.06274.03125-.09375.09046-.278085.1388-.579404.1875-.875.0524-.31805.09375-.634029.09375-.96875v-2-60-2c0-3.324-2.676-6-6-6z" fill="url(#l)" opacity=".35"/><path d="m12 90c-3.324 0-6-2.676-6-6v-2-56-2c0-.334721.04135-.6507.09375-.96875.0487-.295596.09704-.596915.1875-.875.00988-.03038.020892-.0636.03125-.09375.098865-.287771.2348802-.547452.375-.8125.1445918-.273507.3156161-.535615.5-.78125.1843839-.245635.3737765-.473472.59375-.6875.439947-.428056.94291-.814526 1.5-1.09375.278545-.139612.5734731-.246947.875-.34375-.2562018.100222-.4867109.236272-.71875.375-.00741.0044-.023866-.0045-.03125 0-.031933.0193-.062293.04251-.09375.0625-.120395.0767-.2310226.163513-.34375.25-.1061728.0808-.2132809.161112-.3125.25-.1779299.161433-.3474596.345388-.5.53125-.1075789.130255-.2183939.265285-.3125.40625-.025089.03838-.038446.08587-.0625.125-.064763.103032-.1302275.204517-.1875.3125-.1010083.194706-.2056748.415701-.28125.625-.00796.02181-.023589.04055-.03125.0625-.0318251.09195-.0358045.186831-.0625.28125-.0303323.106618-.0703894.203031-.09375.3125-.0728786.341512-.125.698205-.125 1.0625v2 56 2c0 2.781848 2.2181517 5 5 5h2 68 2c2.781848 0 5-2.218152 5-5v-2-56-2c0-.364295-.05212-.720988-.125-1.0625-.04415-.206893-.08838-.397658-.15625-.59375-.0077-.02195-.0233-.04069-.03125-.0625-.06274-.173739-.138383-.367449-.21875-.53125-.04158-.0828-.07904-.169954-.125-.25-.0546-.09721-.126774-.18835-.1875-.28125-.09411-.140965-.204921-.275995-.3125-.40625-.143174-.17445-.303141-.346998-.46875-.5-.01117-.0102-.01998-.02115-.03125-.03125-.138386-.125556-.285091-.234436-.4375-.34375-.102571-.07315-.204318-.153364-.3125-.21875-.0074-.0045-.02384.0044-.03125 0-.232039-.138728-.462548-.274778-.71875-.375.301527.0968.596455.204138.875.34375.55709.279224 1.060053.665694 1.5 1.09375.219973.214028.409366.441865.59375.6875.184384.245635.355408.507743.5.78125.14012.265048.276135.524729.375.8125.01041.03078.02133.06274.03125.09375.09046.278085.1388.579404.1875.875.0524.31805.09375.634029.09375.96875v2 56 2c0 3.324-2.676 6-6 6z" fill="url(#k)" opacity=".2"/><path clip-path="url(#e)" d="m15.96875 22.53125c-2.845903.0043-5.433244 2.591597-5.4375 5.4375v48.0625c.0043 2.845903 2.591597 5.433244 5.4375 5.4375h64.0625c2.845903-.0043 5.433244-2.591597 5.4375-5.4375v-48.0625c-.0043-2.845903-2.591597-5.433244-5.4375-5.4375z" fill="url(#g)" filter="url(#f)" opacity=".15"/></svg>