<svg enable-background="new" height="102.4" width="102.4" xmlns="http://www.w3.org/2000/svg" xmlns:xlink="http://www.w3.org/1999/xlink"><linearGradient id="a" gradientUnits="userSpaceOnUse" x1="51.2000016" x2="51.2000016" y1="96.000003" y2="6.38689855"><stop offset="0" stop-color="#404040"/><stop offset="1" stop-color="#808080"/></linearGradient><radialGradient id="b" cx="48" cy="-14.78724" gradientTransform="matrix(0 1.0591161 -1.0684903 0 35.399977 -44.324099)" gradientUnits="userSpaceOnUse" r="42"><stop offset="0" stop-color="#a0a0a0"/><stop offset="1" stop-color="#a0a0a0" stop-opacity="0"/></radialGradient><linearGradient id="c" gradientUnits="userSpaceOnUse" x1="38.78095375" x2="38.78095375" y1="6.4000002" y2="68.152688"><stop offset="0" stop-color="#fff"/><stop offset="1" stop-color="#fff" stop-opacity="0"/></linearGradient><linearGradient id="d" gradientTransform="matrix(1.0058652 0 0 .994169 100 0)" gradientUnits="userSpaceOnUse" x1="45.447727" x2="45.447727" y1="92.539597" y2="7.0165396"><stop offset="0"/><stop offset="1" stop-opacity=".58823532"/></linearGradient><linearGradient id="e" gradientTransform="matrix(1.0920635 0 0 -1.0793651 -1.2190476 104.60952)" gradientUnits="userSpaceOnUse" x1="32.251034" x2="32.251034" xlink:href="#d" y1="6.1317081" y2="90.238609"/><linearGradient id="f" gradientTransform="matrix(1.0920635 0 0 1.0793651 -1.2190476 -104.60952)" gradientUnits="userSpaceOnUse" x1="32.251034" x2="32.251034" xlink:href="#d" y1="6.1317081" y2="90.238609"/><linearGradient id="g" gradientTransform="matrix(1.0666667 0 0 1.0666667 0 -103.46667)" gradientUnits="userSpaceOnUse" x1="32.251034" x2="32.251034" xlink:href="#d" y1="6.1317081" y2="90.238609"/><filter id="h" height="1.6042104" width="1.2348413" x="-.11742067" y="-.30210519"><feGaussianBlur stdDeviation="26.797918"/></filter><g><path d="m12.8 101.36667c-5.8784963 0-10.7-4.821507-10.7-10.700003v-75.733334c0-5.8784959 4.8215038-10.6999997 10.7-10.6999997h76.8c5.878496 0 10.7 4.8215037 10.7 10.6999997v75.733334c0 5.878496-4.821504 10.700003-10.7 10.700003z" fill="url(#e)" opacity=".07999998"/><path d="m12.8 100.3c-5.3030752 0-9.6333333-4.330258-9.6333333-9.633333v-75.733334c0-5.3030748 4.3302582-9.633333 9.6333333-9.633333h76.8c5.303075 0 9.633333 4.3302581 9.633333 9.633333v75.733334c0 5.303075-4.330258 9.633333-9.633333 9.633333z" fill="url(#e)" opacity=".1"/><path d="m12.8 99.2c-4.7030755 0-8.5333333-3.830258-8.5333333-8.533333v-75.733334c0-4.703075 3.8302578-8.533333 8.5333333-8.533333h76.8c4.703075 0 8.533333 3.830258 8.533333 8.533333v75.733334c0 4.703075-3.830258 8.533333-8.533333 8.533333z" fill="url(#e)" opacity=".2"/><rect fill="url(#f)" height="90.666664" opacity=".3" rx="7.4666667" transform="scale(1 -1)" width="91.73333" x="5.3333335" y="-98.133331"/><rect fill="url(#g)" height="89.599998" opacity=".45" rx="6.4000001" transform="scale(1 -1)" width="89.599998" x="6.4000001" y="-97.066666"/></g><g><path d="m12.8 6.4c-3.5456 0-6.4 2.8544-6.4 6.4v2.133333 72.533334 2.133333c0 .357036.044107.69408.1 1.033333.051947.315303.1035093.63671.2.933334.010539.03241.022285.06784.033333.1.105456.306955.2505389.583948.4.866666.1542313.291741.3366572.571323.5333334.833334.1966764.26201.3986952.505036.6333336.733333.4692768.456593 1.0057707.868828 1.6 1.166667.297115.148919.611705.26341.933333.366666-.273282-.106903-.519158-.252023-.766666-.4-.0079-.0047-.02546.0048-.03333 0-.034061-.02059-.066446-.04534-.1-.06667-.128425-.08181-.2464278-.17441-.3666703-.266663-.113251-.086187-.2274997-.171853-.3333334-.266667-.1897919-.172195-.3706235-.368414-.5333333-.566666-.1147508-.138939-.2329535-.282971-.3333333-.433334-.0267616-.040938-.0410091-.091594-.0666667-.133333-.0690805-.109901-.1389093-.218151-.2-.333333-.1077422-.207687-.2193865-.443415-.3-.666667-.0084907-.023264-.0251616-.043253-.0333333-.066667-.0339468-.09808-.0381915-.199286-.0666667-.3-.0323545-.113726-.075082-.216566-.1-.333333-.0777372-.364279-.1333333-.744752-.1333333-1.133333v-2.133334-72.533333-2.133333c0-2.967305 2.3660284-5.3333337 5.3333333-5.3333337h2.133333 72.533334 2.133333c2.967305 0 5.333333 2.3660287 5.333333 5.3333337v2.133333 72.533333 2.133334c0 .388581-.05559.769054-.133333 1.133333-.04709.220686-.09427.424169-.166667.633333-.0082.02341-.02485.0434-.03333.06667-.06692.185322-.147609.391946-.233333.566667-.04435.08832-.08431.181284-.133334.266666-.05824.103691-.135225.200907-.2.3-.100384.150363-.218582.294395-.333333.433334-.152719.18608-.32335.370131-.5.533333-.01192.01088-.02131.02256-.03333.03333-.147618.133927-.304103.250065-.466673.366667-.109409.07803-.217939.163588-.333333.233333-.0079.0048-.02543-.0047-.03333 0-.247508.147977-.493384.293097-.766666.4.321624-.103253.636214-.217747.933329-.366666.594229-.297839 1.130723-.710074 1.6-1.166667.234638-.228297.436657-.471323.633333-.733333.196677-.262011.379102-.541593.533334-.833334.149461-.282718.294544-.559711.4-.866666.0111-.03283.02275-.06692.03333-.1.09649-.296624.148053-.618031.2-.933334.055896-.339253.100003-.676297.100003-1.033333v-2.133333-72.533334-2.133333c0-3.5456-2.8544-6.4-6.4-6.4z" fill="url(#c)" opacity=".4"/><rect fill="url(#a)" height="89.599998" rx="6.4000001" width="89.599998" x="6.4000001" y="6.4000001"/><path d="m12.8 6.4c-3.5456 0-6.4 2.8544-6.4 6.4v38.4h89.6v-38.4c0-3.5456-2.8544-6.4-6.4-6.4z" fill="url(#b)" opacity=".8"/></g><g fill="#0cc" transform="matrix(.1336741 0 0 .18750016 14.57873 36.789829)"><path d="m544.86453 90.633946c-75.52881 67.455694-2.35954 2.947683-74.54744 67.803374-25.12954 10.71948-71.20422 18.81715-92.03468 15.7343-29.2-3.14-61.19845-26.45823-84.66745-49.54824-29.69-29.219993-51.44-70.039997-81.53-95.119987-27.92-23.2700003-67.61-37.5800103-105.32-18.69-18.640004 9.34999-36.840004 26.17-50.950004 44.16999-22.54 28.730004-9.50565 66.081837 49.514354 74.231827 46.44596 2.85228 114.07031-20.0064 131.57031-21.1764 79.42481-26.539923 136.01664-61.238697 287.22946-143.073767-84.4663 62.5355-4.40821 1.6077-87.22927 63.77017-42.05946 31.568284-126.27344 67.654136-214.62485 104.378167-41.871 17.12101-78.67 28.02-132.490004 37.371-32.21 5.6-79.64 10.789-90.02999951-13.57999-10.82000049-25.4 14.99999951-64.561005 20.37999951-73.050001 40.6-64.009996 101.230004-130.469996 207.240004-120.600006 101.1 9.42001 105.86897 121.869376 181.32897 151.419377 37.159 14.549 64.87511 2.55134 136.1606-24.039814z" filter="url(#h)" opacity=".66000001" transform="scale(1.0666667)"/><path d="m581.18883 96.676209c-80.56406 71.952741-2.51684 3.144195-79.51727 72.323601-26.80484 11.43411-75.95117 20.07162-98.17032 16.78325-31.14667-3.34933-65.27835-28.22211-90.31195-52.85145-31.66933-31.168-54.86933-74.709335-86.96533-101.461324-29.78134-24.8213338-72.11734-40.0853445-112.34134-19.936-19.882667 9.973323-39.296 27.914667-54.346667 47.114656-24.042667 30.645337-10.13936 70.487288 52.815307 79.180618 49.54236 3.04243 121.675-21.34016 140.34167-22.58816 84.7198-28.309254 145.08441-65.321279 306.37809-152.612021-90.09739 66.704534-4.70209 1.71488-93.04456 68.021515-44.86342 33.672836-134.69167 72.164416-228.93317 111.336716-44.6624 18.26241-83.91467 29.888-141.32267 39.8624-34.357334 5.97333-84.949334 11.50826-96.03199974-14.48533-11.54133426-27.09333 15.99999974-68.865069 21.73866574-77.919998 43.306667-68.277329 107.978674-139.167996 221.056004-128.640007 107.84 10.048011 112.9269 129.994001 193.41757 161.514005 39.63627 15.51893 69.20012 2.72143 145.23797-25.642471z" opacity=".5"/></g></svg>