<?xml version="1.0" encoding="UTF-8" standalone="no"?>
<!-- Generator: Adobe Illustrator 16.0.0, SVG Export Plug-In . SVG Version: 6.00 Build 0)  -->

<svg
   xmlns:svg="http://www.w3.org/2000/svg"
   xmlns="http://www.w3.org/2000/svg"
   xmlns:sodipodi="http://sodipodi.sourceforge.net/DTD/sodipodi-0.dtd"
   xmlns:inkscape="http://www.inkscape.org/namespaces/inkscape"
   x="0px"
   y="0px"
   width="128"
   height="128"
   version="0.0"
   viewBox="0 0 128 128"
   xml:space="preserve"
   inkscape:version="0.91 r13725"
   sodipodi:docname="settings39.svg"><defs /><sodipodi:namedview
     inkscape:zoom="2.1070865"
     inkscape:cx="43.506448"
     inkscape:cy="3.2619375"
     inkscape:window-width="1080"
     inkscape:window-height="1871"
     inkscape:window-x="0"
     inkscape:window-y="0"
     inkscape:window-maximized="1" /><g
     id="g3"
     transform="matrix(1.0820001,-0.36995791,0.36995791,1.0820001,-17.340101,24.11631)"><path
       d="m 56,74.668 c -10.309,0 -18.666,-8.357 -18.666,-18.667 0,-10.309 8.357,-18.667 18.666,-18.667 10.311,0 18.666,8.358 18.666,18.667 C 74.667,66.311 66.31,74.668 56,74.668 Z m 47.903,-46.5 C 98.602,18.774 97.809,19.367 97.809,19.367 91.975,21.294 87.77,22.214 85.169,22.666 80.897,18.923 75.905,15.998 70.417,14.107 69.52,11.648 68.146,7.363 66.829,0.989 66.829,0.989 66.935,0 56.277,0 45.601,0 45.717,0.989 45.717,0.989 c -1.269,6.155 -2.595,10.388 -3.494,12.89 -5.441,1.778 -10.422,4.568 -14.709,8.167 -2.585,-0.509 -6.763,-1.521 -12.544,-3.565 0,0 -0.784,-0.611 -6.277,8.671 -5.502,9.272 -4.606,9.683 -4.606,9.683 4.263,4.004 7.044,7.149 8.736,9.245 -0.731,3.192 -1.158,6.505 -1.158,9.921 0,3.095 0.322,6.108 0.925,9.024 -1.74,2.061 -4.578,5.135 -8.89,9.018 0,0 -0.906,0.395 4.4,9.785 5.301,9.391 6.09,8.807 6.09,8.807 5.838,-1.928 10.042,-2.852 12.643,-3.305 4.273,3.748 9.269,6.674 14.761,8.562 0.905,2.463 2.272,6.737 3.584,13.116 0,0 -0.116,0.994 10.557,0.994 10.66,0 10.551,-0.994 10.551,-0.994 1.271,-6.149 2.59,-10.387 3.495,-12.885 5.44,-1.776 10.421,-4.567 14.705,-8.166 2.591,0.508 6.767,1.521 12.543,3.567 0,0 0.779,0.605 6.291,-8.67 5.492,-9.28 4.597,-9.688 4.597,-9.688 -4.265,-4.006 -7.041,-7.154 -8.733,-9.246 0.729,-3.201 1.151,-6.51 1.151,-9.926 0,-3.094 -0.319,-6.109 -0.924,-9.025 1.741,-2.052 4.573,-5.127 8.892,-9.015 -0.003,0.005 0.906,-0.391 -4.4,-9.786 z"
       inkscape:connector-curvature="0" /></g></svg>