<svg height="96" width="96" xmlns="http://www.w3.org/2000/svg" xmlns:xlink="http://www.w3.org/1999/xlink"><linearGradient id="a" gradientUnits="userSpaceOnUse" x1="48" x2="48" y1="90" y2="5.9877172"><stop offset="0" stop-color="#ebebeb"/><stop offset="1" stop-color="#fafafa"/></linearGradient><linearGradient id="b" gradientTransform="matrix(1.0058652 0 0 .994169 100 0)" gradientUnits="userSpaceOnUse" x1="45.447727" x2="45.447727" y1="92.539597" y2="7.0165396"><stop offset="0"/><stop offset="1" stop-opacity=".58823532"/></linearGradient><linearGradient id="c" gradientTransform="matrix(1.0238095 0 0 1.0119048 -1.1428571 -98.071429)" gradientUnits="userSpaceOnUse" x1="32.251034" x2="32.251034" xlink:href="#b" y1="6.1317081" y2="90.238609"/><linearGradient id="d" gradientTransform="translate(0 -97)" gradientUnits="userSpaceOnUse" x1="32.251034" x2="32.251034" xlink:href="#b" y1="6.1317081" y2="90.238609"/><linearGradient id="e"><stop offset="0" stop-color="#fff"/><stop offset="1" stop-color="#fff" stop-opacity="0"/></linearGradient><radialGradient id="f" cx="48" cy="90.171875" gradientTransform="matrix(1.1573129 0 0 .99590774 -7.551021 .1971319)" gradientUnits="userSpaceOnUse" r="42" xlink:href="#e"/><linearGradient id="g" gradientUnits="userSpaceOnUse" x1="36.357143" x2="36.357143" xlink:href="#e" y1="6" y2="63.893143"/><linearGradient id="h" gradientUnits="userSpaceOnUse" x1="46.8444465" x2="46.8444465" y1="72.38817624" y2="24.38818012"><stop offset="0" stop-color="#bababa"/><stop offset="1" stop-color="#d2d2d2"/></linearGradient><clipPath id="i"><path d="m-88 6c-3.324 0-6 2.676-6 6v72c0 3.324 2.676 6 6 6h72c3.324 0 6-2.676 6-6v-72c0-3.324-2.676-6-6-6zm35.90625 18c8.936161 0 14.5625 4.41756 14.5625 11.375 0 3.063827-1.29721 5.991358-3.53125 7.90625-.446809.382979-1.022612.827797-5.9375 4.59375-3.957443 3.063827-4.527262 4.156919-4.71875 8.625h-3.4375c-.12766-1.021275-.1875-2.049203-.1875-2.6875 0-2.872337.489365-4.150937 4-10.40625 1.595742-2.872337 2.5625-6.132982 2.5625-8.75 0-4.468081-2.170217-7.03125-6-7.03125-1.978722 0-3.375.700133-3.375 1.59375 0 .446807.06981.512633 1.21875 1.40625 1.340424 1.021276 2.03125 2.432847 2.03125 4.15625 0 2.999998-2.244685 5.125-5.5 5.125-3.510636 0-6.0625-2.490695-6.0625-5.9375 0-5.872335 5.949476-9.96875 14.375-9.96875zm-1.21875 36c3.319145 0 6 2.680853 6 6 0 3.319144-2.679525 6-6.0625 6-3.255316 0-5.9375-2.744685-5.9375-6 0-3.319147 2.680854-6 6-6z"/></clipPath><filter id="j" color-interpolation-filters="sRGB" height="1.2308125" width="1.3828596" x="-.19142981" y="-.11540625"><feGaussianBlur stdDeviation="2.308125"/></filter><clipPath id="k"><rect height="84" rx="6" width="84" x="6" y="6"/></clipPath><filter id="l" color-interpolation-filters="sRGB" height="1.3839999" width="1.3839999" x="-.192" y="-.192"><feGaussianBlur stdDeviation="5.28"/></filter><linearGradient id="m" gradientUnits="userSpaceOnUse" x1="48" x2="48" xlink:href="#e" y1="20.220806" y2="138.66119"/><path d="m12-95.03125c-5.5110903 0-10.03125 4.52016-10.03125 10.03125v71c0 5.5110902 4.5201598 10.03125 10.03125 10.03125h72c5.51109 0 10.03125-4.5201597 10.03125-10.03125v-71c0-5.51109-4.52016-10.03125-10.03125-10.03125z" fill="url(#c)" opacity=".07999998" transform="scale(1 -1)"/><path d="m12-94.03125c-4.971633 0-9.03125 4.059617-9.03125 9.03125v71c0 4.9716329 4.0596171 9.03125 9.03125 9.03125h72c4.971633 0 9.03125-4.059617 9.03125-9.03125v-71c0-4.971633-4.059617-9.03125-9.03125-9.03125z" fill="url(#c)" opacity=".1" transform="scale(1 -1)"/><path d="m12-93c-4.4091333 0-8 3.590867-8 8v71c0 4.4091333 3.5908667 8 8 8h72c4.409133 0 8-3.5908667 8-8v-71c0-4.409133-3.590867-8-8-8z" fill="url(#c)" opacity=".2" transform="scale(1 -1)"/><rect fill="url(#c)" height="85" opacity=".3" rx="7" transform="scale(1 -1)" width="86" x="5" y="-92"/><rect fill="url(#d)" height="84" opacity=".45" rx="6" transform="scale(1 -1)" width="84" x="6" y="-91"/><rect fill="url(#a)" height="84" rx="6" width="84" x="6" y="6"/><path d="m12 6c-3.324 0-6 2.676-6 6v2 68 2c0 .334721.04135.6507.09375.96875.0487.295596.09704.596915.1875.875.0099.03038.02089.0636.03125.09375.09886.287771.23488.547452.375.8125.144592.273507.315616.535615.5.78125.184384.245635.373776.473472.59375.6875.439947.428056.94291.814526 1.5 1.09375.278545.139612.573473.246947.875.34375-.256202-.100222-.486711-.236272-.71875-.375-.0074-.0044-.02387.0045-.03125 0-.03193-.0193-.06229-.04251-.09375-.0625-.120395-.0767-.231023-.163513-.34375-.25-.106173-.0808-.213281-.161112-.3125-.25-.17793-.161433-.34746-.345388-.5-.53125-.107579-.130255-.218394-.265285-.3125-.40625-.02509-.03838-.03845-.08587-.0625-.125-.06476-.103032-.130228-.204517-.1875-.3125-.101008-.194706-.205675-.415701-.28125-.625-.008-.02181-.02359-.04055-.03125-.0625-.03183-.09195-.0358-.186831-.0625-.28125-.030332-.106618-.070389-.203031-.09375-.3125-.072879-.341512-.125-.698205-.125-1.0625v-2-68-2c0-2.781848 2.218152-5 5-5h2 68 2c2.781848 0 5 2.218152 5 5v2 68 2c0 .364295-.05212.720988-.125 1.0625-.04415.206893-.08838.397658-.15625.59375-.0077.02195-.0233.04069-.03125.0625-.06274.173739-.138383.367449-.21875.53125-.04158.0828-.07904.169954-.125.25-.0546.09721-.126774.18835-.1875.28125-.09411.140965-.204921.275995-.3125.40625-.143174.17445-.303141.346998-.46875.5-.01117.0102-.01998.02115-.03125.03125-.138386.125556-.285091.234436-.4375.34375-.102571.07315-.204318.153364-.3125.21875-.0074.0045-.02384-.0044-.03125 0-.232039.138728-.462548.274778-.71875.375.301527-.0968.596455-.204138.875-.34375.55709-.279224 1.060053-.665694 1.5-1.09375.219973-.214028.409366-.441865.59375-.6875.184384-.245635.355408-.507743.5-.78125.14012-.265048.276135-.524729.375-.8125.01041-.03078.02133-.06274.03125-.09375.09046-.278085.1388-.579404.1875-.875.0524-.31805.09375-.634029.09375-.96875v-2-68-2c0-3.324-2.676-6-6-6z" fill="url(#g)" opacity=".5"/><path d="m12 90c-3.324 0-6-2.676-6-6v-2-68-2c0-.334721.04135-.6507.09375-.96875.0487-.295596.09704-.596915.1875-.875.00988-.03038.020892-.0636.03125-.09375.098865-.287771.2348802-.547452.375-.8125.1445918-.273507.3156161-.535615.5-.78125.1843839-.245635.3737765-.473472.59375-.6875.439947-.428056.94291-.814526 1.5-1.09375.278545-.139612.5734731-.246947.875-.34375-.2562018.100222-.4867109.236272-.71875.375-.00741.0044-.023866-.0045-.03125 0-.031933.0193-.062293.04251-.09375.0625-.120395.0767-.2310226.163513-.34375.25-.1061728.0808-.2132809.161112-.3125.25-.1779299.161433-.3474596.345388-.5.53125-.1075789.130255-.2183939.265285-.3125.40625-.025089.03838-.038446.08587-.0625.125-.064763.103032-.1302275.204517-.1875.3125-.1010083.194706-.2056748.415701-.28125.625-.00796.02181-.023589.04055-.03125.0625-.0318251.09195-.0358045.186831-.0625.28125-.0303323.106618-.0703894.203031-.09375.3125-.0728786.341512-.125.698205-.125 1.0625v2 68 2c0 2.781848 2.2181517 5 5 5h2 68 2c2.781848 0 5-2.218152 5-5v-2-68-2c0-.364295-.05212-.720988-.125-1.0625-.04415-.206893-.08838-.397658-.15625-.59375-.0077-.02195-.0233-.04069-.03125-.0625-.06274-.173739-.138383-.367449-.21875-.53125-.04158-.0828-.07904-.169954-.125-.25-.0546-.09721-.126774-.18835-.1875-.28125-.09411-.140965-.204921-.275995-.3125-.40625-.143174-.17445-.303141-.346998-.46875-.5-.01117-.0102-.01998-.02115-.03125-.03125-.138386-.125556-.285091-.234436-.4375-.34375-.102571-.07315-.204318-.153364-.3125-.21875-.0074-.0045-.02384.0044-.03125 0-.232039-.138728-.462548-.274778-.71875-.375.301527.0968.596455.204138.875.34375.55709.279224 1.060053.665694 1.5 1.09375.219973.214028.409366.441865.59375.6875.184384.245635.355408.507743.5.78125.14012.265048.276135.524729.375.8125.01041.03078.02133.06274.03125.09375.09046.278085.1388.579404.1875.875.0524.31805.09375.634029.09375.96875v2 68 2c0 3.324-2.676 6-6 6z" fill="url(#f)" opacity=".4"/><path d="m47.90625 24c-8.425524 0-14.375 4.096415-14.375 9.96875 0 3.446805 2.551864 5.9375 6.0625 5.9375 3.255315 0 5.5-2.125002 5.5-5.125 0-1.723403-.690826-3.134974-2.03125-4.15625-1.148936-.893617-1.21875-.959443-1.21875-1.40625 0-.893617 1.396278-1.59375 3.375-1.59375 3.829783 0 6 2.563169 6 7.03125 0 2.617018-.966758 5.877663-2.5625 8.75-3.510635 6.255313-4 7.533913-4 10.40625 0 .638297.05984 1.666225.1875 2.6875h3.4375c.191488-4.468081.761307-5.561173 4.71875-8.625 4.914888-3.765953 5.490691-4.210771 5.9375-4.59375 2.23404-1.914892 3.53125-4.842423 3.53125-7.90625 0-6.95744-5.626339-11.375-14.5625-11.375zm-1.21875 36c-3.319146 0-6 2.680853-6 6 0 3.255315 2.682184 6 5.9375 6 3.382975 0 6.0625-2.680856 6.0625-6 0-3.319147-2.680855-6-6-6z" fill="url(#h)"/><path d="m47.90625 24c-8.425524 0-14.375 4.096415-14.375 9.96875 0 .183192.01707.35369.03125.53125.30792-5.620694 6.144032-9.5 14.34375-9.5 8.70447 0 14.24858 4.196217 14.53125 10.84375.0066-.154552.03125-.313383.03125-.46875 0-6.95744-5.626339-11.375-14.5625-11.375zm-5.90625 5.71875c-.101844.15694-.15625.324233-.15625.5 0 .446807.06981.512633 1.21875 1.40625 1.172871.893617 1.849445 2.092558 2 3.53125.0077-.122054.03125-.249808.03125-.375 0-1.723403-.690826-3.134974-2.03125-4.15625-.616424-.479441-.911454-.716691-1.0625-.90625zm9.1875 5.5c-.124925 2.512324-1.047794 5.517277-2.53125 8.1875-3.510635 6.255313-4 7.533913-4 10.40625 0 .142678-.0061.354062 0 .53125.06211-2.549734.694866-4.048352 4-9.9375 1.595742-2.872337 2.5625-6.132982 2.5625-8.75 0-.150558-.02634-.291293-.03125-.4375zm-4.5 24.78125c-3.319146 0-6 2.680853-6 6 0 .128706.023.248028.03125.375.306682-3.02942 2.857051-5.375 5.96875-5.375 3.111698 0 5.662067 2.34558 5.96875 5.375.0075-.122765.03125-.250325.03125-.375 0-3.319147-2.680855-6-6-6z" opacity=".2"/><path d="m45.21875 27.625c-1.978722 0-3.375.700133-3.375 1.59375 0 .207088.02576.336245.15625.5.415942-.640962 1.629225-1.09375 3.21875-1.09375 3.700733 0 5.827981 2.401001 5.96875 6.59375.0095-.190163.03125-.378351.03125-.5625 0-4.468081-2.170217-7.03125-6-7.03125zm-11.65625 6.96875c-.0054.124365-.03125.248977-.03125.375 0 3.446805 2.551864 5.9375 6.0625 5.9375 3.255315 0 5.5-2.125002 5.5-5.125 0-.150959-.02068-.291379-.03125-.4375-.25853 2.705382-2.416892 4.5625-5.46875 4.5625-3.291221 0-5.738038-2.198784-6.03125-5.3125zm28.875 1.25c-.124012 2.893199-1.379248 5.619712-3.5 7.4375-.446809.382979-1.022612.827797-5.9375 4.59375-3.957443 3.063827-4.527262 4.156919-4.71875 8.625h-3.4375c-.09912-.79299-.166418-1.540754-.1875-2.15625-.0039.158533 0 .300613 0 .46875 0 .638297.05984 1.666225.1875 2.6875h3.4375c.191488-4.468081.761307-5.561173 4.71875-8.625 4.914888-3.765953 5.490691-4.210771 5.9375-4.59375 2.23404-1.914892 3.53125-4.842423 3.53125-7.90625 0-.180388-.02373-.35431-.03125-.53125zm-21.71875 30.75c-.008735.132771-.03125.271229-.03125.40625 0 3.255315 2.682184 6 5.9375 6 3.382975 0 6.0625-2.680856 6.0625-6 0-.124675-.02379-.252234-.03125-.375-.30677 3.029418-2.859711 5.375-6.03125 5.375-3.051859 0-5.599655-2.422413-5.90625-5.40625z" fill="#fff"/><path d="m-52.09375 24c-8.425524 0-14.375 4.096415-14.375 9.96875 0 3.446805 2.551864 5.9375 6.0625 5.9375 3.255315 0 5.5-2.125002 5.5-5.125 0-1.723403-.690826-3.134974-2.03125-4.15625-1.148936-.893617-1.21875-.959443-1.21875-1.40625 0-.893617 1.396278-1.59375 3.375-1.59375 3.829783 0 6 2.563169 6 7.03125 0 2.617018-.966758 5.877663-2.5625 8.75-3.510635 6.255313-4 7.533913-4 10.40625 0 .638297.05984 1.666225.1875 2.6875h3.4375c.191488-4.468081.761307-5.561173 4.71875-8.625 4.914888-3.765953 5.490691-4.210771 5.9375-4.59375 2.23404-1.914892 3.53125-4.842423 3.53125-7.90625 0-6.95744-5.626339-11.375-14.5625-11.375zm-1.21875 36c-3.319146 0-6 2.680853-6 6 0 3.255315 2.682184 6 5.9375 6 3.382975 0 6.0625-2.680856 6.0625-6 0-3.319147-2.680855-6-6-6z" style="opacity:.6;fill:none;stroke:#fff;stroke-width:2;clip-path:url(#i);filter:url(#j)" transform="translate(100)"/><rect height="66" rx="12" style="opacity:.5;stroke:#fff;stroke-width:.5;stroke-linecap:round;clip-path:url(#k);fill:url(#m);filter:url(#l)" width="66" x="15" y="15"/></svg>