<svg height="96" width="96" xmlns="http://www.w3.org/2000/svg" xmlns:xlink="http://www.w3.org/1999/xlink"><linearGradient id="a"><stop offset="0" stop-color="#fff"/><stop offset="1" stop-color="#fff" stop-opacity="0"/></linearGradient><linearGradient id="b" gradientUnits="userSpaceOnUse" x1="36.357143" x2="36.357143" xlink:href="#a" y1="6" y2="63.893143"/><filter id="c" color-interpolation-filters="sRGB" height="1.3839999" width="1.3839999" x="-.192" y="-.192"><feGaussianBlur stdDeviation="5.28"/></filter><radialGradient id="d" cx="48" cy="90.171875" gradientTransform="matrix(1.1573129 0 0 .99590774 -7.5510206 .19713193)" gradientUnits="userSpaceOnUse" r="42" xlink:href="#a"/><clipPath id="e"><rect height="84" rx="6" width="84" x="6" y="6"/></clipPath><linearGradient id="f" gradientUnits="userSpaceOnUse" x1="48" x2="48" y1="90" y2="5.9877172"><stop offset="0" stop-color="#787878"/><stop offset="1" stop-color="#b4b4b4"/></linearGradient><linearGradient id="g" gradientTransform="matrix(1.0058652 0 0 .994169 100 0)" gradientUnits="userSpaceOnUse" x1="45.447727" x2="45.447727" y1="92.539597" y2="7.0165396"><stop offset="0"/><stop offset="1" stop-opacity=".58823532"/></linearGradient><linearGradient id="h" gradientTransform="matrix(1.0238095 0 0 1.0119048 -1.1428571 -98.071429)" gradientUnits="userSpaceOnUse" x1="32.251034" x2="32.251034" xlink:href="#g" y1="6.1317081" y2="90.238609"/><linearGradient id="i" gradientTransform="translate(0 -97)" gradientUnits="userSpaceOnUse" x1="32.251034" x2="32.251034" xlink:href="#g" y1="6.1317081" y2="90.238609"/><clipPath id="j"><path d="m30.916245 135.971c-.937266.54113-1.228304 1.74752-.677924 2.7008l1.9375 3.35585c-1.418086 1.4141-2.622273 3.01198-3.595451 4.71l-3.783634-.99095c-.531629-.14245-1.037926-.11751-1.476221.13061-.438159.24835-.796545.66758-.936598 1.19027l-1.978825 7.38507c-.280102 1.04538.365953 2.06538 1.429126 2.35032l3.772195 1.03363c-.0062 1.95711.237711 3.94301.758755 5.87671l-3.355849 1.9375c-.95328.55037-1.304431 1.74066-.763301 2.67792l3.8125 6.60344c.54113.93727 1.747521 1.2283 2.700801.67793l3.355849-1.9375c1.414106 1.41808 3.011983 2.62227 4.709995 3.59545l-.990945 3.78363c-.284894 1.06325.275431 2.13275 1.320874 2.41282l7.385075 1.97883c1.045371.28011 2.065425-.36588 2.35032-1.42913l1.033633-3.77219c1.957118.006 3.943015-.23771 5.876701-.75876l1.9375 3.35585c.550375.95328 1.740658 1.30443 2.677924.7633l6.603444-3.8125c.937258-.54113 1.228299-1.74752.677924-2.7008l-1.9375-3.35585c1.418087-1.4141 2.622272-3.01197 3.595452-4.70999l3.783633.99094c1.063244.2849 2.132709-.27549 2.41282-1.32087l1.978825-7.38508c.280102-1.04537-.365953-2.06538-1.429127-2.35032l-3.772195-1.03363c.0062-1.95711-.237701-3.94301-.758754-5.8767l3.355848-1.9375c.953272-.55037 1.304431-1.74066.763301-2.67793l-3.8125-6.60344c-.54113-.93726-1.747529-1.2283-2.700801-.67792l-3.355849 1.9375c-1.414093-1.4181-3.011984-2.62228-4.709995-3.59546l.990945-3.78363c.284894-1.06324-.275422-2.13275-1.320874-2.41282l-7.385074-1.97882c-1.045381-.28011-2.065426.36588-2.35032 1.42912l-1.033633 3.7722c-1.95712-.006-3.943015.2377-5.876702.75875l-1.9375-3.35585c-.55038-.95328-1.740666-1.30442-2.677924-.7633zm10.051722 9.7851c6.696096-3.866 15.258361-1.57175 19.124356 5.12435 3.865995 6.6961 1.57174 15.25836-5.124356 19.12436-6.696096 3.86599-15.258361 1.57174-19.124356-5.12436-3.865995-6.6961-1.57174-15.25836 5.124356-19.12435z" display="block" overflow="visible"/></clipPath><linearGradient id="k" gradientUnits="userSpaceOnUse" x1="48.233639" x2="126.13924" xlink:href="#l" y1="48.047016" y2="66.232674"/><linearGradient id="l"><stop offset="0"/><stop offset="1" stop-opacity="0"/></linearGradient><linearGradient id="m" gradientUnits="userSpaceOnUse" x1="48.055065" x2="126.67282" xlink:href="#l" y1="48.031517" y2="62.838562"/><linearGradient id="n" gradientUnits="userSpaceOnUse" x1="47.997307" x2="127.05216" xlink:href="#l" y1="48.028725" y2="60.289631"/><linearGradient id="o" gradientUnits="userSpaceOnUse" x1="47.99826" x2="127.41583" xlink:href="#l" y1="48.028797" y2="57.664623"/><linearGradient id="p" gradientUnits="userSpaceOnUse" x1="48.233643" x2="126.13924" xlink:href="#a" y1="48.04702" y2="66.232674"/><linearGradient id="q" gradientUnits="userSpaceOnUse" x1="48.055069" x2="126.67282" xlink:href="#a" y1="48.031521" y2="62.838566"/><linearGradient id="r" gradientUnits="userSpaceOnUse" x1="47.997311" x2="127.05216" xlink:href="#a" y1="48.028728" y2="60.289635"/><linearGradient id="s" gradientUnits="userSpaceOnUse" x1="47.998264" x2="127.41583" xlink:href="#a" y1="48.028801" y2="57.664627"/><linearGradient id="t" gradientUnits="userSpaceOnUse" x1="43.85401667" x2="43.85401667" y1="19.8605652" y2="76.16163473"><stop offset="0" stop-color="#f0f0f0"/><stop offset="1" stop-color="#aaa"/></linearGradient><linearGradient id="u" gradientUnits="userSpaceOnUse" x1="48" x2="48" xlink:href="#a" y1="20.220806" y2="138.66119"/><path d="m12-95.03125c-5.5110903 0-10.03125 4.52016-10.03125 10.03125v71c0 5.5110902 4.5201598 10.03125 10.03125 10.03125h72c5.51109 0 10.03125-4.5201597 10.03125-10.03125v-71c0-5.51109-4.52016-10.03125-10.03125-10.03125z" fill="url(#h)" opacity=".07999998" transform="scale(1 -1)"/><path d="m12-94.03125c-4.971633 0-9.03125 4.059617-9.03125 9.03125v71c0 4.9716329 4.0596171 9.03125 9.03125 9.03125h72c4.971633 0 9.03125-4.059617 9.03125-9.03125v-71c0-4.971633-4.059617-9.03125-9.03125-9.03125z" fill="url(#h)" opacity=".1" transform="scale(1 -1)"/><path d="m12-93c-4.4091333 0-8 3.590867-8 8v71c0 4.4091333 3.5908667 8 8 8h72c4.409133 0 8-3.5908667 8-8v-71c0-4.409133-3.590867-8-8-8z" fill="url(#h)" opacity=".2" transform="scale(1 -1)"/><rect fill="url(#h)" height="85" opacity=".3" rx="7" transform="scale(1 -1)" width="86" x="5" y="-92"/><rect fill="url(#i)" height="84" opacity=".45" rx="6" transform="scale(1 -1)" width="84" x="6" y="-91"/><rect fill="url(#f)" height="84" rx="6" width="84" x="6" y="6"/><path d="m12 90c-3.324 0-6-2.676-6-6v-2-68-2c0-.334721.04135-.6507.09375-.96875.0487-.295596.09704-.596915.1875-.875.00988-.03038.020892-.0636.03125-.09375.098865-.287771.2348802-.547452.375-.8125.1445918-.273507.3156161-.535615.5-.78125.1843839-.245635.3737765-.473472.59375-.6875.439947-.428056.94291-.814526 1.5-1.09375.278545-.139612.5734731-.246947.875-.34375-.2562018.100222-.4867109.236272-.71875.375-.00741.0044-.023866-.0045-.03125 0-.031933.0193-.062293.04251-.09375.0625-.120395.0767-.2310226.163513-.34375.25-.1061728.0808-.2132809.161112-.3125.25-.1779299.161433-.3474596.345388-.5.53125-.1075789.130255-.2183939.265285-.3125.40625-.025089.03838-.038446.08587-.0625.125-.064763.103032-.1302275.204517-.1875.3125-.1010083.194706-.2056748.415701-.28125.625-.00796.02181-.023589.04055-.03125.0625-.0318251.09195-.0358045.186831-.0625.28125-.0303323.106618-.0703894.203031-.09375.3125-.0728786.341512-.125.698205-.125 1.0625v2 68 2c0 2.781848 2.2181517 5 5 5h2 68 2c2.781848 0 5-2.218152 5-5v-2-68-2c0-.364295-.05212-.720988-.125-1.0625-.04415-.206893-.08838-.397658-.15625-.59375-.0077-.02195-.0233-.04069-.03125-.0625-.06274-.173739-.138383-.367449-.21875-.53125-.04158-.0828-.07904-.169954-.125-.25-.0546-.09721-.126774-.18835-.1875-.28125-.09411-.140965-.204921-.275995-.3125-.40625-.143174-.17445-.303141-.346998-.46875-.5-.01117-.0102-.01998-.02115-.03125-.03125-.138386-.125556-.285091-.234436-.4375-.34375-.102571-.07315-.204318-.153364-.3125-.21875-.0074-.0045-.02384.0044-.03125 0-.232039-.138728-.462548-.274778-.71875-.375.301527.0968.596455.204138.875.34375.55709.279224 1.060053.665694 1.5 1.09375.219973.214028.409366.441865.59375.6875.184384.245635.355408.507743.5.78125.14012.265048.276135.524729.375.8125.01041.03078.02133.06274.03125.09375.09046.278085.1388.579404.1875.875.0524.31805.09375.634029.09375.96875v2 68 2c0 3.324-2.676 6-6 6z" fill="url(#d)" opacity=".2"/><path d="m12 6c-3.324 0-6 2.676-6 6v2 68 2c0 .334721.04135.6507.09375.96875.0487.295596.09704.596915.1875.875.00988.03038.020892.0636.03125.09375.098865.287771.2348802.547452.375.8125.1445918.273507.3156161.535615.5.78125.1843839.245635.3737765.473472.59375.6875.439947.428056.94291.814526 1.5 1.09375.278545.139612.5734731.246947.875.34375-.2562018-.100222-.4867109-.236272-.71875-.375-.00741-.0044-.023866.0045-.03125 0-.031933-.0193-.062293-.04251-.09375-.0625-.120395-.0767-.2310226-.163513-.34375-.25-.1061728-.0808-.2132809-.161112-.3125-.25-.1779299-.161433-.3474596-.345388-.5-.53125-.1075789-.130255-.2183939-.265285-.3125-.40625-.025089-.03838-.038446-.08587-.0625-.125-.064763-.103032-.1302275-.204517-.1875-.3125-.1010083-.194706-.2056748-.415701-.28125-.625-.00796-.02181-.023589-.04055-.03125-.0625-.0318251-.09195-.0358045-.186831-.0625-.28125-.0303323-.106618-.0703894-.203031-.09375-.3125-.0728786-.341512-.125-.698205-.125-1.0625v-2-68-2c0-2.781848 2.2181517-5 5-5h2 68 2c2.781848 0 5 2.218152 5 5v2 68 2c0 .364295-.05212.720988-.125 1.0625-.04415.206893-.08838.397658-.15625.59375-.0077.02195-.0233.04069-.03125.0625-.06274.173739-.138383.367449-.21875.53125-.04158.0828-.07904.169954-.125.25-.0546.09721-.126774.18835-.1875.28125-.09411.140965-.204921.275995-.3125.40625-.143174.17445-.303141.346998-.46875.5-.01117.0102-.01998.02115-.03125.03125-.138386.125556-.285091.234436-.4375.34375-.102571.07315-.204318.153364-.3125.21875-.0074.0045-.02384-.0044-.03125 0-.232039.138728-.462548.274778-.71875.375.301527-.0968.596455-.204138.875-.34375.55709-.279224 1.060053-.665694 1.5-1.09375.219973-.214028.409366-.441865.59375-.6875.184384-.245635.355408-.507743.5-.78125.14012-.265048.276135-.524729.375-.8125.01041-.03078.02133-.06274.03125-.09375.09046-.278085.1388-.579404.1875-.875.0524-.31805.09375-.634029.09375-.96875v-2-68-2c0-3.324-2.676-6-6-6z" fill="url(#b)" opacity=".3"/><rect height="66" rx="12" style="opacity:.15;stroke:#fff;stroke-width:.5;stroke-linecap:round;clip-path:url(#e);fill:url(#u);filter:url(#c)" width="66" x="15" y="15"/><path d="m44.1875 18.40625c-2.812128 0-5.03125 2.349265-5.03125 5.09375v1.875c-.558055.208065-1.114314.409088-1.65625.65625l-1.3125-1.3125c-.815424-.815417-2.045979-1.518664-3.53125-1.53125-1.303265-.01113-2.609586.484578-3.59375 1.46875l-5.40625 5.40625c-1.98399 1.98401-1.846217 5.216073.0625 7.125l1.3125 1.3125c-.247161.541936-.448185 1.098196-.65625 1.65625h-1.875c-2.744488 0-5.09375 2.219124-5.09375 5.03125v7.625c0 2.812126 2.349262 5.03125 5.09375 5.03125h1.875c.208065.558055.409089 1.114314.65625 1.65625l-1.3125 1.3125c-1.908896 1.908901-2.046661 5.141029-.0625 7.125l5.40625 5.40625c1.983946 1.983966 5.216043 1.846454 7.125-.0625l1.3125-1.3125c.541936.247162 1.098195.448185 1.65625.65625v1.875c0 2.744484 2.219121 5.09375 5.03125 5.09375h7.625c2.812123 0 5.03125-2.349259 5.03125-5.09375v-1.875c.558055-.208065 1.114314-.409088 1.65625-.65625l1.3125 1.3125c1.908959 1.908964 5.141053 2.046443 7.125.0625l5.40625-5.40625c1.983992-1.984009 1.846223-5.216074-.0625-7.125l-1.3125-1.3125c.247162-.541935.448185-1.098194.65625-1.65625h1.875c2.744481 0 5.09375-2.219118 5.09375-5.03125v-7.625c0-2.812131-2.349267-5.03125-5.09375-5.03125h-1.875c-.208065-.558056-.409088-1.114314-.65625-1.65625l1.3125-1.3125c1.908886-1.908892 2.046695-5.141025.0625-7.125l-5.40625-5.40625c-1.983947-1.983938-5.21604-1.846464-7.125.0625l-1.3125 1.3125c-.541936-.247162-1.098195-.448185-1.65625-.65625v-1.875c0-2.744491-2.219127-5.09375-5.03125-5.09375zm3.8125 19.6875c6.075308 0 10.90625 4.830942 10.90625 10.90625 0 6.075308-4.830942 10.90625-10.90625 10.90625-6.075308 0-10.90625-4.830942-10.90625-10.90625 0-6.075308 4.830942-10.90625 10.90625-10.90625z" display="block" opacity=".05" overflow="visible"/><path d="m44.1875 19.4375c-2.226603 0-4 1.88144-4 4.0625v2.5625c-1.016644.349685-1.987325.744874-2.9375 1.21875l-1.8125-1.8125c-.671479-.671474-1.634818-1.240285-2.78125-1.25-1.022124-.0087-2.053465.397209-2.84375 1.1875l-5.40625 5.40625c-1.570335 1.570351-1.455432 4.106901.0625 5.625l1.8125 1.8125c-.473875.950174-.869064 1.920858-1.21875 2.9375h-2.5625c-2.181063 0-4.0625 1.773399-4.0625 4v7.625c0 2.226601 1.881437 4 4.0625 4h2.5625c.349686 1.016643.744875 1.987326 1.21875 2.9375l-1.8125 1.8125c-1.518074 1.518078-1.632971 4.054679-.0625 5.625l5.40625 5.40625c1.570306 1.570322 4.106882 1.455615 5.625-.0625l1.8125-1.8125c.950175.473877 1.920856.869066 2.9375 1.21875v2.5625c0 2.181059 1.773396 4.0625 4 4.0625h7.625c2.226598 0 4-1.881434 4-4.0625v-2.5625c1.016644-.349684 1.987325-.744873 2.9375-1.21875l1.8125 1.8125c1.518117 1.518121 4.054691 1.632806 5.625.0625l5.40625-5.40625c1.570337-1.570351 1.455437-4.106902-.0625-5.625l-1.8125-1.8125c.473875-.950173.869065-1.920855 1.21875-2.9375h2.5625c2.181056 0 4.0625-1.773393 4.0625-4v-7.625c0-2.226606-1.881442-4-4.0625-4h-2.5625c-.349685-1.016646-.744874-1.987327-1.21875-2.9375l1.8125-1.8125c1.518067-1.518072 1.632997-4.054677.0625-5.625l-5.40625-5.40625c-1.570309-1.570302-4.106883-1.45562-5.625.0625l-1.8125 1.8125c-.950175-.473876-1.920856-.869065-2.9375-1.21875v-2.5625c0-2.181066-1.773402-4.0625-4-4.0625zm3.8125 17.625c6.630024 0 11.9375 5.307476 11.9375 11.9375 0 6.630024-5.307476 11.9375-11.9375 11.9375-6.630024 0-11.9375-5.307476-11.9375-11.9375 0-6.630024 5.307476-11.9375 11.9375-11.9375z" display="block" opacity=".07999998" overflow="visible"/><path d="m44.1875 20.46875c-1.649639 0-2.96875 1.39995-2.96875 3.03125v3.21875c-1.461857.450067-2.865234 1.039291-4.1875 1.75l-2.3125-2.28125c-.52527-.525266-1.250126-.930616-2.0625-.9375-.759326-.0065-1.530481.280476-2.125.875l-5.40625 5.40625c-1.161458 1.16147-1.074579 3.050296.0625 4.1875l2.28125 2.3125c-.710706 1.322265-1.299929 2.725645-1.75 4.1875h-3.21875c-1.631303 0-3.03125 1.319113-3.03125 2.96875v7.625c0 1.649637 1.399947 2.96875 3.03125 2.96875h3.21875c.450071 1.461856 1.039294 2.865236 1.75 4.1875l-2.28125 2.3125c-1.137183 1.137186-1.224059 3.026052-.0625 4.1875l5.40625 5.40625c1.161443 1.161455 3.050289 1.074709 4.1875-.0625l2.3125-2.28125c1.322267.71071 2.725643 1.299933 4.1875 1.75v3.21875c0 1.631299 1.319111 3.03125 2.96875 3.03125h7.625c1.649634 0 2.96875-1.399944 2.96875-3.03125v-3.21875c1.461857-.450067 2.865233-1.03929 4.1875-1.75l2.3125 2.28125c1.137207 1.13721 3.026053 1.223945 4.1875.0625l5.40625-5.40625c1.16146-1.16147 1.074582-3.050297-.0625-4.1875l-2.28125-2.3125c.710707-1.322263 1.299931-2.72564 1.75-4.1875h3.21875c1.631297 0 3.03125-1.319107 3.03125-2.96875v-7.625c0-1.649642-1.399951-2.96875-3.03125-2.96875h-3.21875c-.450068-1.461861-1.039293-2.865237-1.75-4.1875l2.28125-2.3125c1.137179-1.137183 1.224077-3.026052.0625-4.1875l-5.40625-5.40625c-1.161447-1.161442-3.050293-1.074709-4.1875.0625l-2.3125 2.28125c-1.322266-.710709-2.725643-1.299933-4.1875-1.75v-3.21875c0-1.631306-1.319116-3.03125-2.96875-3.03125zm3.8125 15.5625c7.178426 0 12.96875 5.790324 12.96875 12.96875 0 7.178426-5.790324 12.96875-12.96875 12.96875-7.178426 0-12.96875-5.790324-12.96875-12.96875 0-7.178426 5.790324-12.96875 12.96875-12.96875z" display="block" opacity=".2" overflow="visible"/><path d="m44.1875 21.5c-1.082262 0-1.9375.899245-1.9375 2v3.875c-1.935147.515597-3.776942 1.297312-5.46875 2.28125l-2.78125-2.75c-.389179-.389176-.840116-.620732-1.34375-.625-.503633-.0043-1.023619.179866-1.40625.5625l-5.40625 5.40625c-.765262.76527-.715766 1.971648.0625 2.75l2.75 2.78125c-.983934 1.691803-1.76564 3.533599-2.28125 5.46875h-3.875c-1.100753 0-2 .855244-2 1.9375v7.625c0 1.082256.899247 1.9375 2 1.9375h3.875c.51561 1.935152 1.297316 3.776947 2.28125 5.46875l-2.75 2.78125c-.778348.77835-.827844 1.984729-.0625 2.75l5.40625 5.40625c.765262.76527 1.971652.715847 2.75-.0625l2.78125-2.75c1.691808.983939 3.533603 1.765652 5.46875 2.28125v3.875c0 1.100754.855238 2 1.9375 2h7.625c1.082252 0 1.9375-.899246 1.9375-2v-3.875c1.935147-.515598 3.776941-1.297311 5.46875-2.28125l2.78125 2.75c.778348.77835 1.984727.827772 2.75.0625l5.40625-5.40625c.765263-.76527.715767-1.97165-.0625-2.75l-2.75-2.78125c.983933-1.691803 1.765651-3.533598 2.28125-5.46875h3.875c1.100744 0 2-.855243 2-1.9375v-7.625c0-1.082255-.899256-1.9375-2-1.9375h-3.875c-.515595-1.935151-1.297317-3.776947-2.28125-5.46875l2.75-2.78125c.778348-.778351.827855-1.98473.0625-2.75l-5.40625-5.40625c-.765273-.76527-1.971652-.715849-2.75.0625l-2.78125 2.75c-1.691809-.983938-3.533603-1.765653-5.46875-2.28125v-3.875c0-1.100755-.855248-2-1.9375-2zm3.8125 13.5c7.731986 0 14 6.268014 14 14 0 7.731986-6.268014 14-14 14-7.731986 0-14-6.268014-14-14 0-7.731986 6.268014-14 14-14z" display="block" opacity=".3" overflow="visible"/><path d="m44.1875 20.5c-1.082262 0-1.9375.899245-1.9375 2v3.875c-1.935147.515597-3.776942 1.297312-5.46875 2.28125l-2.78125-2.75c-.389179-.389176-.840116-.620732-1.34375-.625-.503633-.0043-1.023619.179866-1.40625.5625l-5.40625 5.40625c-.765262.76527-.715766 1.971648.0625 2.75l2.75 2.78125c-.983934 1.691803-1.76564 3.533599-2.28125 5.46875h-3.875c-1.100753 0-2 .855244-2 1.9375v7.625c0 1.082256.899247 1.9375 2 1.9375h3.875c.51561 1.935152 1.297316 3.776947 2.28125 5.46875l-2.75 2.78125c-.778348.77835-.827844 1.984729-.0625 2.75l5.40625 5.40625c.765262.76527 1.971652.715847 2.75-.0625l2.78125-2.75c1.691808.983939 3.533603 1.765652 5.46875 2.28125v3.875c0 1.100754.855238 2 1.9375 2h7.625c1.082252 0 1.9375-.899246 1.9375-2v-3.875c1.935147-.515598 3.776941-1.297311 5.46875-2.28125l2.78125 2.75c.778348.77835 1.984727.827772 2.75.0625l5.40625-5.40625c.765263-.76527.715767-1.97165-.0625-2.75l-2.75-2.78125c.983933-1.691803 1.765651-3.533598 2.28125-5.46875h3.875c1.100744 0 2-.855243 2-1.9375v-7.625c0-1.082255-.899256-1.9375-2-1.9375h-3.875c-.515595-1.935151-1.297317-3.776947-2.28125-5.46875l2.75-2.78125c.778348-.778351.827855-1.98473.0625-2.75l-5.40625-5.40625c-.765273-.76527-1.971652-.715849-2.75.0625l-2.78125 2.75c-1.691809-.983938-3.533603-1.765653-5.46875-2.28125v-3.875c0-1.100755-.855248-2-1.9375-2zm3.8125 13.5c7.731986 0 14 6.268014 14 14 0 7.731986-6.268014 14-14 14-7.731986 0-14-6.268014-14-14 0-7.731986 6.268014-14 14-14z" display="block" fill="url(#t)" overflow="visible"/><g clip-path="url(#j)" transform="matrix(.8660254 .5 -.5 .8660254 85.39875 -112.71247)"><g opacity=".9" transform="matrix(.1413721 .99271966 -1.1651755 .12044784 96.937266 104.80532)"><path d="m108.8959 48a60.895905 60.895905 0 0 1 -6.54616 27.466658l-54.34974-27.466658z" fill="url(#k)" opacity=".05" overflow="visible" transform="matrix(.99411049 -.1083712 .1083712 .99411049 -5.1582185 5.4918915)"/><path d="m108.8959 48a60.895905 60.895905 0 0 1 -4.45721 22.86887l-56.43869-22.86887z" fill="url(#m)" opacity=".07000002" overflow="visible" transform="matrix(.99786084 -.06537382 .06537382 .99786084 -3.0940115 3.2415713)"/><path d="m108.8959 48a60.895905 60.895905 0 0 1 -3.12994 19.271878l-57.76596-19.271878z" fill="url(#n)" opacity=".1" overflow="visible" transform="matrix(.99945136 -.0331207 .0331207 .99945136 -1.5634586 1.6161281)"/><path d="m108.8959 48a60.895905 60.895905 0 0 1 -2.07497 15.76102l-58.82093-15.76102z" fill="url(#o)" opacity=".05" overflow="visible"/></g><g fill="#fff" opacity=".9" transform="matrix(1.062807 -.13087531 -.74010065 3.227468 32.525111 9.33226)"><path d="m108.8959 48a60.895905 60.895905 0 0 1 -6.54616 27.466658l-54.34974-27.466658z" fill="url(#p)" opacity=".2" overflow="visible" transform="matrix(.99411049 -.1083712 .1083712 .99411049 -5.1582185 5.4918915)"/><path d="m108.8959 48a60.895905 60.895905 0 0 1 -4.45721 22.86887l-56.43869-22.86887z" fill="url(#q)" opacity=".4" overflow="visible" transform="matrix(.99786084 -.06537382 .06537382 .99786084 -3.0940115 3.2415713)"/><path d="m108.8959 48a60.895905 60.895905 0 0 1 -3.12994 19.271878l-57.76596-19.271878z" fill="url(#r)" opacity=".6" overflow="visible" transform="matrix(.99945136 -.0331207 .0331207 .99945136 -1.5634586 1.6161281)"/><path d="m108.8959 48a60.895905 60.895905 0 0 1 -2.07497 15.76102l-58.82093-15.76102z" fill="url(#s)" opacity=".8" overflow="visible"/></g><g opacity=".5" transform="matrix(-.61678932 .78712829 -.78712829 -.61678932 115.00148 150.01193)"><path d="m108.8959 48a60.895905 60.895905 0 0 1 -6.54616 27.466658l-54.34974-27.466658z" fill="url(#k)" opacity=".05" overflow="visible" transform="matrix(.99411049 -.1083712 .1083712 .99411049 -5.1582185 5.4918915)"/><path d="m108.8959 48a60.895905 60.895905 0 0 1 -4.45721 22.86887l-56.43869-22.86887z" fill="url(#m)" opacity=".07000002" overflow="visible" transform="matrix(.99786084 -.06537382 .06537382 .99786084 -3.0940115 3.2415713)"/><path d="m108.8959 48a60.895905 60.895905 0 0 1 -3.12994 19.271878l-57.76596-19.271878z" fill="url(#n)" opacity=".1" overflow="visible" transform="matrix(.99945136 -.0331207 .0331207 .99945136 -1.5634586 1.6161281)"/><path d="m108.8959 48a60.895905 60.895905 0 0 1 -2.07497 15.76102l-58.82093-15.76102z" fill="url(#o)" opacity=".1" overflow="visible"/></g><g opacity=".8" transform="matrix(-.06817198 -1.0460056 2.710673 .60162586 -79.095447 179.08013)"><path d="m108.8959 48a60.895905 60.895905 0 0 1 -6.54616 27.466658l-54.34974-27.466658z" fill="url(#k)" opacity=".05" overflow="visible" transform="matrix(.99411049 -.1083712 .1083712 .99411049 -5.1582185 5.4918915)"/><path d="m108.8959 48a60.895905 60.895905 0 0 1 -4.45721 22.86887l-56.43869-22.86887z" fill="url(#m)" opacity=".07000002" overflow="visible" transform="matrix(.99786084 -.06537382 .06537382 .99786084 -3.0940115 3.2415713)"/><path d="m108.8959 48a60.895905 60.895905 0 0 1 -3.12994 19.271878l-57.76596-19.271878z" fill="url(#n)" opacity=".1" overflow="visible" transform="matrix(.99945136 -.0331207 .0331207 .99945136 -1.5634586 1.6161281)"/><path d="m108.8959 48a60.895905 60.895905 0 0 1 -2.07497 15.76102l-58.82093-15.76102z" fill="url(#o)" opacity=".1" overflow="visible"/></g><g fill="#fff" opacity=".9" transform="matrix(-1.062807 .1308753 .74010064 -3.227468 62.996694 306.66774)"><path d="m108.8959 48a60.895905 60.895905 0 0 1 -6.54616 27.466658l-54.34974-27.466658z" fill="url(#p)" opacity=".2" overflow="visible" transform="matrix(.99411049 -.1083712 .1083712 .99411049 -5.1582185 5.4918915)"/><path d="m108.8959 48a60.895905 60.895905 0 0 1 -4.45721 22.86887l-56.43869-22.86887z" fill="url(#q)" opacity=".4" overflow="visible" transform="matrix(.99786084 -.06537382 .06537382 .99786084 -3.0940115 3.2415713)"/><path d="m108.8959 48a60.895905 60.895905 0 0 1 -3.12994 19.271878l-57.76596-19.271878z" fill="url(#r)" opacity=".6" overflow="visible" transform="matrix(.99945136 -.0331207 .0331207 .99945136 -1.5634586 1.6161281)"/><path d="m108.8959 48a60.895905 60.895905 0 0 1 -2.07497 15.76102l-58.82093-15.76102z" fill="url(#s)" opacity=".8" overflow="visible"/></g></g><path d="m44.1875 20.5c-1.082262 0-1.9375.899245-1.9375 2v1c0-1.100755.855238-2 1.9375-2h7.625c1.082252 0 1.9375.899245 1.9375 2v-1c0-1.100755-.855248-2-1.9375-2zm-11.53125 4.78125c-.503633-.0043-1.023619.179866-1.40625.5625l-5.40625 5.40625c-.496443.496448-.634599 1.182061-.46875 1.8125.0841-.291632.234756-.578504.46875-.8125l5.40625-5.40625c.382631-.382634.902617-.5668 1.40625-.5625.503634.0043.954571.235824 1.34375.625l2.78125 2.75c1.691808-.983938 3.533603-1.765653 5.46875-2.28125v-1c-1.935147.515597-3.776942 1.297312-5.46875 2.28125l-2.78125-2.75c-.389179-.389176-.840116-.620732-1.34375-.625zm30.71875 0c-.494547.01399-.985826.235826-1.375.625l-2.78125 2.75c-1.691809-.983938-3.533603-1.765653-5.46875-2.28125v1c1.935147.515597 3.776941 1.297312 5.46875 2.28125l2.78125-2.75c.778348-.778349 1.984727-.82777 2.75-.0625l5.40625 5.40625c.234022.233996.38464.520868.46875.8125.165867-.630439.02775-1.316052-.46875-1.8125l-5.40625-5.40625c-.382637-.382635-.880453-.57649-1.375-.5625zm-35.0625 12.15625c-.812756 1.508863-1.487562 3.123824-1.9375 4.8125h-3.875c-1.100753 0-2 .855244-2 1.9375v1c0-1.082256.899247-1.9375 2-1.9375h3.875c.51561-1.935151 1.297316-3.776947 2.28125-5.46875zm39.375 0l-.34375.34375c.983933 1.691803 1.765655 3.533599 2.28125 5.46875h3.875c1.100744 0 2 .855245 2 1.9375v-1c0-1.082255-.899256-1.9375-2-1.9375h-3.875c-.449925-1.688676-1.124742-3.303637-1.9375-4.8125zm-33.65625 11.0625c-.0059.16679-.03125.331775-.03125.5 0 7.731986 6.268014 14 14 14 7.731986 0 14-6.268014 14-14 0-.168225-.02537-.33321-.03125-.5-.264589 7.499218-6.404989 13.5-13.96875 13.5-7.563761 0-13.704161-6.000782-13.96875-13.5zm-5.71875 11.0625l-2.40625 2.4375c-.540353.540355-.722217 1.275367-.53125 1.9375.08981-.341377.257834-.664083.53125-.9375l2.75-2.78125c-.125321-.21548-.225122-.43602-.34375-.65625zm39.375 0c-.118628.22023-.218429.44077-.34375.65625l2.75 2.78125c.273388.273417.441444.596123.53125.9375.190945-.662133.009-1.397145-.53125-1.9375z" display="block" fill="#fff" opacity=".7" overflow="visible"/><path d="m25.375 32.0625c-.190945.662133-.009 1.397144.53125 1.9375l2.40625 2.4375c.118628-.22023.218429-.44077.34375-.65625l-2.75-2.78125c-.273387-.273417-.441444-.596123-.53125-.9375zm45.25 0c-.08982.341377-.257834.664083-.53125.9375l-2.75 2.78125c.125321.21548.225122.43602.34375.65625l2.40625-2.4375c.540353-.540355.722218-1.275367.53125-1.9375zm-22.625.9375c-7.731986 0-14 6.268014-14 14 0 .168225.02537.33321.03125.5.264589-7.499218 6.404989-13.5 13.96875-13.5 7.563761 0 13.704161 6.000782 13.96875 13.5.0059-.16679.03125-.331775.03125-.5 0-7.731986-6.268014-14-14-14zm-27.5 17.8125v1c0 1.082256.899247 1.9375 2 1.9375h3.875c.449938 1.688677 1.124744 3.303637 1.9375 4.8125l.34375-.34375c-.983934-1.691803-1.76564-3.533598-2.28125-5.46875h-3.875c-1.100753 0-2-.855244-2-1.9375zm55 0c0 1.082257-.899256 1.9375-2 1.9375h-3.875c-.515599 1.935152-1.297317 3.776947-2.28125 5.46875l.34375.34375c.812757-1.508863 1.487571-3.123823 1.9375-4.8125h3.875c1.100744 0 2-.855243 2-1.9375zm-50.125 12.125c-.165865.630439-.02775 1.316051.46875 1.8125l5.40625 5.40625c.765262.76527 1.971652.715847 2.75-.0625l2.78125-2.75c1.691808.983939 3.533603 1.765652 5.46875 2.28125v-1c-1.935147-.515598-3.776942-1.297311-5.46875-2.28125l-2.78125 2.75c-.778348.778347-1.984738.82777-2.75.0625l-5.40625-5.40625c-.234019-.233996-.38464-.520868-.46875-.8125zm45.25 0c-.0841.291632-.234756.578504-.46875.8125l-5.40625 5.40625c-.765273.765272-1.971652.71585-2.75-.0625l-2.78125-2.75c-1.691809.983939-3.533603 1.765652-5.46875 2.28125v1c1.935147-.515598 3.776941-1.297311 5.46875-2.28125l2.78125 2.75c.778348.77835 1.984727.827772 2.75.0625l5.40625-5.40625c.496443-.496448.634599-1.182061.46875-1.8125zm-28.375 9.5625v1c0 1.100754.855238 2 1.9375 2h7.625c1.082252 0 1.9375-.899246 1.9375-2v-1c0 1.100754-.855248 2-1.9375 2h-7.625c-1.082262 0-1.9375-.899246-1.9375-2z" display="block" opacity=".2" overflow="visible"/></svg>