<?xml version="1.0" encoding="UTF-8" standalone="no"?>
<svg
   xmlns:dc="http://purl.org/dc/elements/1.1/"
   xmlns:cc="http://creativecommons.org/ns#"
   xmlns:rdf="http://www.w3.org/1999/02/22-rdf-syntax-ns#"
   xmlns:svg="http://www.w3.org/2000/svg"
   xmlns="http://www.w3.org/2000/svg"
   xmlns:sodipodi="http://sodipodi.sourceforge.net/DTD/sodipodi-0.dtd"
   xmlns:inkscape="http://www.inkscape.org/namespaces/inkscape"
   version="1.1"
   width="200"
   height="200"
   id="svg2"
   inkscape:version="0.48.5 r10040"
   sodipodi:docname="ebay.svg">
  <metadata
     id="metadata12">
    <rdf:RDF>
      <cc:Work
         rdf:about="">
        <dc:format>image/svg+xml</dc:format>
        <dc:type
           rdf:resource="http://purl.org/dc/dcmitype/StillImage" />
      </cc:Work>
    </rdf:RDF>
  </metadata>
  <defs
     id="defs10" />
  <sodipodi:namedview
     pagecolor="#ffffff"
     bordercolor="#666666"
     borderopacity="1"
     objecttolerance="10"
     gridtolerance="10"
     guidetolerance="10"
     inkscape:pageopacity="0"
     inkscape:pageshadow="2"
     inkscape:window-width="1920"
     inkscape:window-height="1036"
     id="namedview8"
     showgrid="false"
     inkscape:zoom="3.3666667"
     inkscape:cx="144.88316"
     inkscape:cy="84.092838"
     inkscape:window-x="-2"
     inkscape:window-y="-3"
     inkscape:window-maximized="1"
     inkscape:current-layer="svg2" />
  <g
     id="g2989"
     transform="matrix(1.06305,0,0,1.0583213,-5.0314226,-5.3671576)">
    <path
       inkscape:connector-curvature="0"
       style="fill:#e53238;fill-opacity:1;stroke:none"
       d="m 62.034765,31.654913 c -21.145729,0 -38.766451,8.97108 -38.766451,36.036419 0,21.441707 11.84866,34.944408 39.312457,34.944408 32.326175,0 34.3984,-21.29425 34.3984,-21.29425 l -15.663557,0 c 0,0 -3.358398,11.466134 -19.690354,11.466134 -13.301932,0 -22.869203,-8.985845 -22.869203,-21.580814 l 59.861133,0 0,-7.903529 c 0,-12.460384 -7.91007,-31.668368 -36.582425,-31.668368 z M 61.488758,41.75603 c 12.662062,0 21.294248,7.757047 21.294248,19.383225 l -43.680508,0 c 0,-12.34261 11.267202,-19.383225 22.38626,-19.383225 z"
       id="e" />
    <path
       inkscape:connector-curvature="0"
       style="fill:#0064d2;fill-opacity:1;stroke:none"
       d="m 98.606079,5.4466074 0,83.5970236 c 0,4.745232 -0.338677,11.408079 -0.338677,11.408079 l 14.939728,0 c 0,0 0.53624,-4.78535 0.53624,-9.158697 0,0 7.3812,11.547477 27.45121,11.547477 21.13453,0 35.49041,-14.673014 35.49041,-35.695165 0,-19.556604 -13.18634,-35.28566 -35.45629,-35.28566 -20.85424,0 -27.33444,11.261381 -27.33444,11.261381 l 0,-37.6744386 z M 137.37253,42.19966 c 14.35199,0 23.47828,10.651661 23.47828,24.945665 0,15.327725 -10.54056,25.35517 -23.3759,25.35517 -15.31786,0 -23.58065,-11.960116 -23.58065,-25.218668 0,-12.354387 7.41445,-25.082167 23.47827,-25.082167 z"
       id="b" />
    <path
       inkscape:connector-curvature="0"
       style="fill:#f5af02;fill-opacity:1;stroke:none"
       d="m 62.328268,99.971745 c -31.81215,0 -33.85239,17.418775 -33.85239,20.202225 l 15.83418,0 c 0,0 0.83034,-10.16936 16.9262,-10.16936 10.45935,0 18.56422,4.78741 18.56422,13.99141 l 0,3.27604 -18.56422,0 c -24.64532,0 -37.67444,7.20973 -37.67444,21.84025 0,14.39854 12.03849,22.2327 28.30702,22.2327 22.17148,0 29.31371,-12.25102 29.31371,-12.25102 0,4.87278 0.37568,9.67455 0.37568,9.67455 l 14.07643,0 c 0,0 -0.54601,-5.95194 -0.54601,-9.75986 l 0,-32.91395 c 0,-21.58122 -17.40751,-26.122985 -32.76038,-26.122985 z m 17.47221,37.128425 0,4.36805 c 0,5.69713 -3.51553,19.86098 -24.21197,19.86098 -11.3333,0 -16.1925,-5.65615 -16.1925,-12.21689 0,-11.93527 16.36378,-12.01214 40.40447,-12.01214 z"
       id="a" />
    <path
       inkscape:connector-curvature="0"
       style="fill:#86b817;fill-opacity:1;stroke:none"
       d="m 86.562178,102.70453 17.813462,0 25.56479,51.21734 25.5063,-51.21734 16.13644,0 -46.45929,91.18302 -16.9262,0 13.40641,-25.41851 z"
       id="y" />
  </g>
</svg>
